<svg width="1220" height="1512" viewBox="0 0 1220 1512" fill="none" xmlns="http://www.w3.org/2000/svg">
<ellipse cx="816.515" cy="301.586" rx="167.08" ry="159.798" fill="#90BE6D"/>
<circle cx="886.5" cy="282.5" r="17.5" fill="black"/>
<circle cx="881.5" cy="277.5" r="7.5" fill="white"/>
<circle cx="749.5" cy="282.5" r="17.5" fill="black"/>
<circle cx="744.5" cy="277.5" r="7.5" fill="white"/>
<line x1="694.217" y1="1126.09" x2="632.324" y2="1491.09" stroke="#84B360" stroke-width="25"/>
<line x1="966.231" y1="1115.42" x2="1043.23" y2="1480.42" stroke="#84B360" stroke-width="25"/>
<ellipse cx="970.5" cy="1475" rx="80.5" ry="37" fill="#84B360"/>
<ellipse cx="574.5" cy="1475" rx="80.5" ry="37" fill="#84B360"/>
<ellipse cx="816.5" cy="172.5" rx="211.5" ry="30.5" fill="#F9C74F"/>
<path d="M687 68.6C687 34.6953 720.03 10.6213 752.306 21.0005L799.483 36.1709C809.257 39.314 819.761 39.3719 829.57 36.337L882.22 20.0452C914.388 10.0911 947 34.1372 947 67.8107V141C947 168.614 924.614 191 897 191H737C709.386 191 687 168.614 687 141V68.6Z" fill="#F9C74F"/>
<mask id="path-12-inside-1" fill="white">
<path d="M779.626 354.342C779.15 357.276 779.537 360.321 780.767 363.303C781.997 366.284 784.044 369.144 786.792 371.72C789.54 374.295 792.935 376.535 796.784 378.312C800.632 380.088 804.858 381.367 809.221 382.075C813.583 382.783 817.997 382.906 822.209 382.438C826.422 381.969 830.351 380.917 833.773 379.343C837.194 377.769 840.041 375.703 842.15 373.263C844.26 370.824 845.59 368.058 846.066 365.124L812.846 359.733L779.626 354.342Z"/>
</mask>
<path d="M779.626 354.342C779.15 357.276 779.537 360.321 780.767 363.303C781.997 366.284 784.044 369.144 786.792 371.72C789.54 374.295 792.935 376.535 796.784 378.312C800.632 380.088 804.858 381.367 809.221 382.075C813.583 382.783 817.997 382.906 822.209 382.438C826.422 381.969 830.351 380.917 833.773 379.343C837.194 377.769 840.041 375.703 842.15 373.263C844.26 370.824 845.59 368.058 846.066 365.124L812.846 359.733L779.626 354.342Z" fill="black" stroke="black" stroke-width="6" mask="url(#path-12-inside-1)"/>
<path d="M745.809 506.709C772.567 444.743 860.433 444.742 887.191 506.709L1119.51 1044.72C1141.46 1095.56 1104.19 1152.25 1048.82 1152.25H584.18C528.81 1152.25 491.539 1095.56 513.489 1044.72L745.809 506.709Z" fill="#90BE6D"/>
<ellipse rx="21.1709" ry="2.53748" transform="matrix(-0.568871 -0.822427 -0.822427 0.568871 583.13 312.855)" fill="#F9C74F"/>
<ellipse rx="21.1709" ry="2.53748" transform="matrix(-0.568871 -0.822427 -0.822427 0.568871 596.13 316.855)" fill="#F9C74F"/>
<ellipse rx="16.6192" ry="2.53748" transform="matrix(-0.568871 -0.822427 -0.822427 0.568871 574.72 314.598)" fill="#F9C74F"/>
<ellipse rx="13.8103" ry="2.53748" transform="matrix(-0.568871 -0.822427 -0.822427 0.568871 565.318 313.909)" fill="#F9C74F"/>
<ellipse rx="10.305" ry="2.53748" transform="matrix(-0.568871 -0.822427 -0.822427 0.568871 553.949 311.919)" fill="#F9C74F"/>
<ellipse rx="21.1709" ry="2.53748" transform="matrix(-0.559193 0.829038 0.829038 0.559193 582.942 347.97)" fill="#F9C74F"/>
<ellipse rx="21.1709" ry="2.53748" transform="matrix(-0.559193 0.829038 0.829038 0.559193 592.942 350.97)" fill="#F9C74F"/>
<ellipse rx="16.1079" ry="2.53748" transform="matrix(-0.559193 0.829038 0.829038 0.559193 574.773 338.773)" fill="#F9C74F"/>
<ellipse rx="12.259" ry="2.53748" transform="matrix(-0.559193 0.829038 0.829038 0.559193 564.926 331.582)" fill="#F9C74F"/>
<ellipse rx="8.17745" ry="2.53748" transform="matrix(-0.559193 0.829038 0.829038 0.559193 555.208 325.198)" fill="#F9C74F"/>
<line x1="787.701" y1="365.47" x2="556.701" y2="318.47" stroke="#F9C74F" stroke-width="3"/>
<path d="M437.662 917.004L731.991 541.983L685.065 733.56L451.299 970.264L437.662 917.004Z" fill="#90BE6D"/>
<path d="M1211.77 914.055L882 520.13L933.427 722.768L1195.87 970.753L1211.77 914.055Z" fill="#90BE6D"/>
<rect x="234" y="329.596" width="33" height="1166.09" rx="16.5" transform="rotate(-16.9053 234 329.596)" fill="#F9C74F"/>
<rect x="33" y="406.665" width="450.767" height="26.1522" rx="13.0761" transform="rotate(-23.074 33 406.665)" fill="#F9C74F"/>
<rect x="39.9766" y="422.822" width="103.707" height="8.1188" rx="4.0594" transform="rotate(-112.673 39.9766 422.822)" fill="#F9C74F"/>
<rect x="134.977" y="381.822" width="103.707" height="8.1188" rx="4.0594" transform="rotate(-112.673 134.977 381.822)" fill="#F9C74F"/>
<rect x="301.977" y="307.822" width="103.707" height="8.1188" rx="4.0594" transform="rotate(-112.673 301.977 307.822)" fill="#F9C74F"/>
<rect x="408.977" y="263.822" width="103.707" height="8.1188" rx="4.0594" transform="rotate(-112.673 408.977 263.822)" fill="#F9C74F"/>
<rect x="87.9766" y="401.822" width="103.707" height="8.1188" rx="4.0594" transform="rotate(-112.673 87.9766 401.822)" fill="#F9C74F"/>
<rect x="254.977" y="327.822" width="103.707" height="8.1188" rx="4.0594" transform="rotate(-112.673 254.977 327.822)" fill="#F9C74F"/>
<rect x="182.977" y="360.822" width="103.707" height="8.1188" rx="4.0594" transform="rotate(-112.673 182.977 360.822)" fill="#F9C74F"/>
<rect x="349.977" y="286.822" width="103.707" height="8.1188" rx="4.0594" transform="rotate(-112.673 349.977 286.822)" fill="#F9C74F"/>
<rect x="51.9766" y="418.822" width="103.707" height="8.1188" rx="4.0594" transform="rotate(-112.673 51.9766 418.822)" fill="#F9C74F"/>
<rect x="146.977" y="377.822" width="103.707" height="8.1188" rx="4.0594" transform="rotate(-112.673 146.977 377.822)" fill="#F9C74F"/>
<rect x="313.977" y="303.822" width="103.707" height="8.1188" rx="4.0594" transform="rotate(-112.673 313.977 303.822)" fill="#F9C74F"/>
<rect x="420.977" y="259.822" width="103.707" height="8.1188" rx="4.0594" transform="rotate(-112.673 420.977 259.822)" fill="#F9C74F"/>
<rect x="99.9766" y="397.822" width="103.707" height="8.1188" rx="4.0594" transform="rotate(-112.673 99.9766 397.822)" fill="#F9C74F"/>
<rect x="266.977" y="323.822" width="103.707" height="8.1188" rx="4.0594" transform="rotate(-112.673 266.977 323.822)" fill="#F9C74F"/>
<rect x="194.977" y="356.822" width="103.707" height="8.1188" rx="4.0594" transform="rotate(-112.673 194.977 356.822)" fill="#F9C74F"/>
<rect x="361.977" y="282.822" width="103.707" height="8.1188" rx="4.0594" transform="rotate(-112.673 361.977 282.822)" fill="#F9C74F"/>
<rect x="63.9766" y="412.822" width="103.707" height="8.1188" rx="4.0594" transform="rotate(-112.673 63.9766 412.822)" fill="#F9C74F"/>
<rect x="230.977" y="338.822" width="103.707" height="8.1188" rx="4.0594" transform="rotate(-112.673 230.977 338.822)" fill="#F9C74F"/>
<rect x="158.977" y="371.822" width="103.707" height="8.1188" rx="4.0594" transform="rotate(-112.673 158.977 371.822)" fill="#F9C74F"/>
<rect x="325.977" y="297.822" width="103.707" height="8.1188" rx="4.0594" transform="rotate(-112.673 325.977 297.822)" fill="#F9C74F"/>
<rect x="432.977" y="253.822" width="103.707" height="8.1188" rx="4.0594" transform="rotate(-112.673 432.977 253.822)" fill="#F9C74F"/>
<rect x="111.977" y="391.822" width="103.707" height="8.1188" rx="4.0594" transform="rotate(-112.673 111.977 391.822)" fill="#F9C74F"/>
<rect x="278.977" y="317.822" width="103.707" height="8.1188" rx="4.0594" transform="rotate(-112.673 278.977 317.822)" fill="#F9C74F"/>
<rect x="206.977" y="350.822" width="103.707" height="8.1188" rx="4.0594" transform="rotate(-112.673 206.977 350.822)" fill="#F9C74F"/>
<rect x="373.977" y="276.822" width="103.707" height="8.1188" rx="4.0594" transform="rotate(-112.673 373.977 276.822)" fill="#F9C74F"/>
<rect x="75.9766" y="406.822" width="103.707" height="8.1188" rx="4.0594" transform="rotate(-112.673 75.9766 406.822)" fill="#F9C74F"/>
<rect x="242.977" y="332.822" width="103.707" height="8.1188" rx="4.0594" transform="rotate(-112.673 242.977 332.822)" fill="#F9C74F"/>
<rect x="170.977" y="365.822" width="103.707" height="8.1188" rx="4.0594" transform="rotate(-112.673 170.977 365.822)" fill="#F9C74F"/>
<rect x="337.977" y="291.822" width="103.707" height="8.1188" rx="4.0594" transform="rotate(-112.673 337.977 291.822)" fill="#F9C74F"/>
<rect x="446.863" y="252.337" width="108.601" height="8.1188" rx="4.0594" transform="rotate(-112.673 446.863 252.337)" fill="#F9C74F"/>
<rect x="123.977" y="385.822" width="103.707" height="8.1188" rx="4.0594" transform="rotate(-112.673 123.977 385.822)" fill="#F9C74F"/>
<rect x="290.977" y="311.822" width="103.707" height="8.1188" rx="4.0594" transform="rotate(-112.673 290.977 311.822)" fill="#F9C74F"/>
<rect x="397.977" y="267.822" width="103.707" height="8.1188" rx="4.0594" transform="rotate(-112.673 397.977 267.822)" fill="#F9C74F"/>
<rect x="218.977" y="344.822" width="103.707" height="8.1188" rx="4.0594" transform="rotate(-112.673 218.977 344.822)" fill="#F9C74F"/>
<rect x="385.977" y="270.822" width="103.707" height="8.1188" rx="4.0594" transform="rotate(-112.673 385.977 270.822)" fill="#F9C74F"/>
</svg>
