<svg width="5609" height="4693" viewBox="0 0 5609 4693" fill="none" xmlns="http://www.w3.org/2000/svg">
<path d="M5609 3739.68C5609 4295.9 5257.26 4279.1 4651.69 4454.76C4084.75 4619.21 2892.31 4647.53 2489.77 4647.53C2045.89 4647.53 312.953 4857.6 58.0447 4366.26C-128.566 4006.56 194.472 3110.88 194.472 2617.44C194.472 2415.88 581.034 1670.47 664.312 1497.35C820.058 1173.6 1203.43 573.265 1365 324.554C1478.68 149.559 1967.91 62.9042 2295.18 13.6474C2565.48 -78.3096 2943.82 324.554 3157 324.554C3369.27 324.554 3877.15 825.076 4074 1058.16C4250.44 1267.08 4306.95 1497.94 4427.09 1693.98C4540.24 1878.63 4784.32 2119.1 4871.18 2303.08C4961.86 2495.16 5609 3455.59 5609 3739.68Z" fill="url(#paint0_linear)"/>
<path d="M4284 3432.33C4284 3795.42 4046.26 3951.11 3838.84 4197.49C3610.9 4468.25 3027.35 4427.23 2666.35 4427.23C2268.27 4427.23 1760.43 4518.24 1531.83 4197.49C1364.48 3962.69 1141 3563.33 1141 3241.22C1141 3109.64 1354.3 2880.38 1428.98 2767.37C1568.65 2556.03 1560.46 2281.64 1705.36 2119.28C1807.31 2005.05 2125.33 1999.88 2248.62 1876.46C2399.09 1725.82 2475.16 1646.16 2666.35 1646.16C2856.72 1646.16 3054.17 1897.43 3230.71 2049.58C3388.94 2185.96 3731.1 2338.12 3838.84 2466.09C3940.32 2586.63 4032.05 2814.78 4109.95 2934.88C4191.27 3060.26 4284 3246.87 4284 3432.33Z" fill="url(#paint1_radial)"/>
<path d="M3395 3638.8C3395 3702.76 3350.37 3730.19 3311.44 3773.59C3268.65 3821.28 3159.1 3814.06 3091.34 3814.06C3016.61 3814.06 2921.28 3830.09 2878.37 3773.59C2846.95 3732.23 2805 3661.88 2805 3605.14C2805 3581.96 2845.04 3541.57 2859.06 3521.67C2885.28 3484.44 2883.74 3436.1 2910.94 3407.5C2930.08 3387.38 2989.78 3386.47 3012.92 3364.73C3041.17 3338.19 3055.45 3324.16 3091.34 3324.16C3127.07 3324.16 3164.14 3368.42 3197.28 3395.22C3226.98 3419.25 3291.21 3446.05 3311.44 3468.59C3330.48 3489.83 3347.7 3530.02 3362.33 3551.17C3377.59 3573.26 3395 3606.13 3395 3638.8Z" fill="url(#paint2_radial)"/>
<rect width="139.859" height="31.3386" transform="matrix(0.679228 -0.733927 0.798671 0.601768 2978.16 3612.54)" fill="#6C4C39"/>
<rect width="133.832" height="32.5877" transform="matrix(0.0910822 -0.995843 0.997239 0.0742574 3065.59 3643.16)" fill="#6C4C39"/>
<rect width="136.753" height="31.9953" transform="matrix(-0.485122 -0.874447 0.911353 -0.411626 3147.45 3637.18)" fill="#6C4C39"/>
<rect width="142.598" height="30.7354" transform="matrix(-0.805274 -0.592903 0.67075 -0.741683 3204.64 3617.23)" fill="#6C4C39"/>
<path d="M3219.71 3480.13C3219.71 3542.53 3172.92 3570.52 3096.78 3570.52C3020.63 3570.52 2969.52 3529.33 2969.52 3466.94C2969.52 3451.5 2965.96 3433.7 2969.52 3414C2977.56 3455.15 3018.38 3445.05 3021.44 3450.84C3021.44 3438.49 3037.12 3383.74 3044.63 3352.94C3050.94 3386.76 3095.57 3429.98 3100.02 3438.94C3105.78 3423.9 3142.52 3414 3154.58 3354.95C3160.8 3324.52 3169.14 3450.84 3169.14 3462.41C3192.34 3437.87 3208.11 3440.26 3224.03 3414C3228.52 3434.15 3219.71 3464.7 3219.71 3480.13Z" fill="#F3722C"/>
<path d="M3170.03 3506.52C3170.03 3538.87 3142.12 3553.39 3096.71 3553.39C3051.3 3553.39 3020.82 3532.03 3020.82 3499.68C3020.82 3491.68 3018.7 3482.45 3020.82 3472.23C3025.61 3493.57 3049.96 3488.33 3051.78 3491.33C3051.78 3484.93 3061.14 3456.54 3065.62 3440.57C3069.38 3458.11 3095.99 3480.51 3098.65 3485.16C3102.08 3477.36 3123.99 3472.23 3131.19 3441.61C3134.89 3425.83 3139.87 3491.33 3139.87 3497.33C3153.71 3484.61 3163.11 3485.85 3172.6 3472.23C3175.29 3482.68 3170.03 3498.52 3170.03 3506.52Z" fill="#F9C74F"/>
<path d="M3044.91 3190.32L3038.48 3223.5L3059.41 3262.49L3043.26 3296.18L3048.03 3318.42" stroke="#B0AFAF" stroke-width="10"/>
<path d="M3094.52 3162.58L3088.09 3195.76L3109.03 3234.75L3092.87 3268.45L3097.64 3290.68" stroke="#B0AFAF" stroke-width="10"/>
<path d="M3142.82 3201.75L3136.16 3234.71L3157.86 3273.46L3141.11 3306.93L3146.06 3329.02" stroke="#B0AFAF" stroke-width="10"/>
<ellipse cx="2530.53" cy="3020.03" rx="111.418" ry="122.868" fill="url(#paint3_linear)"/>
<path d="M2530.53 3098.92L2763.57 3709.6H2297.5L2530.53 3098.92Z" fill="url(#paint4_linear)"/>
<path d="M2531 3099L2862.69 3537H2199.31L2531 3099Z" fill="url(#paint5_linear)"/>
<defs>
<linearGradient id="paint0_linear" x1="2804.5" y1="-16.8403" x2="2950.85" y2="9578.37" gradientUnits="userSpaceOnUse">
<stop stop-color="#323031"/>
<stop offset="1" stop-color="#A96363" stop-opacity="0"/>
</linearGradient>
<radialGradient id="paint1_radial" cx="0" cy="0" r="1" gradientUnits="userSpaceOnUse" gradientTransform="translate(2712.5 3042.66) rotate(88.4397) scale(3442.91 3874.33)">
<stop/>
<stop offset="1" stop-opacity="0"/>
</radialGradient>
<radialGradient id="paint2_radial" cx="0" cy="0" r="1" gradientUnits="userSpaceOnUse" gradientTransform="translate(3100 3570.16) rotate(90) scale(321.692 385.607)">
<stop stop-color="#EBC84D"/>
<stop offset="0.390625" stop-color="#776527" stop-opacity="0.505208"/>
<stop offset="0.739583" stop-opacity="0"/>
</radialGradient>
<linearGradient id="paint3_linear" x1="2530.53" y1="2897.16" x2="2530.53" y2="3142.9" gradientUnits="userSpaceOnUse">
<stop stop-color="white"/>
<stop offset="1" stop-color="#454444" stop-opacity="0"/>
</linearGradient>
<linearGradient id="paint4_linear" x1="2530.53" y1="3098.92" x2="2530.53" y2="3913.16" gradientUnits="userSpaceOnUse">
<stop stop-color="white"/>
<stop offset="1" stop-color="#454444" stop-opacity="0"/>
</linearGradient>
<linearGradient id="paint5_linear" x1="2531" y1="3099" x2="2531" y2="3683" gradientUnits="userSpaceOnUse">
<stop stop-color="white"/>
<stop offset="1" stop-color="#454444" stop-opacity="0"/>
</linearGradient>
</defs>
</svg>
