<svg width="986" height="2056" viewBox="0 0 986 2056" fill="none" xmlns="http://www.w3.org/2000/svg">
<path d="M151.164 1452.75C148.158 1441.45 150.706 1429.39 158.027 1420.27L450.541 1055.91C484.079 1014.14 550.932 1047.22 538.068 1099.22L525.539 1149.87C523.329 1158.81 518.694 1166.96 512.145 1173.43L212.558 1469.46C192.467 1489.31 158.424 1480.05 151.164 1452.75V1452.75Z" fill="#F94144"/>
<ellipse cx="506.543" cy="875.28" rx="167.08" ry="162.197" fill="#F94144"/>
<path d="M435.866 1081.27C462.67 1019.44 550.358 1019.44 577.162 1081.27L809.314 1616.82C831.355 1667.67 794.083 1724.45 738.666 1724.45H274.362C218.945 1724.45 181.674 1667.67 203.714 1616.82L435.866 1081.27Z" fill="#F94144"/>
<path d="M572 926.794C572 921.213 570.306 915.686 567.014 910.53C563.722 905.374 558.898 900.688 552.815 896.742C546.733 892.795 539.513 889.665 531.566 887.529C523.619 885.393 515.102 884.294 506.5 884.294C497.898 884.294 489.381 885.393 481.434 887.529C473.487 889.665 466.267 892.795 460.185 896.742C454.102 900.688 449.278 905.374 445.986 910.53C442.694 915.686 441 921.213 441 926.794L506.5 926.794H572Z" fill="#773E1E"/>
<path d="M496.5 845.794C496.5 866.175 479.318 882.794 458 882.794C436.682 882.794 419.5 866.175 419.5 845.794C419.5 825.413 436.682 808.794 458 808.794C479.318 808.794 496.5 825.413 496.5 845.794Z" stroke="black" stroke-width="3"/>
<path d="M593.5 845.794C593.5 866.175 576.318 882.794 555 882.794C533.682 882.794 516.5 866.175 516.5 845.794C516.5 825.413 533.682 808.794 555 808.794C576.318 808.794 593.5 825.413 593.5 845.794Z" stroke="black" stroke-width="3"/>
<line x1="420.249" y1="839.593" x2="356.249" y2="802.593" stroke="black" stroke-width="3"/>
<line x1="594.171" y1="840.897" x2="655.783" y2="800.043" stroke="black" stroke-width="3"/>
<line x1="496.01" y1="847.794" x2="518.01" y2="847.941" stroke="black" stroke-width="3"/>
<path d="M86.5 1182.79H277.5V1477.73L86.5 1455.85V1448.79V1182.79Z" fill="#F8961E" stroke="black"/>
<path d="M487.5 1182.79H293.5V1477.73L487.5 1455.85V1448.79V1182.79Z" fill="#F8961E" stroke="black"/>
<path d="M487.5 1182.79V1168.79L288.5 1182.79H487.5Z" fill="white"/>
<path d="M86.5 1182.79V1163.79L286 1182.79H86.5Z" fill="white"/>
<path d="M487.5 1182.79V1168.79L288.5 1182.79H487.5Z" stroke="black"/>
<path d="M86.5 1182.79V1163.79L286 1182.79H86.5Z" stroke="black"/>
<path d="M286.953 1182.79L86.9526 1163.79" stroke="black"/>
<line x1="286.965" y1="1182.8" x2="487.452" y2="1168.8" stroke="black"/>
<line x1="86.0389" y1="1167.8" x2="278.039" y2="1182.8" stroke="black"/>
<line x1="86.0194" y1="1174.79" x2="266.019" y2="1181.79" stroke="black"/>
<line x1="86.0083" y1="1178.79" x2="266.008" y2="1181.79" stroke="black"/>
<line x1="303.967" y1="1182.8" x2="487.967" y2="1170.8" stroke="black"/>
<line x1="303.976" y1="1181.79" x2="487.976" y2="1172.79" stroke="black"/>
<line x1="306.983" y1="1181.79" x2="487.983" y2="1175.79" stroke="black"/>
<line x1="487.5" y1="1183.29" x2="487.5" y2="1168.29" stroke="black"/>
<path d="M661.487 815.009C664.058 811.893 665.094 807.563 664.538 802.265C663.981 796.967 661.842 790.805 658.242 784.132C654.643 777.458 649.653 770.403 643.559 763.37C637.464 756.337 630.384 749.463 622.722 743.141C615.061 736.819 606.968 731.173 598.905 726.524C590.843 721.876 582.969 718.317 575.734 716.05C568.498 713.782 562.042 712.852 556.735 713.311C551.428 713.771 547.373 715.611 544.802 718.726L603.144 766.868L661.487 815.009Z" fill="#773E1E"/>
<path d="M457.779 720.175C454.979 717.263 450.83 715.703 445.568 715.584C440.307 715.466 434.036 716.791 427.113 719.484C420.191 722.177 412.752 726.185 405.223 731.28C397.693 736.374 390.22 742.455 383.23 749.176C376.24 755.896 369.869 763.125 364.482 770.448C359.096 777.771 354.798 785.046 351.835 791.858C348.872 798.669 347.301 804.883 347.213 810.145C347.124 815.408 348.52 819.615 351.319 822.527L404.549 771.351L457.779 720.175Z" fill="#773E1E"/>
<line x1="87.0341" y1="1170.5" x2="265.04" y2="1182.68" stroke="black"/>
<rect x="148" y="117" width="702" height="418" rx="30" fill="#323031"/>
<path d="M499.334 606.455L461.28 534.744L533.948 533.175L499.334 606.455Z" fill="#323031"/>
<line x1="475.5" y1="1176.29" x2="475.5" y2="1162.29" stroke="black"/>
<circle cx="545.5" cy="839.791" r="17.5" fill="black"/>
<circle cx="542.5" cy="843.791" r="7.5" fill="white"/>
<circle cx="445.5" cy="843.791" r="17.5" fill="black"/>
<circle cx="441.5" cy="847.791" r="7.5" fill="white"/>
<path d="M298.993 1175.94L479 1172.5" stroke="black"/>
<rect x="276.5" y="1179.5" width="21" height="296" fill="#F8961E" stroke="black"/>
<rect x="378" y="1667.83" width="92.5382" height="349.493" rx="46.2691" transform="rotate(-0.516261 378 1667.83)" fill="#F94144"/>
<rect x="517" y="1668.83" width="92.5382" height="349.493" rx="46.2691" transform="rotate(-0.516261 517 1668.83)" fill="#F94144"/>
<path d="M241.8 189.96C243.88 189.96 246.093 190.2 248.44 190.68C250.84 191.107 253.133 191.827 255.32 192.84C257.56 193.8 259.427 195.053 260.92 196.6L256.68 201.56C255.027 200.227 253.48 199.133 252.04 198.28C250.6 197.427 249.08 196.787 247.48 196.36C245.933 195.933 244.04 195.72 241.8 195.72C238.28 195.72 235.293 196.387 232.84 197.72C230.44 199.053 228.467 200.867 226.92 203.16C225.427 205.453 224.333 208.04 223.64 210.92C222.947 213.8 222.6 216.787 222.6 219.88C222.6 222.813 222.92 225.72 223.56 228.6C224.2 231.427 225.24 234.013 226.68 236.36C228.12 238.707 230.013 240.573 232.36 241.96C234.707 243.347 237.587 244.04 241 244.04C243.827 244.04 246.253 243.427 248.28 242.2C250.36 240.92 251.96 239.213 253.08 237.08C254.253 234.893 254.84 232.44 254.84 229.72V224.44H240.52L241.48 219H262.36V235.72C262.36 237.907 262.44 240.12 262.6 242.36C262.813 244.6 262.973 246.813 263.08 249H259.08L256.52 242.92C254.173 245.427 251.64 247.24 248.92 248.36C246.253 249.427 243.187 249.96 239.72 249.96C235.507 249.96 231.827 249.187 228.68 247.64C225.587 246.04 223 243.88 220.92 241.16C218.84 238.387 217.293 235.24 216.28 231.72C215.267 228.2 214.76 224.493 214.76 220.6C214.76 214.893 215.747 209.747 217.72 205.16C219.747 200.52 222.76 196.84 226.76 194.12C230.76 191.347 235.773 189.96 241.8 189.96ZM279.162 195.88C279.162 197.213 278.682 198.36 277.723 199.32C276.816 200.28 275.669 200.76 274.282 200.76C272.949 200.76 271.802 200.28 270.842 199.32C269.936 198.36 269.482 197.213 269.482 195.88C269.482 194.547 269.936 193.4 270.842 192.44C271.802 191.48 272.949 191 274.282 191C275.616 191 276.762 191.48 277.723 192.44C278.682 193.4 279.162 194.547 279.162 195.88ZM277.723 209.24V249H271.082V213.96L270.122 209.24H277.723ZM307.598 208.68C308.345 210.493 308.851 212.333 309.118 214.2C310.558 212.813 312.318 211.48 314.398 210.2C316.478 208.92 318.585 208.28 320.718 208.28C323.278 208.28 325.465 208.813 327.278 209.88C329.091 210.893 330.558 212.573 331.678 214.92C333.278 213.32 335.171 211.827 337.358 210.44C339.545 209 341.785 208.28 344.078 208.28C348.505 208.28 351.625 209.613 353.438 212.28C355.305 214.947 356.238 218.333 356.238 222.44V249H349.598V224.6C349.598 223 349.465 221.4 349.198 219.8C348.985 218.2 348.398 216.867 347.438 215.8C346.531 214.733 345.038 214.2 342.958 214.2C341.091 214.2 339.251 214.813 337.438 216.04C335.625 217.213 334.105 218.413 332.878 219.64V249H326.238V224.6C326.238 222.947 326.105 221.347 325.838 219.8C325.625 218.2 325.038 216.867 324.078 215.8C323.171 214.733 321.678 214.2 319.598 214.2C318.425 214.2 317.225 214.493 315.998 215.08C314.771 215.613 313.598 216.307 312.478 217.16C311.358 217.96 310.371 218.733 309.518 219.48V249H302.878V220.12C302.878 218.467 302.665 216.653 302.238 214.68C301.865 212.653 301.225 210.92 300.318 209.48L307.598 208.68ZM381.206 208.28C386.006 208.28 389.633 209.72 392.086 212.6C394.593 215.427 395.846 219.16 395.846 223.8C395.846 224.547 395.793 225.32 395.686 226.12C395.633 226.867 395.553 227.667 395.446 228.52H370.166C370.166 233.587 371.286 237.507 373.526 240.28C375.766 243.053 378.753 244.44 382.486 244.44C385.526 244.44 388.886 243.48 392.566 241.56L395.046 245.56C393.18 247.053 391.073 248.173 388.726 248.92C386.38 249.667 384.006 250.04 381.606 250.04C377.446 250.04 373.98 249.053 371.206 247.08C368.486 245.107 366.46 242.547 365.126 239.4C363.793 236.253 363.126 232.973 363.126 229.56C363.126 226.893 363.5 224.307 364.246 221.8C364.993 219.293 366.113 217.027 367.606 215C369.153 212.92 371.046 211.293 373.286 210.12C375.526 208.893 378.166 208.28 381.206 208.28ZM380.566 213.32C378.753 213.32 377.153 213.827 375.766 214.84C374.38 215.853 373.26 217.16 372.406 218.76C371.553 220.307 370.966 221.907 370.646 223.56H388.886C388.993 220.253 388.3 217.72 386.806 215.96C385.313 214.2 383.233 213.32 380.566 213.32ZM413.538 208.28C415.084 208.28 416.551 208.467 417.938 208.84C419.378 209.213 420.844 209.4 422.338 209.4C424.364 209.4 426.418 209.293 428.498 209.08C430.578 208.813 432.764 208.52 435.058 208.2L433.618 213.96H427.218C426.844 213.96 426.444 213.96 426.018 213.96C425.644 213.907 425.271 213.853 424.898 213.8C426.711 216.253 427.618 218.893 427.618 221.72C427.618 225.773 426.311 229.133 423.698 231.8C421.084 234.413 417.324 235.72 412.418 235.72C411.084 235.72 409.911 236.067 408.898 236.76C407.884 237.453 407.378 238.52 407.378 239.96C407.378 240.92 407.618 241.613 408.098 242.04C408.631 242.413 409.271 242.627 410.018 242.68C410.764 242.733 411.511 242.76 412.258 242.76H420.018C421.884 242.76 423.778 242.947 425.698 243.32C427.618 243.693 429.218 244.467 430.498 245.64C431.831 246.813 432.498 248.627 432.498 251.08C432.498 254.013 431.911 256.52 430.738 258.6C429.564 260.68 427.991 262.36 426.018 263.64C424.044 264.973 421.831 265.933 419.378 266.52C416.924 267.107 414.444 267.4 411.938 267.4C410.444 267.4 408.871 267.213 407.218 266.84C405.564 266.52 403.991 265.96 402.498 265.16C401.058 264.413 399.884 263.4 398.978 262.12C398.071 260.84 397.618 259.24 397.618 257.32C397.618 255.293 398.231 253.507 399.458 251.96C400.738 250.413 402.204 249.107 403.858 248.04V247.8C401.351 246.52 400.098 244.6 400.098 242.04C400.098 241.347 400.364 240.707 400.898 240.12C401.431 239.48 402.098 238.653 402.898 237.64C403.751 236.627 404.658 235.24 405.618 233.48C403.751 232.2 402.258 230.573 401.138 228.6C400.018 226.573 399.458 224.413 399.458 222.12C399.458 219.507 400.098 217.16 401.378 215.08C402.658 213 404.364 211.347 406.497 210.12C408.684 208.893 411.031 208.28 413.538 208.28ZM413.618 213.08C411.644 213.08 409.938 213.96 408.498 215.72C407.111 217.427 406.418 219.533 406.418 222.04C406.418 224.6 407.111 226.76 408.498 228.52C409.938 230.227 411.618 231.08 413.538 231.08C415.724 231.08 417.458 230.253 418.738 228.6C420.071 226.947 420.738 224.787 420.738 222.12C420.738 219.56 420.018 217.427 418.578 215.72C417.191 213.96 415.538 213.08 413.618 213.08ZM408.578 249.08C407.564 249.827 406.631 250.84 405.778 252.12C404.924 253.453 404.498 254.733 404.498 255.96C404.498 257.24 404.951 258.333 405.858 259.24C406.818 260.147 407.964 260.813 409.298 261.24C410.684 261.72 411.964 261.96 413.138 261.96C415.004 261.96 416.951 261.693 418.978 261.16C421.058 260.627 422.791 259.72 424.178 258.44C425.618 257.213 426.338 255.533 426.338 253.4C426.338 252.013 425.911 251 425.058 250.36C424.204 249.773 423.138 249.4 421.858 249.24C420.631 249.133 419.404 249.08 418.178 249.08H408.578ZM465.62 208.28C467.433 208.28 469.22 208.52 470.98 209C472.793 209.427 474.447 210.12 475.94 211.08L473.62 216.2C472.447 215.24 471.14 214.52 469.7 214.04C468.26 213.56 466.847 213.32 465.46 213.32C463.487 213.32 461.753 213.773 460.26 214.68C458.82 215.587 458.1 216.947 458.1 218.76C458.1 220.733 458.74 222.2 460.02 223.16C461.353 224.12 462.927 225.027 464.74 225.88C466.5 226.68 468.26 227.587 470.02 228.6C471.833 229.56 473.353 230.813 474.58 232.36C475.807 233.853 476.42 235.88 476.42 238.44C476.42 241.107 475.753 243.32 474.42 245.08C473.14 246.787 471.433 248.04 469.3 248.84C467.22 249.64 464.953 250.04 462.5 250.04C460.367 250.04 458.233 249.747 456.1 249.16C453.967 248.573 451.993 247.747 450.18 246.68L452.98 241.8C454.26 242.76 455.7 243.533 457.3 244.12C458.9 244.707 460.447 245 461.94 245C463.967 245 465.727 244.52 467.22 243.56C468.767 242.6 469.54 241.16 469.54 239.24C469.54 237.907 469.113 236.813 468.26 235.96C467.46 235.053 466.42 234.253 465.14 233.56C463.86 232.867 462.527 232.2 461.14 231.56C459.54 230.76 457.967 229.907 456.42 229C454.927 228.04 453.7 226.84 452.74 225.4C451.78 223.96 451.3 222.12 451.3 219.88C451.3 217.32 451.967 215.187 453.3 213.48C454.687 211.773 456.473 210.493 458.66 209.64C460.847 208.733 463.167 208.28 465.62 208.28ZM498.475 250.04C494.582 250.04 491.302 249.08 488.635 247.16C486.022 245.187 484.048 242.627 482.715 239.48C481.435 236.333 480.795 232.973 480.795 229.4C480.795 225.827 481.488 222.44 482.875 219.24C484.315 215.987 486.395 213.347 489.115 211.32C491.835 209.293 495.115 208.28 498.955 208.28C502.902 208.28 506.182 209.24 508.795 211.16C511.462 213.08 513.435 215.613 514.715 218.76C516.048 221.907 516.715 225.293 516.715 228.92C516.715 232.547 516.022 235.987 514.635 239.24C513.248 242.44 511.195 245.053 508.475 247.08C505.755 249.053 502.422 250.04 498.475 250.04ZM498.555 245C500.635 245 502.368 244.52 503.755 243.56C505.195 242.547 506.342 241.24 507.195 239.64C508.102 238.04 508.742 236.333 509.115 234.52C509.488 232.653 509.675 230.867 509.675 229.16C509.675 227.4 509.488 225.613 509.115 223.8C508.795 221.933 508.235 220.227 507.435 218.68C506.635 217.08 505.515 215.8 504.075 214.84C502.688 213.827 500.955 213.32 498.875 213.32C496.795 213.32 495.035 213.827 493.595 214.84C492.208 215.8 491.088 217.08 490.235 218.68C489.382 220.28 488.768 222.013 488.395 223.88C488.022 225.693 487.835 227.453 487.835 229.16C487.835 230.813 488.022 232.573 488.395 234.44C488.768 236.253 489.355 237.96 490.155 239.56C491.008 241.16 492.128 242.467 493.515 243.48C494.902 244.493 496.582 245 498.555 245ZM530.404 188.04V249H523.764V192.68L522.724 188.04H530.404ZM542.562 239.08C544.482 239.08 545.949 239.773 546.962 241.16C548.029 242.493 548.562 244.067 548.562 245.88C548.562 248.653 547.735 251.16 546.082 253.4C544.482 255.693 542.589 257.613 540.402 259.16C539.442 258.307 538.535 257.4 537.682 256.44C538.375 255.693 539.202 254.813 540.162 253.8C541.122 252.787 541.602 251.773 541.602 250.76C541.602 250.013 541.255 249.4 540.562 248.92C539.922 248.387 539.255 247.747 538.562 247C537.922 246.253 537.602 245.213 537.602 243.88C537.602 242.493 538.082 241.347 539.042 240.44C540.055 239.533 541.229 239.08 542.562 239.08ZM584.308 208.28C586.121 208.28 587.908 208.52 589.668 209C591.481 209.427 593.134 210.12 594.628 211.08L592.308 216.2C591.134 215.24 589.828 214.52 588.388 214.04C586.948 213.56 585.534 213.32 584.148 213.32C582.174 213.32 580.441 213.773 578.948 214.68C577.508 215.587 576.788 216.947 576.788 218.76C576.788 220.733 577.428 222.2 578.708 223.16C580.041 224.12 581.614 225.027 583.428 225.88C585.188 226.68 586.948 227.587 588.708 228.6C590.521 229.56 592.041 230.813 593.268 232.36C594.494 233.853 595.108 235.88 595.108 238.44C595.108 241.107 594.441 243.32 593.108 245.08C591.828 246.787 590.121 248.04 587.988 248.84C585.908 249.64 583.641 250.04 581.188 250.04C579.054 250.04 576.921 249.747 574.788 249.16C572.654 248.573 570.681 247.747 568.868 246.68L571.668 241.8C572.948 242.76 574.388 243.533 575.988 244.12C577.588 244.707 579.134 245 580.628 245C582.654 245 584.414 244.52 585.908 243.56C587.454 242.6 588.228 241.16 588.228 239.24C588.228 237.907 587.801 236.813 586.948 235.96C586.148 235.053 585.108 234.253 583.828 233.56C582.548 232.867 581.214 232.2 579.828 231.56C578.228 230.76 576.654 229.907 575.108 229C573.614 228.04 572.388 226.84 571.428 225.4C570.468 223.96 569.988 222.12 569.988 219.88C569.988 217.32 570.654 215.187 571.988 213.48C573.374 211.773 575.161 210.493 577.348 209.64C579.534 208.733 581.854 208.28 584.308 208.28ZM609.322 188.04V249H602.682V192.68L601.642 188.04H609.322ZM627.641 195.88C627.641 197.213 627.161 198.36 626.201 199.32C625.294 200.28 624.147 200.76 622.761 200.76C621.427 200.76 620.281 200.28 619.321 199.32C618.414 198.36 617.961 197.213 617.961 195.88C617.961 194.547 618.414 193.4 619.321 192.44C620.281 191.48 621.427 191 622.761 191C624.094 191 625.241 191.48 626.201 192.44C627.161 193.4 627.641 194.547 627.641 195.88ZM626.201 209.24V249H619.561V213.96L618.601 209.24H626.201ZM642.839 188.04V225.64L657.719 209.24H664.839L649.559 225.96L666.999 249H659.079L642.839 227.4V249H636.199V192.76L635.159 188.04H642.839ZM695.121 208.28C699.335 208.28 702.508 209.427 704.641 211.72C706.775 214.013 707.841 217.24 707.841 221.4V241.32C707.841 242.44 708.055 243.213 708.481 243.64C708.908 244.013 709.415 244.2 710.001 244.2C710.481 244.2 710.988 244.147 711.521 244.04C712.055 243.88 712.561 243.693 713.041 243.48L714.481 247.8C713.628 248.28 712.535 248.707 711.201 249.08C709.921 249.507 708.588 249.72 707.201 249.72C705.815 249.72 704.561 249.347 703.441 248.6C702.321 247.8 701.628 246.36 701.361 244.28C699.815 245.933 698.001 247.293 695.921 248.36C693.841 249.373 691.655 249.88 689.361 249.88C686.215 249.88 683.601 248.947 681.521 247.08C679.441 245.213 678.401 242.653 678.401 239.4C678.401 236.36 679.121 233.933 680.561 232.12C682.055 230.307 683.975 228.947 686.321 228.04C688.668 227.133 691.148 226.52 693.761 226.2C696.428 225.88 698.908 225.72 701.201 225.72V221.48C701.201 219.24 700.748 217.347 699.841 215.8C698.935 214.253 697.175 213.48 694.561 213.48C692.535 213.48 690.588 213.88 688.721 214.68C686.855 215.48 684.988 216.653 683.121 218.2L679.841 213.48C682.028 211.72 684.428 210.413 687.041 209.56C689.655 208.707 692.348 208.28 695.121 208.28ZM701.201 230.92C699.761 230.92 698.135 231 696.321 231.16C694.508 231.267 692.748 231.587 691.041 232.12C689.335 232.6 687.921 233.4 686.801 234.52C685.735 235.64 685.201 237.187 685.201 239.16C685.201 240.92 685.788 242.227 686.961 243.08C688.188 243.88 689.708 244.28 691.521 244.28C693.441 244.28 695.121 243.747 696.561 242.68C698.001 241.613 699.121 240.253 699.921 238.6C700.775 236.947 701.201 235.24 701.201 233.48V230.92ZM726.972 197.88C726.599 199.693 726.252 201.587 725.932 203.56C725.666 205.48 725.479 207.373 725.372 209.24H735.772L734.412 214.28H725.372V239.72C725.372 241.267 725.639 242.493 726.172 243.4C726.759 244.307 727.906 244.76 729.612 244.76C730.466 244.76 731.319 244.68 732.172 244.52C733.026 244.36 733.852 244.173 734.652 243.96L735.772 248.44C734.439 248.813 733.159 249.133 731.932 249.4C730.759 249.72 729.399 249.88 727.852 249.88C724.439 249.88 722.066 248.973 720.732 247.16C719.399 245.347 718.732 242.813 718.732 239.56V214.28H712.812V210.28C714.946 210.227 716.626 209.533 717.852 208.2C719.079 206.813 720.012 205.16 720.652 203.24C721.292 201.32 721.772 199.533 722.092 197.88H726.972ZM225.96 292.88C225.96 294.213 225.48 295.36 224.52 296.32C223.613 297.28 222.467 297.76 221.08 297.76C219.747 297.76 218.6 297.28 217.64 296.32C216.68 295.36 216.2 294.213 216.2 292.88C216.2 291.547 216.68 290.4 217.64 289.44C218.6 288.48 219.747 288 221.08 288C222.413 288 223.56 288.48 224.52 289.44C225.48 290.4 225.96 291.547 225.96 292.88ZM224.36 306.24V344C224.36 346.027 224.227 348.133 223.96 350.32C223.693 352.56 223.16 354.667 222.36 356.64C221.613 358.613 220.493 360.293 219 361.68C217.507 363.067 215.507 363.92 213 364.24L211.88 361.04C213.853 360.027 215.24 358.613 216.04 356.8C216.84 355.04 217.32 353.093 217.48 350.96C217.64 348.88 217.72 346.88 217.72 344.96V310.96L216.68 306.24H224.36ZM249.478 305.28C254.278 305.28 257.905 306.72 260.358 309.6C262.865 312.427 264.118 316.16 264.118 320.8C264.118 321.547 264.065 322.32 263.958 323.12C263.905 323.867 263.825 324.667 263.718 325.52H238.438C238.438 330.587 239.558 334.507 241.798 337.28C244.038 340.053 247.025 341.44 250.758 341.44C253.798 341.44 257.158 340.48 260.838 338.56L263.318 342.56C261.451 344.053 259.345 345.173 256.998 345.92C254.651 346.667 252.278 347.04 249.878 347.04C245.718 347.04 242.251 346.053 239.478 344.08C236.758 342.107 234.731 339.547 233.398 336.4C232.065 333.253 231.398 329.973 231.398 326.56C231.398 323.893 231.771 321.307 232.518 318.8C233.265 316.293 234.385 314.027 235.878 312C237.425 309.92 239.318 308.293 241.558 307.12C243.798 305.893 246.438 305.28 249.478 305.28ZM248.838 310.32C247.025 310.32 245.425 310.827 244.038 311.84C242.651 312.853 241.531 314.16 240.678 315.76C239.825 317.307 239.238 318.907 238.918 320.56H257.158C257.265 317.253 256.571 314.72 255.078 312.96C253.585 311.2 251.505 310.32 248.838 310.32ZM281.809 305.28C283.356 305.28 284.823 305.467 286.209 305.84C287.649 306.213 289.116 306.4 290.609 306.4C292.636 306.4 294.689 306.293 296.769 306.08C298.849 305.813 301.036 305.52 303.329 305.2L301.889 310.96H295.489C295.116 310.96 294.716 310.96 294.289 310.96C293.916 310.907 293.543 310.853 293.169 310.8C294.983 313.253 295.889 315.893 295.889 318.72C295.889 322.773 294.583 326.133 291.969 328.8C289.356 331.413 285.596 332.72 280.689 332.72C279.356 332.72 278.183 333.067 277.169 333.76C276.156 334.453 275.649 335.52 275.649 336.96C275.649 337.92 275.889 338.613 276.369 339.04C276.903 339.413 277.543 339.627 278.289 339.68C279.036 339.733 279.783 339.76 280.529 339.76H288.289C290.156 339.76 292.049 339.947 293.969 340.32C295.889 340.693 297.489 341.467 298.769 342.64C300.103 343.813 300.769 345.627 300.769 348.08C300.769 351.013 300.183 353.52 299.009 355.6C297.836 357.68 296.263 359.36 294.289 360.64C292.316 361.973 290.103 362.933 287.649 363.52C285.196 364.107 282.716 364.4 280.209 364.4C278.716 364.4 277.143 364.213 275.489 363.84C273.836 363.52 272.263 362.96 270.769 362.16C269.329 361.413 268.156 360.4 267.249 359.12C266.343 357.84 265.889 356.24 265.889 354.32C265.889 352.293 266.503 350.507 267.729 348.96C269.009 347.413 270.476 346.107 272.129 345.04V344.8C269.623 343.52 268.369 341.6 268.369 339.04C268.369 338.347 268.636 337.707 269.169 337.12C269.703 336.48 270.369 335.653 271.169 334.64C272.023 333.627 272.929 332.24 273.889 330.48C272.023 329.2 270.529 327.573 269.409 325.6C268.289 323.573 267.729 321.413 267.729 319.12C267.729 316.507 268.369 314.16 269.649 312.08C270.929 310 272.636 308.347 274.769 307.12C276.956 305.893 279.303 305.28 281.809 305.28ZM281.889 310.08C279.916 310.08 278.209 310.96 276.769 312.72C275.383 314.427 274.689 316.533 274.689 319.04C274.689 321.6 275.383 323.76 276.769 325.52C278.209 327.227 279.889 328.08 281.809 328.08C283.996 328.08 285.729 327.253 287.009 325.6C288.343 323.947 289.009 321.787 289.009 319.12C289.009 316.56 288.289 314.427 286.849 312.72C285.463 310.96 283.809 310.08 281.889 310.08ZM276.849 346.08C275.836 346.827 274.903 347.84 274.049 349.12C273.196 350.453 272.769 351.733 272.769 352.96C272.769 354.24 273.223 355.333 274.129 356.24C275.089 357.147 276.236 357.813 277.569 358.24C278.956 358.72 280.236 358.96 281.409 358.96C283.276 358.96 285.223 358.693 287.249 358.16C289.329 357.627 291.063 356.72 292.449 355.44C293.889 354.213 294.609 352.533 294.609 350.4C294.609 349.013 294.183 348 293.329 347.36C292.476 346.773 291.409 346.4 290.129 346.24C288.903 346.133 287.676 346.08 286.449 346.08H276.849ZM338.612 284.4C341.439 284.4 344.025 285.067 346.372 286.4L344.532 291.36C343.839 290.72 342.932 290.24 341.812 289.92C340.745 289.547 339.732 289.36 338.772 289.36C336.425 289.36 334.559 289.893 333.172 290.96C331.839 292.027 330.825 293.44 330.132 295.2C329.492 296.907 329.065 298.747 328.852 300.72C328.639 302.64 328.532 304.48 328.532 306.24H339.972L338.532 311.2H328.532V346H321.972V311.2H315.972V307.04C316.825 306.933 317.679 306.853 318.532 306.8C319.439 306.693 320.212 306.427 320.852 306C321.492 305.573 321.919 304.853 322.132 303.84C322.665 301.387 323.065 299.413 323.332 297.92C323.599 296.373 323.972 295.013 324.452 293.84C324.932 292.667 325.705 291.387 326.772 290C328.105 288.293 329.759 286.933 331.732 285.92C333.705 284.907 335.999 284.4 338.612 284.4ZM354.459 305.28C358.672 305.28 361.845 306.427 363.979 308.72C366.112 311.013 367.179 314.24 367.179 318.4V338.32C367.179 339.44 367.392 340.213 367.819 340.64C368.245 341.013 368.752 341.2 369.339 341.2C369.819 341.2 370.325 341.147 370.859 341.04C371.392 340.88 371.899 340.693 372.379 340.48L373.819 344.8C372.965 345.28 371.872 345.707 370.539 346.08C369.259 346.507 367.925 346.72 366.539 346.72C365.152 346.72 363.899 346.347 362.779 345.6C361.659 344.8 360.965 343.36 360.699 341.28C359.152 342.933 357.339 344.293 355.259 345.36C353.179 346.373 350.992 346.88 348.699 346.88C345.552 346.88 342.939 345.947 340.859 344.08C338.779 342.213 337.739 339.653 337.739 336.4C337.739 333.36 338.459 330.933 339.899 329.12C341.392 327.307 343.312 325.947 345.659 325.04C348.005 324.133 350.485 323.52 353.099 323.2C355.765 322.88 358.245 322.72 360.539 322.72V318.48C360.539 316.24 360.085 314.347 359.179 312.8C358.272 311.253 356.512 310.48 353.899 310.48C351.872 310.48 349.925 310.88 348.059 311.68C346.192 312.48 344.325 313.653 342.459 315.2L339.179 310.48C341.365 308.72 343.765 307.413 346.379 306.56C348.992 305.707 351.685 305.28 354.459 305.28ZM360.539 327.92C359.099 327.92 357.472 328 355.659 328.16C353.845 328.267 352.085 328.587 350.379 329.12C348.672 329.6 347.259 330.4 346.139 331.52C345.072 332.64 344.539 334.187 344.539 336.16C344.539 337.92 345.125 339.227 346.299 340.08C347.525 340.88 349.045 341.28 350.859 341.28C352.779 341.28 354.459 340.747 355.899 339.68C357.339 338.613 358.459 337.253 359.259 335.6C360.112 333.947 360.539 332.24 360.539 330.48V327.92ZM353.579 285.36C355.765 285.36 357.632 286.16 359.179 287.76C360.725 289.307 361.499 291.173 361.499 293.36C361.499 295.493 360.725 297.36 359.179 298.96C357.632 300.507 355.765 301.28 353.579 301.28C351.445 301.28 349.579 300.507 347.979 298.96C346.432 297.36 345.659 295.493 345.659 293.36C345.659 291.173 346.432 289.307 347.979 287.76C349.579 286.16 351.445 285.36 353.579 285.36ZM353.579 289.52C352.512 289.52 351.605 289.893 350.859 290.64C350.112 291.387 349.739 292.293 349.739 293.36C349.739 294.427 350.112 295.333 350.859 296.08C351.605 296.827 352.512 297.2 353.579 297.2C354.645 297.2 355.552 296.827 356.299 296.08C357.045 295.28 357.419 294.373 357.419 293.36C357.419 292.293 357.045 291.387 356.299 290.64C355.552 289.893 354.645 289.52 353.579 289.52ZM381.67 305.52C382.63 307.867 383.243 310.347 383.51 312.96C384.897 310.773 386.763 308.987 389.11 307.6C391.457 306.213 393.937 305.52 396.55 305.52L394.95 312.56C392.39 312.56 390.203 313.227 388.39 314.56C386.63 315.893 385.057 317.573 383.67 319.6V346H377.03V317.2C377.03 315.653 376.817 313.813 376.39 311.68C376.017 309.493 375.377 307.733 374.47 306.4L381.67 305.52ZM423.838 285.04V346H417.198V289.68L416.158 285.04H423.838ZM435.516 306.24C436.69 309.547 437.836 312.853 438.956 316.16C440.13 319.467 441.303 322.853 442.476 326.32C443.063 328.133 443.65 329.973 444.236 331.84C444.876 333.653 445.49 335.467 446.076 337.28C446.663 335.413 447.25 333.573 447.836 331.76C448.476 329.947 449.09 328.133 449.676 326.32C450.85 322.853 451.996 319.467 453.116 316.16C454.29 312.853 455.463 309.547 456.636 306.24H462.876L448.796 346.16C448.21 347.813 447.463 349.627 446.556 351.6C445.65 353.627 444.583 355.52 443.356 357.28C442.13 359.04 440.69 360.48 439.036 361.6C437.383 362.773 435.516 363.36 433.436 363.36H430.396V358H431.276C433.516 358 435.356 357.333 436.796 356C438.29 354.667 439.516 353.04 440.476 351.12C441.436 349.253 442.236 347.44 442.876 345.68L428.316 306.24H435.516ZM478.989 305.28C480.802 305.28 482.589 305.52 484.349 306C486.162 306.427 487.815 307.12 489.309 308.08L486.989 313.2C485.815 312.24 484.509 311.52 483.069 311.04C481.629 310.56 480.215 310.32 478.829 310.32C476.855 310.32 475.122 310.773 473.629 311.68C472.189 312.587 471.469 313.947 471.469 315.76C471.469 317.733 472.109 319.2 473.389 320.16C474.722 321.12 476.295 322.027 478.109 322.88C479.869 323.68 481.629 324.587 483.389 325.6C485.202 326.56 486.722 327.813 487.949 329.36C489.175 330.853 489.789 332.88 489.789 335.44C489.789 338.107 489.122 340.32 487.789 342.08C486.509 343.787 484.802 345.04 482.669 345.84C480.589 346.64 478.322 347.04 475.869 347.04C473.735 347.04 471.602 346.747 469.469 346.16C467.335 345.573 465.362 344.747 463.549 343.68L466.349 338.8C467.629 339.76 469.069 340.533 470.669 341.12C472.269 341.707 473.815 342 475.309 342C477.335 342 479.095 341.52 480.589 340.56C482.135 339.6 482.909 338.16 482.909 336.24C482.909 334.907 482.482 333.813 481.629 332.96C480.829 332.053 479.789 331.253 478.509 330.56C477.229 329.867 475.895 329.2 474.509 328.56C472.909 327.76 471.335 326.907 469.789 326C468.295 325.04 467.069 323.84 466.109 322.4C465.149 320.96 464.669 319.12 464.669 316.88C464.669 314.32 465.335 312.187 466.669 310.48C468.055 308.773 469.842 307.493 472.029 306.64C474.215 305.733 476.535 305.28 478.989 305.28ZM527.081 347.04C523.188 347.04 519.908 346.08 517.241 344.16C514.628 342.187 512.655 339.627 511.321 336.48C510.041 333.333 509.401 329.973 509.401 326.4C509.401 322.827 510.095 319.44 511.481 316.24C512.921 312.987 515.001 310.347 517.721 308.32C520.441 306.293 523.721 305.28 527.561 305.28C531.508 305.28 534.788 306.24 537.401 308.16C540.068 310.08 542.041 312.613 543.321 315.76C544.655 318.907 545.321 322.293 545.321 325.92C545.321 329.547 544.628 332.987 543.241 336.24C541.855 339.44 539.801 342.053 537.081 344.08C534.361 346.053 531.028 347.04 527.081 347.04ZM527.161 342C529.241 342 530.975 341.52 532.361 340.56C533.801 339.547 534.948 338.24 535.801 336.64C536.708 335.04 537.348 333.333 537.721 331.52C538.095 329.653 538.281 327.867 538.281 326.16C538.281 324.4 538.095 322.613 537.721 320.8C537.401 318.933 536.841 317.227 536.041 315.68C535.241 314.08 534.121 312.8 532.681 311.84C531.295 310.827 529.561 310.32 527.481 310.32C525.401 310.32 523.641 310.827 522.201 311.84C520.815 312.8 519.695 314.08 518.841 315.68C517.988 317.28 517.375 319.013 517.001 320.88C516.628 322.693 516.441 324.453 516.441 326.16C516.441 327.813 516.628 329.573 517.001 331.44C517.375 333.253 517.961 334.96 518.761 336.56C519.615 338.16 520.735 339.467 522.121 340.48C523.508 341.493 525.188 342 527.161 342ZM563.25 305.28C564.797 305.28 566.263 305.467 567.65 305.84C569.09 306.213 570.557 306.4 572.05 306.4C574.077 306.4 576.13 306.293 578.21 306.08C580.29 305.813 582.477 305.52 584.77 305.2L583.33 310.96H576.93C576.557 310.96 576.157 310.96 575.73 310.96C575.357 310.907 574.983 310.853 574.61 310.8C576.423 313.253 577.33 315.893 577.33 318.72C577.33 322.773 576.023 326.133 573.41 328.8C570.797 331.413 567.037 332.72 562.13 332.72C560.797 332.72 559.623 333.067 558.61 333.76C557.597 334.453 557.09 335.52 557.09 336.96C557.09 337.92 557.33 338.613 557.81 339.04C558.343 339.413 558.983 339.627 559.73 339.68C560.477 339.733 561.223 339.76 561.97 339.76H569.73C571.597 339.76 573.49 339.947 575.41 340.32C577.33 340.693 578.93 341.467 580.21 342.64C581.543 343.813 582.21 345.627 582.21 348.08C582.21 351.013 581.623 353.52 580.45 355.6C579.277 357.68 577.703 359.36 575.73 360.64C573.757 361.973 571.543 362.933 569.09 363.52C566.637 364.107 564.157 364.4 561.65 364.4C560.157 364.4 558.583 364.213 556.93 363.84C555.277 363.52 553.703 362.96 552.21 362.16C550.77 361.413 549.597 360.4 548.69 359.12C547.783 357.84 547.33 356.24 547.33 354.32C547.33 352.293 547.943 350.507 549.17 348.96C550.45 347.413 551.917 346.107 553.57 345.04V344.8C551.063 343.52 549.81 341.6 549.81 339.04C549.81 338.347 550.077 337.707 550.61 337.12C551.143 336.48 551.81 335.653 552.61 334.64C553.463 333.627 554.37 332.24 555.33 330.48C553.463 329.2 551.97 327.573 550.85 325.6C549.73 323.573 549.17 321.413 549.17 319.12C549.17 316.507 549.81 314.16 551.09 312.08C552.37 310 554.077 308.347 556.21 307.12C558.397 305.893 560.743 305.28 563.25 305.28ZM563.33 310.08C561.357 310.08 559.65 310.96 558.21 312.72C556.823 314.427 556.13 316.533 556.13 319.04C556.13 321.6 556.823 323.76 558.21 325.52C559.65 327.227 561.33 328.08 563.25 328.08C565.437 328.08 567.17 327.253 568.45 325.6C569.783 323.947 570.45 321.787 570.45 319.12C570.45 316.56 569.73 314.427 568.29 312.72C566.903 310.96 565.25 310.08 563.33 310.08ZM558.29 346.08C557.277 346.827 556.343 347.84 555.49 349.12C554.637 350.453 554.21 351.733 554.21 352.96C554.21 354.24 554.663 355.333 555.57 356.24C556.53 357.147 557.677 357.813 559.01 358.24C560.397 358.72 561.677 358.96 562.85 358.96C564.717 358.96 566.663 358.693 568.69 358.16C570.77 357.627 572.503 356.72 573.89 355.44C575.33 354.213 576.05 352.533 576.05 350.4C576.05 349.013 575.623 348 574.77 347.36C573.917 346.773 572.85 346.4 571.57 346.24C570.343 346.133 569.117 346.08 567.89 346.08H558.29ZM613.413 305.28C614.959 305.28 616.426 305.467 617.813 305.84C619.253 306.213 620.719 306.4 622.213 306.4C624.239 306.4 626.293 306.293 628.373 306.08C630.453 305.813 632.639 305.52 634.933 305.2L633.493 310.96H627.093C626.719 310.96 626.319 310.96 625.893 310.96C625.519 310.907 625.146 310.853 624.773 310.8C626.586 313.253 627.493 315.893 627.493 318.72C627.493 322.773 626.186 326.133 623.573 328.8C620.959 331.413 617.199 332.72 612.293 332.72C610.959 332.72 609.786 333.067 608.773 333.76C607.759 334.453 607.253 335.52 607.253 336.96C607.253 337.92 607.493 338.613 607.973 339.04C608.506 339.413 609.146 339.627 609.893 339.68C610.639 339.733 611.386 339.76 612.133 339.76H619.893C621.759 339.76 623.653 339.947 625.573 340.32C627.493 340.693 629.093 341.467 630.373 342.64C631.706 343.813 632.373 345.627 632.373 348.08C632.373 351.013 631.786 353.52 630.613 355.6C629.439 357.68 627.866 359.36 625.893 360.64C623.919 361.973 621.706 362.933 619.253 363.52C616.799 364.107 614.319 364.4 611.813 364.4C610.319 364.4 608.746 364.213 607.093 363.84C605.439 363.52 603.866 362.96 602.373 362.16C600.933 361.413 599.759 360.4 598.853 359.12C597.946 357.84 597.493 356.24 597.493 354.32C597.493 352.293 598.106 350.507 599.333 348.96C600.613 347.413 602.079 346.107 603.733 345.04V344.8C601.226 343.52 599.973 341.6 599.973 339.04C599.973 338.347 600.239 337.707 600.773 337.12C601.306 336.48 601.973 335.653 602.773 334.64C603.626 333.627 604.533 332.24 605.493 330.48C603.626 329.2 602.133 327.573 601.013 325.6C599.893 323.573 599.333 321.413 599.333 319.12C599.333 316.507 599.973 314.16 601.253 312.08C602.533 310 604.239 308.347 606.372 307.12C608.559 305.893 610.906 305.28 613.413 305.28ZM613.493 310.08C611.519 310.08 609.813 310.96 608.373 312.72C606.986 314.427 606.293 316.533 606.293 319.04C606.293 321.6 606.986 323.76 608.373 325.52C609.813 327.227 611.493 328.08 613.413 328.08C615.599 328.08 617.333 327.253 618.613 325.6C619.946 323.947 620.613 321.787 620.613 319.12C620.613 316.56 619.893 314.427 618.453 312.72C617.066 310.96 615.413 310.08 613.493 310.08ZM608.453 346.08C607.439 346.827 606.506 347.84 605.653 349.12C604.799 350.453 604.373 351.733 604.373 352.96C604.373 354.24 604.826 355.333 605.733 356.24C606.693 357.147 607.839 357.813 609.173 358.24C610.559 358.72 611.839 358.96 613.013 358.96C614.879 358.96 616.826 358.693 618.853 358.16C620.933 357.627 622.666 356.72 624.053 355.44C625.493 354.213 626.213 352.533 626.213 350.4C626.213 349.013 625.786 348 624.933 347.36C624.079 346.773 623.013 346.4 621.733 346.24C620.506 346.133 619.279 346.08 618.053 346.08H608.453ZM644.097 285.04V346H637.457V289.68L636.417 285.04H644.097ZM669.216 305.28C674.016 305.28 677.642 306.72 680.096 309.6C682.602 312.427 683.856 316.16 683.856 320.8C683.856 321.547 683.802 322.32 683.696 323.12C683.642 323.867 683.562 324.667 683.456 325.52H658.176C658.176 330.587 659.296 334.507 661.536 337.28C663.776 340.053 666.762 341.44 670.496 341.44C673.536 341.44 676.896 340.48 680.576 338.56L683.056 342.56C681.189 344.053 679.082 345.173 676.736 345.92C674.389 346.667 672.016 347.04 669.616 347.04C665.456 347.04 661.989 346.053 659.216 344.08C656.496 342.107 654.469 339.547 653.136 336.4C651.802 333.253 651.136 329.973 651.136 326.56C651.136 323.893 651.509 321.307 652.256 318.8C653.002 316.293 654.122 314.027 655.616 312C657.162 309.92 659.056 308.293 661.296 307.12C663.536 305.893 666.176 305.28 669.216 305.28ZM668.576 310.32C666.762 310.32 665.162 310.827 663.776 311.84C662.389 312.853 661.269 314.16 660.416 315.76C659.562 317.307 658.976 318.907 658.656 320.56H676.896C677.002 317.253 676.309 314.72 674.816 312.96C673.322 311.2 671.242 310.32 668.576 310.32ZM705.307 305.36C707.12 305.36 708.934 305.653 710.747 306.24C712.56 306.827 714.134 307.733 715.467 308.96C715.414 308.213 715.36 307.493 715.307 306.8C715.307 306.053 715.307 305.333 715.307 304.64V289.76L714.187 285.04H721.867V334.56C721.867 336.213 722.054 338.133 722.427 340.32C722.854 342.507 723.494 344.347 724.347 345.84L717.307 346.72C716.934 345.813 716.614 344.907 716.347 344C716.08 343.093 715.894 342.187 715.787 341.28C714.4 343.093 712.667 344.507 710.587 345.52C708.507 346.533 706.32 347.04 704.027 347.04C701.254 347.04 698.827 346.453 696.747 345.28C694.667 344.107 692.934 342.533 691.547 340.56C690.214 338.533 689.2 336.32 688.507 333.92C687.867 331.467 687.547 328.987 687.547 326.48C687.547 322.853 688.187 319.44 689.467 316.24C690.8 312.987 692.774 310.373 695.387 308.4C698 306.373 701.307 305.36 705.307 305.36ZM705.467 310.8C702.694 310.8 700.507 311.573 698.907 313.12C697.307 314.667 696.187 316.613 695.547 318.96C694.907 321.307 694.587 323.653 694.587 326C694.587 328.4 694.934 330.773 695.627 333.12C696.374 335.467 697.574 337.413 699.227 338.96C700.934 340.453 703.2 341.2 706.027 341.2C707.894 341.2 709.6 340.667 711.147 339.6C712.747 338.48 714.134 337.253 715.307 335.92V322.48C715.307 320.347 714.96 318.4 714.267 316.64C713.627 314.88 712.587 313.467 711.147 312.4C709.707 311.333 707.814 310.8 705.467 310.8ZM746.956 305.28C751.756 305.28 755.383 306.72 757.836 309.6C760.343 312.427 761.596 316.16 761.596 320.8C761.596 321.547 761.543 322.32 761.436 323.12C761.383 323.867 761.303 324.667 761.196 325.52H735.916C735.916 330.587 737.036 334.507 739.276 337.28C741.516 340.053 744.503 341.44 748.236 341.44C751.276 341.44 754.636 340.48 758.316 338.56L760.796 342.56C758.93 344.053 756.823 345.173 754.476 345.92C752.13 346.667 749.756 347.04 747.356 347.04C743.196 347.04 739.73 346.053 736.956 344.08C734.236 342.107 732.21 339.547 730.876 336.4C729.543 333.253 728.876 329.973 728.876 326.56C728.876 323.893 729.25 321.307 729.996 318.8C730.743 316.293 731.863 314.027 733.356 312C734.903 309.92 736.796 308.293 739.036 307.12C741.276 305.893 743.916 305.28 746.956 305.28ZM746.316 310.32C744.503 310.32 742.903 310.827 741.516 311.84C740.13 312.853 739.01 314.16 738.156 315.76C737.303 317.307 736.716 318.907 736.396 320.56H754.636C754.743 317.253 754.05 314.72 752.556 312.96C751.063 311.2 748.983 310.32 746.316 310.32ZM226.76 391.88C226.387 393.693 226.04 395.587 225.72 397.56C225.453 399.48 225.267 401.373 225.16 403.24H235.56L234.2 408.28H225.16V433.72C225.16 435.267 225.427 436.493 225.96 437.4C226.547 438.307 227.693 438.76 229.4 438.76C230.253 438.76 231.107 438.68 231.96 438.52C232.813 438.36 233.64 438.173 234.44 437.96L235.56 442.44C234.227 442.813 232.947 443.133 231.72 443.4C230.547 443.72 229.187 443.88 227.64 443.88C224.227 443.88 221.853 442.973 220.52 441.16C219.187 439.347 218.52 436.813 218.52 433.56V408.28H212.6V404.28C214.733 404.227 216.413 403.533 217.64 402.2C218.867 400.813 219.8 399.16 220.44 397.24C221.08 395.32 221.56 393.533 221.88 391.88H226.76ZM248.772 389.88C248.772 391.213 248.292 392.36 247.332 393.32C246.425 394.28 245.279 394.76 243.892 394.76C242.559 394.76 241.412 394.28 240.452 393.32C239.545 392.36 239.092 391.213 239.092 389.88C239.092 388.547 239.545 387.4 240.452 386.44C241.412 385.48 242.559 385 243.892 385C245.225 385 246.372 385.48 247.332 386.44C248.292 387.4 248.772 388.547 248.772 389.88ZM247.332 403.24V443H240.692V407.96L239.732 403.24H247.332ZM264.21 382.04V443H257.57V386.68L256.53 382.04H264.21ZM303.206 402.28C307.419 402.28 310.592 403.427 312.726 405.72C314.859 408.013 315.926 411.24 315.926 415.4V435.32C315.926 436.44 316.139 437.213 316.566 437.64C316.992 438.013 317.499 438.2 318.086 438.2C318.566 438.2 319.072 438.147 319.606 438.04C320.139 437.88 320.646 437.693 321.126 437.48L322.566 441.8C321.712 442.28 320.619 442.707 319.286 443.08C318.006 443.507 316.672 443.72 315.286 443.72C313.899 443.72 312.646 443.347 311.526 442.6C310.406 441.8 309.712 440.36 309.446 438.28C307.899 439.933 306.086 441.293 304.006 442.36C301.926 443.373 299.739 443.88 297.446 443.88C294.299 443.88 291.686 442.947 289.606 441.08C287.526 439.213 286.486 436.653 286.486 433.4C286.486 430.36 287.206 427.933 288.646 426.12C290.139 424.307 292.059 422.947 294.406 422.04C296.752 421.133 299.232 420.52 301.846 420.2C304.512 419.88 306.992 419.72 309.286 419.72V415.48C309.286 413.24 308.832 411.347 307.926 409.8C307.019 408.253 305.259 407.48 302.646 407.48C300.619 407.48 298.672 407.88 296.806 408.68C294.939 409.48 293.072 410.653 291.206 412.2L287.926 407.48C290.112 405.72 292.512 404.413 295.126 403.56C297.739 402.707 300.432 402.28 303.206 402.28ZM309.286 424.92C307.846 424.92 306.219 425 304.406 425.16C302.592 425.267 300.832 425.587 299.126 426.12C297.419 426.6 296.006 427.4 294.886 428.52C293.819 429.64 293.286 431.187 293.286 433.16C293.286 434.92 293.872 436.227 295.046 437.08C296.272 437.88 297.792 438.28 299.606 438.28C301.526 438.28 303.206 437.747 304.646 436.68C306.086 435.613 307.206 434.253 308.006 432.6C308.859 430.947 309.286 429.24 309.286 427.48V424.92ZM302.326 382.36C304.512 382.36 306.379 383.16 307.926 384.76C309.472 386.307 310.246 388.173 310.246 390.36C310.246 392.493 309.472 394.36 307.926 395.96C306.379 397.507 304.512 398.28 302.326 398.28C300.192 398.28 298.326 397.507 296.726 395.96C295.179 394.36 294.406 392.493 294.406 390.36C294.406 388.173 295.179 386.307 296.726 384.76C298.326 383.16 300.192 382.36 302.326 382.36ZM302.326 386.52C301.259 386.52 300.352 386.893 299.606 387.64C298.859 388.387 298.486 389.293 298.486 390.36C298.486 391.427 298.859 392.333 299.606 393.08C300.352 393.827 301.259 394.2 302.326 394.2C303.392 394.2 304.299 393.827 305.046 393.08C305.792 392.28 306.166 391.373 306.166 390.36C306.166 389.293 305.792 388.387 305.046 387.64C304.299 386.893 303.392 386.52 302.326 386.52ZM355.894 402.36C357.708 402.36 359.521 402.653 361.334 403.24C363.148 403.827 364.721 404.733 366.054 405.96C366.001 405.213 365.948 404.493 365.894 403.8C365.894 403.053 365.894 402.333 365.894 401.64V386.76L364.774 382.04H372.454V431.56C372.454 433.213 372.641 435.133 373.014 437.32C373.441 439.507 374.081 441.347 374.934 442.84L367.894 443.72C367.521 442.813 367.201 441.907 366.934 441C366.668 440.093 366.481 439.187 366.374 438.28C364.988 440.093 363.254 441.507 361.174 442.52C359.094 443.533 356.908 444.04 354.614 444.04C351.841 444.04 349.414 443.453 347.334 442.28C345.254 441.107 343.521 439.533 342.134 437.56C340.801 435.533 339.788 433.32 339.094 430.92C338.454 428.467 338.134 425.987 338.134 423.48C338.134 419.853 338.774 416.44 340.054 413.24C341.388 409.987 343.361 407.373 345.974 405.4C348.588 403.373 351.894 402.36 355.894 402.36ZM356.054 407.8C353.281 407.8 351.094 408.573 349.494 410.12C347.894 411.667 346.774 413.613 346.134 415.96C345.494 418.307 345.174 420.653 345.174 423C345.174 425.4 345.521 427.773 346.214 430.12C346.961 432.467 348.161 434.413 349.814 435.96C351.521 437.453 353.788 438.2 356.614 438.2C358.481 438.2 360.188 437.667 361.734 436.6C363.334 435.48 364.721 434.253 365.894 432.92V419.48C365.894 417.347 365.548 415.4 364.854 413.64C364.214 411.88 363.174 410.467 361.734 409.4C360.294 408.333 358.401 407.8 356.054 407.8ZM390.744 389.88C390.744 391.213 390.264 392.36 389.304 393.32C388.397 394.28 387.25 394.76 385.864 394.76C384.53 394.76 383.384 394.28 382.424 393.32C381.517 392.36 381.064 391.213 381.064 389.88C381.064 388.547 381.517 387.4 382.424 386.44C383.384 385.48 384.53 385 385.864 385C387.197 385 388.344 385.48 389.304 386.44C390.264 387.4 390.744 388.547 390.744 389.88ZM389.304 403.24V443H382.664V407.96L381.704 403.24H389.304ZM405.942 382.04V419.64L420.822 403.24H427.942L412.662 419.96L430.102 443H422.182L405.942 421.4V443H399.302V386.76L398.262 382.04H405.942ZM442.491 391.88C442.118 393.693 441.771 395.587 441.451 397.56C441.185 399.48 440.998 401.373 440.891 403.24H451.291L449.931 408.28H440.891V433.72C440.891 435.267 441.158 436.493 441.691 437.4C442.278 438.307 443.425 438.76 445.131 438.76C445.985 438.76 446.838 438.68 447.691 438.52C448.545 438.36 449.371 438.173 450.171 437.96L451.291 442.44C449.958 442.813 448.678 443.133 447.451 443.4C446.278 443.72 444.918 443.88 443.371 443.88C439.958 443.88 437.585 442.973 436.251 441.16C434.918 439.347 434.251 436.813 434.251 433.56V408.28H428.331V404.28C430.465 404.227 432.145 403.533 433.371 402.2C434.598 400.813 435.531 399.16 436.171 397.24C436.811 395.32 437.291 393.533 437.611 391.88H442.491ZM470.131 402.28C474.931 402.28 478.558 403.72 481.011 406.6C483.518 409.427 484.771 413.16 484.771 417.8C484.771 418.547 484.718 419.32 484.611 420.12C484.558 420.867 484.478 421.667 484.371 422.52H459.091C459.091 427.587 460.211 431.507 462.451 434.28C464.691 437.053 467.678 438.44 471.411 438.44C474.451 438.44 477.811 437.48 481.491 435.56L483.971 439.56C482.105 441.053 479.998 442.173 477.651 442.92C475.305 443.667 472.931 444.04 470.531 444.04C466.371 444.04 462.905 443.053 460.131 441.08C457.411 439.107 455.385 436.547 454.051 433.4C452.718 430.253 452.051 426.973 452.051 423.56C452.051 420.893 452.425 418.307 453.171 415.8C453.918 413.293 455.038 411.027 456.531 409C458.078 406.92 459.971 405.293 462.211 404.12C464.451 402.893 467.091 402.28 470.131 402.28ZM469.491 407.32C467.678 407.32 466.078 407.827 464.691 408.84C463.305 409.853 462.185 411.16 461.331 412.76C460.478 414.307 459.891 415.907 459.571 417.56H477.811C477.918 414.253 477.225 411.72 475.731 409.96C474.238 408.2 472.158 407.32 469.491 407.32Z" fill="white"/>
<path d="M872.693 1459.19C876.062 1447.37 873.442 1434.65 865.676 1425.13L563.718 1054.89C530.049 1013.6 463.769 1046.58 476.395 1098.34L490.061 1154.35C492.293 1163.5 497.061 1171.83 503.818 1178.39L810.386 1475.85C830.777 1495.64 864.902 1486.51 872.693 1459.19V1459.19Z" fill="#F94144"/>
</svg>
