<svg width="1540" height="1745" viewBox="0 0 1540 1745" fill="none" xmlns="http://www.w3.org/2000/svg">
<ellipse cx="829.515" cy="401.586" rx="167.08" ry="159.798" fill="#90BE6D"/>
<circle cx="899.5" cy="382.5" r="17.5" fill="black"/>
<circle cx="894.5" cy="377.5" r="7.5" fill="white"/>
<circle cx="762.5" cy="382.5" r="17.5" fill="black"/>
<circle cx="757.5" cy="377.5" r="7.5" fill="white"/>
<rect x="1056.92" y="583" width="436" height="135" rx="30" transform="rotate(12.8043 1056.92 583)" fill="#323031"/>
<ellipse cx="829.5" cy="272.5" rx="211.5" ry="30.5" fill="#F9C74F"/>
<path d="M700 168.6C700 134.695 733.03 110.621 765.306 121.001L812.483 136.171C822.257 139.314 832.761 139.372 842.57 136.337L895.22 120.045C927.388 110.091 960 134.137 960 167.811V241C960 268.614 937.614 291 910 291H750C722.386 291 700 268.614 700 241V168.6Z" fill="#F9C74F"/>
<path d="M758.809 606.709C785.567 544.743 873.433 544.742 900.191 606.709L1132.51 1144.72C1154.46 1195.56 1117.19 1252.25 1061.82 1252.25H597.18C541.81 1252.25 504.539 1195.56 526.489 1144.72L758.809 606.709Z" fill="#90BE6D"/>
<ellipse rx="21.1709" ry="2.53748" transform="matrix(-0.568871 -0.822427 -0.822427 0.568871 596.13 412.855)" fill="#F9C74F"/>
<ellipse rx="21.1709" ry="2.53748" transform="matrix(-0.568871 -0.822427 -0.822427 0.568871 609.13 416.855)" fill="#F9C74F"/>
<ellipse rx="16.6192" ry="2.53748" transform="matrix(-0.568871 -0.822427 -0.822427 0.568871 587.72 414.599)" fill="#F9C74F"/>
<ellipse rx="13.8103" ry="2.53748" transform="matrix(-0.568871 -0.822427 -0.822427 0.568871 578.318 413.909)" fill="#F9C74F"/>
<ellipse rx="10.305" ry="2.53748" transform="matrix(-0.568871 -0.822427 -0.822427 0.568871 566.949 411.919)" fill="#F9C74F"/>
<ellipse rx="21.1709" ry="2.53748" transform="matrix(-0.559193 0.829038 0.829038 0.559193 595.942 447.97)" fill="#F9C74F"/>
<ellipse rx="21.1709" ry="2.53748" transform="matrix(-0.559193 0.829038 0.829038 0.559193 605.942 450.97)" fill="#F9C74F"/>
<ellipse rx="16.1079" ry="2.53748" transform="matrix(-0.559193 0.829038 0.829038 0.559193 587.773 438.773)" fill="#F9C74F"/>
<ellipse rx="12.259" ry="2.53748" transform="matrix(-0.559193 0.829038 0.829038 0.559193 577.926 431.582)" fill="#F9C74F"/>
<ellipse rx="8.17745" ry="2.53748" transform="matrix(-0.559193 0.829038 0.829038 0.559193 568.208 425.198)" fill="#F9C74F"/>
<path d="M478.164 973.749C475.158 962.448 477.706 950.39 485.027 941.27L777.541 576.914C811.079 535.141 877.932 568.219 865.068 620.222L852.539 670.873C850.329 679.809 845.694 687.962 839.146 694.433L539.558 990.457C519.467 1010.31 485.424 1001.05 478.164 973.749Z" fill="#90BE6D"/>
<path d="M1188.69 980.522C1192.06 968.706 1189.44 955.989 1181.68 946.468L879.718 576.222C846.049 534.939 779.769 567.92 792.395 619.674L806.061 675.689C808.293 684.836 813.061 693.167 819.818 699.723L1126.39 997.187C1146.78 1016.97 1180.9 1007.84 1188.69 980.522Z" fill="#90BE6D"/>
<rect x="284" y="429.596" width="33" height="1166.09" rx="16.5" transform="rotate(-16.9053 284 429.596)" fill="#F9C74F"/>
<rect x="1232.5" y="729" width="23.3052" height="308.956" rx="11.6526" transform="rotate(11.6714 1232.5 729)" fill="#323031"/>
<rect x="696" y="1202.83" width="92.5382" height="349.493" rx="46.2691" transform="rotate(-0.516261 696 1202.83)" fill="#90BE6D"/>
<rect x="839" y="1202.83" width="92.5382" height="349.493" rx="46.2691" transform="rotate(-0.516261 839 1202.83)" fill="#90BE6D"/>
<rect x="83" y="506.665" width="450.767" height="26.1522" rx="13.0761" transform="rotate(-23.074 83 506.665)" fill="#F9C74F"/>
<rect x="89.9766" y="522.822" width="103.707" height="8.1188" rx="4.0594" transform="rotate(-112.673 89.9766 522.822)" fill="#F9C74F"/>
<rect x="184.977" y="481.822" width="103.707" height="8.1188" rx="4.0594" transform="rotate(-112.673 184.977 481.822)" fill="#F9C74F"/>
<rect x="351.977" y="407.822" width="103.707" height="8.1188" rx="4.0594" transform="rotate(-112.673 351.977 407.822)" fill="#F9C74F"/>
<rect x="458.977" y="363.822" width="103.707" height="8.1188" rx="4.0594" transform="rotate(-112.673 458.977 363.822)" fill="#F9C74F"/>
<rect x="137.977" y="501.822" width="103.707" height="8.1188" rx="4.0594" transform="rotate(-112.673 137.977 501.822)" fill="#F9C74F"/>
<rect x="304.977" y="427.822" width="103.707" height="8.1188" rx="4.0594" transform="rotate(-112.673 304.977 427.822)" fill="#F9C74F"/>
<rect x="232.977" y="460.822" width="103.707" height="8.1188" rx="4.0594" transform="rotate(-112.673 232.977 460.822)" fill="#F9C74F"/>
<rect x="399.977" y="386.822" width="103.707" height="8.1188" rx="4.0594" transform="rotate(-112.673 399.977 386.822)" fill="#F9C74F"/>
<rect x="101.977" y="518.822" width="103.707" height="8.1188" rx="4.0594" transform="rotate(-112.673 101.977 518.822)" fill="#F9C74F"/>
<rect x="196.977" y="477.822" width="103.707" height="8.1188" rx="4.0594" transform="rotate(-112.673 196.977 477.822)" fill="#F9C74F"/>
<rect x="363.977" y="403.822" width="103.707" height="8.1188" rx="4.0594" transform="rotate(-112.673 363.977 403.822)" fill="#F9C74F"/>
<rect x="470.977" y="359.822" width="103.707" height="8.1188" rx="4.0594" transform="rotate(-112.673 470.977 359.822)" fill="#F9C74F"/>
<rect x="149.977" y="497.822" width="103.707" height="8.1188" rx="4.0594" transform="rotate(-112.673 149.977 497.822)" fill="#F9C74F"/>
<rect x="316.977" y="423.822" width="103.707" height="8.1188" rx="4.0594" transform="rotate(-112.673 316.977 423.822)" fill="#F9C74F"/>
<rect x="244.977" y="456.822" width="103.707" height="8.1188" rx="4.0594" transform="rotate(-112.673 244.977 456.822)" fill="#F9C74F"/>
<rect x="411.977" y="382.822" width="103.707" height="8.1188" rx="4.0594" transform="rotate(-112.673 411.977 382.822)" fill="#F9C74F"/>
<rect x="113.977" y="512.822" width="103.707" height="8.1188" rx="4.0594" transform="rotate(-112.673 113.977 512.822)" fill="#F9C74F"/>
<rect x="280.977" y="438.822" width="103.707" height="8.1188" rx="4.0594" transform="rotate(-112.673 280.977 438.822)" fill="#F9C74F"/>
<rect x="208.977" y="471.822" width="103.707" height="8.1188" rx="4.0594" transform="rotate(-112.673 208.977 471.822)" fill="#F9C74F"/>
<rect x="375.977" y="397.822" width="103.707" height="8.1188" rx="4.0594" transform="rotate(-112.673 375.977 397.822)" fill="#F9C74F"/>
<rect x="482.977" y="353.822" width="103.707" height="8.1188" rx="4.0594" transform="rotate(-112.673 482.977 353.822)" fill="#F9C74F"/>
<rect x="161.977" y="491.822" width="103.707" height="8.1188" rx="4.0594" transform="rotate(-112.673 161.977 491.822)" fill="#F9C74F"/>
<rect x="328.977" y="417.822" width="103.707" height="8.1188" rx="4.0594" transform="rotate(-112.673 328.977 417.822)" fill="#F9C74F"/>
<rect x="256.977" y="450.822" width="103.707" height="8.1188" rx="4.0594" transform="rotate(-112.673 256.977 450.822)" fill="#F9C74F"/>
<rect x="423.977" y="376.822" width="103.707" height="8.1188" rx="4.0594" transform="rotate(-112.673 423.977 376.822)" fill="#F9C74F"/>
<rect x="125.977" y="506.822" width="103.707" height="8.1188" rx="4.0594" transform="rotate(-112.673 125.977 506.822)" fill="#F9C74F"/>
<rect x="292.977" y="432.822" width="103.707" height="8.1188" rx="4.0594" transform="rotate(-112.673 292.977 432.822)" fill="#F9C74F"/>
<rect x="220.977" y="465.822" width="103.707" height="8.1188" rx="4.0594" transform="rotate(-112.673 220.977 465.822)" fill="#F9C74F"/>
<rect x="387.977" y="391.822" width="103.707" height="8.1188" rx="4.0594" transform="rotate(-112.673 387.977 391.822)" fill="#F9C74F"/>
<rect x="496.863" y="352.337" width="108.601" height="8.1188" rx="4.0594" transform="rotate(-112.673 496.863 352.337)" fill="#F9C74F"/>
<rect x="173.977" y="485.822" width="103.707" height="8.1188" rx="4.0594" transform="rotate(-112.673 173.977 485.822)" fill="#F9C74F"/>
<rect x="340.977" y="411.822" width="103.707" height="8.1188" rx="4.0594" transform="rotate(-112.673 340.977 411.822)" fill="#F9C74F"/>
<rect x="447.977" y="367.822" width="103.707" height="8.1188" rx="4.0594" transform="rotate(-112.673 447.977 367.822)" fill="#F9C74F"/>
<rect x="268.977" y="444.822" width="103.707" height="8.1188" rx="4.0594" transform="rotate(-112.673 268.977 444.822)" fill="#F9C74F"/>
<rect x="435.977" y="370.822" width="103.707" height="8.1188" rx="4.0594" transform="rotate(-112.673 435.977 370.822)" fill="#F9C74F"/>
<path d="M1135.01 669.572C1133.61 675.715 1131.32 680.947 1128.12 685.266C1124.99 689.54 1120.98 692.567 1116.09 694.346C1111.19 696.126 1105.44 696.265 1098.83 694.762L1078.03 690.037L1091.23 631.937C1091.24 631.879 1091.23 631.384 1091.2 630.453C1091.22 629.536 1091.25 628.589 1091.29 627.613C1091.32 626.637 1091.33 626.055 1091.31 625.866L1107.73 629.595C1114.86 631.216 1120.76 633.694 1125.42 637.029C1130.09 640.305 1133.29 644.632 1135.02 650.009C1136.77 655.328 1136.76 661.849 1135.01 669.572ZM1126.53 667.462C1128.63 658.218 1127.85 651.088 1124.2 646.073C1120.61 641.012 1114.45 637.491 1105.74 635.511L1099.33 634.055L1087.57 685.835L1099.15 688.467C1104.47 689.677 1108.95 689.464 1112.59 687.828C1116.28 686.206 1119.24 683.587 1121.48 679.973C1123.77 676.372 1125.46 672.202 1126.53 667.462ZM1160.41 709.769C1155.67 708.693 1151.72 706.871 1148.55 704.305C1145.44 701.752 1143.06 698.689 1141.41 695.115C1139.77 691.482 1138.81 687.573 1138.53 683.387C1138.25 679.201 1138.61 674.914 1139.61 670.525C1140.61 666.137 1142.11 662.109 1144.11 658.442C1146.18 654.729 1148.74 651.617 1151.77 649.107C1154.81 646.537 1158.32 644.781 1162.29 643.836C1166.25 642.892 1170.64 642.965 1175.44 644.055C1180.23 645.145 1184.19 646.966 1187.3 649.519C1190.47 652.085 1192.87 655.184 1194.51 658.817C1196.16 662.391 1197.09 666.294 1197.29 670.525C1197.57 674.711 1197.21 678.998 1196.22 683.386C1195.22 687.775 1193.69 691.825 1191.61 695.538C1189.55 699.192 1187 702.275 1183.97 704.785C1180.94 707.296 1177.44 709.024 1173.47 709.968C1169.56 710.926 1165.21 710.86 1160.41 709.769ZM1161.86 703.822C1165.6 704.672 1168.91 704.594 1171.79 703.585C1174.66 702.577 1177.16 700.93 1179.28 698.642C1181.4 696.355 1183.14 693.705 1184.5 690.691C1185.92 687.691 1186.99 684.612 1187.7 681.452C1188.42 678.293 1188.79 675.054 1188.8 671.735C1188.88 668.429 1188.45 665.316 1187.51 662.396C1186.59 659.417 1185.02 656.846 1182.8 654.681C1180.65 652.53 1177.73 651.036 1174.04 650.198C1170.35 649.361 1167.04 649.439 1164.11 650.434C1161.24 651.442 1158.74 653.09 1156.62 655.377C1154.56 657.678 1152.82 660.328 1151.4 663.328C1150.04 666.341 1149 669.428 1148.28 672.587C1147.56 675.747 1147.17 678.979 1147.09 682.285C1147.09 685.546 1147.52 688.658 1148.38 691.624C1149.31 694.602 1150.85 697.167 1153 699.318C1155.22 701.483 1158.17 702.984 1161.86 703.822ZM1222.39 655.646L1228.49 700.687C1228.69 702.269 1228.86 703.816 1229.01 705.327C1229.22 706.85 1229.38 708.579 1229.49 710.512C1230.36 708.863 1231.18 707.419 1231.95 706.18C1232.74 704.882 1233.56 703.591 1234.4 702.306L1259.34 664.04L1269.96 666.453L1255.44 730.345L1247.37 728.51L1257.88 682.259C1258.12 681.206 1258.38 680.189 1258.66 679.207C1258.95 678.226 1259.26 677.127 1259.6 675.912C1259.03 676.768 1258.43 677.647 1257.8 678.549C1257.16 679.451 1256.56 680.359 1255.98 681.274L1228.13 724.231L1223.21 723.115L1216.58 671.862C1216.49 670.918 1216.35 669.931 1216.15 668.902C1215.97 667.815 1215.82 666.828 1215.71 665.942C1215.58 667.081 1215.4 668.118 1215.19 669.054C1215.04 670.003 1214.85 670.975 1214.62 671.97L1204.01 718.66L1197.34 717.145L1210.54 659.045L1210.54 652.954L1222.39 655.646ZM1292.42 671.555L1298.52 716.597C1298.71 718.179 1298.89 719.725 1299.03 721.236C1299.24 722.76 1299.4 724.488 1299.52 726.422C1300.38 724.773 1301.21 723.329 1301.98 722.089C1302.77 720.792 1303.58 719.5 1304.43 718.216L1329.37 679.95L1339.98 682.362L1325.47 746.254L1317.39 744.42L1327.9 698.168C1328.14 697.115 1328.4 696.098 1328.69 695.117C1328.97 694.135 1329.28 693.037 1329.62 691.821C1329.06 692.678 1328.46 693.557 1327.82 694.458C1327.19 695.36 1326.58 696.268 1326 697.183L1298.15 740.141L1293.24 739.024L1286.61 687.772C1286.52 686.828 1286.37 685.841 1286.18 684.812C1285.99 683.724 1285.85 682.737 1285.74 681.852C1285.6 682.99 1285.43 684.027 1285.22 684.963C1285.06 685.913 1284.87 686.885 1284.65 687.879L1274.04 734.57L1267.37 733.054L1280.57 674.955L1280.57 668.863L1292.42 671.555ZM1350.42 684.733L1388.77 693.446L1387.4 699.502L1358.43 692.922L1353.43 714.951L1375.9 720.055L1374.54 726.023L1352.07 720.919L1346.67 744.703L1375.63 751.283L1374.26 757.338L1337.13 748.904L1350.33 690.804L1350.42 684.733ZM1394.99 694.859L1414.03 699.186C1418.07 700.103 1421.61 701.46 1424.64 703.258C1427.69 704.997 1429.86 707.366 1431.15 710.366C1432.5 713.379 1432.65 717.167 1431.61 721.731C1431.08 724.071 1430.02 726.198 1428.41 728.11C1426.81 730.022 1424.88 731.585 1422.64 732.798C1420.47 733.965 1418.19 734.648 1415.81 734.845L1426.81 769.278L1417.33 767.125L1407.35 734.678L1396.38 732.185L1389.86 760.884L1381.7 759.03L1394.9 700.93L1394.99 694.859ZM1403 703.048L1397.74 726.217L1404.76 727.813C1407.69 728.477 1410.39 728.754 1412.88 728.642C1415.44 728.485 1417.62 727.688 1419.42 726.252C1421.22 724.815 1422.49 722.488 1423.22 719.27C1423.79 716.754 1423.64 714.567 1422.77 712.708C1421.92 710.791 1420.59 709.197 1418.78 707.925C1416.98 706.654 1414.94 705.76 1412.66 705.241L1403 703.048Z" fill="white"/>
<line x1="788" y1="466.5" x2="871" y2="466.5" stroke="black" stroke-width="7"/>
<line x1="806.701" y1="467.47" x2="575.701" y2="420.47" stroke="#F9C74F" stroke-width="3"/>
</svg>
