<svg width="4001" height="4001" viewBox="0 0 4001 4001" fill="none" xmlns="http://www.w3.org/2000/svg">
<ellipse cx="2040.5" cy="1465.5" rx="210.5" ry="201.5" fill="#90BE6D"/>
<circle cx="2128.81" cy="1441.47" r="22.0371" fill="black"/>
<circle cx="2122.52" cy="1435.18" r="9.44446" fill="white"/>
<ellipse cx="1956.5" cy="1441" rx="22.5" ry="22" fill="black"/>
<ellipse cx="1950" cy="1435" rx="9" ry="10" fill="white"/>
<line x1="430.726" y1="1922.82" x2="249.392" y2="1980.75" stroke="black" stroke-width="25"/>
<ellipse cx="2041" cy="1303" rx="266" ry="39" fill="#F9C74F"/>
<path d="M1878 1154.67C1878 1120.74 1911.07 1096.67 1943.35 1107.08L2023.29 1132.87C2033.1 1136.04 2043.63 1136.09 2053.47 1133.04L2140.18 1106.12C2172.35 1096.13 2205 1120.18 2205 1153.88V1277C2205 1304.61 2182.61 1327 2155 1327H1928C1900.39 1327 1878 1304.61 1878 1277V1154.67Z" fill="#F9C74F"/>
<mask id="path-9-inside-1" fill="white">
<path d="M1994.23 1531.94C1993.63 1535.64 1994.12 1539.47 1995.67 1543.23C1997.22 1546.98 1999.8 1550.58 2003.26 1553.82C2006.72 1557.07 2010.99 1559.89 2015.84 1562.13C2020.69 1564.36 2026.01 1565.97 2031.5 1566.87C2036.99 1567.76 2042.55 1567.91 2047.86 1567.32C2053.16 1566.73 2058.11 1565.41 2062.42 1563.42C2066.73 1561.44 2070.31 1558.84 2072.97 1555.77C2075.62 1552.7 2077.3 1549.21 2077.9 1545.52L2036.07 1538.73L1994.23 1531.94Z"/>
</mask>
<path d="M1994.23 1531.94C1993.63 1535.64 1994.12 1539.47 1995.67 1543.23C1997.22 1546.98 1999.8 1550.58 2003.26 1553.82C2006.72 1557.07 2010.99 1559.89 2015.84 1562.13C2020.69 1564.36 2026.01 1565.97 2031.5 1566.87C2036.99 1567.76 2042.55 1567.91 2047.86 1567.32C2053.16 1566.73 2058.11 1565.41 2062.42 1563.42C2066.73 1561.44 2070.31 1558.84 2072.97 1555.77C2075.62 1552.7 2077.3 1549.21 2077.9 1545.52L2036.07 1538.73L1994.23 1531.94Z" fill="black" stroke="black" stroke-width="6" mask="url(#path-9-inside-1)"/>
<line x1="550.5" y1="1853" x2="550.5" y2="1835" stroke="black"/>
<path d="M132.461 2192.31C128.676 2178.08 131.884 2162.89 141.104 2151.41L546.268 1646.74C579.805 1604.96 646.659 1638.04 633.795 1690.04L603.022 1814.45C600.811 1823.39 596.176 1831.54 589.628 1838.01L209.772 2213.35C184.472 2238.35 141.604 2226.68 132.461 2192.31V2192.31Z" fill="#F94144"/>
<ellipse cx="579.976" cy="1465.12" rx="210.398" ry="204.248" fill="#F94144"/>
<path d="M509.292 1682.27C536.096 1620.43 623.784 1620.43 650.588 1682.27L973.34 2426.82C995.381 2477.67 958.109 2534.45 902.692 2534.45H257.188C201.772 2534.45 164.5 2477.67 186.54 2426.82L509.292 1682.27Z" fill="#F94144"/>
<path d="M662.405 1529.99C662.405 1522.96 660.271 1516 656.126 1509.51C651.981 1503.02 645.906 1497.12 638.246 1492.15C630.587 1487.18 621.495 1483.24 611.487 1480.55C601.48 1477.86 590.755 1476.47 579.923 1476.47C569.091 1476.47 558.366 1477.86 548.359 1480.55C538.352 1483.24 529.259 1487.18 521.6 1492.15C513.941 1497.12 507.865 1503.02 503.72 1509.51C499.575 1516 497.441 1522.96 497.441 1529.99L579.923 1529.99H662.405Z" fill="#773E1E"/>
<path d="M567.718 1427.99C567.718 1453.89 545.892 1474.97 518.847 1474.97C491.802 1474.97 469.977 1453.89 469.977 1427.99C469.977 1402.1 491.802 1381.01 518.847 1381.01C545.892 1381.01 567.718 1402.1 567.718 1427.99Z" stroke="black" stroke-width="3"/>
<path d="M689.866 1427.99C689.866 1453.89 668.04 1474.97 640.995 1474.97C613.951 1474.97 592.125 1453.89 592.125 1427.99C592.125 1402.1 613.951 1381.01 640.995 1381.01C668.04 1381.01 689.866 1402.1 689.866 1427.99Z" stroke="black" stroke-width="3"/>
<line x1="471.505" y1="1419.85" x2="390.912" y2="1373.25" stroke="black" stroke-width="3"/>
<line x1="690.538" y1="1422.15" x2="768.124" y2="1370.7" stroke="black" stroke-width="3"/>
<line x1="566.711" y1="1430.9" x2="594.415" y2="1431.08" stroke="black" stroke-width="3"/>
<path d="M50.9023 1852.23H291.681V2223.91L50.9023 2196.33V2187.33V1852.23Z" fill="#F8961E" stroke="black"/>
<path d="M556.125 1852.23H311.569V2223.92L556.125 2196.32V2187.33V1852.23Z" fill="#F8961E" stroke="black"/>
<path d="M555.995 1852.36V1834.73L305.402 1852.36H555.995Z" fill="white"/>
<path d="M51.0312 1852.36V1828.44L302.254 1852.36H51.0312Z" fill="white"/>
<path d="M555.995 1852.36V1834.73L305.402 1852.36H555.995Z" stroke="black"/>
<path d="M51.0312 1852.36V1828.44L302.254 1852.36H51.0312Z" stroke="black"/>
<path d="M303.453 1852.36L51.6008 1828.43" stroke="black"/>
<line x1="303.479" y1="1852.49" x2="555.945" y2="1834.86" stroke="black"/>
<line x1="50.4413" y1="1833.61" x2="292.22" y2="1852.49" stroke="black"/>
<line x1="50.4218" y1="1842.42" x2="277.089" y2="1851.23" stroke="black"/>
<line x1="50.4107" y1="1847.46" x2="277.078" y2="1851.23" stroke="black"/>
<line x1="324.889" y1="1852.49" x2="556.594" y2="1837.38" stroke="black"/>
<line x1="324.897" y1="1851.23" x2="556.602" y2="1839.9" stroke="black"/>
<line x1="328.683" y1="1851.23" x2="556.609" y2="1843.68" stroke="black"/>
<line x1="556.125" y1="1852.99" x2="556.125" y2="1834.1" stroke="black"/>
<path d="M775.09 1389.23C778.327 1385.3 779.633 1379.85 778.932 1373.18C778.231 1366.51 775.537 1358.75 771.004 1350.34C766.471 1341.94 760.188 1333.06 752.513 1324.2C744.839 1315.34 735.923 1306.69 726.275 1298.73C716.627 1290.76 706.436 1283.65 696.283 1277.8C686.131 1271.95 676.216 1267.46 667.104 1264.61C657.993 1261.76 649.863 1260.58 643.18 1261.16C636.497 1261.74 631.391 1264.06 628.153 1267.98L701.621 1328.6L775.09 1389.23Z" fill="#773E1E"/>
<path d="M518.569 1269.8C515.044 1266.14 509.819 1264.17 503.193 1264.02C496.567 1263.87 488.67 1265.54 479.953 1268.93C471.236 1272.33 461.869 1277.37 452.387 1283.79C442.906 1290.2 433.495 1297.86 424.692 1306.32C415.89 1314.79 407.868 1323.89 401.085 1333.11C394.301 1342.33 388.889 1351.5 385.158 1360.07C381.427 1368.65 379.449 1376.47 379.337 1383.1C379.226 1389.73 380.983 1395.03 384.509 1398.69L451.539 1334.25L518.569 1269.8Z" fill="#773E1E"/>
<line x1="51.6963" y1="1837.01" x2="275.852" y2="1852.35" stroke="black"/>
<circle cx="639.107" cy="1429.25" r="22.0371" fill="black"/>
<circle cx="635.331" cy="1434.28" r="9.44446" fill="white"/>
<circle cx="513.182" cy="1434.28" r="22.0371" fill="black"/>
<circle cx="508.146" cy="1439.32" r="9.44446" fill="white"/>
<path d="M328.693 1852.55L555.37 1848.22" stroke="black"/>
<path d="M1969.82 1681.46C1996.6 1619.54 2084.4 1619.54 2111.18 1681.46L2434.37 2428.94C2456.35 2479.78 2419.08 2536.5 2363.69 2536.5H1717.31C1661.92 2536.5 1624.65 2479.78 1646.63 2428.94L1969.82 1681.46Z" fill="#90BE6D"/>
<ellipse rx="26.6597" ry="3.19535" transform="matrix(-0.568871 -0.822427 -0.822427 0.568871 1746.79 1479.7)" fill="#F9C74F"/>
<ellipse rx="26.6597" ry="3.19535" transform="matrix(-0.568871 -0.822427 -0.822427 0.568871 1763.17 1484.74)" fill="#F9C74F"/>
<ellipse rx="20.928" ry="3.19535" transform="matrix(-0.568871 -0.822427 -0.822427 0.568871 1736.2 1481.89)" fill="#F9C74F"/>
<ellipse rx="17.3908" ry="3.19535" transform="matrix(-0.568871 -0.822427 -0.822427 0.568871 1724.36 1481.03)" fill="#F9C74F"/>
<ellipse rx="12.9767" ry="3.19535" transform="matrix(-0.568871 -0.822427 -0.822427 0.568871 1710.05 1478.52)" fill="#F9C74F"/>
<ellipse rx="26.6597" ry="3.19535" transform="matrix(-0.559193 0.829038 0.829038 0.559193 1746.56 1523.92)" fill="#F9C74F"/>
<ellipse rx="26.6597" ry="3.19535" transform="matrix(-0.559193 0.829038 0.829038 0.559193 1759.15 1527.7)" fill="#F9C74F"/>
<ellipse rx="20.284" ry="3.19535" transform="matrix(-0.559193 0.829038 0.829038 0.559193 1736.27 1512.34)" fill="#F9C74F"/>
<ellipse rx="15.4373" ry="3.19535" transform="matrix(-0.559193 0.829038 0.829038 0.559193 1723.87 1503.28)" fill="#F9C74F"/>
<ellipse rx="10.2976" ry="3.19535" transform="matrix(-0.559193 0.829038 0.829038 0.559193 1711.63 1495.24)" fill="#F9C74F"/>
<path d="M3889.1 2155.33L3472.63 1644.68C3439.3 1603.81 3373.68 1636.46 3386.18 1687.69L3417.86 1817.54C3420.07 1826.6 3424.79 1834.84 3431.48 1841.33L3820.21 2218.52C3845.61 2243.17 3888.13 2231.8 3897.84 2197.76C3902.04 2183.03 3898.77 2167.19 3889.1 2155.33Z" fill="white" stroke="black"/>
<rect x="3285.45" y="2463.16" width="116.53" height="440.103" rx="50" transform="rotate(-0.516261 3285.45 2463.16)" fill="#277DA1"/>
<rect x="3470.56" y="2461.9" width="116.53" height="440.103" rx="50" transform="rotate(-0.516261 3470.56 2461.9)" fill="#277DA1"/>
<path d="M3006.32 2151.72L3411.48 1647.05C3444.68 1605.69 3510.87 1638.44 3498.13 1689.92L3467.36 1814.33C3465.17 1823.18 3460.58 1831.25 3454.1 1837.65L3074.24 2212.99C3049.22 2237.72 3006.81 2226.18 2997.77 2192.18C2994.02 2178.1 2997.2 2163.08 3006.32 2151.72Z" fill="white" stroke="black"/>
<path d="M3513.72 1676.53L3836.63 2424.35C3858.44 2474.86 3821.41 2531.18 3766.4 2531.18H3120.57C3065.56 2531.18 3028.53 2474.86 3050.34 2424.35L3373.25 1676.53C3399.84 1614.97 3487.13 1614.97 3513.72 1676.53Z" fill="white" stroke="black"/>
<path d="M3347.84 2531.18L3437.82 1428.11L3527.79 2531.18H3347.84Z" fill="#277DA1" stroke="black"/>
<ellipse cx="3439.18" cy="1462" rx="210.398" ry="201.227" fill="#277DA1"/>
<path d="M3568.54 1426.63C3568.54 1452.52 3546.72 1473.61 3519.67 1473.61C3492.63 1473.61 3470.8 1452.52 3470.8 1426.63C3470.8 1400.74 3492.63 1379.65 3519.67 1379.65C3546.72 1379.65 3568.54 1400.74 3568.54 1426.63Z" stroke="black" stroke-width="3"/>
<ellipse rx="47.8492" ry="13.297" transform="matrix(0.921348 -0.388739 -0.388739 -0.921348 3395.15 1534.93)" fill="#C4C4C4"/>
<path d="M3524.97 1292.18C3525.05 1284.9 3489.83 1278.58 3446.31 1278.07C3402.78 1277.56 3367.42 1283.04 3367.33 1290.32C3367.25 1297.6 3401.93 1288.94 3445.46 1289.45C3488.99 1289.96 3524.88 1299.46 3524.97 1292.18Z" fill="#C4C4C4"/>
<path d="M3542.34 1316.51C3542.43 1309.23 3499.37 1302.82 3446.18 1302.2C3392.98 1301.57 3349.79 1306.97 3349.7 1314.25C3349.62 1321.53 3391.98 1312.96 3445.18 1313.58C3498.37 1314.21 3542.26 1323.79 3542.34 1316.51Z" fill="#C4C4C4"/>
<ellipse rx="47.8492" ry="13.297" transform="matrix(0.921863 0.387516 0.387516 -0.921863 3488.34 1534.87)" fill="#C4C4C4"/>
<path d="M3550.73 1462.52C3546.57 1491.23 3553.43 1523.77 3572.16 1552.66C3581.64 1567.27 3593.2 1579.49 3605.93 1589.02" stroke="black" stroke-width="3"/>
<line x1="2004.48" y1="1545.57" x2="1713.59" y2="1486.39" stroke="#F9C74F" stroke-width="3"/>
<path d="M1598.24 2186.01C1594.46 2171.78 1597.67 2156.6 1606.88 2145.11L2012.05 1640.44C2045.59 1598.67 2112.44 1631.74 2099.58 1683.75L2068.8 1808.15C2066.59 1817.09 2061.96 1825.24 2055.41 1831.71L1675.55 2207.05C1650.25 2232.05 1607.39 2220.38 1598.24 2186.01V2186.01Z" fill="#90BE6D"/>
<path d="M2492.99 2194.54C2497.23 2179.66 2493.93 2163.65 2484.15 2151.66L2067.68 1641.01C2034.01 1599.72 1967.73 1632.7 1980.36 1684.46L2012.04 1814.31C2014.27 1823.45 2019.04 1831.78 2025.79 1838.34L2414.53 2215.53C2440.2 2240.44 2483.17 2228.95 2492.99 2194.54V2194.54Z" fill="#90BE6D"/>
<path d="M1041.06 2200.41C1045.3 2185.53 1042 2169.52 1032.22 2157.53L615.752 1646.88C582.083 1605.59 515.803 1638.58 528.429 1690.33L560.108 1820.18C562.339 1829.32 567.108 1837.66 573.864 1844.21L962.595 2221.4C988.273 2246.31 1031.25 2234.82 1041.06 2200.41V2200.41Z" fill="#F94144"/>
<rect x="284.5" y="1851.5" width="28" height="373" fill="#F8961E" stroke="black"/>
<path d="M3373.8 1699.16L3374.36 1651.52L3420.56 1663.17L3373.8 1699.16Z" fill="white" stroke="black"/>
<path d="M3454.27 1662.43L3500.37 1650.38L3501.34 1698.02L3454.27 1662.43Z" fill="white" stroke="black"/>
<path d="M3587.16 1927.17L3546.88 1963.51L3503.49 1930.92L3501.99 1874.78L3582.34 1873.29L3587.16 1927.17Z" fill="white" stroke="black"/>
<line x1="3502.02" y1="1883.22" x2="3582.63" y2="1881.43" stroke="black"/>
<rect x="1353.74" y="1500.78" width="41.5556" height="1468.42" rx="20.7778" transform="rotate(-16.9053 1353.74 1500.78)" fill="#F9C74F"/>
<rect x="1872.55" y="2474.49" width="116.53" height="440.103" rx="50" transform="rotate(-0.516261 1872.55 2474.49)" fill="#90BE6D"/>
<rect x="428.182" y="2471.97" width="116.53" height="440.103" rx="50" transform="rotate(-0.516261 428.182 2471.97)" fill="#F94144"/>
<rect x="2052.63" y="2474.49" width="116.53" height="440.103" rx="50" transform="rotate(-0.516261 2052.63 2474.49)" fill="#90BE6D"/>
<rect x="603.219" y="2473.23" width="116.53" height="440.103" rx="50" transform="rotate(-0.516261 603.219 2473.23)" fill="#F94144"/>
<rect x="1100.63" y="1597.83" width="567.634" height="32.9324" rx="16.4662" transform="rotate(-23.074 1100.63 1597.83)" fill="#F9C74F"/>
<rect x="1109.41" y="1618.18" width="130.594" height="10.2237" rx="5.11185" transform="rotate(-112.673 1109.41 1618.18)" fill="#F9C74F"/>
<rect x="1229.04" y="1566.55" width="130.594" height="10.2237" rx="5.11185" transform="rotate(-112.673 1229.04 1566.55)" fill="#F9C74F"/>
<rect x="1439.34" y="1473.36" width="130.594" height="10.2237" rx="5.11185" transform="rotate(-112.673 1439.34 1473.36)" fill="#F9C74F"/>
<rect x="1574.08" y="1417.95" width="130.594" height="10.2237" rx="5.11185" transform="rotate(-112.673 1574.08 1417.95)" fill="#F9C74F"/>
<rect x="1169.86" y="1591.73" width="130.594" height="10.2237" rx="5.11185" transform="rotate(-112.673 1169.86 1591.73)" fill="#F9C74F"/>
<rect x="1380.15" y="1498.55" width="130.594" height="10.2237" rx="5.11185" transform="rotate(-112.673 1380.15 1498.55)" fill="#F9C74F"/>
<rect x="1289.49" y="1540.1" width="130.594" height="10.2237" rx="5.11185" transform="rotate(-112.673 1289.49 1540.1)" fill="#F9C74F"/>
<rect x="1499.78" y="1446.92" width="130.594" height="10.2237" rx="5.11185" transform="rotate(-112.673 1499.78 1446.92)" fill="#F9C74F"/>
<rect x="1124.52" y="1613.14" width="130.594" height="10.2237" rx="5.11185" transform="rotate(-112.673 1124.52 1613.14)" fill="#F9C74F"/>
<rect x="1244.15" y="1561.51" width="130.594" height="10.2237" rx="5.11185" transform="rotate(-112.673 1244.15 1561.51)" fill="#F9C74F"/>
<rect x="1454.45" y="1468.32" width="130.594" height="10.2237" rx="5.11185" transform="rotate(-112.673 1454.45 1468.32)" fill="#F9C74F"/>
<rect x="1589.19" y="1412.92" width="130.594" height="10.2237" rx="5.11185" transform="rotate(-112.673 1589.19 1412.92)" fill="#F9C74F"/>
<rect x="1184.97" y="1586.69" width="130.594" height="10.2237" rx="5.11185" transform="rotate(-112.673 1184.97 1586.69)" fill="#F9C74F"/>
<rect x="1395.27" y="1493.51" width="130.594" height="10.2237" rx="5.11185" transform="rotate(-112.673 1395.27 1493.51)" fill="#F9C74F"/>
<rect x="1304.6" y="1535.06" width="130.594" height="10.2237" rx="5.11185" transform="rotate(-112.673 1304.6 1535.06)" fill="#F9C74F"/>
<rect x="1514.9" y="1441.88" width="130.594" height="10.2237" rx="5.11185" transform="rotate(-112.673 1514.9 1441.88)" fill="#F9C74F"/>
<rect x="1139.63" y="1605.58" width="130.594" height="10.2237" rx="5.11185" transform="rotate(-112.673 1139.63 1605.58)" fill="#F9C74F"/>
<rect x="1349.93" y="1512.4" width="130.594" height="10.2237" rx="5.11185" transform="rotate(-112.673 1349.93 1512.4)" fill="#F9C74F"/>
<rect x="1259.27" y="1553.95" width="130.594" height="10.2237" rx="5.11185" transform="rotate(-112.673 1259.27 1553.95)" fill="#F9C74F"/>
<rect x="1469.56" y="1460.77" width="130.594" height="10.2237" rx="5.11185" transform="rotate(-112.673 1469.56 1460.77)" fill="#F9C74F"/>
<rect x="1604.3" y="1405.36" width="130.594" height="10.2237" rx="5.11185" transform="rotate(-112.673 1604.3 1405.36)" fill="#F9C74F"/>
<rect x="1200.08" y="1579.14" width="130.594" height="10.2237" rx="5.11185" transform="rotate(-112.673 1200.08 1579.14)" fill="#F9C74F"/>
<rect x="1410.38" y="1485.95" width="130.594" height="10.2237" rx="5.11185" transform="rotate(-112.673 1410.38 1485.95)" fill="#F9C74F"/>
<rect x="1319.71" y="1527.51" width="130.594" height="10.2237" rx="5.11185" transform="rotate(-112.673 1319.71 1527.51)" fill="#F9C74F"/>
<rect x="1530.01" y="1434.32" width="130.594" height="10.2237" rx="5.11185" transform="rotate(-112.673 1530.01 1434.32)" fill="#F9C74F"/>
<rect x="1154.75" y="1598.03" width="130.594" height="10.2237" rx="5.11185" transform="rotate(-112.673 1154.75 1598.03)" fill="#F9C74F"/>
<rect x="1365.04" y="1504.84" width="130.594" height="10.2237" rx="5.11185" transform="rotate(-112.673 1365.04 1504.84)" fill="#F9C74F"/>
<rect x="1274.38" y="1546.4" width="130.594" height="10.2237" rx="5.11185" transform="rotate(-112.673 1274.38 1546.4)" fill="#F9C74F"/>
<rect x="1484.67" y="1453.21" width="130.594" height="10.2237" rx="5.11185" transform="rotate(-112.673 1484.67 1453.21)" fill="#F9C74F"/>
<rect x="1621.79" y="1403.49" width="136.757" height="10.2237" rx="5.11185" transform="rotate(-112.673 1621.79 1403.49)" fill="#F9C74F"/>
<rect x="1215.19" y="1571.58" width="130.594" height="10.2237" rx="5.11185" transform="rotate(-112.673 1215.19 1571.58)" fill="#F9C74F"/>
<rect x="1425.49" y="1478.4" width="130.594" height="10.2237" rx="5.11185" transform="rotate(-112.673 1425.49 1478.4)" fill="#F9C74F"/>
<rect x="1560.23" y="1422.99" width="130.594" height="10.2237" rx="5.11185" transform="rotate(-112.673 1560.23 1422.99)" fill="#F9C74F"/>
<rect x="1334.82" y="1519.95" width="130.594" height="10.2237" rx="5.11185" transform="rotate(-112.673 1334.82 1519.95)" fill="#F9C74F"/>
<rect x="1545.12" y="1426.77" width="130.594" height="10.2237" rx="5.11185" transform="rotate(-112.673 1545.12 1426.77)" fill="#F9C74F"/>
<circle cx="3519.04" cy="1427.62" r="22.0371" fill="black"/>
<circle cx="3519.04" cy="1427.62" r="9.44446" fill="white"/>
<path d="M3316 1430C3343.73 1430 3387 1430 3387 1430" stroke="black" stroke-width="10"/>
</svg>
