<svg width="4001" height="4001" viewBox="0 0 4001 4001" fill="none" xmlns="http://www.w3.org/2000/svg">
<path d="M1590.25 2601.52C1574.21 2612.14 1555.38 2618.94 1535.37 2621.35C1515.35 2623.75 1494.74 2621.69 1475.28 2615.33C1455.82 2608.98 1438.09 2598.52 1423.57 2584.83C1409.06 2571.15 1398.21 2554.66 1391.92 2536.74C1385.64 2518.83 1384.11 2500.02 1387.48 2481.92C1390.84 2463.82 1398.99 2446.95 1411.24 2432.75C1423.49 2418.56 1439.48 2407.44 1457.85 2400.35C1476.22 2393.27 1496.43 2390.41 1516.77 2392.04L1516.49 2399.37C1497.45 2397.85 1478.52 2400.52 1461.33 2407.15C1444.13 2413.79 1429.16 2424.19 1417.69 2437.49C1406.22 2450.78 1398.59 2466.57 1395.44 2483.52C1392.29 2500.46 1393.72 2518.07 1399.6 2534.84C1405.48 2551.61 1415.65 2567.06 1429.24 2579.87C1442.82 2592.68 1459.43 2602.47 1477.65 2608.42C1495.87 2614.37 1515.16 2616.31 1533.9 2614.05C1552.64 2611.8 1570.26 2605.44 1585.28 2595.49L1590.25 2601.52Z" fill="white"/>
<path d="M1296.16 2426.71C1303.12 2402.55 1317.02 2380.47 1336.69 2362.34C1356.36 2344.21 1381.22 2330.56 1409.17 2322.56C1437.11 2314.55 1467.31 2312.41 1497.22 2316.33C1527.12 2320.26 1555.85 2330.12 1580.96 2345.09C1606.06 2360.05 1626.82 2379.68 1641.46 2402.31C1656.1 2424.94 1664.19 2449.91 1665.06 2475.09C1665.92 2500.27 1659.53 2524.93 1646.42 2546.97C1633.31 2569.01 1613.87 2587.79 1589.76 2601.72L1584.72 2595.83C1607.75 2582.53 1626.31 2564.6 1638.83 2543.55C1651.34 2522.5 1657.45 2498.96 1656.62 2474.91C1655.8 2450.86 1648.07 2427.03 1634.09 2405.42C1620.11 2383.81 1600.29 2365.06 1576.32 2350.77C1552.34 2336.48 1524.91 2327.06 1496.36 2323.32C1467.8 2319.57 1438.96 2321.61 1412.27 2329.26C1385.59 2336.9 1361.85 2349.94 1343.07 2367.25C1324.28 2384.56 1311.01 2405.65 1304.37 2428.71L1296.16 2426.71Z" fill="white"/>
<path d="M1305.04 2426.36C1296.58 2458.38 1278.31 2487.71 1252.12 2511.3C1225.93 2534.89 1192.77 2551.88 1156.1 2560.5C1119.43 2569.12 1080.58 2569.06 1043.59 2560.33C1006.59 2551.6 972.798 2534.51 945.72 2510.84L951.675 2505.76C977.683 2528.49 1010.14 2544.91 1045.68 2553.29C1081.21 2561.68 1118.53 2561.74 1153.75 2553.46C1188.97 2545.17 1220.81 2528.86 1245.97 2506.2C1271.13 2483.54 1288.68 2455.37 1296.81 2424.61L1305.04 2426.36Z" fill="white"/>
<path d="M665.1 2507.63C681.644 2489.75 702.254 2475.58 725.754 2465.93C749.254 2456.28 775.183 2451.34 802.061 2451.4C828.94 2451.46 856.24 2456.51 882.405 2466.26C908.57 2476.02 933.086 2490.29 954.554 2508.25L949.42 2513.8C928.827 2496.57 905.31 2482.88 880.211 2473.52C855.113 2464.17 828.925 2459.32 803.142 2459.27C777.359 2459.21 752.486 2463.95 729.944 2473.2C707.402 2482.46 687.632 2496.05 671.762 2513.21L665.1 2507.63Z" fill="white"/>
<path d="M674.389 2510.33C648.886 2539.13 613.289 2558.62 572.526 2566.12C531.762 2573.62 487.848 2568.75 446.861 2552.19L449.352 2545.05C488.669 2560.94 530.794 2565.61 569.896 2558.42C608.998 2551.22 643.144 2532.52 667.608 2504.9L674.389 2510.33Z" fill="white"/>
<path d="M1515.81 2391.94C1528.6 2392.54 1541.06 2395.76 1552.12 2401.32C1563.17 2406.88 1572.51 2414.62 1579.34 2423.89C1586.16 2433.16 1590.27 2443.67 1591.32 2454.55C1592.37 2465.43 1590.33 2476.34 1585.37 2486.37C1580.41 2496.4 1572.67 2505.25 1562.82 2512.17C1552.96 2519.09 1541.28 2523.87 1528.76 2526.11C1516.24 2528.35 1503.26 2527.99 1490.9 2525.05C1478.54 2522.11 1467.18 2516.68 1457.78 2509.22L1463.7 2503.81C1472.07 2510.45 1482.19 2515.28 1493.2 2517.9C1504.2 2520.52 1515.77 2520.85 1526.92 2518.85C1538.07 2516.85 1548.47 2512.59 1557.25 2506.43C1566.03 2500.27 1572.92 2492.39 1577.34 2483.46C1581.76 2474.52 1583.58 2464.8 1582.64 2455.11C1581.71 2445.43 1578.04 2436.06 1571.97 2427.8C1565.89 2419.55 1557.57 2412.66 1547.72 2407.7C1537.87 2402.75 1526.78 2399.88 1515.38 2399.35L1515.81 2391.94Z" fill="white"/>
<path d="M1593.46 2594.31C1577.42 2604.93 1558.59 2611.73 1538.58 2614.13C1518.57 2616.54 1497.96 2614.48 1478.5 2608.12C1459.04 2601.76 1441.3 2591.3 1426.79 2577.62C1412.28 2563.94 1401.42 2547.44 1395.13 2529.53C1388.85 2511.61 1387.33 2492.81 1390.69 2474.7C1394.05 2456.6 1402.2 2439.74 1414.45 2425.54C1426.7 2411.34 1442.69 2400.23 1461.06 2393.14C1479.43 2386.05 1499.64 2383.2 1519.98 2384.82L1519.7 2392.15C1500.66 2390.63 1481.74 2393.3 1464.54 2399.94C1447.34 2406.57 1432.37 2416.98 1420.9 2430.27C1409.43 2443.56 1401.8 2459.35 1398.65 2476.3C1395.5 2493.25 1396.93 2510.85 1402.81 2527.63C1408.7 2544.4 1418.86 2559.84 1432.45 2572.65C1446.03 2585.46 1462.64 2595.26 1480.86 2601.21C1499.08 2607.16 1518.38 2609.09 1537.11 2606.84C1555.85 2604.59 1573.47 2598.22 1588.49 2588.28L1593.46 2594.31Z" fill="#656484"/>
<path d="M1299.38 2419.49C1306.33 2395.34 1320.23 2373.26 1339.9 2355.13C1359.57 2337 1384.43 2323.35 1412.38 2315.34C1440.32 2307.33 1470.53 2305.2 1500.43 2309.12C1530.34 2313.04 1559.06 2322.9 1584.17 2337.87C1609.28 2352.84 1630.03 2372.47 1644.67 2395.1C1659.31 2417.73 1667.4 2442.69 1668.27 2467.87C1669.13 2493.06 1662.74 2517.71 1649.63 2539.76C1636.52 2561.8 1617.09 2580.58 1592.97 2594.5L1587.93 2588.61C1610.96 2575.32 1629.52 2557.38 1642.04 2536.34C1654.56 2515.29 1660.66 2491.74 1659.84 2467.7C1659.01 2443.65 1651.28 2419.81 1637.3 2398.2C1623.32 2376.59 1603.51 2357.85 1579.53 2343.56C1555.55 2329.26 1528.13 2319.85 1499.57 2316.1C1471.01 2312.36 1442.17 2314.39 1415.49 2322.04C1388.8 2329.69 1365.06 2342.72 1346.28 2360.04C1327.5 2377.35 1314.22 2398.43 1307.58 2421.5L1299.38 2419.49Z" fill="#656484"/>
<path d="M1308.26 2419.14C1299.8 2451.17 1281.52 2480.5 1255.33 2504.08C1229.14 2527.67 1195.99 2544.66 1159.32 2553.28C1122.65 2561.9 1083.79 2561.85 1046.8 2553.11C1009.8 2544.38 976.011 2527.29 948.933 2503.63L954.888 2498.54C980.896 2521.28 1013.35 2537.69 1048.89 2546.08C1084.42 2554.47 1121.74 2554.52 1156.96 2546.24C1192.18 2537.96 1224.03 2521.64 1249.18 2498.99C1274.34 2476.33 1291.89 2448.16 1300.02 2417.4L1308.26 2419.14Z" fill="#656484"/>
<path d="M668.313 2500.42C684.857 2482.53 705.467 2468.36 728.967 2458.71C752.467 2449.07 778.396 2444.13 805.274 2444.19C832.153 2444.24 859.453 2449.29 885.618 2459.05C911.783 2468.8 936.299 2483.07 957.766 2501.04L952.632 2506.59C932.04 2489.35 908.523 2475.67 883.424 2466.31C858.326 2456.95 832.138 2452.11 806.355 2452.05C780.572 2452 755.699 2456.73 733.157 2465.99C710.615 2475.24 690.845 2488.84 674.975 2505.99L668.313 2500.42Z" fill="#656484"/>
<path d="M677.602 2503.12C652.099 2531.91 616.502 2551.41 575.739 2558.91C534.975 2566.41 491.061 2561.54 450.073 2544.97L452.565 2537.84C491.882 2553.73 534.007 2558.4 573.109 2551.2C612.211 2544.01 646.357 2525.31 670.821 2497.69L677.602 2503.12Z" fill="#656484"/>
<path d="M1519.02 2384.72C1531.82 2385.32 1544.27 2388.54 1555.33 2394.1C1566.39 2399.67 1575.73 2407.41 1582.55 2416.68C1589.38 2425.94 1593.49 2436.46 1594.54 2447.34C1595.59 2458.21 1593.55 2469.13 1588.58 2479.16C1583.62 2489.19 1575.88 2498.04 1566.03 2504.96C1556.18 2511.87 1544.49 2516.66 1531.98 2518.9C1519.46 2521.14 1506.47 2520.77 1494.11 2517.83C1481.76 2514.89 1470.4 2509.46 1461 2502.01L1466.91 2496.59C1475.29 2503.23 1485.4 2508.07 1496.41 2510.69C1507.41 2513.31 1518.98 2513.63 1530.13 2511.64C1541.28 2509.64 1551.69 2505.38 1560.46 2499.22C1569.24 2493.06 1576.13 2485.18 1580.55 2476.24C1584.97 2467.31 1586.79 2457.59 1585.85 2447.9C1584.92 2438.21 1581.26 2428.84 1575.18 2420.59C1569.1 2412.34 1560.78 2405.44 1550.93 2400.49C1541.08 2395.53 1529.99 2392.67 1518.6 2392.13L1519.02 2384.72Z" fill="#656484"/>
<path d="M1593.46 2589.52C1577.42 2600.14 1558.59 2606.94 1538.58 2609.35C1518.57 2611.75 1497.96 2609.69 1478.5 2603.33C1459.04 2596.98 1441.3 2586.52 1426.79 2572.83C1412.28 2559.15 1401.42 2542.66 1395.13 2524.74C1388.85 2506.83 1387.33 2488.02 1390.69 2469.92C1394.05 2451.82 1402.2 2434.95 1414.45 2420.75C1426.7 2406.56 1442.69 2395.44 1461.06 2388.35C1479.43 2381.27 1499.64 2378.41 1519.98 2380.04L1519.7 2387.37C1500.66 2385.85 1481.74 2388.52 1464.54 2395.15C1447.34 2401.79 1432.37 2412.19 1420.9 2425.49C1409.43 2438.78 1401.8 2454.57 1398.65 2471.52C1395.5 2488.46 1396.93 2506.07 1402.81 2522.84C1408.7 2539.61 1418.86 2555.06 1432.45 2567.87C1446.03 2580.68 1462.64 2590.47 1480.86 2596.42C1499.08 2602.37 1518.38 2604.31 1537.11 2602.05C1555.85 2599.8 1573.47 2593.44 1588.49 2583.49L1593.46 2589.52Z" fill="#9897C6"/>
<path d="M1299.38 2414.71C1306.33 2390.55 1320.23 2368.47 1339.9 2350.34C1359.57 2332.21 1384.43 2318.57 1412.38 2310.56C1440.32 2302.55 1470.53 2300.41 1500.43 2304.33C1530.34 2308.26 1559.06 2318.12 1584.17 2333.09C1609.28 2348.05 1630.03 2367.68 1644.67 2390.31C1659.31 2412.94 1667.4 2437.91 1668.27 2463.09C1669.13 2488.27 1662.74 2512.93 1649.63 2534.97C1636.52 2557.01 1617.09 2575.79 1592.97 2589.72L1587.93 2583.83C1610.96 2570.53 1629.52 2552.6 1642.04 2531.55C1654.56 2510.5 1660.66 2486.96 1659.84 2462.91C1659.01 2438.87 1651.28 2415.03 1637.3 2393.42C1623.32 2371.81 1603.51 2353.06 1579.53 2338.77C1555.55 2324.48 1528.13 2315.06 1499.57 2311.32C1471.01 2307.57 1442.17 2309.61 1415.49 2317.26C1388.8 2324.9 1365.06 2337.94 1346.28 2355.25C1327.5 2372.56 1314.22 2393.65 1307.58 2416.71L1299.38 2414.71Z" fill="#9897C6"/>
<path d="M1308.26 2414.36C1299.8 2446.38 1281.52 2475.71 1255.33 2499.3C1229.14 2522.89 1195.99 2539.88 1159.32 2548.5C1122.65 2557.12 1083.79 2557.06 1046.8 2548.33C1009.8 2539.6 976.011 2522.51 948.933 2498.84L954.888 2493.76C980.896 2516.49 1013.35 2532.91 1048.89 2541.29C1084.42 2549.68 1121.74 2549.74 1156.96 2541.46C1192.18 2533.17 1224.03 2516.86 1249.18 2494.2C1274.34 2471.54 1291.89 2443.37 1300.02 2412.61L1308.26 2414.36Z" fill="#9897C6"/>
<path d="M668.313 2495.63C684.857 2477.75 705.467 2463.58 728.967 2453.93C752.467 2444.28 778.396 2439.34 805.274 2439.4C832.153 2439.46 859.453 2444.51 885.618 2454.26C911.783 2464.02 936.299 2478.29 957.766 2496.25L952.632 2501.8C932.04 2484.57 908.523 2470.88 883.424 2461.52C858.326 2452.17 832.138 2447.32 806.355 2447.27C780.572 2447.21 755.699 2451.95 733.157 2461.2C710.615 2470.46 690.845 2484.05 674.975 2501.21L668.313 2495.63Z" fill="#9897C6"/>
<path d="M677.602 2498.33C652.099 2527.13 616.502 2546.62 575.739 2554.12C534.975 2561.62 491.061 2556.75 450.073 2540.19L452.565 2533.05C491.882 2548.94 534.007 2553.61 573.109 2546.42C612.211 2539.22 646.357 2520.52 670.821 2492.9L677.602 2498.33Z" fill="#9897C6"/>
<path d="M1519.02 2379.94C1531.82 2380.54 1544.27 2383.76 1555.33 2389.32C1566.39 2394.88 1575.73 2402.62 1582.55 2411.89C1589.38 2421.16 1593.49 2431.67 1594.54 2442.55C1595.59 2453.43 1593.55 2464.34 1588.58 2474.37C1583.62 2484.4 1575.88 2493.25 1566.03 2500.17C1556.18 2507.09 1544.49 2511.87 1531.98 2514.11C1519.46 2516.35 1506.47 2515.99 1494.11 2513.05C1481.76 2510.11 1470.4 2504.68 1461 2497.22L1466.91 2491.81C1475.29 2498.45 1485.4 2503.28 1496.41 2505.9C1507.41 2508.52 1518.98 2508.85 1530.13 2506.85C1541.28 2504.85 1551.69 2500.59 1560.46 2494.43C1569.24 2488.27 1576.13 2480.39 1580.55 2471.46C1584.97 2462.52 1586.79 2452.8 1585.85 2443.11C1584.92 2433.43 1581.26 2424.06 1575.18 2415.81C1569.1 2407.55 1560.78 2400.66 1550.93 2395.7C1541.08 2390.75 1529.99 2387.88 1518.6 2387.35L1519.02 2379.94Z" fill="#9897C6"/>
<path d="M1230.42 2342.79C1219.54 2350 1206.76 2354.61 1193.18 2356.25C1179.6 2357.88 1165.61 2356.48 1152.41 2352.17C1139.2 2347.85 1127.17 2340.75 1117.32 2331.47C1107.47 2322.18 1100.1 2310.99 1095.84 2298.83C1091.57 2286.68 1090.54 2273.92 1092.82 2261.63C1095.1 2249.35 1100.64 2237.9 1108.95 2228.27C1117.26 2218.63 1128.11 2211.09 1140.58 2206.28C1153.04 2201.47 1166.76 2199.54 1180.56 2200.64L1180.37 2205.61C1167.45 2204.58 1154.61 2206.39 1142.94 2210.9C1131.26 2215.4 1121.11 2222.46 1113.32 2231.48C1105.54 2240.5 1100.36 2251.22 1098.23 2262.72C1096.09 2274.22 1097.06 2286.16 1101.05 2297.54C1105.04 2308.93 1111.94 2319.41 1121.16 2328.1C1130.38 2336.79 1141.65 2343.44 1154.01 2347.48C1166.38 2351.51 1179.47 2352.82 1192.18 2351.3C1204.9 2349.77 1216.86 2345.45 1227.05 2338.7L1230.42 2342.79Z" fill="white"/>
<path d="M1030.86 2224.17C1035.58 2207.77 1045.01 2192.79 1058.36 2180.49C1071.71 2168.19 1088.58 2158.92 1107.54 2153.49C1126.5 2148.05 1147 2146.61 1167.29 2149.27C1187.59 2151.93 1207.08 2158.62 1224.12 2168.78C1241.15 2178.93 1255.24 2192.26 1265.17 2207.61C1275.11 2222.97 1280.6 2239.91 1281.18 2257C1281.77 2274.08 1277.43 2290.82 1268.54 2305.77C1259.64 2320.73 1246.45 2333.48 1230.09 2342.93L1226.67 2338.93C1242.3 2329.91 1254.89 2317.74 1263.39 2303.45C1271.88 2289.17 1276.02 2273.19 1275.46 2256.88C1274.9 2240.56 1269.66 2224.38 1260.17 2209.72C1250.69 2195.05 1237.24 2182.33 1220.97 2172.64C1204.7 2162.94 1186.09 2156.55 1166.71 2154.01C1147.33 2151.46 1127.76 2152.85 1109.65 2158.04C1091.54 2163.23 1075.43 2172.07 1062.69 2183.82C1049.94 2195.57 1040.93 2209.87 1036.43 2225.53L1030.86 2224.17Z" fill="white"/>
<path d="M1036.89 2223.93C1031.14 2245.66 1018.74 2265.56 1000.97 2281.57C983.196 2297.58 960.699 2309.1 935.815 2314.95C910.931 2320.8 884.567 2320.77 859.463 2314.84C834.358 2308.91 811.427 2297.32 793.052 2281.26L797.093 2277.81C814.742 2293.24 836.767 2304.37 860.881 2310.07C884.994 2315.76 910.316 2315.8 934.218 2310.18C958.119 2304.56 979.727 2293.48 996.799 2278.11C1013.87 2262.73 1025.78 2243.62 1031.3 2222.74L1036.89 2223.93Z" fill="white"/>
<path d="M602.627 2279.08C613.854 2266.94 627.839 2257.33 643.786 2250.78C659.733 2244.23 677.328 2240.88 695.567 2240.92C713.806 2240.96 732.332 2244.39 750.087 2251.01C767.842 2257.63 784.479 2267.31 799.047 2279.5L795.563 2283.27C781.589 2271.57 765.63 2262.28 748.599 2255.94C731.567 2249.59 713.796 2246.3 696.3 2246.26C678.805 2246.22 661.926 2249.44 646.629 2255.72C631.333 2262 617.917 2271.22 607.148 2282.86L602.627 2279.08Z" fill="white"/>
<path d="M608.932 2280.91C591.626 2300.45 567.47 2313.68 539.809 2318.77C512.147 2323.86 482.348 2320.56 454.534 2309.32L456.224 2304.47C482.905 2315.26 511.49 2318.42 538.024 2313.54C564.558 2308.66 587.729 2295.97 604.33 2277.23L608.932 2280.91Z" fill="white"/>
<path d="M1179.91 2200.57C1188.59 2200.98 1197.04 2203.16 1204.54 2206.94C1212.05 2210.71 1218.38 2215.97 1223.02 2222.25C1227.65 2228.54 1230.44 2235.68 1231.15 2243.06C1231.86 2250.44 1230.48 2257.85 1227.11 2264.66C1223.74 2271.46 1218.49 2277.47 1211.81 2282.16C1205.12 2286.85 1197.19 2290.1 1188.7 2291.62C1180.2 2293.14 1171.39 2292.89 1163 2290.9C1154.62 2288.9 1146.91 2285.22 1140.53 2280.16L1144.55 2276.48C1150.23 2280.99 1157.09 2284.27 1164.56 2286.05C1172.03 2287.83 1179.88 2288.05 1187.45 2286.69C1195.01 2285.34 1202.07 2282.45 1208.03 2278.27C1213.98 2274.09 1218.66 2268.74 1221.66 2262.68C1224.66 2256.61 1225.89 2250.02 1225.26 2243.44C1224.62 2236.87 1222.14 2230.51 1218.01 2224.91C1213.89 2219.31 1208.24 2214.63 1201.56 2211.27C1194.88 2207.91 1187.35 2205.96 1179.62 2205.6L1179.91 2200.57Z" fill="white"/>
<path d="M1232.6 2337.89C1221.72 2345.1 1208.94 2349.72 1195.36 2351.35C1181.78 2352.98 1167.8 2351.58 1154.59 2347.27C1141.38 2342.96 1129.35 2335.86 1119.5 2326.57C1109.65 2317.29 1102.28 2306.09 1098.02 2293.94C1093.76 2281.78 1092.72 2269.02 1095 2256.74C1097.29 2244.45 1102.82 2233.01 1111.13 2223.37C1119.44 2213.74 1130.29 2206.2 1142.76 2201.39C1155.22 2196.58 1168.94 2194.64 1182.74 2195.74L1182.55 2200.72C1169.63 2199.68 1156.79 2201.5 1145.12 2206C1133.45 2210.5 1123.29 2217.56 1115.51 2226.58C1107.72 2235.6 1102.54 2246.32 1100.41 2257.82C1098.27 2269.32 1099.24 2281.27 1103.23 2292.65C1107.22 2304.03 1114.12 2314.51 1123.34 2323.2C1132.56 2331.89 1143.83 2338.54 1156.19 2342.58C1168.56 2346.62 1181.65 2347.93 1194.37 2346.4C1207.08 2344.87 1219.04 2340.55 1229.23 2333.8L1232.6 2337.89Z" fill="#656484"/>
<path d="M1033.04 2219.27C1037.76 2202.88 1047.19 2187.9 1060.54 2175.59C1073.89 2163.29 1090.76 2154.03 1109.72 2148.59C1128.68 2143.16 1149.18 2141.71 1169.47 2144.37C1189.77 2147.03 1209.26 2153.73 1226.3 2163.88C1243.34 2174.04 1257.42 2187.36 1267.35 2202.72C1277.29 2218.07 1282.78 2235.01 1283.37 2252.1C1283.95 2269.19 1279.61 2285.92 1270.72 2300.88C1261.82 2315.84 1248.63 2328.58 1232.27 2338.03L1228.85 2334.03C1244.48 2325.01 1257.07 2312.84 1265.57 2298.56C1274.06 2284.27 1278.2 2268.3 1277.64 2251.98C1277.08 2235.66 1271.84 2219.49 1262.35 2204.82C1252.87 2190.16 1239.42 2177.44 1223.15 2167.74C1206.88 2158.04 1188.27 2151.65 1168.89 2149.11C1149.51 2146.57 1129.94 2147.95 1111.83 2153.14C1093.72 2158.33 1077.61 2167.17 1064.87 2178.92C1052.12 2190.67 1043.11 2204.98 1038.61 2220.63L1033.04 2219.27Z" fill="#656484"/>
<path d="M1039.07 2219.03C1033.33 2240.76 1020.92 2260.67 1003.15 2276.67C985.377 2292.68 962.881 2304.21 937.997 2310.06C913.113 2315.91 886.749 2315.87 861.644 2309.94C836.539 2304.02 813.609 2292.42 795.234 2276.36L799.274 2272.91C816.924 2288.34 838.949 2299.48 863.062 2305.17C887.176 2310.86 912.498 2310.9 936.399 2305.28C960.3 2299.66 981.909 2288.59 998.98 2273.21C1016.05 2257.84 1027.96 2238.72 1033.48 2217.85L1039.07 2219.03Z" fill="#656484"/>
<path d="M604.809 2274.18C616.035 2262.05 630.021 2252.43 645.968 2245.88C661.914 2239.34 679.51 2235.99 697.749 2236.03C715.988 2236.07 734.514 2239.49 752.269 2246.11C770.024 2252.73 786.66 2262.41 801.228 2274.6L797.744 2278.37C783.77 2266.68 767.812 2257.39 750.78 2251.04C733.749 2244.69 715.978 2241.4 698.482 2241.36C680.986 2241.33 664.108 2244.54 648.811 2250.82C633.514 2257.1 620.098 2266.32 609.33 2277.97L604.809 2274.18Z" fill="#656484"/>
<path d="M611.114 2276.02C593.807 2295.56 569.652 2308.79 541.99 2313.87C514.329 2318.96 484.529 2315.66 456.715 2304.42L458.406 2299.58C485.086 2310.36 513.672 2313.53 540.206 2308.65C566.74 2303.77 589.911 2291.07 606.512 2272.33L611.114 2276.02Z" fill="#656484"/>
<path d="M1182.09 2195.68C1190.77 2196.08 1199.22 2198.27 1206.72 2202.04C1214.23 2205.82 1220.57 2211.07 1225.2 2217.36C1229.83 2223.65 1232.62 2230.78 1233.33 2238.16C1234.04 2245.54 1232.66 2252.95 1229.29 2259.76C1225.92 2266.57 1220.67 2272.57 1213.99 2277.26C1207.3 2281.96 1199.37 2285.2 1190.88 2286.72C1182.38 2288.25 1173.57 2288 1165.18 2286C1156.8 2284.01 1149.09 2280.32 1142.71 2275.26L1146.73 2271.59C1152.41 2276.1 1159.28 2279.38 1166.74 2281.15C1174.21 2282.93 1182.06 2283.15 1189.63 2281.8C1197.19 2280.44 1204.25 2277.55 1210.21 2273.37C1216.17 2269.19 1220.84 2263.84 1223.84 2257.78C1226.84 2251.72 1228.07 2245.12 1227.44 2238.55C1226.8 2231.97 1224.32 2225.62 1220.19 2220.01C1216.07 2214.41 1210.43 2209.73 1203.74 2206.37C1197.06 2203.01 1189.53 2201.07 1181.8 2200.7L1182.09 2195.68Z" fill="#656484"/>
<path d="M1232.6 2334.65C1221.72 2341.86 1208.94 2346.47 1195.36 2348.1C1181.78 2349.73 1167.8 2348.33 1154.59 2344.02C1141.38 2339.71 1129.35 2332.61 1119.5 2323.32C1109.65 2314.04 1102.28 2302.85 1098.02 2290.69C1093.76 2278.53 1092.72 2265.77 1095 2253.49C1097.29 2241.2 1102.82 2229.76 1111.13 2220.13C1119.44 2210.49 1130.29 2202.95 1142.76 2198.14C1155.22 2193.33 1168.94 2191.39 1182.74 2192.5L1182.55 2197.47C1169.63 2196.44 1156.79 2198.25 1145.12 2202.75C1133.45 2207.26 1123.29 2214.32 1115.51 2223.34C1107.72 2232.36 1102.54 2243.07 1100.41 2254.57C1098.27 2266.07 1099.24 2278.02 1103.23 2289.4C1107.22 2300.78 1114.12 2311.26 1123.34 2319.96C1132.56 2328.65 1143.83 2335.29 1156.19 2339.33C1168.56 2343.37 1181.65 2344.68 1194.37 2343.15C1207.08 2341.63 1219.04 2337.3 1229.23 2330.56L1232.6 2334.65Z" fill="#9897C6"/>
<path d="M1033.04 2216.02C1037.76 2199.63 1047.19 2184.65 1060.54 2172.35C1073.89 2160.04 1090.76 2150.78 1109.72 2145.35C1128.68 2139.91 1149.18 2138.46 1169.47 2141.12C1189.77 2143.79 1209.26 2150.48 1226.3 2160.63C1243.34 2170.79 1257.42 2184.11 1267.35 2199.47C1277.29 2214.83 1282.78 2231.77 1283.37 2248.85C1283.95 2265.94 1279.61 2282.67 1270.72 2297.63C1261.82 2312.59 1248.63 2325.33 1232.27 2334.78L1228.85 2330.79C1244.48 2321.76 1257.07 2309.59 1265.57 2295.31C1274.06 2281.03 1278.2 2265.05 1277.64 2248.73C1277.08 2232.42 1271.84 2216.24 1262.35 2201.58C1252.87 2186.91 1239.42 2174.19 1223.15 2164.49C1206.88 2154.79 1188.27 2148.4 1168.89 2145.86C1149.51 2143.32 1129.94 2144.7 1111.83 2149.89C1093.72 2155.08 1077.61 2163.93 1064.87 2175.68C1052.12 2187.42 1043.11 2201.73 1038.61 2217.38L1033.04 2216.02Z" fill="#9897C6"/>
<path d="M1039.07 2215.78C1033.33 2237.52 1020.92 2257.42 1003.15 2273.43C985.377 2289.43 962.881 2300.96 937.997 2306.81C913.113 2312.66 886.749 2312.62 861.644 2306.7C836.539 2300.77 813.609 2289.17 795.234 2273.11L799.274 2269.67C816.924 2285.09 838.949 2296.23 863.062 2301.92C887.176 2307.61 912.498 2307.65 936.399 2302.03C960.3 2296.41 981.909 2285.34 998.98 2269.97C1016.05 2254.59 1027.96 2235.47 1033.48 2214.6L1039.07 2215.78Z" fill="#9897C6"/>
<path d="M604.809 2270.94C616.035 2258.8 630.021 2249.18 645.968 2242.64C661.914 2236.09 679.51 2232.74 697.749 2232.78C715.988 2232.82 734.514 2236.25 752.269 2242.86C770.024 2249.48 786.66 2259.17 801.228 2271.36L797.744 2275.12C783.77 2263.43 767.812 2254.14 750.78 2247.79C733.749 2241.44 715.978 2238.16 698.482 2238.12C680.986 2238.08 664.108 2241.29 648.811 2247.57C633.514 2253.85 620.098 2263.08 609.33 2274.72L604.809 2270.94Z" fill="#9897C6"/>
<path d="M611.114 2272.77C593.807 2292.31 569.652 2305.54 541.99 2310.63C514.329 2315.72 484.529 2312.41 456.715 2301.17L458.406 2296.33C485.086 2307.11 513.672 2310.28 540.206 2305.4C566.74 2300.52 589.911 2287.83 606.512 2269.08L611.114 2272.77Z" fill="#9897C6"/>
<path d="M1182.09 2192.43C1190.77 2192.84 1199.22 2195.02 1206.72 2198.79C1214.23 2202.57 1220.57 2207.82 1225.2 2214.11C1229.83 2220.4 1232.62 2227.54 1233.33 2234.92C1234.04 2242.3 1232.66 2249.71 1229.29 2256.51C1225.92 2263.32 1220.67 2269.32 1213.99 2274.02C1207.3 2278.71 1199.37 2281.96 1190.88 2283.48C1182.38 2285 1173.57 2284.75 1165.18 2282.76C1156.8 2280.76 1149.09 2277.08 1142.71 2272.01L1146.73 2268.34C1152.41 2272.85 1159.28 2276.13 1166.74 2277.91C1174.21 2279.68 1182.06 2279.9 1189.63 2278.55C1197.19 2277.19 1204.25 2274.3 1210.21 2270.12C1216.17 2265.94 1220.84 2260.59 1223.84 2254.53C1226.84 2248.47 1228.07 2241.87 1227.44 2235.3C1226.8 2228.72 1224.32 2222.37 1220.19 2216.77C1216.07 2211.17 1210.43 2206.49 1203.74 2203.13C1197.06 2199.76 1189.53 2197.82 1181.8 2197.46L1182.09 2192.43Z" fill="#9897C6"/>
<path d="M3404 1771.82C3394.21 1778.42 3382.73 1782.65 3370.52 1784.14C3358.32 1785.64 3345.75 1784.35 3333.88 1780.4C3322.01 1776.45 3311.19 1769.95 3302.34 1761.45C3293.49 1752.95 3286.87 1742.7 3283.04 1731.57C3279.21 1720.43 3278.28 1708.75 3280.33 1697.5C3282.38 1686.25 3287.35 1675.77 3294.82 1666.95C3302.29 1658.13 3312.04 1651.22 3323.25 1646.81C3334.45 1642.41 3346.78 1640.64 3359.18 1641.65L3359.01 1646.2C3347.4 1645.26 3335.86 1646.92 3325.37 1651.04C3314.88 1655.16 3305.75 1661.63 3298.75 1669.89C3291.76 1678.15 3287.11 1687.96 3285.18 1698.49C3283.26 1709.02 3284.14 1719.96 3287.72 1730.39C3291.31 1740.81 3297.51 1750.41 3305.8 1758.37C3314.08 1766.33 3324.21 1772.41 3335.32 1776.11C3346.43 1779.81 3358.2 1781.01 3369.63 1779.61C3381.06 1778.21 3391.81 1774.25 3400.97 1768.07L3404 1771.82Z" fill="white"/>
<path d="M3224.64 1663.19C3228.88 1648.18 3237.36 1634.46 3249.36 1623.19C3261.35 1611.93 3276.51 1603.45 3293.56 1598.47C3310.6 1593.49 3329.02 1592.17 3347.26 1594.6C3365.5 1597.04 3383.01 1603.17 3398.33 1612.47C3413.64 1621.77 3426.3 1633.97 3435.23 1648.03C3444.16 1662.1 3449.09 1677.61 3449.62 1693.26C3450.15 1708.9 3446.25 1724.23 3438.25 1737.92C3430.26 1751.62 3418.4 1763.29 3403.7 1771.94L3400.62 1768.28C3414.67 1760.02 3425.99 1748.88 3433.62 1735.8C3441.26 1722.72 3444.98 1708.09 3444.48 1693.14C3443.97 1678.2 3439.26 1663.39 3430.73 1649.96C3422.21 1636.53 3410.12 1624.88 3395.5 1616C3380.88 1607.12 3364.15 1601.27 3346.73 1598.94C3329.32 1596.62 3311.73 1597.88 3295.45 1602.63C3279.18 1607.39 3264.7 1615.49 3253.25 1626.24C3241.79 1637 3233.69 1650.1 3229.64 1664.44L3224.64 1663.19Z" fill="white"/>
<path d="M3230.05 1662.97C3224.89 1682.87 3213.75 1701.1 3197.78 1715.76C3181.8 1730.41 3161.58 1740.97 3139.22 1746.33C3116.85 1751.69 3093.16 1751.65 3070.6 1746.22C3048.03 1740.8 3027.43 1730.18 3010.91 1715.47L3014.54 1712.31C3030.4 1726.44 3050.2 1736.64 3071.87 1741.85C3093.54 1747.06 3116.3 1747.1 3137.78 1741.95C3159.26 1736.81 3178.68 1726.67 3194.03 1712.59C3209.37 1698.51 3220.08 1681 3225.03 1661.89L3230.05 1662.97Z" fill="white"/>
<path d="M2839.77 1713.48C2849.86 1702.36 2862.43 1693.56 2876.76 1687.56C2891.09 1681.57 2906.9 1678.5 2923.3 1678.54C2939.69 1678.57 2956.34 1681.71 2972.3 1687.77C2988.25 1693.83 3003.21 1702.7 3016.3 1713.86L3013.17 1717.31C3000.61 1706.6 2986.27 1698.1 2970.96 1692.28C2955.65 1686.47 2939.68 1683.46 2923.96 1683.42C2908.23 1683.39 2893.06 1686.33 2879.31 1692.08C2865.57 1697.83 2853.51 1706.28 2843.83 1716.94L2839.77 1713.48Z" fill="white"/>
<path d="M2845.43 1715.16C2829.88 1733.05 2808.17 1745.16 2783.31 1749.82C2758.45 1754.48 2731.67 1751.46 2706.67 1741.17L2708.19 1736.73C2732.17 1746.6 2757.86 1749.51 2781.71 1745.04C2805.55 1740.57 2826.38 1728.95 2841.3 1711.78L2845.43 1715.16Z" fill="white"/>
<path d="M3358.59 1641.58C3366.4 1641.96 3373.99 1643.96 3380.74 1647.41C3387.48 1650.87 3393.18 1655.68 3397.34 1661.44C3401.5 1667.2 3404.01 1673.73 3404.65 1680.49C3405.29 1687.25 3404.04 1694.03 3401.02 1700.27C3397.99 1706.5 3393.27 1712 3387.26 1716.3C3381.25 1720.6 3374.13 1723.57 3366.49 1724.96C3358.86 1726.35 3350.94 1726.13 3343.4 1724.3C3335.87 1722.47 3328.94 1719.1 3323.21 1714.46L3326.81 1711.1C3331.92 1715.23 3338.09 1718.23 3344.8 1719.86C3351.52 1721.49 3358.57 1721.69 3365.37 1720.45C3372.17 1719.21 3378.52 1716.56 3383.87 1712.73C3389.22 1708.9 3393.42 1704.01 3396.12 1698.45C3398.81 1692.9 3399.92 1686.86 3399.35 1680.84C3398.78 1674.82 3396.55 1669 3392.84 1663.87C3389.14 1658.74 3384.06 1654.46 3378.06 1651.38C3372.05 1648.3 3365.28 1646.52 3358.33 1646.19L3358.59 1641.58Z" fill="white"/>
<path d="M3405.95 1767.34C3396.17 1773.94 3384.69 1778.16 3372.48 1779.66C3360.28 1781.15 3347.71 1779.87 3335.84 1775.92C3323.97 1771.97 3313.15 1765.47 3304.3 1756.97C3295.45 1748.47 3288.83 1738.22 3285 1727.08C3281.17 1715.95 3280.24 1704.26 3282.29 1693.02C3284.34 1681.77 3289.31 1671.29 3296.78 1662.46C3304.25 1653.64 3314 1646.74 3325.21 1642.33C3336.41 1637.93 3348.74 1636.15 3361.14 1637.16L3360.97 1641.72C3349.36 1640.77 3337.82 1642.43 3327.33 1646.56C3316.84 1650.68 3307.71 1657.14 3300.71 1665.41C3293.72 1673.67 3289.06 1683.48 3287.14 1694.01C3285.22 1704.54 3286.09 1715.48 3289.68 1725.9C3293.27 1736.33 3299.47 1745.92 3307.76 1753.88C3316.04 1761.84 3326.17 1767.93 3337.28 1771.63C3348.39 1775.32 3360.16 1776.52 3371.59 1775.13C3383.01 1773.73 3393.76 1769.77 3402.92 1763.59L3405.95 1767.34Z" fill="#656484"/>
<path d="M3226.6 1658.71C3230.84 1643.7 3239.32 1629.98 3251.31 1618.71C3263.31 1607.44 3278.47 1598.96 3295.52 1593.99C3312.56 1589.01 3330.98 1587.68 3349.22 1590.12C3367.46 1592.56 3384.97 1598.69 3400.29 1607.99C3415.6 1617.29 3428.26 1629.49 3437.19 1643.55C3446.11 1657.61 3451.05 1673.12 3451.58 1688.77C3452.1 1704.42 3448.21 1719.74 3440.21 1733.44C3432.22 1747.14 3420.36 1758.81 3405.65 1767.46L3402.58 1763.8C3416.63 1755.54 3427.95 1744.39 3435.58 1731.31C3443.22 1718.23 3446.94 1703.6 3446.44 1688.66C3445.93 1673.72 3441.22 1658.91 3432.69 1645.48C3424.17 1632.05 3412.08 1620.4 3397.46 1611.52C3382.84 1602.64 3366.11 1596.79 3348.69 1594.46C3331.28 1592.13 3313.69 1593.4 3297.41 1598.15C3281.14 1602.9 3266.66 1611 3255.2 1621.76C3243.75 1632.52 3235.65 1645.62 3231.6 1659.95L3226.6 1658.71Z" fill="#656484"/>
<path d="M3232.01 1658.49C3226.85 1678.39 3215.71 1696.62 3199.73 1711.27C3183.76 1725.93 3163.54 1736.49 3141.18 1741.85C3118.81 1747.2 3095.12 1747.17 3072.56 1741.74C3049.99 1736.32 3029.38 1725.7 3012.87 1710.99L3016.5 1707.83C3032.36 1721.96 3052.16 1732.16 3073.83 1737.37C3095.5 1742.58 3118.26 1742.62 3139.74 1737.47C3161.22 1732.32 3180.64 1722.19 3195.99 1708.11C3211.33 1694.03 3222.03 1676.52 3226.99 1657.41L3232.01 1658.49Z" fill="#656484"/>
<path d="M2841.73 1709C2851.82 1697.88 2864.39 1689.08 2878.72 1683.08C2893.05 1677.08 2908.86 1674.02 2925.26 1674.05C2941.65 1674.09 2958.3 1677.23 2974.26 1683.29C2990.21 1689.35 3005.17 1698.22 3018.26 1709.38L3015.13 1712.83C3002.57 1702.12 2988.23 1693.62 2972.92 1687.8C2957.61 1681.99 2941.64 1678.98 2925.92 1678.94C2910.19 1678.91 2895.02 1681.85 2881.27 1687.6C2867.53 1693.35 2855.47 1701.8 2845.79 1712.46L2841.73 1709Z" fill="#656484"/>
<path d="M2847.39 1710.67C2831.84 1728.57 2810.13 1740.68 2785.27 1745.34C2760.41 1750 2733.63 1746.98 2708.63 1736.68L2710.15 1732.25C2734.13 1742.12 2759.82 1745.02 2783.66 1740.55C2807.51 1736.08 2828.34 1724.46 2843.26 1707.3L2847.39 1710.67Z" fill="#656484"/>
<path d="M3360.55 1637.1C3368.36 1637.47 3375.95 1639.47 3382.7 1642.93C3389.44 1646.39 3395.14 1651.2 3399.3 1656.96C3403.46 1662.71 3405.97 1669.25 3406.61 1676.01C3407.25 1682.77 3406 1689.55 3402.98 1695.78C3399.95 1702.02 3395.23 1707.52 3389.22 1711.81C3383.21 1716.11 3376.09 1719.08 3368.45 1720.48C3360.82 1721.87 3352.9 1721.64 3345.36 1719.82C3337.83 1717.99 3330.9 1714.62 3325.16 1709.98L3328.77 1706.62C3333.88 1710.74 3340.05 1713.75 3346.76 1715.38C3353.47 1717 3360.53 1717.21 3367.33 1715.97C3374.13 1714.72 3380.48 1712.08 3385.83 1708.25C3391.18 1704.42 3395.38 1699.52 3398.08 1693.97C3400.77 1688.42 3401.88 1682.38 3401.31 1676.36C3400.74 1670.34 3398.51 1664.52 3394.8 1659.39C3391.09 1654.26 3386.02 1649.98 3380.01 1646.9C3374.01 1643.82 3367.24 1642.04 3360.29 1641.7L3360.55 1637.1Z" fill="#656484"/>
<path d="M3405.95 1764.36C3396.17 1770.96 3384.69 1775.19 3372.48 1776.69C3360.28 1778.18 3347.71 1776.9 3335.84 1772.95C3323.97 1769 3313.15 1762.5 3304.3 1753.99C3295.45 1745.49 3288.83 1735.24 3285 1724.11C3281.17 1712.98 3280.24 1701.29 3282.29 1690.04C3284.34 1678.79 3289.31 1668.31 3296.78 1659.49C3304.25 1650.67 3314 1643.76 3325.21 1639.36C3336.41 1634.95 3348.74 1633.18 3361.14 1634.19L3360.97 1638.74C3349.36 1637.8 3337.82 1639.46 3327.33 1643.58C3316.84 1647.71 3307.71 1654.17 3300.71 1662.43C3293.72 1670.69 3289.06 1680.5 3287.14 1691.03C3285.22 1701.57 3286.09 1712.51 3289.68 1722.93C3293.27 1733.35 3299.47 1742.95 3307.76 1750.91C3316.04 1758.87 3326.17 1764.96 3337.28 1768.65C3348.39 1772.35 3360.16 1773.55 3371.59 1772.15C3383.01 1770.75 3393.76 1766.8 3402.92 1760.62L3405.95 1764.36Z" fill="#9897C6"/>
<path d="M3226.6 1655.73C3230.84 1640.72 3239.32 1627 3251.31 1615.74C3263.31 1604.47 3278.47 1595.99 3295.52 1591.01C3312.56 1586.04 3330.98 1584.71 3349.22 1587.15C3367.46 1589.58 3384.97 1595.71 3400.29 1605.01C3415.6 1614.31 3428.26 1626.51 3437.19 1640.58C3446.11 1654.64 3451.05 1670.15 3451.58 1685.8C3452.1 1701.45 3448.21 1716.77 3440.21 1730.47C3432.22 1744.16 3420.36 1755.83 3405.65 1764.49L3402.58 1760.83C3416.63 1752.56 3427.95 1741.42 3435.58 1728.34C3443.22 1715.26 3446.94 1700.63 3446.44 1685.69C3445.93 1670.75 3441.22 1655.93 3432.69 1642.5C3424.17 1629.08 3412.08 1617.43 3397.46 1608.55C3382.84 1599.66 3366.11 1593.81 3348.69 1591.49C3331.28 1589.16 3313.69 1590.42 3297.41 1595.18C3281.14 1599.93 3266.66 1608.03 3255.2 1618.79C3243.75 1629.54 3235.65 1642.65 3231.6 1656.98L3226.6 1655.73Z" fill="#9897C6"/>
<path d="M3232.01 1655.52C3226.85 1675.42 3215.71 1693.64 3199.73 1708.3C3183.76 1722.96 3163.54 1733.52 3141.18 1738.87C3118.81 1744.23 3095.12 1744.19 3072.56 1738.77C3049.99 1733.34 3029.38 1722.72 3012.87 1708.02L3016.5 1704.86C3032.36 1718.99 3052.16 1729.18 3073.83 1734.4C3095.5 1739.61 3118.26 1739.64 3139.74 1734.5C3161.22 1729.35 3180.64 1719.21 3195.99 1705.13C3211.33 1691.05 3222.03 1673.55 3226.99 1654.43L3232.01 1655.52Z" fill="#9897C6"/>
<path d="M2841.73 1706.02C2851.82 1694.91 2864.39 1686.1 2878.72 1680.11C2893.05 1674.11 2908.86 1671.04 2925.26 1671.08C2941.65 1671.12 2958.3 1674.25 2974.26 1680.31C2990.21 1686.38 3005.17 1695.24 3018.26 1706.41L3015.13 1709.86C3002.57 1699.15 2988.23 1690.64 2972.92 1684.83C2957.61 1679.01 2941.64 1676 2925.92 1675.97C2910.19 1675.93 2895.02 1678.88 2881.27 1684.63C2867.53 1690.38 2855.47 1698.83 2845.79 1709.49L2841.73 1706.02Z" fill="#9897C6"/>
<path d="M2847.39 1707.7C2831.84 1725.59 2810.13 1737.71 2785.27 1742.37C2760.41 1747.03 2733.63 1744 2708.63 1733.71L2710.15 1729.27C2734.13 1739.15 2759.82 1742.05 2783.66 1737.58C2807.51 1733.11 2828.34 1721.49 2843.26 1704.32L2847.39 1707.7Z" fill="#9897C6"/>
<path d="M3360.55 1634.13C3368.36 1634.5 3375.95 1636.5 3382.7 1639.96C3389.44 1643.41 3395.14 1648.22 3399.3 1653.98C3403.46 1659.74 3405.97 1666.28 3406.61 1673.04C3407.25 1679.79 3406 1686.58 3402.98 1692.81C3399.95 1699.04 3395.23 1704.54 3389.22 1708.84C3383.21 1713.14 3376.09 1716.11 3368.45 1717.5C3360.82 1718.9 3352.9 1718.67 3345.36 1716.84C3337.83 1715.02 3330.9 1711.64 3325.16 1707.01L3328.77 1703.64C3333.88 1707.77 3340.05 1710.78 3346.76 1712.4C3353.47 1714.03 3360.53 1714.23 3367.33 1712.99C3374.13 1711.75 3380.48 1709.1 3385.83 1705.28C3391.18 1701.45 3395.38 1696.55 3398.08 1691C3400.77 1685.45 3401.88 1679.41 3401.31 1673.39C3400.74 1667.37 3398.51 1661.54 3394.8 1656.42C3391.09 1651.29 3386.02 1647 3380.01 1643.92C3374.01 1640.84 3367.24 1639.06 3360.29 1638.73L3360.55 1634.13Z" fill="#9897C6"/>
<path d="M2609.42 2447.14C2601.98 2442.12 2593.24 2438.91 2583.96 2437.77C2574.68 2436.63 2565.12 2437.61 2556.09 2440.61C2547.06 2443.62 2538.84 2448.56 2532.1 2455.03C2525.37 2461.49 2520.34 2469.29 2517.42 2477.76C2514.51 2486.22 2513.8 2495.11 2515.36 2503.67C2516.92 2512.22 2520.7 2520.19 2526.38 2526.9C2532.07 2533.61 2539.48 2538.87 2548 2542.22C2556.52 2545.57 2565.9 2546.91 2575.33 2546.15L2575.2 2542.68C2566.37 2543.4 2557.59 2542.14 2549.62 2539C2541.64 2535.87 2534.69 2530.95 2529.37 2524.67C2524.05 2518.38 2520.51 2510.92 2519.05 2502.91C2517.59 2494.9 2518.26 2486.58 2520.98 2478.65C2523.71 2470.73 2528.43 2463.43 2534.73 2457.37C2541.03 2451.32 2548.74 2446.69 2557.19 2443.88C2565.64 2441.07 2574.59 2440.15 2583.28 2441.22C2591.97 2442.28 2600.15 2445.29 2607.11 2449.99L2609.42 2447.14Z" fill="white"/>
<path d="M2473 2529.76C2476.23 2541.18 2482.68 2551.61 2491.8 2560.18C2500.93 2568.75 2512.46 2575.2 2525.42 2578.99C2538.38 2582.77 2552.39 2583.78 2566.27 2581.93C2580.14 2580.07 2593.46 2575.41 2605.11 2568.34C2616.75 2561.26 2626.38 2551.99 2633.17 2541.29C2639.96 2530.59 2643.72 2518.8 2644.12 2506.89C2644.52 2494.99 2641.55 2483.34 2635.47 2472.92C2629.39 2462.5 2620.38 2453.63 2609.19 2447.05L2606.85 2449.83C2617.54 2456.11 2626.14 2464.59 2631.95 2474.54C2637.76 2484.49 2640.59 2495.61 2640.21 2506.98C2639.82 2518.34 2636.24 2529.61 2629.75 2539.82C2623.27 2550.04 2614.08 2558.9 2602.96 2565.65C2591.83 2572.4 2579.11 2576.86 2565.87 2578.63C2552.62 2580.4 2539.24 2579.43 2526.86 2575.82C2514.49 2572.2 2503.47 2566.04 2494.76 2557.86C2486.05 2549.68 2479.89 2539.71 2476.81 2528.81L2473 2529.76Z" fill="white"/>
<path d="M2477.12 2529.93C2473.2 2514.79 2464.72 2500.93 2452.57 2489.78C2440.42 2478.63 2425.05 2470.6 2408.04 2466.53C2391.03 2462.45 2373.01 2462.48 2355.85 2466.61C2338.68 2470.73 2323.01 2478.81 2310.45 2490L2313.21 2492.4C2325.28 2481.65 2340.33 2473.9 2356.81 2469.93C2373.3 2465.97 2390.61 2465.94 2406.94 2469.86C2423.28 2473.77 2438.05 2481.48 2449.72 2492.19C2461.39 2502.9 2469.53 2516.21 2473.3 2530.75L2477.12 2529.93Z" fill="white"/>
<path d="M2180.28 2491.51C2187.96 2499.97 2197.52 2506.66 2208.42 2511.22C2219.32 2515.78 2231.35 2518.12 2243.81 2518.09C2256.28 2518.06 2268.95 2515.68 2281.08 2511.07C2293.22 2506.46 2304.59 2499.71 2314.55 2491.22L2312.17 2488.6C2302.61 2496.74 2291.71 2503.21 2280.06 2507.63C2268.42 2512.06 2256.28 2514.35 2244.32 2514.37C2232.36 2514.4 2220.82 2512.16 2210.36 2507.79C2199.91 2503.41 2190.74 2496.99 2183.38 2488.88L2180.28 2491.51Z" fill="white"/>
<path d="M2184.59 2490.24C2172.76 2476.63 2156.25 2467.41 2137.34 2463.87C2118.44 2460.33 2098.07 2462.63 2079.05 2470.45L2080.21 2473.83C2098.45 2466.32 2117.99 2464.11 2136.12 2467.51C2154.26 2470.91 2170.1 2479.75 2181.45 2492.8L2184.59 2490.24Z" fill="white"/>
<path d="M2574.89 2546.19C2580.82 2545.91 2586.6 2544.39 2591.73 2541.76C2596.86 2539.13 2601.19 2535.47 2604.36 2531.09C2607.52 2526.71 2609.43 2521.74 2609.92 2516.6C2610.4 2511.46 2609.46 2506.3 2607.15 2501.56C2604.85 2496.82 2601.26 2492.64 2596.69 2489.37C2592.12 2486.1 2586.7 2483.84 2580.9 2482.78C2575.09 2481.72 2569.06 2481.89 2563.33 2483.28C2557.6 2484.67 2552.33 2487.24 2547.97 2490.76L2550.72 2493.32C2554.6 2490.18 2559.29 2487.9 2564.4 2486.66C2569.5 2485.42 2574.87 2485.27 2580.04 2486.21C2585.21 2487.16 2590.04 2489.17 2594.11 2492.08C2598.18 2494.99 2601.38 2498.72 2603.43 2502.94C2605.48 2507.16 2606.32 2511.76 2605.89 2516.34C2605.45 2520.91 2603.76 2525.34 2600.94 2529.24C2598.12 2533.14 2594.26 2536.4 2589.69 2538.74C2585.12 2541.08 2579.98 2542.44 2574.69 2542.69L2574.89 2546.19Z" fill="white"/>
<path d="M2610.91 2450.55C2603.47 2445.53 2594.73 2442.32 2585.45 2441.18C2576.17 2440.04 2566.61 2441.02 2557.58 2444.02C2548.55 2447.03 2540.33 2451.97 2533.6 2458.44C2526.86 2464.9 2521.83 2472.7 2518.91 2481.17C2516 2489.63 2515.29 2498.52 2516.85 2507.08C2518.41 2515.63 2522.19 2523.6 2527.87 2530.31C2533.56 2537.02 2540.97 2542.28 2549.49 2545.63C2558.01 2548.98 2567.39 2550.32 2576.82 2549.56L2576.69 2546.09C2567.86 2546.81 2559.08 2545.55 2551.11 2542.41C2543.13 2539.28 2536.19 2534.36 2530.86 2528.08C2525.54 2521.79 2522 2514.33 2520.54 2506.32C2519.08 2498.31 2519.75 2489.99 2522.47 2482.06C2525.2 2474.14 2529.92 2466.84 2536.22 2460.78C2542.52 2454.73 2550.23 2450.1 2558.68 2447.29C2567.13 2444.48 2576.08 2443.56 2584.77 2444.63C2593.46 2445.69 2601.64 2448.7 2608.6 2453.4L2610.91 2450.55Z" fill="#656484"/>
<path d="M2474.5 2533.17C2477.72 2544.59 2484.17 2555.02 2493.29 2563.59C2502.42 2572.16 2513.95 2578.61 2526.91 2582.4C2539.87 2586.18 2553.88 2587.19 2567.76 2585.34C2581.63 2583.48 2594.95 2578.82 2606.6 2571.75C2618.24 2564.67 2627.87 2555.4 2634.66 2544.7C2641.45 2534 2645.21 2522.21 2645.61 2510.3C2646.01 2498.4 2643.04 2486.75 2636.96 2476.33C2630.88 2465.91 2621.87 2457.04 2610.68 2450.46L2608.34 2453.24C2619.03 2459.52 2627.64 2468 2633.44 2477.95C2639.25 2487.9 2642.08 2499.02 2641.7 2510.39C2641.31 2521.75 2637.73 2533.02 2631.24 2543.23C2624.76 2553.45 2615.57 2562.31 2604.45 2569.06C2593.32 2575.81 2580.6 2580.27 2567.36 2582.04C2554.11 2583.81 2540.73 2582.84 2528.35 2579.23C2515.98 2575.61 2504.96 2569.45 2496.25 2561.27C2487.54 2553.09 2481.38 2543.12 2478.3 2532.22L2474.5 2533.17Z" fill="#656484"/>
<path d="M2478.61 2533.34C2474.69 2518.2 2466.21 2504.34 2454.06 2493.19C2441.91 2482.04 2426.54 2474.01 2409.53 2469.94C2392.52 2465.86 2374.5 2465.89 2357.34 2470.02C2340.17 2474.15 2324.5 2482.22 2311.94 2493.41L2314.7 2495.81C2326.77 2485.06 2341.82 2477.31 2358.3 2473.34C2374.79 2469.38 2392.1 2469.35 2408.43 2473.27C2424.77 2477.18 2439.54 2484.89 2451.21 2495.6C2462.88 2506.31 2471.02 2519.62 2474.79 2534.16L2478.61 2533.34Z" fill="#656484"/>
<path d="M2181.78 2494.92C2189.45 2503.38 2199.01 2510.07 2209.91 2514.63C2220.81 2519.19 2232.84 2521.53 2245.3 2521.5C2257.77 2521.47 2270.44 2519.09 2282.57 2514.48C2294.71 2509.87 2306.08 2503.12 2316.04 2494.63L2313.66 2492.01C2304.11 2500.15 2293.2 2506.62 2281.55 2511.04C2269.91 2515.47 2257.77 2517.76 2245.81 2517.78C2233.85 2517.81 2222.31 2515.57 2211.85 2511.2C2201.4 2506.82 2192.23 2500.4 2184.87 2492.29L2181.78 2494.92Z" fill="#656484"/>
<path d="M2186.08 2493.65C2174.25 2480.04 2157.74 2470.82 2138.83 2467.28C2119.93 2463.74 2099.56 2466.04 2080.54 2473.86L2081.7 2477.24C2099.94 2469.73 2119.48 2467.52 2137.61 2470.92C2155.75 2474.32 2171.59 2483.16 2182.94 2496.21L2186.08 2493.65Z" fill="#656484"/>
<path d="M2576.38 2549.6C2582.31 2549.32 2588.09 2547.8 2593.22 2545.17C2598.35 2542.54 2602.68 2538.88 2605.85 2534.5C2609.01 2530.12 2610.92 2525.15 2611.41 2520.01C2611.89 2514.87 2610.95 2509.71 2608.64 2504.97C2606.34 2500.23 2602.75 2496.05 2598.18 2492.78C2593.61 2489.51 2588.19 2487.25 2582.39 2486.19C2576.58 2485.13 2570.56 2485.3 2564.82 2486.69C2559.09 2488.08 2553.82 2490.65 2549.46 2494.17L2552.21 2496.73C2556.09 2493.59 2560.78 2491.31 2565.89 2490.07C2570.99 2488.83 2576.36 2488.68 2581.53 2489.62C2586.7 2490.57 2591.53 2492.58 2595.6 2495.49C2599.67 2498.4 2602.87 2502.13 2604.92 2506.35C2606.97 2510.57 2607.81 2515.17 2607.38 2519.75C2606.94 2524.32 2605.25 2528.75 2602.43 2532.65C2599.61 2536.55 2595.75 2539.81 2591.18 2542.15C2586.61 2544.49 2581.47 2545.85 2576.18 2546.1L2576.38 2549.6Z" fill="#656484"/>
<path d="M2610.91 2452.81C2603.47 2447.79 2594.73 2444.58 2585.45 2443.44C2576.17 2442.3 2566.61 2443.28 2557.58 2446.28C2548.55 2449.29 2540.33 2454.23 2533.6 2460.7C2526.86 2467.16 2521.83 2474.96 2518.91 2483.43C2516 2491.9 2515.29 2500.78 2516.85 2509.34C2518.41 2517.89 2522.19 2525.86 2527.87 2532.57C2533.56 2539.28 2540.97 2544.54 2549.49 2547.89C2558.01 2551.24 2567.39 2552.59 2576.82 2551.82L2576.69 2548.35C2567.86 2549.07 2559.08 2547.81 2551.11 2544.67C2543.13 2541.54 2536.19 2536.62 2530.86 2530.34C2525.54 2524.06 2522 2516.59 2520.54 2508.58C2519.08 2500.57 2519.75 2492.25 2522.47 2484.33C2525.2 2476.4 2529.92 2469.1 2536.22 2463.05C2542.52 2456.99 2550.23 2452.36 2558.68 2449.55C2567.13 2446.74 2576.08 2445.82 2584.77 2446.89C2593.46 2447.95 2601.64 2450.96 2608.6 2455.66L2610.91 2452.81Z" fill="#9897C6"/>
<path d="M2474.5 2535.43C2477.72 2546.85 2484.17 2557.28 2493.29 2565.85C2502.42 2574.42 2513.95 2580.87 2526.91 2584.66C2539.87 2588.44 2553.88 2589.45 2567.76 2587.6C2581.63 2585.74 2594.95 2581.08 2606.6 2574.01C2618.24 2566.93 2627.87 2557.66 2634.66 2546.96C2641.45 2536.27 2645.21 2524.47 2645.61 2512.57C2646.01 2500.66 2643.04 2489.01 2636.96 2478.59C2630.88 2468.18 2621.87 2459.3 2610.68 2452.72L2608.34 2455.5C2619.03 2461.79 2627.64 2470.26 2633.44 2480.21C2639.25 2490.16 2642.08 2501.29 2641.7 2512.65C2641.31 2524.01 2637.73 2535.28 2631.24 2545.49C2624.76 2555.71 2615.57 2564.57 2604.45 2571.32C2593.32 2578.08 2580.6 2582.53 2567.36 2584.3C2554.11 2586.07 2540.73 2585.1 2528.35 2581.49C2515.98 2577.88 2504.96 2571.72 2496.25 2563.53C2487.54 2555.35 2481.38 2545.39 2478.3 2534.48L2474.5 2535.43Z" fill="#9897C6"/>
<path d="M2478.61 2535.6C2474.69 2520.46 2466.21 2506.6 2454.06 2495.45C2441.91 2484.3 2426.54 2476.27 2409.53 2472.2C2392.52 2468.13 2374.5 2468.15 2357.34 2472.28C2340.17 2476.41 2324.5 2484.48 2311.94 2495.67L2314.7 2498.07C2326.77 2487.33 2341.82 2479.57 2358.3 2475.6C2374.79 2471.64 2392.1 2471.61 2408.43 2475.53C2424.77 2479.44 2439.54 2487.15 2451.21 2497.86C2462.88 2508.57 2471.02 2521.88 2474.79 2536.42L2478.61 2535.6Z" fill="#9897C6"/>
<path d="M2181.78 2497.19C2189.45 2505.64 2199.01 2512.34 2209.91 2516.9C2220.81 2521.46 2232.84 2523.79 2245.3 2523.76C2257.77 2523.73 2270.44 2521.35 2282.57 2516.74C2294.71 2512.13 2306.08 2505.38 2316.04 2496.89L2313.66 2494.27C2304.11 2502.42 2293.2 2508.88 2281.55 2513.31C2269.91 2517.73 2257.77 2520.02 2245.81 2520.04C2233.85 2520.07 2222.31 2517.83 2211.85 2513.46C2201.4 2509.08 2192.23 2502.66 2184.87 2494.55L2181.78 2497.19Z" fill="#9897C6"/>
<path d="M2186.08 2495.91C2174.25 2482.3 2157.74 2473.09 2138.83 2469.54C2119.93 2466 2099.56 2468.3 2080.54 2476.13L2081.7 2479.5C2099.94 2471.99 2119.48 2469.78 2137.61 2473.18C2155.75 2476.58 2171.59 2485.42 2182.94 2498.48L2186.08 2495.91Z" fill="#9897C6"/>
<path d="M2576.38 2551.87C2582.31 2551.58 2588.09 2550.06 2593.22 2547.43C2598.35 2544.8 2602.68 2541.14 2605.85 2536.76C2609.01 2532.38 2610.92 2527.41 2611.41 2522.27C2611.89 2517.13 2610.95 2511.97 2608.64 2507.23C2606.34 2502.49 2602.75 2498.31 2598.18 2495.04C2593.61 2491.77 2588.19 2489.51 2582.39 2488.45C2576.58 2487.39 2570.56 2487.56 2564.82 2488.95C2559.09 2490.34 2553.82 2492.91 2549.46 2496.43L2552.21 2498.99C2556.09 2495.85 2560.78 2493.57 2565.89 2492.33C2570.99 2491.09 2576.36 2490.94 2581.53 2491.88C2586.7 2492.83 2591.53 2494.84 2595.6 2497.75C2599.67 2500.66 2602.87 2504.39 2604.92 2508.61C2606.97 2512.83 2607.81 2517.43 2607.38 2522.01C2606.94 2526.59 2605.25 2531.01 2602.43 2534.91C2599.61 2538.81 2595.75 2542.07 2591.18 2544.41C2586.61 2546.76 2581.47 2548.11 2576.18 2548.36L2576.38 2551.87Z" fill="#9897C6"/>
<path d="M2835.49 2744.93C2825.93 2751.38 2814.72 2755.5 2802.8 2756.96C2790.88 2758.42 2778.61 2757.17 2767.02 2753.31C2755.43 2749.46 2744.86 2743.11 2736.22 2734.8C2727.58 2726.5 2721.11 2716.49 2717.37 2705.62C2713.63 2694.75 2712.72 2683.34 2714.72 2672.35C2716.72 2661.37 2721.58 2651.13 2728.87 2642.52C2736.17 2633.9 2745.69 2627.16 2756.63 2622.85C2767.57 2618.55 2779.61 2616.82 2791.73 2617.81L2791.56 2622.26C2780.22 2621.33 2768.95 2622.95 2758.7 2626.98C2748.46 2631.01 2739.55 2637.32 2732.71 2645.39C2725.88 2653.45 2721.34 2663.04 2719.46 2673.32C2717.59 2683.6 2718.44 2694.29 2721.94 2704.47C2725.45 2714.65 2731.5 2724.02 2739.59 2731.79C2747.68 2739.56 2757.57 2745.51 2768.42 2749.12C2779.28 2752.73 2790.77 2753.9 2801.93 2752.54C2813.09 2751.17 2823.58 2747.31 2832.53 2741.27L2835.49 2744.93Z" fill="white"/>
<path d="M2660.34 2638.85C2664.48 2624.19 2672.76 2610.79 2684.47 2599.79C2696.19 2588.79 2710.99 2580.5 2727.64 2575.64C2744.28 2570.78 2762.27 2569.49 2780.08 2571.87C2797.89 2574.25 2815 2580.23 2829.95 2589.31C2844.91 2598.4 2857.27 2610.31 2865.99 2624.04C2874.71 2637.78 2879.53 2652.93 2880.04 2668.21C2880.56 2683.49 2876.75 2698.45 2868.94 2711.83C2861.13 2725.2 2849.56 2736.6 2835.19 2745.05L2832.2 2741.48C2845.91 2733.41 2856.97 2722.52 2864.42 2709.75C2871.87 2696.98 2875.51 2682.69 2875.02 2668.1C2874.53 2653.51 2869.92 2639.04 2861.6 2625.93C2853.27 2612.81 2841.47 2601.44 2827.19 2592.76C2812.91 2584.09 2796.57 2578.38 2779.57 2576.1C2762.56 2573.83 2745.38 2575.07 2729.49 2579.71C2713.6 2584.35 2699.46 2592.26 2688.27 2602.77C2677.08 2613.27 2669.18 2626.07 2665.22 2640.06L2660.34 2638.85Z" fill="white"/>
<path d="M2665.62 2638.63C2660.58 2658.07 2649.7 2675.87 2634.1 2690.18C2618.5 2704.5 2598.76 2714.8 2576.92 2720.04C2555.08 2725.27 2531.94 2725.23 2509.9 2719.93C2487.87 2714.63 2467.74 2704.26 2451.62 2689.9L2455.16 2686.82C2470.65 2700.61 2489.98 2710.57 2511.15 2715.66C2532.31 2720.75 2554.54 2720.79 2575.51 2715.76C2596.49 2710.74 2615.46 2700.84 2630.44 2687.09C2645.42 2673.34 2655.88 2656.24 2660.72 2637.58L2665.62 2638.63Z" fill="white"/>
<path d="M2284.49 2687.95C2294.34 2677.1 2306.61 2668.5 2320.61 2662.65C2334.61 2656.79 2350.05 2653.8 2366.06 2653.83C2382.07 2653.87 2398.32 2656.93 2413.91 2662.85C2429.49 2668.77 2444.09 2677.43 2456.88 2688.33L2453.82 2691.7C2441.56 2681.24 2427.55 2672.94 2412.6 2667.26C2397.65 2661.58 2382.06 2658.64 2366.7 2658.61C2351.34 2658.57 2336.53 2661.45 2323.11 2667.06C2309.68 2672.68 2297.9 2680.93 2288.45 2691.34L2284.49 2687.95Z" fill="white"/>
<path d="M2290.02 2689.59C2274.83 2707.07 2253.63 2718.9 2229.35 2723.45C2205.07 2728 2178.92 2725.04 2154.51 2714.99L2155.99 2710.66C2179.41 2720.3 2204.49 2723.14 2227.78 2718.77C2251.07 2714.41 2271.41 2703.06 2285.98 2686.3L2290.02 2689.59Z" fill="white"/>
<path d="M2791.15 2617.75C2798.77 2618.11 2806.19 2620.06 2812.77 2623.44C2819.36 2626.82 2824.92 2631.51 2828.99 2637.14C2833.05 2642.76 2835.5 2649.14 2836.13 2655.74C2836.75 2662.34 2835.54 2668.97 2832.58 2675.05C2829.62 2681.14 2825.02 2686.51 2819.15 2690.71C2813.28 2694.91 2806.32 2697.81 2798.87 2699.17C2791.41 2700.53 2783.67 2700.31 2776.32 2698.52C2768.96 2696.74 2762.19 2693.44 2756.59 2688.92L2760.12 2685.63C2765.1 2689.66 2771.13 2692.6 2777.68 2694.19C2784.24 2695.78 2791.13 2695.97 2797.77 2694.76C2804.41 2693.55 2810.61 2690.97 2815.83 2687.23C2821.06 2683.49 2825.16 2678.71 2827.8 2673.28C2830.43 2667.86 2831.51 2661.96 2830.96 2656.08C2830.4 2650.21 2828.22 2644.52 2824.6 2639.51C2820.98 2634.5 2816.02 2630.32 2810.16 2627.31C2804.29 2624.31 2797.68 2622.57 2790.9 2622.24L2791.15 2617.75Z" fill="white"/>
<path d="M2837.4 2740.55C2827.85 2747 2816.63 2751.12 2804.72 2752.58C2792.8 2754.04 2780.52 2752.79 2768.93 2748.93C2757.34 2745.08 2746.78 2738.73 2738.13 2730.43C2729.49 2722.12 2723.02 2712.11 2719.28 2701.24C2715.54 2690.37 2714.63 2678.96 2716.63 2667.97C2718.64 2656.99 2723.49 2646.75 2730.79 2638.14C2738.08 2629.52 2747.61 2622.78 2758.55 2618.48C2769.49 2614.17 2781.53 2612.44 2793.64 2613.43L2793.47 2617.88C2782.13 2616.95 2770.86 2618.57 2760.62 2622.6C2750.37 2626.63 2741.46 2632.94 2734.63 2641.01C2727.8 2649.08 2723.25 2658.66 2721.38 2668.94C2719.5 2679.23 2720.35 2689.91 2723.86 2700.09C2727.36 2710.27 2733.41 2719.64 2741.51 2727.41C2749.6 2735.19 2759.49 2741.13 2770.34 2744.74C2781.19 2748.35 2792.68 2749.52 2803.84 2748.16C2815 2746.79 2825.5 2742.93 2834.44 2736.89L2837.4 2740.55Z" fill="#656484"/>
<path d="M2662.25 2634.47C2666.39 2619.81 2674.67 2606.41 2686.39 2595.41C2698.1 2584.41 2712.91 2576.12 2729.55 2571.26C2746.19 2566.4 2764.18 2565.11 2781.99 2567.49C2799.81 2569.87 2816.91 2575.85 2831.87 2584.94C2846.82 2594.02 2859.18 2605.93 2867.9 2619.67C2876.62 2633.4 2881.44 2648.55 2881.96 2663.83C2882.47 2679.11 2878.66 2694.07 2870.86 2707.45C2863.05 2720.83 2851.47 2732.22 2837.11 2740.67L2834.11 2737.1C2847.83 2729.03 2858.88 2718.15 2866.33 2705.37C2873.79 2692.6 2877.42 2678.31 2876.93 2663.72C2876.44 2649.13 2871.84 2634.66 2863.51 2621.55C2855.19 2608.44 2843.38 2597.06 2829.1 2588.39C2814.82 2579.71 2798.49 2574 2781.48 2571.73C2764.47 2569.45 2747.3 2570.69 2731.4 2575.33C2715.51 2579.97 2701.37 2587.88 2690.18 2598.39C2679 2608.89 2671.09 2621.69 2667.14 2635.69L2662.25 2634.47Z" fill="#656484"/>
<path d="M2667.54 2634.26C2662.5 2653.69 2651.61 2671.49 2636.01 2685.8C2620.42 2700.12 2600.67 2710.43 2578.83 2715.66C2556.99 2720.89 2533.85 2720.85 2511.82 2715.56C2489.78 2710.26 2469.66 2699.89 2453.53 2685.52L2457.08 2682.44C2472.57 2696.24 2491.9 2706.2 2513.06 2711.29C2534.23 2716.38 2556.45 2716.41 2577.43 2711.39C2598.41 2706.36 2617.37 2696.46 2632.35 2682.71C2647.34 2668.96 2657.79 2651.86 2662.63 2633.2L2667.54 2634.26Z" fill="#656484"/>
<path d="M2286.4 2683.58C2296.25 2672.72 2308.53 2664.12 2322.52 2658.27C2336.52 2652.41 2351.96 2649.42 2367.97 2649.45C2383.98 2649.49 2400.24 2652.55 2415.82 2658.47C2431.41 2664.39 2446.01 2673.05 2458.79 2683.95L2455.73 2687.32C2443.47 2676.86 2429.46 2668.56 2414.52 2662.88C2399.57 2657.2 2383.97 2654.26 2368.61 2654.23C2353.26 2654.19 2338.45 2657.07 2325.02 2662.68C2311.59 2668.3 2299.82 2676.55 2290.37 2686.96L2286.4 2683.58Z" fill="#656484"/>
<path d="M2291.93 2685.21C2276.74 2702.69 2255.54 2714.52 2231.26 2719.07C2206.99 2723.62 2180.83 2720.67 2156.42 2710.61L2157.9 2706.28C2181.32 2715.93 2206.41 2718.76 2229.7 2714.4C2252.99 2710.03 2273.32 2698.68 2287.89 2681.92L2291.93 2685.21Z" fill="#656484"/>
<path d="M2793.07 2613.37C2800.69 2613.73 2808.1 2615.69 2814.69 2619.06C2821.28 2622.44 2826.84 2627.13 2830.9 2632.76C2834.97 2638.38 2837.42 2644.76 2838.04 2651.36C2838.67 2657.96 2837.45 2664.59 2834.49 2670.68C2831.54 2676.76 2826.93 2682.13 2821.06 2686.33C2815.19 2690.53 2808.24 2693.43 2800.78 2694.79C2793.32 2696.15 2785.59 2695.93 2778.23 2694.15C2770.87 2692.36 2764.11 2689.07 2758.51 2684.54L2762.03 2681.25C2767.02 2685.29 2773.04 2688.22 2779.6 2689.81C2786.15 2691.4 2793.04 2691.6 2799.68 2690.38C2806.32 2689.17 2812.52 2686.59 2817.75 2682.85C2822.97 2679.11 2827.08 2674.33 2829.71 2668.91C2832.34 2663.48 2833.43 2657.58 2832.87 2651.71C2832.31 2645.83 2830.13 2640.14 2826.51 2635.13C2822.89 2630.13 2817.94 2625.94 2812.07 2622.93C2806.2 2619.93 2799.6 2618.19 2792.81 2617.86L2793.07 2613.37Z" fill="#656484"/>
<path d="M2837.4 2737.65C2827.85 2744.09 2816.63 2748.22 2804.72 2749.68C2792.8 2751.14 2780.52 2749.89 2768.93 2746.03C2757.34 2742.17 2746.78 2735.82 2738.13 2727.52C2729.49 2719.22 2723.02 2709.21 2719.28 2698.34C2715.54 2687.46 2714.63 2676.05 2716.63 2665.07C2718.64 2654.08 2723.49 2643.85 2730.79 2635.23C2738.08 2626.62 2747.61 2619.87 2758.55 2615.57C2769.49 2611.27 2781.53 2609.54 2793.64 2610.53L2793.47 2614.97C2782.13 2614.05 2770.86 2615.67 2760.62 2619.7C2750.37 2623.72 2741.46 2630.04 2734.63 2638.1C2727.8 2646.17 2723.25 2655.75 2721.38 2666.04C2719.5 2676.32 2720.35 2687.01 2723.86 2697.18C2727.36 2707.36 2733.41 2716.74 2741.51 2724.51C2749.6 2732.28 2759.49 2738.22 2770.34 2741.84C2781.19 2745.45 2792.68 2746.62 2803.84 2745.25C2815 2743.89 2825.5 2740.02 2834.44 2733.99L2837.4 2737.65Z" fill="#9897C6"/>
<path d="M2662.25 2631.57C2666.39 2616.91 2674.67 2603.51 2686.39 2592.51C2698.1 2581.5 2712.91 2573.22 2729.55 2568.36C2746.19 2563.5 2764.18 2562.21 2781.99 2564.59C2799.81 2566.97 2816.91 2572.95 2831.87 2582.03C2846.82 2591.12 2859.18 2603.03 2867.9 2616.76C2876.62 2630.49 2881.44 2645.64 2881.96 2660.92C2882.47 2676.21 2878.66 2691.17 2870.86 2704.54C2863.05 2717.92 2851.47 2729.32 2837.11 2737.77L2834.11 2734.19C2847.83 2726.12 2858.88 2715.24 2866.33 2702.47C2873.79 2689.7 2877.42 2675.41 2876.93 2660.82C2876.44 2646.22 2871.84 2631.76 2863.51 2618.64C2855.19 2605.53 2843.38 2594.16 2829.1 2585.48C2814.82 2576.81 2798.49 2571.09 2781.48 2568.82C2764.47 2566.55 2747.3 2567.79 2731.4 2572.43C2715.51 2577.07 2701.37 2584.98 2690.18 2595.48C2679 2605.99 2671.09 2618.78 2667.14 2632.78L2662.25 2631.57Z" fill="#9897C6"/>
<path d="M2667.54 2631.35C2662.5 2650.79 2651.61 2668.58 2636.01 2682.9C2620.42 2697.21 2600.67 2707.52 2578.83 2712.75C2556.99 2717.99 2533.85 2717.95 2511.82 2712.65C2489.78 2707.35 2469.66 2696.98 2453.53 2682.62L2457.08 2679.54C2472.57 2693.33 2491.9 2703.29 2513.06 2708.38C2534.23 2713.47 2556.45 2713.51 2577.43 2708.48C2598.41 2703.46 2617.37 2693.55 2632.35 2679.8C2647.34 2666.06 2657.79 2648.96 2662.63 2630.29L2667.54 2631.35Z" fill="#9897C6"/>
<path d="M2286.4 2680.67C2296.25 2669.82 2308.53 2661.22 2322.52 2655.37C2336.52 2649.51 2351.96 2646.51 2367.97 2646.55C2383.98 2646.58 2400.24 2649.65 2415.82 2655.57C2431.41 2661.49 2446.01 2670.15 2458.79 2681.05L2455.73 2684.42C2443.47 2673.96 2429.46 2665.65 2414.52 2659.98C2399.57 2654.3 2383.97 2651.36 2368.61 2651.32C2353.26 2651.29 2338.45 2654.16 2325.02 2659.78C2311.59 2665.4 2299.82 2673.65 2290.37 2684.06L2286.4 2680.67Z" fill="#9897C6"/>
<path d="M2291.93 2682.31C2276.74 2699.78 2255.54 2711.62 2231.26 2716.17C2206.99 2720.72 2180.83 2717.76 2156.42 2707.71L2157.9 2703.38C2181.32 2713.02 2206.41 2715.86 2229.7 2711.49C2252.99 2707.13 2273.32 2695.78 2287.89 2679.01L2291.93 2682.31Z" fill="#9897C6"/>
<path d="M2793.07 2610.46C2800.69 2610.83 2808.1 2612.78 2814.69 2616.16C2821.28 2619.53 2826.84 2624.23 2830.9 2629.85C2834.97 2635.48 2837.42 2641.86 2838.04 2648.46C2838.67 2655.06 2837.45 2661.68 2834.49 2667.77C2831.54 2673.86 2826.93 2679.23 2821.06 2683.43C2815.19 2687.62 2808.24 2690.53 2800.78 2691.89C2793.32 2693.25 2785.59 2693.03 2778.23 2691.24C2770.87 2689.46 2764.11 2686.16 2758.51 2681.64L2762.03 2678.35C2767.02 2682.38 2773.04 2685.32 2779.6 2686.9C2786.15 2688.49 2793.04 2688.69 2799.68 2687.48C2806.32 2686.27 2812.52 2683.68 2817.75 2679.94C2822.97 2676.21 2827.08 2671.42 2829.71 2666C2832.34 2660.58 2833.43 2654.68 2832.87 2648.8C2832.31 2642.92 2830.13 2637.24 2826.51 2632.23C2822.89 2627.22 2817.94 2623.04 2812.07 2620.03C2806.2 2617.02 2799.6 2615.28 2792.81 2614.96L2793.07 2610.46Z" fill="#9897C6"/>
<path d="M2821.11 2399.76C2811.55 2406.21 2800.34 2410.34 2788.42 2411.8C2776.5 2413.26 2764.22 2412 2752.63 2408.15C2741.04 2404.29 2730.48 2397.94 2721.84 2389.64C2713.19 2381.34 2706.73 2371.33 2702.98 2360.45C2699.24 2349.58 2698.33 2338.17 2700.34 2327.19C2702.34 2316.2 2707.2 2305.97 2714.49 2297.35C2721.79 2288.73 2731.31 2281.99 2742.25 2277.69C2753.19 2273.39 2765.23 2271.66 2777.34 2272.64L2777.18 2277.09C2765.83 2276.17 2754.56 2277.79 2744.32 2281.81C2734.08 2285.84 2725.16 2292.15 2718.33 2300.22C2711.5 2308.29 2706.95 2317.87 2705.08 2328.15C2703.2 2338.44 2704.05 2349.12 2707.56 2359.3C2711.06 2369.48 2717.12 2378.85 2725.21 2386.63C2733.3 2394.4 2743.19 2400.34 2754.04 2403.95C2764.89 2407.56 2776.39 2408.74 2787.54 2407.37C2798.7 2406 2809.2 2402.14 2818.15 2396.11L2821.11 2399.76Z" fill="white"/>
<path d="M2645.95 2293.68C2650.09 2279.02 2658.37 2265.62 2670.09 2254.62C2681.8 2243.62 2696.61 2235.34 2713.25 2230.48C2729.9 2225.62 2747.89 2224.32 2765.7 2226.7C2783.51 2229.08 2800.62 2235.07 2815.57 2244.15C2830.52 2253.23 2842.88 2265.14 2851.6 2278.88C2860.32 2292.61 2865.14 2307.76 2865.66 2323.04C2866.17 2338.32 2862.37 2353.28 2854.56 2366.66C2846.75 2380.04 2835.18 2391.43 2820.81 2399.88L2817.81 2396.31C2831.53 2388.24 2842.58 2377.36 2850.04 2364.59C2857.49 2351.81 2861.13 2337.52 2860.64 2322.93C2860.15 2308.34 2855.54 2293.87 2847.22 2280.76C2838.89 2267.65 2827.09 2256.27 2812.81 2247.6C2798.53 2238.93 2782.19 2233.21 2765.18 2230.94C2748.18 2228.67 2731 2229.9 2715.11 2234.54C2699.21 2239.18 2685.08 2247.09 2673.89 2257.6C2662.7 2268.11 2654.79 2280.9 2650.84 2294.9L2645.95 2293.68Z" fill="white"/>
<path d="M2651.24 2293.47C2646.2 2312.9 2635.32 2330.7 2619.72 2345.01C2604.12 2359.33 2584.37 2369.64 2562.53 2374.87C2540.69 2380.1 2517.55 2380.07 2495.52 2374.77C2473.49 2369.47 2453.36 2359.1 2437.23 2344.74L2440.78 2341.65C2456.27 2355.45 2475.6 2365.41 2496.77 2370.5C2517.93 2375.59 2540.15 2375.62 2561.13 2370.6C2582.11 2365.57 2601.07 2355.67 2616.06 2341.92C2631.04 2328.17 2641.5 2311.08 2646.34 2292.41L2651.24 2293.47Z" fill="white"/>
<path d="M2270.1 2342.79C2279.96 2331.94 2292.23 2323.34 2306.23 2317.48C2320.22 2311.63 2335.67 2308.63 2351.67 2308.67C2367.68 2308.7 2383.94 2311.77 2399.53 2317.68C2415.11 2323.6 2429.71 2332.26 2442.5 2343.16L2439.44 2346.53C2427.17 2336.07 2413.17 2327.77 2398.22 2322.09C2383.27 2316.41 2367.67 2313.47 2352.32 2313.44C2336.96 2313.41 2322.15 2316.28 2308.72 2321.9C2295.3 2327.51 2283.52 2335.76 2274.07 2346.17L2270.1 2342.79Z" fill="white"/>
<path d="M2275.63 2344.43C2260.44 2361.9 2239.24 2373.73 2214.97 2378.28C2190.69 2382.83 2164.53 2379.88 2140.12 2369.83L2141.61 2365.5C2165.02 2375.14 2190.11 2377.97 2213.4 2373.61C2236.69 2369.24 2257.03 2357.89 2271.6 2341.13L2275.63 2344.43Z" fill="white"/>
<path d="M2776.77 2272.58C2784.39 2272.95 2791.81 2274.9 2798.39 2278.27C2804.98 2281.65 2810.54 2286.35 2814.6 2291.97C2818.67 2297.59 2821.12 2303.98 2821.74 2310.58C2822.37 2317.18 2821.15 2323.8 2818.2 2329.89C2815.24 2335.98 2810.63 2341.35 2804.77 2345.54C2798.9 2349.74 2791.94 2352.64 2784.48 2354C2777.03 2355.36 2769.29 2355.14 2761.93 2353.36C2754.57 2351.57 2747.81 2348.28 2742.21 2343.75L2745.73 2340.47C2750.72 2344.5 2756.75 2347.43 2763.3 2349.02C2769.86 2350.61 2776.74 2350.81 2783.39 2349.6C2790.03 2348.39 2796.22 2345.8 2801.45 2342.06C2806.68 2338.32 2810.78 2333.54 2813.41 2328.12C2816.05 2322.7 2817.13 2316.8 2816.57 2310.92C2816.02 2305.04 2813.83 2299.36 2810.21 2294.35C2806.59 2289.34 2801.64 2285.15 2795.77 2282.15C2789.91 2279.14 2783.3 2277.4 2776.51 2277.08L2776.77 2272.58Z" fill="white"/>
<path d="M2823.02 2395.39C2813.47 2401.83 2802.25 2405.96 2790.33 2407.42C2778.42 2408.88 2766.14 2407.63 2754.55 2403.77C2742.96 2399.91 2732.4 2393.56 2723.75 2385.26C2715.11 2376.96 2708.64 2366.95 2704.9 2356.07C2701.16 2345.2 2700.25 2333.79 2702.25 2322.81C2704.26 2311.82 2709.11 2301.59 2716.41 2292.97C2723.7 2284.36 2733.23 2277.61 2744.17 2273.31C2755.11 2269.01 2767.15 2267.28 2779.26 2268.26L2779.09 2272.71C2767.75 2271.79 2756.48 2273.41 2746.24 2277.43C2735.99 2281.46 2727.08 2287.78 2720.25 2295.84C2713.42 2303.91 2708.87 2313.49 2707 2323.78C2705.12 2334.06 2705.97 2344.74 2709.47 2354.92C2712.98 2365.1 2719.03 2374.47 2727.12 2382.25C2735.22 2390.02 2745.11 2395.96 2755.96 2399.57C2766.81 2403.19 2778.3 2404.36 2789.46 2402.99C2800.62 2401.63 2811.12 2397.76 2820.06 2391.73L2823.02 2395.39Z" fill="#656484"/>
<path d="M2647.87 2289.3C2652.01 2274.64 2660.29 2261.25 2672 2250.24C2683.72 2239.24 2698.53 2230.96 2715.17 2226.1C2731.81 2221.24 2749.8 2219.94 2767.61 2222.32C2785.42 2224.7 2802.53 2230.69 2817.49 2239.77C2832.44 2248.85 2844.8 2260.77 2853.52 2274.5C2862.24 2288.23 2867.06 2303.38 2867.57 2318.66C2868.09 2333.94 2864.28 2348.91 2856.47 2362.28C2848.67 2375.66 2837.09 2387.06 2822.73 2395.51L2819.73 2391.93C2833.44 2383.86 2844.5 2372.98 2851.95 2360.21C2859.41 2347.43 2863.04 2333.15 2862.55 2318.55C2862.06 2303.96 2857.46 2289.5 2849.13 2276.38C2840.81 2263.27 2829 2251.89 2814.72 2243.22C2800.44 2234.55 2784.11 2228.83 2767.1 2226.56C2750.09 2224.29 2732.92 2225.52 2717.02 2230.17C2701.13 2234.81 2686.99 2242.71 2675.8 2253.22C2664.62 2263.73 2656.71 2276.52 2652.76 2290.52L2647.87 2289.3Z" fill="#656484"/>
<path d="M2653.16 2289.09C2648.12 2308.52 2637.23 2326.32 2621.63 2340.64C2606.03 2354.95 2586.29 2365.26 2564.45 2370.49C2542.61 2375.72 2519.47 2375.69 2497.44 2370.39C2475.4 2365.09 2455.28 2354.72 2439.15 2340.36L2442.7 2337.27C2458.19 2351.07 2477.52 2361.03 2498.68 2366.12C2519.85 2371.21 2542.07 2371.24 2563.05 2366.22C2584.03 2361.19 2602.99 2351.29 2617.97 2337.54C2632.96 2323.79 2643.41 2306.7 2648.25 2288.03L2653.16 2289.09Z" fill="#656484"/>
<path d="M2272.02 2338.41C2281.87 2327.56 2294.14 2318.96 2308.14 2313.1C2322.14 2307.25 2337.58 2304.25 2353.59 2304.29C2369.6 2304.32 2385.86 2307.39 2401.44 2313.31C2417.02 2319.23 2431.62 2327.88 2444.41 2338.79L2441.35 2342.16C2429.09 2331.7 2415.08 2323.39 2400.13 2317.71C2385.18 2312.04 2369.59 2309.1 2354.23 2309.06C2338.88 2309.03 2324.06 2311.9 2310.64 2317.52C2297.21 2323.13 2285.44 2331.38 2275.98 2341.79L2272.02 2338.41Z" fill="#656484"/>
<path d="M2277.55 2340.05C2262.36 2357.52 2241.16 2369.35 2216.88 2373.9C2192.6 2378.45 2166.45 2375.5 2142.04 2365.45L2143.52 2361.12C2166.94 2370.76 2192.03 2373.59 2215.32 2369.23C2238.6 2364.86 2258.94 2353.51 2273.51 2336.75L2277.55 2340.05Z" fill="#656484"/>
<path d="M2778.68 2268.2C2786.3 2268.57 2793.72 2270.52 2800.31 2273.9C2806.89 2277.27 2812.46 2281.97 2816.52 2287.59C2820.59 2293.22 2823.03 2299.6 2823.66 2306.2C2824.29 2312.8 2823.07 2319.42 2820.11 2325.51C2817.16 2331.6 2812.55 2336.97 2806.68 2341.16C2800.81 2345.36 2793.86 2348.26 2786.4 2349.62C2778.94 2350.98 2771.21 2350.76 2763.85 2348.98C2756.49 2347.19 2749.72 2343.9 2744.13 2339.37L2747.65 2336.09C2752.64 2340.12 2758.66 2343.05 2765.22 2344.64C2771.77 2346.23 2778.66 2346.43 2785.3 2345.22C2791.94 2344.01 2798.14 2341.42 2803.37 2337.68C2808.59 2333.94 2812.7 2329.16 2815.33 2323.74C2817.96 2318.32 2819.05 2312.42 2818.49 2306.54C2817.93 2300.66 2815.75 2294.98 2812.13 2289.97C2808.51 2284.96 2803.56 2280.77 2797.69 2277.77C2791.82 2274.76 2785.22 2273.02 2778.43 2272.7L2778.68 2268.2Z" fill="#656484"/>
<path d="M2823.02 2392.48C2813.47 2398.93 2802.25 2403.06 2790.33 2404.51C2778.42 2405.97 2766.14 2404.72 2754.55 2400.86C2742.96 2397.01 2732.4 2390.66 2723.75 2382.36C2715.11 2374.05 2708.64 2364.04 2704.9 2353.17C2701.16 2342.3 2700.25 2330.89 2702.25 2319.9C2704.26 2308.92 2709.11 2298.68 2716.41 2290.07C2723.7 2281.45 2733.23 2274.71 2744.17 2270.41C2755.11 2266.11 2767.15 2264.37 2779.26 2265.36L2779.09 2269.81C2767.75 2268.88 2756.48 2270.5 2746.24 2274.53C2735.99 2278.56 2727.08 2284.87 2720.25 2292.94C2713.42 2301.01 2708.87 2310.59 2707 2320.87C2705.12 2331.16 2705.97 2341.84 2709.47 2352.02C2712.98 2362.2 2719.03 2371.57 2727.12 2379.34C2735.22 2387.12 2745.11 2393.06 2755.96 2396.67C2766.81 2400.28 2778.3 2401.45 2789.46 2400.09C2800.62 2398.72 2811.12 2394.86 2820.06 2388.82L2823.02 2392.48Z" fill="#9897C6"/>
<path d="M2647.87 2286.4C2652.01 2271.74 2660.29 2258.34 2672 2247.34C2683.72 2236.34 2698.53 2228.06 2715.17 2223.2C2731.81 2218.34 2749.8 2217.04 2767.61 2219.42C2785.42 2221.8 2802.53 2227.79 2817.49 2236.87C2832.44 2245.95 2844.8 2257.86 2853.52 2271.6C2862.24 2285.33 2867.06 2300.48 2867.57 2315.76C2868.09 2331.04 2864.28 2346 2856.47 2359.38C2848.67 2372.76 2837.09 2384.15 2822.73 2392.6L2819.73 2389.03C2833.44 2380.96 2844.5 2370.08 2851.95 2357.3C2859.41 2344.53 2863.04 2330.24 2862.55 2315.65C2862.06 2301.06 2857.46 2286.59 2849.13 2273.48C2840.81 2260.37 2829 2248.99 2814.72 2240.32C2800.44 2231.64 2784.11 2225.93 2767.1 2223.66C2750.09 2221.38 2732.92 2222.62 2717.02 2227.26C2701.13 2231.9 2686.99 2239.81 2675.8 2250.32C2664.62 2260.82 2656.71 2273.62 2652.76 2287.62L2647.87 2286.4Z" fill="#9897C6"/>
<path d="M2653.16 2286.19C2648.12 2305.62 2637.23 2323.42 2621.63 2337.73C2606.03 2352.05 2586.29 2362.36 2564.45 2367.59C2542.61 2372.82 2519.47 2372.78 2497.44 2367.49C2475.4 2362.19 2455.28 2351.82 2439.15 2337.45L2442.7 2334.37C2458.19 2348.17 2477.52 2358.13 2498.68 2363.22C2519.85 2368.31 2542.07 2368.34 2563.05 2363.31C2584.03 2358.29 2602.99 2348.39 2617.97 2334.64C2632.96 2320.89 2643.41 2303.79 2648.25 2285.13L2653.16 2286.19Z" fill="#9897C6"/>
<path d="M2272.02 2335.51C2281.87 2324.65 2294.14 2316.05 2308.14 2310.2C2322.14 2304.34 2337.58 2301.35 2353.59 2301.38C2369.6 2301.42 2385.86 2304.48 2401.44 2310.4C2417.02 2316.32 2431.62 2324.98 2444.41 2335.88L2441.35 2339.25C2429.09 2328.79 2415.08 2320.49 2400.13 2314.81C2385.18 2309.13 2369.59 2306.19 2354.23 2306.16C2338.88 2306.12 2324.06 2309 2310.64 2314.61C2297.21 2320.23 2285.44 2328.48 2275.98 2338.89L2272.02 2335.51Z" fill="#9897C6"/>
<path d="M2277.55 2337.14C2262.36 2354.62 2241.16 2366.45 2216.88 2371C2192.6 2375.55 2166.45 2372.6 2142.04 2362.55L2143.52 2358.21C2166.94 2367.86 2192.03 2370.69 2215.32 2366.33C2238.6 2361.96 2258.94 2350.61 2273.51 2333.85L2277.55 2337.14Z" fill="#9897C6"/>
<path d="M2778.68 2265.3C2786.3 2265.66 2793.72 2267.62 2800.31 2270.99C2806.89 2274.37 2812.46 2279.07 2816.52 2284.69C2820.59 2290.31 2823.03 2296.69 2823.66 2303.29C2824.29 2309.9 2823.07 2316.52 2820.11 2322.61C2817.16 2328.69 2812.55 2334.06 2806.68 2338.26C2800.81 2342.46 2793.86 2345.36 2786.4 2346.72C2778.94 2348.08 2771.21 2347.86 2763.85 2346.08C2756.49 2344.29 2749.72 2341 2744.13 2336.47L2747.65 2333.19C2752.64 2337.22 2758.66 2340.15 2765.22 2341.74C2771.77 2343.33 2778.66 2343.53 2785.3 2342.31C2791.94 2341.1 2798.14 2338.52 2803.37 2334.78C2808.59 2331.04 2812.7 2326.26 2815.33 2320.84C2817.96 2315.42 2819.05 2309.52 2818.49 2303.64C2817.93 2297.76 2815.75 2292.07 2812.13 2287.06C2808.51 2282.06 2803.56 2277.87 2797.69 2274.87C2791.82 2271.86 2785.22 2270.12 2778.43 2269.79L2778.68 2265.3Z" fill="#9897C6"/>
<path d="M1760.08 1838.23C1741 1825.6 1718.62 1817.51 1694.83 1814.65C1671.04 1811.79 1646.54 1814.25 1623.4 1821.8C1600.27 1829.36 1579.18 1841.8 1561.93 1858.06C1544.67 1874.33 1531.77 1893.94 1524.3 1915.24C1516.82 1936.54 1515.01 1958.89 1519.01 1980.41C1523.01 2001.93 1532.7 2021.98 1547.26 2038.86C1561.83 2055.74 1580.84 2068.96 1602.67 2077.38C1624.51 2085.81 1648.54 2089.2 1672.72 2087.27L1672.39 2078.55C1649.75 2080.36 1627.25 2077.19 1606.81 2069.3C1586.36 2061.41 1568.56 2049.04 1554.93 2033.24C1541.29 2017.43 1532.22 1998.66 1528.48 1978.51C1524.73 1958.37 1526.43 1937.44 1533.42 1917.5C1540.42 1897.56 1552.5 1879.19 1568.66 1863.97C1584.81 1848.74 1604.55 1837.09 1626.21 1830.02C1647.87 1822.94 1670.81 1820.65 1693.09 1823.32C1715.36 1826 1736.32 1833.57 1754.17 1845.39L1760.08 1838.23Z" fill="white"/>
<path d="M1410.45 2046.05C1418.72 2074.77 1435.25 2101.02 1458.63 2122.57C1482.02 2144.13 1511.58 2160.35 1544.8 2169.87C1578.02 2179.39 1613.93 2181.93 1649.48 2177.27C1685.03 2172.61 1719.18 2160.88 1749.03 2143.09C1778.88 2125.29 1803.55 2101.96 1820.96 2075.05C1838.36 2048.15 1847.99 2018.47 1849.01 1988.53C1850.04 1958.6 1842.44 1929.28 1826.86 1903.08C1811.27 1876.87 1788.17 1854.54 1759.49 1837.99L1753.51 1844.99C1780.89 1860.8 1802.95 1882.12 1817.83 1907.14C1832.71 1932.17 1839.97 1960.16 1838.99 1988.74C1838.01 2017.33 1828.82 2045.67 1812.2 2071.36C1795.58 2097.05 1772.02 2119.34 1743.52 2136.33C1715.01 2153.32 1682.4 2164.52 1648.46 2168.97C1614.51 2173.42 1580.22 2171 1548.49 2161.91C1516.77 2152.81 1488.55 2137.32 1466.22 2116.74C1443.88 2096.15 1428.1 2071.09 1420.21 2043.67L1410.45 2046.05Z" fill="white"/>
<path d="M1421.01 2046.47C1410.96 2008.4 1389.23 1973.53 1358.09 1945.48C1326.95 1917.44 1287.54 1897.24 1243.94 1886.99C1200.35 1876.74 1154.16 1876.81 1110.18 1887.2C1066.2 1897.58 1026.02 1917.89 993.83 1946.03L1000.91 1952.07C1031.83 1925.04 1070.42 1905.53 1112.66 1895.56C1154.91 1885.59 1199.27 1885.52 1241.15 1895.37C1283.02 1905.21 1320.88 1924.61 1350.78 1951.54C1380.69 1978.48 1401.56 2011.97 1411.22 2048.54L1421.01 2046.47Z" fill="white"/>
<path d="M660.213 1949.84C679.881 1971.11 704.383 1987.95 732.321 1999.42C760.259 2010.89 791.085 2016.76 823.039 2016.69C854.994 2016.62 887.45 2010.62 918.556 1999.02C949.662 1987.43 978.808 1970.47 1004.33 1949.11L998.227 1942.51C973.745 1963 945.786 1979.27 915.948 1990.39C886.11 2001.52 854.976 2007.27 824.324 2007.34C793.672 2007.41 764.102 2001.78 737.303 1990.77C710.504 1979.77 687 1963.61 668.133 1943.21L660.213 1949.84Z" fill="white"/>
<path d="M671.258 1946.64C640.937 1912.4 598.618 1889.22 550.157 1880.31C501.695 1871.39 449.488 1877.18 400.759 1896.87L403.721 1905.36C450.464 1886.47 500.544 1880.92 547.03 1889.47C593.517 1898.02 634.111 1920.25 663.196 1953.09L671.258 1946.64Z" fill="white"/>
<path d="M1671.58 2087.39C1686.79 2086.67 1701.59 2082.85 1714.74 2076.23C1727.89 2069.62 1738.99 2060.42 1747.1 2049.4C1755.22 2038.38 1760.11 2025.88 1761.35 2012.95C1762.6 2000.02 1760.17 1987.04 1754.27 1975.12C1748.37 1963.19 1739.18 1952.67 1727.46 1944.45C1715.75 1936.22 1701.86 1930.54 1686.98 1927.87C1672.09 1925.21 1656.65 1925.64 1641.96 1929.14C1627.27 1932.63 1613.77 1939.09 1602.59 1947.96L1609.63 1954.39C1619.58 1946.5 1631.61 1940.75 1644.69 1937.63C1657.78 1934.52 1671.53 1934.13 1684.79 1936.51C1698.04 1938.88 1710.41 1943.94 1720.85 1951.27C1731.28 1958.59 1739.47 1967.96 1744.73 1978.58C1749.98 1989.2 1752.14 2000.76 1751.03 2012.28C1749.92 2023.8 1745.57 2034.93 1738.34 2044.75C1731.11 2054.56 1721.22 2062.76 1709.51 2068.65C1697.8 2074.54 1684.62 2077.94 1671.07 2078.58L1671.58 2087.39Z" fill="white"/>
<path d="M1763.9 1846.8C1744.83 1834.17 1722.45 1826.09 1698.65 1823.23C1674.86 1820.37 1650.36 1822.82 1627.22 1830.38C1604.09 1837.94 1583 1850.37 1565.75 1866.64C1548.5 1882.9 1535.59 1902.52 1528.12 1923.82C1520.65 1945.11 1518.83 1967.47 1522.83 1988.99C1526.83 2010.51 1536.52 2030.56 1551.09 2047.44C1565.65 2064.32 1584.66 2077.53 1606.5 2085.96C1628.34 2094.38 1652.36 2097.78 1676.55 2095.84L1676.21 2087.13C1653.57 2088.94 1631.08 2085.77 1610.63 2077.88C1590.18 2069.99 1572.39 2057.62 1558.75 2041.81C1545.12 2026.01 1536.04 2007.24 1532.3 1987.09C1528.56 1966.94 1530.25 1946.01 1537.25 1926.07C1544.24 1906.13 1556.33 1887.77 1572.48 1872.54C1588.63 1857.32 1608.37 1845.67 1630.03 1838.6C1651.69 1831.52 1674.63 1829.22 1696.91 1831.9C1719.18 1834.58 1740.14 1842.15 1757.99 1853.97L1763.9 1846.8Z" fill="#656484"/>
<path d="M1414.28 2054.63C1422.54 2083.34 1439.07 2109.59 1462.46 2131.15C1485.84 2152.7 1515.4 2168.93 1548.62 2178.45C1581.84 2187.97 1617.75 2190.51 1653.3 2185.85C1688.85 2181.18 1723 2169.46 1752.85 2151.66C1782.7 2133.87 1807.38 2110.53 1824.78 2083.63C1842.19 2056.72 1851.81 2027.05 1852.84 1997.11C1853.86 1967.17 1846.26 1937.86 1830.68 1911.65C1815.1 1885.45 1791.99 1863.12 1763.32 1846.57L1757.33 1853.57C1784.71 1869.38 1806.77 1890.7 1821.65 1915.72C1836.53 1940.74 1843.79 1968.73 1842.81 1997.32C1841.83 2025.91 1832.64 2054.25 1816.02 2079.94C1799.4 2105.63 1775.84 2127.91 1747.34 2144.91C1718.83 2161.9 1686.23 2173.09 1652.28 2177.55C1618.33 2182 1584.04 2179.58 1552.32 2170.48C1520.59 2161.39 1492.37 2145.9 1470.04 2125.31C1447.71 2104.73 1431.93 2079.67 1424.03 2052.24L1414.28 2054.63Z" fill="#656484"/>
<path d="M1424.84 2055.05C1414.78 2016.97 1393.05 1982.1 1361.91 1954.06C1330.78 1926.02 1291.36 1905.82 1247.77 1895.57C1204.17 1885.32 1157.98 1885.39 1114 1895.77C1070.02 1906.15 1029.84 1926.47 997.652 1954.61L1004.73 1960.65C1035.65 1933.62 1074.24 1914.11 1116.48 1904.14C1158.73 1894.16 1203.09 1894.1 1244.97 1903.94C1286.84 1913.79 1324.7 1933.19 1354.61 1960.12C1384.51 1987.06 1405.38 2020.55 1415.05 2057.12L1424.84 2055.05Z" fill="#656484"/>
<path d="M664.035 1958.42C683.703 1979.68 708.206 1996.53 736.144 2008C764.081 2019.47 794.907 2025.34 826.862 2025.27C858.816 2025.2 891.273 2019.2 922.379 2007.6C953.484 1996 982.63 1979.04 1008.15 1957.68L1002.05 1951.09C977.567 1971.57 949.609 1987.84 919.771 1998.97C889.932 2010.09 858.798 2015.85 828.146 2015.92C797.494 2015.98 767.924 2010.35 741.125 1999.35C714.326 1988.35 690.822 1972.19 671.955 1951.79L664.035 1958.42Z" fill="#656484"/>
<path d="M675.08 1955.21C644.76 1920.98 602.441 1897.8 553.979 1888.89C505.517 1879.97 453.31 1885.76 404.582 1905.45L407.544 1913.93C454.286 1895.05 504.366 1889.49 550.853 1898.04C597.339 1906.6 637.934 1928.83 667.018 1961.67L675.08 1955.21Z" fill="#656484"/>
<path d="M1675.4 2095.96C1690.61 2095.25 1705.42 2091.42 1718.56 2084.81C1731.71 2078.2 1742.81 2068.99 1750.93 2057.98C1759.04 2046.96 1763.93 2034.46 1765.18 2021.53C1766.43 2008.6 1764 1995.62 1758.1 1983.69C1752.2 1971.77 1743 1961.25 1731.29 1953.03C1719.57 1944.8 1705.68 1939.12 1690.8 1936.45C1675.92 1933.79 1660.48 1934.22 1645.79 1937.72C1631.1 1941.21 1617.59 1947.67 1606.41 1956.53L1613.45 1962.97C1623.4 1955.07 1635.43 1949.32 1648.52 1946.21C1661.6 1943.1 1675.35 1942.71 1688.61 1945.08C1701.86 1947.46 1714.23 1952.52 1724.67 1959.85C1735.1 1967.17 1743.29 1976.54 1748.55 1987.16C1753.8 1997.78 1755.97 2009.34 1754.85 2020.86C1753.74 2032.38 1749.39 2043.51 1742.16 2053.32C1734.93 2063.14 1725.05 2071.33 1713.34 2077.22C1701.63 2083.11 1688.44 2086.52 1674.89 2087.16L1675.4 2095.96Z" fill="#656484"/>
<path d="M1763.9 1852.49C1744.83 1839.86 1722.45 1831.78 1698.65 1828.92C1674.86 1826.06 1650.36 1828.51 1627.22 1836.07C1604.09 1843.63 1583 1856.06 1565.75 1872.33C1548.5 1888.59 1535.59 1908.21 1528.12 1929.5C1520.65 1950.8 1518.83 1973.16 1522.83 1994.68C1526.83 2016.2 1536.52 2036.25 1551.09 2053.13C1565.65 2070.01 1584.66 2083.22 1606.5 2091.65C1628.34 2100.07 1652.36 2103.46 1676.55 2101.53L1676.21 2092.82C1653.57 2094.63 1631.08 2091.45 1610.63 2083.57C1590.18 2075.68 1572.39 2063.31 1558.75 2047.5C1545.12 2031.7 1536.04 2012.93 1532.3 1992.78C1528.56 1972.63 1530.25 1951.7 1537.25 1931.76C1544.24 1911.82 1556.33 1893.46 1572.48 1878.23C1588.63 1863 1608.37 1851.36 1630.03 1844.28C1651.69 1837.21 1674.63 1834.91 1696.91 1837.59C1719.18 1840.27 1740.14 1847.84 1757.99 1859.66L1763.9 1852.49Z" fill="#9897C6"/>
<path d="M1414.28 2060.31C1422.54 2089.03 1439.07 2115.28 1462.46 2136.84C1485.84 2158.39 1515.4 2174.62 1548.62 2184.14C1581.84 2193.66 1617.75 2196.2 1653.3 2191.53C1688.85 2186.87 1723 2175.15 1752.85 2157.35C1782.7 2139.56 1807.38 2116.22 1824.78 2089.32C1842.19 2062.41 1851.81 2032.73 1852.84 2002.8C1853.86 1972.86 1846.26 1943.55 1830.68 1917.34C1815.1 1891.14 1791.99 1868.81 1763.32 1852.26L1757.33 1859.26C1784.71 1875.07 1806.77 1896.38 1821.65 1921.41C1836.53 1946.43 1843.79 1974.42 1842.81 2003.01C1841.83 2031.6 1832.64 2059.94 1816.02 2085.63C1799.4 2111.32 1775.84 2133.6 1747.34 2150.59C1718.83 2167.59 1686.23 2178.78 1652.28 2183.23C1618.33 2187.69 1584.04 2185.26 1552.32 2176.17C1520.59 2167.08 1492.37 2151.59 1470.04 2131C1447.71 2110.42 1431.93 2085.36 1424.03 2057.93L1414.28 2060.31Z" fill="#9897C6"/>
<path d="M1424.84 2060.73C1414.78 2022.66 1393.05 1987.79 1361.91 1959.75C1330.78 1931.71 1291.36 1911.51 1247.77 1901.26C1204.17 1891.01 1157.98 1891.08 1114 1901.46C1070.02 1911.84 1029.84 1932.16 997.652 1960.3L1004.73 1966.34C1035.65 1939.31 1074.24 1919.8 1116.48 1909.82C1158.73 1899.85 1203.09 1899.79 1244.97 1909.63C1286.84 1919.48 1324.7 1938.87 1354.61 1965.81C1384.51 1992.75 1405.38 2026.24 1415.05 2062.81L1424.84 2060.73Z" fill="#9897C6"/>
<path d="M664.035 1964.11C683.703 1985.37 708.206 2002.22 736.144 2013.69C764.081 2025.16 794.907 2031.03 826.862 2030.96C858.816 2030.89 891.273 2024.89 922.379 2013.29C953.484 2001.69 982.63 1984.73 1008.15 1963.37L1002.05 1956.77C977.567 1977.26 949.609 1993.53 919.771 2004.66C889.932 2015.78 858.798 2021.54 828.146 2021.61C797.494 2021.67 767.924 2016.04 741.125 2005.04C714.326 1994.04 690.822 1977.88 671.955 1957.48L664.035 1964.11Z" fill="#9897C6"/>
<path d="M675.08 1960.9C644.76 1926.67 602.441 1903.49 553.979 1894.57C505.517 1885.66 453.31 1891.45 404.582 1911.14L407.544 1919.62C454.286 1900.73 504.366 1895.18 550.853 1903.73C597.339 1912.28 637.934 1934.52 667.018 1967.36L675.08 1960.9Z" fill="#9897C6"/>
<path d="M1675.4 2101.65C1690.61 2100.94 1705.42 2097.11 1718.56 2090.5C1731.71 2083.89 1742.81 2074.68 1750.93 2063.67C1759.04 2052.65 1763.93 2040.15 1765.18 2027.22C1766.43 2014.28 1764 2001.31 1758.1 1989.38C1752.2 1977.46 1743 1966.94 1731.29 1958.71C1719.57 1950.49 1705.68 1944.8 1690.8 1942.14C1675.92 1939.47 1660.48 1939.91 1645.79 1943.4C1631.1 1946.9 1617.59 1953.35 1606.41 1962.22L1613.45 1968.66C1623.4 1960.76 1635.43 1955.01 1648.52 1951.9C1661.6 1948.79 1675.35 1948.4 1688.61 1950.77C1701.86 1953.15 1714.23 1958.21 1724.67 1965.53C1735.1 1972.86 1743.29 1982.23 1748.55 1992.85C1753.8 2003.47 1755.97 2015.03 1754.85 2026.55C1753.74 2038.06 1749.39 2049.2 1742.16 2059.01C1734.93 2068.82 1725.05 2077.02 1713.34 2082.91C1701.63 2088.8 1688.44 2092.21 1674.89 2092.85L1675.4 2101.65Z" fill="#9897C6"/>
<path d="M3847.42 1544.99C3831.39 1555.8 3812.59 1562.73 3792.6 1565.17C3772.61 1567.62 3752.03 1565.52 3732.59 1559.05C3713.15 1552.58 3695.44 1541.94 3680.94 1528.01C3666.45 1514.09 3655.6 1497.3 3649.33 1479.07C3643.05 1460.84 3641.53 1441.7 3644.89 1423.28C3648.25 1404.86 3656.39 1387.7 3668.62 1373.25C3680.86 1358.8 3696.83 1347.49 3715.18 1340.27C3733.52 1333.06 3753.71 1330.16 3774.03 1331.81L3773.74 1339.27C3754.73 1337.72 3735.83 1340.44 3718.65 1347.19C3701.47 1353.94 3686.52 1364.53 3675.06 1378.06C3663.61 1391.59 3655.99 1407.66 3652.84 1424.9C3649.7 1442.15 3651.12 1460.07 3657 1477.14C3662.87 1494.21 3673.03 1509.92 3686.6 1522.96C3700.17 1535.99 3716.75 1545.96 3734.95 1552.02C3753.15 1558.07 3772.42 1560.04 3791.13 1557.75C3809.85 1555.46 3827.45 1548.98 3842.45 1538.86L3847.42 1544.99Z" fill="white"/>
<path d="M3553.69 1367.09C3560.63 1342.51 3574.52 1320.04 3594.16 1301.59C3613.81 1283.14 3638.64 1269.25 3666.55 1261.1C3694.46 1252.95 3724.63 1250.78 3754.5 1254.77C3784.37 1258.76 3813.06 1268.8 3838.13 1284.03C3863.21 1299.26 3883.94 1319.24 3898.56 1342.27C3913.18 1365.3 3921.27 1390.7 3922.13 1416.33C3922.99 1441.96 3916.61 1467.05 3903.52 1489.48C3890.42 1511.91 3871.01 1531.02 3846.92 1545.19L3841.89 1539.2C3864.9 1525.67 3883.43 1507.42 3895.93 1486C3908.44 1464.58 3914.53 1440.62 3913.71 1416.15C3912.89 1391.68 3905.17 1367.42 3891.2 1345.43C3877.24 1323.43 3857.45 1304.36 3833.5 1289.81C3809.55 1275.27 3782.16 1265.69 3753.64 1261.87C3725.12 1258.06 3696.31 1260.14 3669.66 1267.92C3643.01 1275.7 3619.29 1288.97 3600.53 1306.58C3581.77 1324.2 3568.51 1345.66 3561.88 1369.13L3553.69 1367.09Z" fill="white"/>
<path d="M3562.55 1366.74C3554.1 1399.33 3535.85 1429.17 3509.69 1453.18C3483.53 1477.18 3450.42 1494.47 3413.79 1503.25C3377.17 1512.02 3338.36 1511.96 3301.41 1503.07C3264.46 1494.19 3230.71 1476.8 3203.67 1452.71L3209.61 1447.54C3235.59 1470.68 3268.01 1487.38 3303.5 1495.92C3338.99 1504.45 3376.26 1504.51 3411.44 1496.08C3446.62 1487.65 3478.43 1471.05 3503.55 1447.99C3528.68 1424.93 3546.21 1396.26 3554.33 1364.96L3562.55 1366.74Z" fill="white"/>
<path d="M2923.39 1449.45C2939.91 1431.25 2960.5 1416.82 2983.97 1407.01C3007.44 1397.19 3033.34 1392.16 3060.19 1392.22C3087.03 1392.28 3114.3 1397.42 3140.43 1407.35C3166.56 1417.27 3191.05 1431.79 3212.49 1450.08L3207.36 1455.73C3186.8 1438.19 3163.31 1424.26 3138.24 1414.74C3113.17 1405.21 3087.02 1400.29 3061.26 1400.23C3035.51 1400.17 3010.67 1404.99 2988.16 1414.41C2965.64 1423.83 2945.9 1437.66 2930.05 1455.12L2923.39 1449.45Z" fill="white"/>
<path d="M2932.67 1452.19C2907.2 1481.5 2871.64 1501.34 2830.93 1508.97C2790.22 1516.6 2746.36 1511.65 2705.42 1494.79L2707.91 1487.53C2747.18 1503.7 2789.25 1508.45 2828.3 1501.13C2867.36 1493.81 2901.46 1474.78 2925.9 1446.67L2932.67 1452.19Z" fill="white"/>
<path d="M3773.06 1331.71C3785.84 1332.32 3798.28 1335.6 3809.33 1341.26C3820.37 1346.92 3829.7 1354.8 3836.51 1364.23C3843.33 1373.66 3847.44 1384.36 3848.49 1395.43C3849.54 1406.5 3847.5 1417.61 3842.54 1427.81C3837.58 1438.02 3829.86 1447.03 3820.01 1454.07C3810.17 1461.1 3798.5 1465.97 3786 1468.25C3773.5 1470.53 3760.52 1470.16 3748.18 1467.17C3735.84 1464.18 3724.5 1458.65 3715.11 1451.06L3721.02 1445.55C3729.38 1452.31 3739.49 1457.23 3750.48 1459.9C3761.47 1462.56 3773.02 1462.9 3784.16 1460.86C3795.3 1458.83 3805.69 1454.5 3814.45 1448.23C3823.22 1441.96 3830.1 1433.94 3834.52 1424.85C3838.93 1415.75 3840.75 1405.86 3839.81 1396C3838.88 1386.14 3835.22 1376.61 3829.15 1368.21C3823.08 1359.81 3814.77 1352.79 3804.93 1347.75C3795.1 1342.71 3784.02 1339.79 3772.64 1339.25L3773.06 1331.71Z" fill="white"/>
<path d="M3850.63 1537.65C3834.6 1548.46 3815.8 1555.38 3795.81 1557.83C3775.82 1560.28 3755.24 1558.18 3735.8 1551.71C3716.36 1545.24 3698.65 1534.59 3684.15 1520.67C3669.66 1506.75 3658.82 1489.96 3652.54 1471.73C3646.26 1453.5 3644.74 1434.36 3648.1 1415.94C3651.46 1397.52 3659.6 1380.35 3671.84 1365.9C3684.07 1351.46 3700.04 1340.15 3718.39 1332.93C3736.74 1325.72 3756.92 1322.82 3777.24 1324.47L3776.96 1331.93C3757.94 1330.38 3739.04 1333.1 3721.86 1339.85C3704.68 1346.6 3689.73 1357.19 3678.28 1370.72C3666.82 1384.25 3659.2 1400.32 3656.05 1417.56C3652.91 1434.81 3654.33 1452.73 3660.21 1469.8C3666.09 1486.86 3676.24 1502.58 3689.81 1515.62C3703.38 1528.65 3719.96 1538.62 3738.16 1544.68C3756.36 1550.73 3775.63 1552.7 3794.34 1550.41C3813.06 1548.12 3830.66 1541.64 3845.66 1531.52L3850.63 1537.65Z" fill="#656484"/>
<path d="M3556.9 1359.75C3563.84 1335.17 3577.73 1312.7 3597.37 1294.25C3617.02 1275.8 3641.85 1261.91 3669.76 1253.76C3697.67 1245.61 3727.84 1243.44 3757.71 1247.43C3787.58 1251.42 3816.27 1261.46 3841.34 1276.69C3866.42 1291.92 3887.15 1311.9 3901.77 1334.93C3916.39 1357.96 3924.48 1383.36 3925.34 1408.99C3926.2 1434.61 3919.82 1459.71 3906.73 1482.14C3893.64 1504.57 3874.22 1523.68 3850.13 1537.85L3845.1 1531.86C3868.11 1518.33 3886.64 1500.08 3899.15 1478.66C3911.65 1457.24 3917.74 1433.28 3916.92 1408.81C3916.1 1384.34 3908.38 1360.08 3894.41 1338.08C3880.45 1316.09 3860.66 1297.02 3836.71 1282.47C3812.76 1267.93 3785.37 1258.34 3756.85 1254.53C3728.33 1250.72 3699.52 1252.79 3672.87 1260.58C3646.22 1268.36 3622.51 1281.62 3603.74 1299.24C3584.98 1316.86 3571.73 1338.32 3565.09 1361.79L3556.9 1359.75Z" fill="#656484"/>
<path d="M3565.77 1359.39C3557.31 1391.98 3539.06 1421.83 3512.9 1445.84C3486.74 1469.84 3453.63 1487.13 3417 1495.91C3380.38 1504.68 3341.58 1504.62 3304.62 1495.73C3267.67 1486.85 3233.92 1469.46 3206.88 1445.37L3212.83 1440.2C3238.8 1463.34 3271.22 1480.04 3306.71 1488.57C3342.2 1497.11 3379.47 1497.17 3414.65 1488.74C3449.83 1480.31 3481.64 1463.71 3506.76 1440.65C3531.89 1417.59 3549.42 1388.92 3557.54 1357.62L3565.77 1359.39Z" fill="#656484"/>
<path d="M2926.6 1442.1C2943.13 1423.9 2963.71 1409.48 2987.18 1399.66C3010.65 1389.85 3036.55 1384.82 3063.4 1384.88C3090.24 1384.94 3117.51 1390.08 3143.64 1400.01C3169.78 1409.93 3194.26 1424.45 3215.7 1442.74L3210.58 1448.38C3190.01 1430.85 3166.52 1416.92 3141.45 1407.4C3116.38 1397.87 3090.23 1392.94 3064.48 1392.89C3038.72 1392.83 3013.88 1397.65 2991.37 1407.07C2968.85 1416.49 2949.11 1430.32 2933.26 1447.78L2926.6 1442.1Z" fill="#656484"/>
<path d="M2935.88 1444.85C2910.41 1474.16 2874.86 1494 2834.14 1501.63C2793.43 1509.26 2749.57 1504.3 2708.63 1487.45L2711.12 1480.19C2750.39 1496.36 2792.46 1501.11 2831.51 1493.79C2870.57 1486.47 2904.67 1467.44 2929.11 1439.33L2935.88 1444.85Z" fill="#656484"/>
<path d="M3776.27 1324.37C3789.05 1324.98 3801.49 1328.25 3812.54 1333.91C3823.58 1339.58 3832.91 1347.45 3839.72 1356.88C3846.54 1366.31 3850.65 1377.02 3851.7 1388.09C3852.75 1399.16 3850.71 1410.26 3845.75 1420.47C3840.79 1430.68 3833.07 1439.68 3823.22 1446.72C3813.38 1453.76 3801.72 1458.63 3789.21 1460.91C3776.71 1463.19 3763.74 1462.82 3751.39 1459.83C3739.05 1456.84 3727.71 1451.31 3718.32 1443.72L3724.23 1438.21C3732.59 1444.97 3742.7 1449.89 3753.69 1452.56C3764.68 1455.22 3776.23 1455.55 3787.37 1453.52C3798.51 1451.49 3808.9 1447.16 3817.67 1440.89C3826.43 1434.62 3833.31 1426.6 3837.73 1417.5C3842.14 1408.41 3843.96 1398.52 3843.03 1388.66C3842.09 1378.8 3838.43 1369.27 3832.36 1360.87C3826.29 1352.47 3817.98 1345.45 3808.15 1340.41C3798.31 1335.37 3787.23 1332.45 3775.85 1331.91L3776.27 1324.37Z" fill="#656484"/>
<path d="M3850.63 1532.78C3834.6 1543.59 3815.8 1550.51 3795.81 1552.96C3775.82 1555.41 3755.24 1553.31 3735.8 1546.84C3716.36 1540.37 3698.65 1529.72 3684.15 1515.8C3669.66 1501.88 3658.82 1485.09 3652.54 1466.86C3646.26 1448.63 3644.74 1429.49 3648.1 1411.07C3651.46 1392.65 3659.6 1375.48 3671.84 1361.03C3684.07 1346.58 3700.04 1335.27 3718.39 1328.06C3736.74 1320.85 3756.92 1317.95 3777.24 1319.6L3776.96 1327.06C3757.94 1325.51 3739.04 1328.23 3721.86 1334.98C3704.68 1341.73 3689.73 1352.32 3678.28 1365.85C3666.82 1379.38 3659.2 1395.44 3656.05 1412.69C3652.91 1429.94 3654.33 1447.86 3660.21 1464.92C3666.09 1481.99 3676.24 1497.71 3689.81 1510.75C3703.38 1523.78 3719.96 1533.75 3738.16 1539.81C3756.36 1545.86 3775.63 1547.83 3794.34 1545.54C3813.06 1543.25 3830.66 1536.76 3845.66 1526.64L3850.63 1532.78Z" fill="#9897C6"/>
<path d="M3556.9 1354.88C3563.84 1330.3 3577.73 1307.83 3597.37 1289.38C3617.02 1270.93 3641.85 1257.04 3669.76 1248.89C3697.67 1240.74 3727.84 1238.57 3757.71 1242.56C3787.58 1246.55 3816.27 1256.58 3841.34 1271.82C3866.42 1287.05 3887.15 1307.02 3901.77 1330.05C3916.39 1353.09 3924.48 1378.49 3925.34 1404.12C3926.2 1429.74 3919.82 1454.83 3906.73 1477.27C3893.64 1499.7 3874.22 1518.81 3850.13 1532.98L3845.1 1526.99C3868.11 1513.46 3886.64 1495.21 3899.15 1473.79C3911.65 1452.37 3917.74 1428.4 3916.92 1403.93C3916.1 1379.46 3908.38 1355.21 3894.41 1333.21C3880.45 1311.22 3860.66 1292.15 3836.71 1277.6C3812.76 1263.06 3785.37 1253.47 3756.85 1249.66C3728.33 1245.85 3699.52 1247.92 3672.87 1255.71C3646.22 1263.49 3622.51 1276.75 3603.74 1294.37C3584.98 1311.99 3571.73 1333.45 3565.09 1356.92L3556.9 1354.88Z" fill="#9897C6"/>
<path d="M3565.77 1354.52C3557.31 1387.11 3539.06 1416.96 3512.9 1440.97C3486.74 1464.97 3453.63 1482.26 3417 1491.03C3380.38 1499.81 3341.58 1499.75 3304.62 1490.86C3267.67 1481.98 3233.92 1464.59 3206.88 1440.5L3212.83 1435.33C3238.8 1458.46 3271.22 1475.17 3306.71 1483.7C3342.2 1492.24 3379.47 1492.3 3414.65 1483.87C3449.83 1475.44 3481.64 1458.84 3506.76 1435.78C3531.89 1412.72 3549.42 1384.05 3557.54 1352.75L3565.77 1354.52Z" fill="#9897C6"/>
<path d="M2926.6 1437.23C2943.13 1419.03 2963.71 1404.61 2987.18 1394.79C3010.65 1384.97 3036.55 1379.95 3063.4 1380.01C3090.24 1380.07 3117.51 1385.21 3143.64 1395.13C3169.78 1405.06 3194.26 1419.58 3215.7 1437.86L3210.58 1443.51C3190.01 1425.97 3166.52 1412.05 3141.45 1402.52C3116.38 1393 3090.23 1388.07 3064.48 1388.02C3038.72 1387.96 3013.88 1392.78 2991.37 1402.2C2968.85 1411.62 2949.11 1425.45 2933.26 1442.91L2926.6 1437.23Z" fill="#9897C6"/>
<path d="M2935.88 1439.98C2910.41 1469.29 2874.86 1489.13 2834.14 1496.76C2793.43 1504.39 2749.57 1499.43 2708.63 1482.58L2711.12 1475.32C2750.39 1491.48 2792.46 1496.24 2831.51 1488.92C2870.57 1481.6 2904.67 1462.57 2929.11 1434.46L2935.88 1439.98Z" fill="#9897C6"/>
<path d="M3776.27 1319.5C3789.05 1320.11 3801.49 1323.38 3812.54 1329.04C3823.58 1334.7 3832.91 1342.58 3839.72 1352.01C3846.54 1361.44 3850.65 1372.15 3851.7 1383.22C3852.75 1394.28 3850.71 1405.39 3845.75 1415.6C3840.79 1425.81 3833.07 1434.81 3823.22 1441.85C3813.38 1448.89 3801.72 1453.76 3789.21 1456.04C3776.71 1458.32 3763.74 1457.95 3751.39 1454.96C3739.05 1451.97 3727.71 1446.44 3718.32 1438.85L3724.23 1433.34C3732.59 1440.1 3742.7 1445.02 3753.69 1447.69C3764.68 1450.35 3776.23 1450.68 3787.37 1448.65C3798.51 1446.62 3808.9 1442.28 3817.67 1436.01C3826.43 1429.75 3833.31 1421.72 3837.73 1412.63C3842.14 1403.54 3843.96 1393.65 3843.03 1383.79C3842.09 1373.93 3838.43 1364.4 3832.36 1356C3826.29 1347.6 3817.98 1340.58 3808.15 1335.54C3798.31 1330.5 3787.23 1327.58 3775.85 1327.04L3776.27 1319.5Z" fill="#9897C6"/>
</svg>
