<svg width="4001" height="4001" viewBox="0 0 4001 4001" fill="none" xmlns="http://www.w3.org/2000/svg">
<ellipse cx="2019.67" cy="1343.3" rx="258.476" ry="247.434" fill="#90BE6D"/>
<circle cx="2127.88" cy="1313.47" r="27.0975" fill="black"/>
<circle cx="2120.13" cy="1305.72" r="11.6132" fill="white"/>
<circle cx="1915.78" cy="1313.69" r="27.1023" fill="black"/>
<ellipse cx="1908.25" cy="1305.65" rx="11.5436" ry="12.0455" fill="white"/>
<line x1="574.735" y1="1904.16" x2="351.762" y2="1975.39" stroke="black" stroke-width="25"/>
<ellipse cx="2019.67" cy="1143.04" rx="327.737" ry="47.1781" fill="#F9C74F"/>
<path d="M1819.41 944.663C1819.41 910.75 1852.46 886.675 1884.74 897.07L2001.77 934.756C2011.55 937.907 2022.07 937.965 2031.89 934.922L2157.13 896.113C2189.31 886.143 2221.93 910.191 2221.93 943.872V1122.15C2221.93 1149.77 2199.55 1172.15 2171.93 1172.15H1869.41C1841.8 1172.15 1819.41 1149.77 1819.41 1122.15V944.663Z" fill="#F9C74F"/>
<mask id="path-9-inside-1" fill="white">
<path d="M1962.39 1424.71C1961.65 1429.25 1962.25 1433.97 1964.16 1438.58C1966.06 1443.2 1969.23 1447.63 1973.49 1451.62C1977.74 1455.6 1983 1459.07 1988.96 1461.82C1994.92 1464.57 2001.46 1466.55 2008.22 1467.65C2014.97 1468.75 2021.81 1468.94 2028.33 1468.21C2034.85 1467.49 2040.94 1465.86 2046.23 1463.42C2051.53 1460.98 2055.94 1457.78 2059.21 1454.01C2062.47 1450.23 2064.53 1445.95 2065.27 1441.4L2013.83 1433.06L1962.39 1424.71Z"/>
</mask>
<path d="M1962.39 1424.71C1961.65 1429.25 1962.25 1433.97 1964.16 1438.58C1966.06 1443.2 1969.23 1447.63 1973.49 1451.62C1977.74 1455.6 1983 1459.07 1988.96 1461.82C1994.92 1464.57 2001.46 1466.55 2008.22 1467.65C2014.97 1468.75 2021.81 1468.94 2028.33 1468.21C2034.85 1467.49 2040.94 1465.86 2046.23 1463.42C2051.53 1460.98 2055.94 1457.78 2059.21 1454.01C2062.47 1450.23 2064.53 1445.95 2065.27 1441.4L2013.83 1433.06L1962.39 1424.71Z" fill="black" stroke="black" stroke-width="6" mask="url(#path-9-inside-1)"/>
<line x1="723.778" y1="1820.6" x2="723.778" y2="1799.52" stroke="black"/>
<path d="M207.949 2234.87C203.862 2219.5 207.326 2203.11 217.279 2190.71L750.289 1526.8C783.826 1485.02 850.679 1518.1 837.815 1570.1L786.693 1776.77C784.482 1785.71 779.848 1793.86 773.299 1800.33L295.395 2272.55C268.082 2299.54 221.803 2286.95 211.932 2249.84L207.949 2234.87Z" fill="#F94144"/>
<ellipse cx="759.133" cy="1344.09" rx="258.712" ry="251.151" fill="#F94144"/>
<path d="M688.44 1573.67C715.243 1511.84 802.932 1511.84 829.735 1573.67L1253.54 2551.34C1275.58 2602.19 1238.31 2658.97 1182.89 2658.97H335.285C279.868 2658.97 242.596 2602.19 264.637 2551.34L688.44 1573.67Z" fill="#F94144"/>
<path d="M860.488 1423.86C860.488 1415.22 857.864 1406.66 852.768 1398.67C847.671 1390.69 840.2 1383.43 830.782 1377.32C821.364 1371.21 810.183 1366.37 797.878 1363.06C785.573 1359.75 772.385 1358.05 759.066 1358.05C745.747 1358.05 732.558 1359.75 720.253 1363.06C707.948 1366.37 696.767 1371.21 687.349 1377.32C677.931 1383.43 670.461 1390.69 665.364 1398.67C660.267 1406.66 657.644 1415.22 657.644 1423.86L759.066 1423.86H860.488Z" fill="#773E1E"/>
<path d="M744.405 1298.43C744.405 1330.48 717.401 1356.55 683.967 1356.55C650.534 1356.55 623.53 1330.48 623.53 1298.43C623.53 1266.39 650.534 1240.32 683.967 1240.32C717.401 1240.32 744.405 1266.39 744.405 1298.43Z" stroke="black" stroke-width="3"/>
<path d="M894.601 1298.43C894.601 1330.48 867.597 1356.55 834.164 1356.55C800.731 1356.55 773.727 1330.48 773.727 1298.43C773.727 1266.39 800.731 1240.32 834.164 1240.32C867.597 1240.32 894.601 1266.39 894.601 1298.43Z" stroke="black" stroke-width="3"/>
<line x1="625.925" y1="1288.12" x2="526.826" y2="1230.83" stroke="black" stroke-width="3"/>
<line x1="895.273" y1="1291.54" x2="990.674" y2="1228.28" stroke="black" stroke-width="3"/>
<line x1="742.818" y1="1302.35" x2="776.883" y2="1302.58" stroke="black" stroke-width="3"/>
<path d="M108.451 1819.98H404.75V2277.26L108.451 2243.31V2232.14V1819.98Z" fill="#F8961E" stroke="black"/>
<path d="M729.92 1819.98H428.976V2277.26L729.92 2243.31V2232.14V1819.98Z" fill="#F8961E" stroke="black"/>
<path d="M729.646 1820.26V1798.58L421.508 1820.26H729.646Z" fill="white"/>
<path d="M108.726 1820.26V1790.84L417.637 1820.26H108.726Z" fill="white"/>
<path d="M729.646 1820.26V1798.58L421.508 1820.26H729.646Z" stroke="black"/>
<path d="M108.726 1820.26V1790.84L417.637 1820.26H108.726Z" stroke="black"/>
<path d="M419.112 1820.25L109.426 1790.83" stroke="black"/>
<line x1="419.151" y1="1820.53" x2="729.591" y2="1798.86" stroke="black"/>
<line x1="107.99" y1="1797.31" x2="405.289" y2="1820.53" stroke="black"/>
<line x1="107.971" y1="1808.14" x2="386.688" y2="1818.98" stroke="black"/>
<line x1="107.96" y1="1814.34" x2="386.677" y2="1818.98" stroke="black"/>
<line x1="445.476" y1="1820.53" x2="730.387" y2="1801.95" stroke="black"/>
<line x1="445.484" y1="1818.98" x2="730.395" y2="1805.05" stroke="black"/>
<line x1="450.138" y1="1818.98" x2="730.403" y2="1809.69" stroke="black"/>
<line x1="729.92" y1="1821.03" x2="729.92" y2="1797.81" stroke="black"/>
<path d="M999.052 1250.77C1003.03 1245.94 1004.64 1239.24 1003.78 1231.03C1002.91 1222.83 999.602 1213.29 994.028 1202.96C988.454 1192.62 980.728 1181.7 971.291 1170.81C961.854 1159.92 950.891 1149.27 939.027 1139.48C927.164 1129.7 914.633 1120.95 902.149 1113.75C889.665 1106.56 877.473 1101.05 866.269 1097.54C855.065 1094.02 845.069 1092.58 836.851 1093.3C828.633 1094.01 822.355 1096.86 818.374 1101.68L908.713 1176.22L999.052 1250.77Z" fill="#773E1E"/>
<path d="M683.625 1094.63C679.29 1090.12 672.865 1087.71 664.718 1087.52C656.571 1087.34 646.861 1089.39 636.142 1093.56C625.423 1097.73 613.905 1103.94 602.246 1111.83C590.587 1119.71 579.015 1129.13 568.191 1139.54C557.367 1149.94 547.503 1161.14 539.162 1172.48C530.821 1183.81 524.167 1195.08 519.578 1205.63C514.99 1216.17 512.558 1225.8 512.421 1233.94C512.284 1242.09 514.445 1248.61 518.78 1253.12L601.203 1173.87L683.625 1094.63Z" fill="#773E1E"/>
<line x1="109.534" y1="1801.5" x2="385.164" y2="1820.36" stroke="black"/>
<circle cx="831.842" cy="1299.98" r="27.0975" fill="black"/>
<circle cx="827.196" cy="1306.17" r="11.6132" fill="white"/>
<circle cx="677" cy="1306.17" r="27.0975" fill="black"/>
<circle cx="670.807" cy="1312.37" r="11.6132" fill="white"/>
<path d="M450.143 1820.49L728.872 1815.16" stroke="black"/>
<path d="M1948.98 1570.79C1975.73 1508.82 2063.61 1508.82 2090.36 1570.79L2514.4 2553C2536.34 2603.84 2499.07 2660.52 2443.7 2660.52H1595.64C1540.27 2660.52 1503 2603.84 1524.94 2553L1948.98 1570.79Z" fill="#90BE6D"/>
<ellipse rx="32.7816" ry="3.92911" transform="matrix(-0.568871 -0.822427 -0.822427 0.568871 1658.13 1360.47)" fill="#F9C74F"/>
<ellipse rx="32.7816" ry="3.92911" transform="matrix(-0.568871 -0.822427 -0.822427 0.568871 1678.26 1366.66)" fill="#F9C74F"/>
<ellipse rx="25.7337" ry="3.92911" transform="matrix(-0.568871 -0.822427 -0.822427 0.568871 1645.11 1363.16)" fill="#F9C74F"/>
<ellipse rx="21.3843" ry="3.92911" transform="matrix(-0.568871 -0.822427 -0.822427 0.568871 1630.55 1362.1)" fill="#F9C74F"/>
<ellipse rx="15.9565" ry="3.92911" transform="matrix(-0.568871 -0.822427 -0.822427 0.568871 1612.95 1359.02)" fill="#F9C74F"/>
<ellipse rx="32.7816" ry="3.92911" transform="matrix(-0.559193 0.829038 0.829038 0.559193 1657.84 1414.84)" fill="#F9C74F"/>
<ellipse rx="32.7816" ry="3.92911" transform="matrix(-0.559193 0.829038 0.829038 0.559193 1673.32 1419.49)" fill="#F9C74F"/>
<ellipse rx="24.9419" ry="3.92911" transform="matrix(-0.559193 0.829038 0.829038 0.559193 1645.19 1400.6)" fill="#F9C74F"/>
<ellipse rx="18.9822" ry="3.92911" transform="matrix(-0.559193 0.829038 0.829038 0.559193 1629.94 1389.47)" fill="#F9C74F"/>
<ellipse rx="12.6622" ry="3.92911" transform="matrix(-0.559193 0.829038 0.829038 0.559193 1614.9 1379.58)" fill="#F9C74F"/>
<path d="M3819.8 2208.42L3272.91 1537.85C3239.58 1496.98 3173.96 1529.63 3186.46 1580.87L3238.23 1793.07C3240.44 1802.12 3245.16 1810.37 3251.85 1816.86L3742.04 2292.5C3768.9 2318.56 3813.86 2306.53 3824.12 2270.54L3829.04 2253.27C3833.48 2237.71 3830.03 2220.96 3819.8 2208.42Z" fill="white" stroke="black"/>
<rect x="3074.74" y="2583.69" width="143.289" height="541.166" rx="50" transform="rotate(-0.516261 3074.74 2583.69)" fill="#277DA1"/>
<rect x="3302.36" y="2582.14" width="143.289" height="541.166" rx="50" transform="rotate(-0.516261 3302.36 2582.14)" fill="#277DA1"/>
<path d="M2729.22 2203.41L3262.23 1539.5C3295.43 1498.14 3361.62 1530.89 3348.88 1582.37L3297.76 1789.04C3295.57 1797.89 3290.99 1805.96 3284.5 1812.37L2806.6 2284.59C2779.56 2311.3 2733.74 2298.84 2723.97 2262.1L2719.99 2247.13C2715.94 2231.91 2719.37 2215.69 2729.22 2203.41Z" fill="white" stroke="black"/>
<path d="M3339.3 1578.79L3763.27 2560.63C3785.07 2611.13 3748.04 2667.45 3693.03 2667.45H2845.11C2790.1 2667.45 2753.07 2611.13 2774.87 2560.63L3198.84 1578.79C3225.42 1517.23 3312.72 1517.23 3339.3 1578.79Z" fill="white" stroke="black"/>
<path d="M3151.34 2667.45L3262.1 1309.55L3372.86 2667.45H3151.34Z" fill="#277DA1" stroke="black"/>
<ellipse cx="3263.77" cy="1352.64" rx="258.712" ry="247.435" fill="#277DA1"/>
<path d="M3423.19 1309.15C3423.19 1341.19 3396.18 1367.26 3362.75 1367.26C3329.32 1367.26 3302.31 1341.19 3302.31 1309.15C3302.31 1277.1 3329.32 1251.03 3362.75 1251.03C3396.18 1251.03 3423.19 1277.1 3423.19 1309.15Z" stroke="black" stroke-width="3"/>
<ellipse rx="58.837" ry="16.3504" transform="matrix(0.921348 -0.388739 -0.388739 -0.921348 3209.63 1442.31)" fill="#C4C4C4"/>
<path d="M3369.26 1143.82C3369.37 1134.87 3326.06 1127.1 3272.54 1126.47C3219.01 1125.84 3175.54 1132.59 3175.43 1141.54C3175.33 1150.49 3217.98 1139.84 3271.5 1140.47C3325.03 1141.1 3369.16 1152.77 3369.26 1143.82Z" fill="#C4C4C4"/>
<path d="M3390.63 1173.75C3390.73 1164.79 3337.79 1156.91 3272.38 1156.14C3206.97 1155.37 3153.86 1162.01 3153.75 1170.96C3153.65 1179.91 3205.74 1169.37 3271.15 1170.14C3336.57 1170.91 3390.52 1182.7 3390.63 1173.75Z" fill="#C4C4C4"/>
<ellipse rx="58.837" ry="16.3504" transform="matrix(0.921863 0.387516 0.387516 -0.921863 3324.23 1442.25)" fill="#C4C4C4"/>
<path d="M3400.94 1353.28C3395.82 1388.59 3404.26 1428.59 3427.29 1464.12C3438.94 1482.08 3453.17 1497.11 3468.82 1508.84" stroke="black" stroke-width="3"/>
<line x1="1975.06" y1="1441.13" x2="1617.37" y2="1368.36" stroke="#F9C74F" stroke-width="3"/>
<path d="M1366.44 1252.15C1382.27 1247.84 1399.21 1251.58 1411.76 1262.15L2110.34 1850.52C2151.05 1884.81 2117.11 1950.52 2065.58 1937.16L1835.24 1877.45C1826.1 1875.08 1817.81 1870.17 1811.35 1863.29L1320.37 1340.82C1294.53 1313.33 1307.29 1268.22 1343.69 1258.33L1366.44 1252.15Z" fill="#90BE6D"/>
<path d="M1297.76 1487.33C1292.97 1502.96 1296.12 1519.95 1306.2 1532.82L1839.73 2214.06C1872.58 2256 1939.5 2224.34 1927.89 2172.34L1880.33 1959.16C1878.28 1949.97 1873.68 1941.55 1867.05 1934.86L1386.35 1449.63C1359.75 1422.78 1314.11 1434.02 1303.03 1470.16L1297.76 1487.33Z" fill="#90BE6D"/>
<path d="M1327.26 2244.12C1331.74 2228.4 1328.26 2211.48 1317.93 2198.81L771.039 1528.24C737.37 1486.96 671.09 1519.94 683.716 1571.7L735.485 1783.89C737.716 1793.04 742.485 1801.37 749.242 1807.93L1239.43 2283.56C1266.57 2309.89 1311.97 2297.74 1322.34 2261.39L1327.26 2244.12Z" fill="#F94144"/>
<rect x="396.539" y="1819.09" width="33.1289" height="459.74" fill="#F8961E" stroke="black"/>
<path d="M3183.27 1644.5L3183.96 1585.53L3241.14 1599.95L3183.27 1644.5Z" fill="white" stroke="black"/>
<path d="M3282.08 1599.05L3339.13 1584.14L3340.33 1643.1L3282.08 1599.05Z" fill="white" stroke="black"/>
<path d="M3445.85 1924.67L3396.21 1969.46L3342.74 1929.29L3340.89 1860.09L3439.92 1858.26L3445.85 1924.67Z" fill="white" stroke="black"/>
<line x1="3341.05" y1="1870.7" x2="3440.17" y2="1868.5" stroke="black"/>
<rect x="1812.77" y="2583.69" width="143.289" height="541.166" rx="50" transform="rotate(-0.516261 1812.77 2583.69)" fill="#90BE6D"/>
<rect x="555.447" y="2582.14" width="143.289" height="541.166" rx="50" transform="rotate(-0.516261 555.447 2582.14)" fill="#F94144"/>
<rect x="2034.2" y="2583.69" width="143.289" height="541.166" rx="50" transform="rotate(-0.516261 2034.2 2583.69)" fill="#90BE6D"/>
<rect x="783.066" y="2583.69" width="143.289" height="541.166" rx="50" transform="rotate(-0.516261 783.066 2583.69)" fill="#F94144"/>
<circle cx="3361.97" cy="1310.37" r="27.0975" fill="black"/>
<circle cx="3361.97" cy="1310.37" r="11.6132" fill="white"/>
<path d="M3112.29 1314.69C3146.01 1314.69 3198.62 1314.69 3198.62 1314.69" stroke="black" stroke-width="10"/>
<rect x="1137.84" y="1267.51" width="329.243" height="207.785" fill="#F9C74F"/>
<path d="M1265.73 1261L1137.79 1351.72L1135.87 1173.05L1265.73 1261Z" fill="#F9C74F"/>
<path d="M1338.6 1260.99L1468.09 1171.88V1350.09L1338.6 1260.99Z" fill="#F9C74F"/>
<path d="M1302.75 1157.12L1393.11 1285.31L1214.44 1286.73L1302.75 1157.12Z" fill="#F9C74F"/>
<path d="M840.718 1441.17C840.718 1449.34 838.628 1457.43 834.567 1464.98C830.506 1472.53 824.554 1479.39 817.05 1485.17C809.547 1490.95 800.639 1495.54 790.835 1498.66C781.032 1501.79 770.524 1503.4 759.913 1503.4C749.301 1503.4 738.793 1501.79 728.99 1498.66C719.186 1495.54 710.278 1490.95 702.775 1485.17C695.271 1479.39 689.319 1472.53 685.258 1464.98C681.198 1457.43 679.107 1449.34 679.107 1441.17L759.913 1441.17H840.718Z" fill="black"/>
<path d="M3321.62 1505.41C3326.31 1505.41 3330.23 1501.49 3328.59 1497.09C3326 1490.08 3320.15 1483.6 3311.59 1478.44C3299.73 1471.28 3283.65 1467.27 3266.88 1467.27C3250.11 1467.27 3234.02 1471.28 3222.16 1478.44C3213.61 1483.6 3207.76 1490.08 3205.16 1497.09C3203.53 1501.49 3207.44 1505.41 3212.14 1505.41V1505.41C3216.83 1505.41 3220.54 1501.42 3222.67 1497.24C3224.86 1492.92 3228.79 1488.94 3234.18 1485.69C3242.85 1480.46 3254.61 1477.52 3266.88 1477.52C3279.14 1477.52 3290.9 1480.46 3299.57 1485.69C3304.97 1488.94 3308.89 1492.92 3311.09 1497.24C3313.21 1501.42 3316.92 1505.41 3321.62 1505.41V1505.41Z" fill="black"/>
</svg>
