<svg width="2722" height="1674" viewBox="0 0 2722 1674" fill="none" xmlns="http://www.w3.org/2000/svg">
<ellipse cx="1439.51" cy="430.586" rx="167.08" ry="159.798" fill="#90BE6D"/>
<circle cx="1509.5" cy="411.5" r="17.5" fill="black"/>
<circle cx="1504.5" cy="406.5" r="7.5" fill="white"/>
<circle cx="1372.5" cy="411.5" r="17.5" fill="black"/>
<circle cx="1367.5" cy="406.5" r="7.5" fill="white"/>
<line x1="507.804" y1="797.198" x2="363.804" y2="843.198" stroke="black" stroke-width="25"/>
<ellipse cx="1439.5" cy="301.5" rx="211.5" ry="30.5" fill="#F9C74F"/>
<path d="M1310 197.6C1310 163.695 1343.03 139.621 1375.31 150.001L1422.48 165.171C1432.26 168.314 1442.76 168.372 1452.57 165.337L1505.22 149.045C1537.39 139.091 1570 163.137 1570 196.811V270C1570 297.614 1547.61 320 1520 320H1360C1332.39 320 1310 297.614 1310 270V197.6Z" fill="#F9C74F"/>
<mask id="path-9-inside-1" fill="white">
<path d="M1470.83 504.225C1470.9 501.254 1470.1 498.291 1468.47 495.505C1466.85 492.72 1464.43 490.166 1461.35 487.991C1458.28 485.816 1454.61 484.061 1450.55 482.827C1446.5 481.593 1442.14 480.904 1437.72 480.799C1433.3 480.694 1428.91 481.175 1424.8 482.215C1420.69 483.256 1416.95 484.834 1413.77 486.862C1410.6 488.889 1408.06 491.324 1406.3 494.03C1404.55 496.735 1403.61 499.657 1403.54 502.628L1437.18 503.427L1470.83 504.225Z"/>
</mask>
<path d="M1470.83 504.225C1470.9 501.254 1470.1 498.291 1468.47 495.505C1466.85 492.72 1464.43 490.166 1461.35 487.991C1458.28 485.816 1454.61 484.061 1450.55 482.827C1446.5 481.593 1442.14 480.904 1437.72 480.799C1433.3 480.694 1428.91 481.175 1424.8 482.215C1420.69 483.256 1416.95 484.834 1413.77 486.862C1410.6 488.889 1408.06 491.324 1406.3 494.03C1404.55 496.735 1403.61 499.657 1403.54 502.628L1437.18 503.427L1470.83 504.225Z" fill="black" stroke="black" stroke-width="6" mask="url(#path-9-inside-1)"/>
<line x1="602.5" y1="739.291" x2="602.5" y2="725.291" stroke="black"/>
<path d="M270.164 1008.75C267.158 997.448 269.706 985.39 277.027 976.27L569.541 611.914C603.079 570.141 669.932 603.219 657.068 655.222L644.539 705.873C642.329 714.809 637.694 722.962 631.145 729.433L331.558 1025.46C311.467 1045.31 277.424 1036.05 270.164 1008.75V1008.75Z" fill="#F94144"/>
<ellipse cx="625.543" cy="431.279" rx="167.08" ry="162.197" fill="#F94144"/>
<path d="M554.866 637.271C581.67 575.437 669.358 575.438 696.162 637.271L928.314 1172.82C950.355 1223.67 913.083 1280.45 857.666 1280.45H393.362C337.945 1280.45 300.674 1223.67 322.714 1172.82L554.866 637.271Z" fill="#F94144"/>
<path d="M691 482.794C691 477.213 689.306 471.686 686.014 466.53C682.722 461.373 677.898 456.688 671.815 452.742C665.733 448.795 658.513 445.665 650.566 443.529C642.619 441.393 634.102 440.294 625.5 440.294C616.898 440.294 608.381 441.393 600.434 443.529C592.487 445.665 585.267 448.795 579.185 452.742C573.102 456.688 568.278 461.373 564.986 466.53C561.694 471.686 560 477.213 560 482.794L625.5 482.794H691Z" fill="#773E1E"/>
<path d="M615.5 401.794C615.5 422.175 598.318 438.794 577 438.794C555.682 438.794 538.5 422.175 538.5 401.794C538.5 381.413 555.682 364.794 577 364.794C598.318 364.794 615.5 381.413 615.5 401.794Z" stroke="black" stroke-width="3"/>
<path d="M712.5 401.794C712.5 422.175 695.318 438.794 674 438.794C652.682 438.794 635.5 422.175 635.5 401.794C635.5 381.413 652.682 364.794 674 364.794C695.318 364.794 712.5 381.413 712.5 401.794Z" stroke="black" stroke-width="3"/>
<line x1="539.249" y1="395.592" x2="475.249" y2="358.592" stroke="black" stroke-width="3"/>
<line x1="713.171" y1="396.897" x2="774.783" y2="356.043" stroke="black" stroke-width="3"/>
<line x1="615.01" y1="403.794" x2="637.01" y2="403.94" stroke="black" stroke-width="3"/>
<path d="M219 738.794H383C390.456 738.794 396.5 744.838 396.5 752.294V1018.6C396.5 1026.66 389.475 1032.93 381.463 1032.01L212.508 1012.65C208.515 1012.19 205.5 1008.81 205.5 1004.79V752.294C205.5 744.838 211.544 738.794 219 738.794Z" fill="#F8961E" stroke="black"/>
<path d="M588 738.5H416C405.783 738.5 397.5 746.783 397.5 757V1013.9C397.5 1024.88 407.012 1033.44 417.934 1032.3L599.464 1013.22C603.463 1012.79 606.5 1009.42 606.5 1005.4V757C606.5 746.783 598.217 738.5 588 738.5Z" fill="#F8961E" stroke="black"/>
<path d="M596 739V725L407.421 739H596Z" fill="white"/>
<path d="M216 739V720L405.052 739H216Z" fill="white"/>
<path d="M596 739V725L407.421 739H596Z" stroke="black"/>
<path d="M216 739V720L405.052 739H216Z" stroke="black"/>
<path d="M405.953 738.792L216 722" stroke="black"/>
<line x1="394.97" y1="738.632" x2="595.579" y2="726.501" stroke="black"/>
<line x1="216.039" y1="724.502" x2="397.039" y2="738.796" stroke="black"/>
<line x1="216.019" y1="731.5" x2="385.019" y2="737.794" stroke="black"/>
<line x1="216.007" y1="735.5" x2="385.007" y2="737.794" stroke="black"/>
<line x1="422.976" y1="738.889" x2="595.97" y2="728.501" stroke="black"/>
<line x1="422.979" y1="737.795" x2="595.979" y2="730.5" stroke="black"/>
<line x1="425.984" y1="737.794" x2="595.982" y2="732.437" stroke="black"/>
<path d="M780.487 371.009C783.058 367.893 784.094 363.563 783.538 358.265C782.981 352.967 780.842 346.805 777.242 340.132C773.643 333.458 768.653 326.403 762.559 319.37C756.464 312.337 749.384 305.463 741.722 299.141C734.061 292.819 725.968 287.173 717.905 282.524C709.843 277.876 701.969 274.317 694.734 272.05C687.498 269.782 681.042 268.852 675.735 269.311C670.428 269.77 666.373 271.611 663.802 274.726L722.144 322.868L780.487 371.009Z" fill="#773E1E"/>
<path d="M576.779 270.175C573.979 267.263 569.83 265.703 564.568 265.584C559.307 265.466 553.036 266.791 546.113 269.484C539.191 272.177 531.752 276.185 524.223 281.28C516.693 286.374 509.22 292.456 502.23 299.176C495.24 305.897 488.869 313.125 483.482 320.448C478.096 327.772 473.798 335.047 470.835 341.858C467.872 348.669 466.301 354.883 466.213 360.146C466.124 365.408 467.52 369.615 470.319 372.527L523.549 321.351L576.779 270.175Z" fill="#773E1E"/>
<line x1="216.033" y1="727.501" x2="384.039" y2="738.684" stroke="black"/>
<circle cx="672.5" cy="402.791" r="17.5" fill="black"/>
<circle cx="669.5" cy="406.791" r="7.5" fill="white"/>
<circle cx="572.5" cy="406.791" r="17.5" fill="black"/>
<circle cx="568.5" cy="410.791" r="7.5" fill="white"/>
<path d="M425.993 738.945L595.874 735.689" stroke="black"/>
<path d="M1368.81 635.709C1395.57 573.743 1483.43 573.742 1510.19 635.709L1742.51 1173.72C1764.46 1224.56 1727.19 1281.25 1671.82 1281.25H1207.18C1151.81 1281.25 1114.54 1224.56 1136.49 1173.72L1368.81 635.709Z" fill="#90BE6D"/>
<ellipse rx="21.1709" ry="2.53748" transform="matrix(-0.568871 -0.822427 -0.822427 0.568871 1206.13 441.855)" fill="#F9C74F"/>
<ellipse rx="21.1709" ry="2.53748" transform="matrix(-0.568871 -0.822427 -0.822427 0.568871 1219.13 445.855)" fill="#F9C74F"/>
<ellipse rx="16.6192" ry="2.53748" transform="matrix(-0.568871 -0.822427 -0.822427 0.568871 1197.72 443.598)" fill="#F9C74F"/>
<ellipse rx="13.8103" ry="2.53748" transform="matrix(-0.568871 -0.822427 -0.822427 0.568871 1188.32 442.909)" fill="#F9C74F"/>
<ellipse rx="10.305" ry="2.53748" transform="matrix(-0.568871 -0.822427 -0.822427 0.568871 1176.95 440.919)" fill="#F9C74F"/>
<ellipse rx="21.1709" ry="2.53748" transform="matrix(-0.559193 0.829038 0.829038 0.559193 1205.94 476.97)" fill="#F9C74F"/>
<ellipse rx="21.1709" ry="2.53748" transform="matrix(-0.559193 0.829038 0.829038 0.559193 1215.94 479.97)" fill="#F9C74F"/>
<ellipse rx="16.1079" ry="2.53748" transform="matrix(-0.559193 0.829038 0.829038 0.559193 1197.77 467.773)" fill="#F9C74F"/>
<ellipse rx="12.259" ry="2.53748" transform="matrix(-0.559193 0.829038 0.829038 0.559193 1187.93 460.582)" fill="#F9C74F"/>
<ellipse rx="8.17745" ry="2.53748" transform="matrix(-0.559193 0.829038 0.829038 0.559193 1178.21 454.198)" fill="#F9C74F"/>
<path d="M2607.21 1021.05C2610.54 1009.39 2607.95 996.842 2600.29 987.447L2298.33 617.202C2265 576.331 2199.38 608.982 2211.88 660.219L2225.55 716.234C2227.76 725.29 2232.48 733.537 2239.17 740.028L2545.73 1037.49C2565.85 1057.01 2599.52 1048.01 2607.21 1021.05Z" fill="white" stroke="black"/>
<rect x="2121" y="1231.83" width="92.5382" height="349.493" rx="46.2691" transform="rotate(-0.516261 2121 1231.83)" fill="#277DA1"/>
<rect x="2268" y="1230.83" width="92.5382" height="349.493" rx="46.2691" transform="rotate(-0.516261 2268 1230.83)" fill="#277DA1"/>
<path d="M1892.65 1016.62C1889.68 1005.47 1892.2 993.579 1899.42 984.583L2191.93 620.227C2225.13 578.871 2291.32 611.619 2278.58 663.102L2266.05 713.753C2263.87 722.6 2259.28 730.671 2252.79 737.077L1953.21 1033.1C1933.39 1052.68 1899.81 1043.55 1892.65 1016.62Z" fill="white" stroke="black"/>
<path d="M2176.27 640.907C2202.85 579.343 2290.15 579.343 2316.73 640.907L2549.05 1178.92C2570.86 1229.43 2533.83 1285.75 2478.82 1285.75H2014.18C1959.17 1285.75 1922.14 1229.43 1943.95 1178.92L2176.27 640.907Z" fill="white" stroke="black"/>
<path d="M2170.66 1285.75L2242 411.15L2313.34 1285.75H2170.66Z" fill="#277DA1" stroke="black"/>
<ellipse cx="2243.08" cy="436.798" rx="167.08" ry="159.798" fill="#277DA1"/>
<path d="M2345.5 408.712C2345.5 429.093 2328.32 445.712 2307 445.712C2285.68 445.712 2268.5 429.093 2268.5 408.712C2268.5 388.331 2285.68 371.712 2307 371.712C2328.32 371.712 2345.5 388.331 2345.5 408.712Z" stroke="black" stroke-width="3"/>
<ellipse rx="37.9978" ry="10.5593" transform="matrix(0.921348 -0.388739 -0.388739 -0.921348 2208.11 494.712)" fill="#C4C4C4"/>
<path d="M2311.21 301.94C2311.27 296.159 2283.31 291.142 2248.74 290.736C2214.17 290.33 2186.09 294.687 2186.03 300.468C2185.96 306.25 2213.5 299.371 2248.07 299.778C2282.64 300.184 2311.14 307.722 2311.21 301.94Z" fill="#C4C4C4"/>
<path d="M2325 321.267C2325.07 315.486 2290.88 310.396 2248.64 309.899C2206.39 309.403 2172.09 313.687 2172.03 319.468C2171.96 325.25 2205.6 318.443 2247.85 318.94C2290.09 319.436 2324.94 327.048 2325 321.267Z" fill="#C4C4C4"/>
<ellipse rx="37.9978" ry="10.5593" transform="matrix(0.921863 0.387516 0.387516 -0.921863 2282.12 494.671)" fill="#C4C4C4"/>
<path d="M2331.67 437.212C2328.36 460.013 2333.81 485.85 2348.68 508.792C2356.21 520.396 2365.39 530.101 2375.5 537.673" stroke="black" stroke-width="3"/>
<line x1="1410.7" y1="494.47" x2="1179.7" y2="447.47" stroke="#F9C74F" stroke-width="3"/>
<path d="M1014.23 372.857C1026.66 369.479 1039.96 372.414 1049.81 380.712L1438.49 708.072C1479.2 742.364 1445.26 808.073 1393.73 794.715L1325.46 777.018C1316.32 774.649 1308.04 769.74 1301.57 762.858L995.928 437.607C975.65 416.028 985.66 380.623 1014.23 372.857Z" fill="#90BE6D"/>
<path d="M974.208 521.15C970.606 532.897 972.974 545.663 980.55 555.336L1275.13 931.476C1307.98 973.417 1374.9 941.752 1363.3 889.759L1350.74 833.484C1348.69 824.295 1344.09 815.872 1337.46 809.183L1036.83 505.719C1016.84 485.535 982.537 493.986 974.208 521.15Z" fill="#90BE6D"/>
<path d="M991.693 1015.19C995.062 1003.37 992.442 990.653 984.676 981.131L682.718 610.886C649.049 569.603 582.769 602.583 595.395 654.338L609.061 710.353C611.293 719.5 616.061 727.83 622.818 734.386L929.386 1031.85C949.777 1051.64 983.902 1042.51 991.693 1015.19Z" fill="#F94144"/>
<rect x="391.5" y="738.5" width="21" height="296" rx="7.5" fill="#F8961E" stroke="black"/>
<path d="M2191.27 624.924L2191.71 587.431L2228.06 596.599L2191.27 624.924Z" fill="white" stroke="black"/>
<path d="M2255.3 596.013L2291.58 586.532L2292.34 624.02L2255.3 596.013Z" fill="white" stroke="black"/>
<path d="M2360.48 806.155L2328.6 834.922L2294.26 809.123L2293.07 764.695L2356.67 763.516L2360.48 806.155Z" fill="white" stroke="black"/>
<line x1="2292.98" y1="771.194" x2="2357" y2="769.774" stroke="black"/>
<rect x="1306" y="1231.83" width="92.5382" height="349.493" rx="46.2691" transform="rotate(-0.516261 1306 1231.83)" fill="#90BE6D"/>
<rect x="494" y="1230.83" width="92.5382" height="349.493" rx="46.2691" transform="rotate(-0.516261 494 1230.83)" fill="#F94144"/>
<rect x="1449" y="1231.83" width="92.5382" height="349.493" rx="46.2691" transform="rotate(-0.516261 1449 1231.83)" fill="#90BE6D"/>
<rect x="641" y="1231.83" width="92.5382" height="349.493" rx="46.2691" transform="rotate(-0.516261 641 1231.83)" fill="#F94144"/>
<circle cx="2306.5" cy="409.5" r="17.5" fill="black"/>
<circle cx="2306.5" cy="409.5" r="7.5" fill="white"/>
<path d="M2145.5 412C2167.17 412 2201 412 2201 412" stroke="black" stroke-width="10"/>
<rect x="870" y="382" width="213" height="134" fill="#F9C74F"/>
<path d="M952.709 377.618L870.083 436.205L868.844 320.819L952.709 377.618Z" fill="#F9C74F"/>
<path d="M1000 377.622L1083.25 319.926V435.318L1000 377.622Z" fill="#F9C74F"/>
<path d="M976.62 310.53L1034.98 393.318L919.588 394.237L976.62 310.53Z" fill="#F9C74F"/>
<path d="M678 494C678 499.253 676.655 504.454 674.042 509.307C671.428 514.16 667.598 518.57 662.77 522.284C657.941 525.999 652.208 528.945 645.9 530.955C639.591 532.965 632.829 534 626 534C619.171 534 612.409 532.965 606.1 530.955C599.792 528.945 594.059 525.999 589.23 522.284C584.402 518.57 580.572 514.16 577.958 509.307C575.345 504.454 574 499.253 574 494L626 494H678Z" fill="black"/>
<path d="M2280.49 535.5C2283.53 535.5 2286.07 532.959 2285 530.112C2283.3 525.627 2279.52 521.478 2273.99 518.176C2266.3 513.581 2255.87 511 2245 511C2234.13 511 2223.7 513.581 2216.01 518.176C2210.48 521.478 2206.7 525.627 2205 530.112C2203.93 532.959 2206.47 535.5 2209.51 535.5C2212.55 535.5 2214.96 532.912 2216.36 530.209C2217.79 527.45 2220.32 524.912 2223.8 522.833C2229.42 519.473 2237.05 517.586 2245 517.586C2252.95 517.586 2260.58 519.473 2266.2 522.833C2269.68 524.912 2272.21 527.45 2273.64 530.209C2275.04 532.912 2277.45 535.5 2280.49 535.5Z" fill="black"/>
</svg>
