<svg width="4203" height="2570" viewBox="0 0 4203 2570" fill="none" xmlns="http://www.w3.org/2000/svg">
<ellipse cx="2181.5" cy="728.5" rx="257.5" ry="246.5" fill="#90BE6D"/>
<circle cx="2289.3" cy="698.78" r="26.9952" fill="black"/>
<circle cx="2281.59" cy="691.067" r="11.5694" fill="white"/>
<circle cx="2078" cy="699" r="27" fill="black"/>
<ellipse cx="2070.5" cy="691" rx="11.5" ry="12" fill="white"/>
<line x1="742.036" y1="1287.29" x2="519.904" y2="1358.25" stroke="black" stroke-width="25"/>
<mask id="path-7-inside-1" fill="white">
<path d="M2124.44 809.603C2123.7 814.129 2124.3 818.826 2126.2 823.425C2128.09 828.024 2131.25 832.436 2135.49 836.409C2139.73 840.381 2144.97 843.837 2150.9 846.578C2156.84 849.319 2163.36 851.291 2170.09 852.383C2176.82 853.476 2183.63 853.665 2190.13 852.942C2196.62 852.219 2202.69 850.597 2207.96 848.169C2213.24 845.741 2217.63 842.554 2220.89 838.791C2224.14 835.027 2226.19 830.76 2226.93 826.234L2175.68 817.919L2124.44 809.603Z"/>
</mask>
<path d="M2124.44 809.603C2123.7 814.129 2124.3 818.826 2126.2 823.425C2128.09 828.024 2131.25 832.436 2135.49 836.409C2139.73 840.381 2144.97 843.837 2150.9 846.578C2156.84 849.319 2163.36 851.291 2170.09 852.383C2176.82 853.476 2183.63 853.665 2190.13 852.942C2196.62 852.219 2202.69 850.597 2207.96 848.169C2213.24 845.741 2217.63 842.554 2220.89 838.791C2224.14 835.027 2226.19 830.76 2226.93 826.234L2175.68 817.919L2124.44 809.603Z" fill="black" stroke="black" stroke-width="6" mask="url(#path-7-inside-1)"/>
<line x1="890.5" y1="1204" x2="890.5" y2="1183" stroke="black"/>
<path d="M376.645 1616.79C372.558 1601.43 376.022 1585.04 385.975 1572.64L916.376 911.974C949.913 870.2 1016.77 903.279 1003.9 955.282L953.192 1160.29C950.981 1169.22 946.346 1177.38 939.798 1183.85L463.968 1654.02C436.655 1681.01 390.375 1668.41 380.505 1631.31L376.645 1616.79Z" fill="#F94144"/>
<ellipse cx="925.723" cy="729.29" rx="257.735" ry="250.202" fill="#F94144"/>
<path d="M855.03 958.62C881.834 896.787 969.522 896.786 996.326 958.62L1418.09 1931.58C1440.13 1982.42 1402.85 2039.2 1347.44 2039.2H503.918C448.502 2039.2 411.23 1982.42 433.27 1931.58L855.03 958.62Z" fill="#F94144"/>
<path d="M1026.7 808.755C1026.7 800.146 1024.08 791.621 1019 783.666C1013.93 775.712 1006.48 768.485 997.102 762.397C987.719 756.31 976.581 751.48 964.322 748.186C952.063 744.891 938.925 743.195 925.656 743.195C912.387 743.195 899.249 744.891 886.99 748.186C874.731 751.48 863.593 756.31 854.211 762.397C844.828 768.485 837.386 775.712 832.308 783.666C827.23 791.621 824.617 800.146 824.617 808.755L925.656 808.755H1026.7Z" fill="#773E1E"/>
<path d="M911.044 683.805C911.044 715.723 884.145 741.695 850.841 741.695C817.537 741.695 790.637 715.723 790.637 683.805C790.637 651.888 817.537 625.916 850.841 625.916C884.145 625.916 911.044 651.888 911.044 683.805Z" stroke="black" stroke-width="3"/>
<path d="M1060.67 683.805C1060.67 715.723 1033.78 741.695 1000.47 741.695C967.167 741.695 940.268 715.723 940.268 683.805C940.268 651.888 967.167 625.916 1000.47 625.916C1033.78 625.916 1060.67 651.888 1060.67 683.805Z" stroke="black" stroke-width="3"/>
<line x1="793.015" y1="673.535" x2="694.289" y2="616.459" stroke="black" stroke-width="3"/>
<line x1="1061.35" y1="676.931" x2="1156.39" y2="613.912" stroke="black" stroke-width="3"/>
<line x1="909.469" y1="687.705" x2="943.406" y2="687.931" stroke="black" stroke-width="3"/>
<path d="M277.5 1613.99V1203.39H572.676V1658.93L277.5 1625.11V1613.99Z" fill="#F8961E" stroke="black"/>
<path d="M896.618 1613.99V1203.39H596.815V1658.93L896.618 1625.11V1613.99Z" fill="#F8961E" stroke="black"/>
<path d="M896.347 1203.66V1182.06L589.373 1203.66H896.347Z" fill="white"/>
<path d="M277.771 1203.66V1174.35L585.517 1203.66H277.771Z" fill="white"/>
<path d="M896.347 1203.66V1182.06L589.373 1203.66H896.347Z" stroke="black"/>
<path d="M277.771 1203.66V1174.35L585.517 1203.66H277.771Z" stroke="black"/>
<path d="M586.986 1203.65L278.469 1174.34" stroke="black"/>
<line x1="587.024" y1="1203.93" x2="896.293" y2="1182.33" stroke="black"/>
<line x1="277.039" y1="1180.79" x2="573.215" y2="1203.93" stroke="black"/>
<line x1="277.019" y1="1191.59" x2="554.684" y2="1202.39" stroke="black"/>
<line x1="277.008" y1="1197.76" x2="554.673" y2="1202.39" stroke="black"/>
<line x1="613.251" y1="1203.93" x2="897.086" y2="1185.42" stroke="black"/>
<line x1="613.259" y1="1202.39" x2="897.094" y2="1188.51" stroke="black"/>
<line x1="617.894" y1="1202.39" x2="897.102" y2="1193.13" stroke="black"/>
<line x1="896.618" y1="1204.43" x2="896.618" y2="1181.29" stroke="black"/>
<path d="M1164.74 636.319C1168.7 631.513 1170.3 624.833 1169.44 616.66C1168.58 608.487 1165.28 598.983 1159.73 588.688C1154.18 578.394 1146.48 567.511 1137.08 556.662C1127.68 545.813 1116.76 535.209 1104.94 525.457C1093.12 515.705 1080.64 506.995 1068.2 499.824C1055.76 492.654 1043.62 487.163 1032.45 483.666C1021.29 480.169 1011.34 478.733 1003.15 479.442C994.961 480.15 988.706 482.989 984.74 487.795L1074.74 562.057L1164.74 636.319Z" fill="#773E1E"/>
<path d="M850.5 480.773C846.181 476.281 839.781 473.875 831.664 473.692C823.548 473.509 813.874 475.553 803.195 479.707C792.517 483.861 781.042 490.044 769.428 497.903C757.813 505.762 746.285 515.143 735.502 525.51C724.719 535.877 714.892 547.027 706.582 558.324C698.273 569.621 691.643 580.843 687.072 591.35C682.501 601.857 680.079 611.443 679.942 619.56C679.806 627.678 681.958 634.168 686.277 638.66L768.388 559.716L850.5 480.773Z" fill="#773E1E"/>
<line x1="278.577" y1="1184.97" x2="553.166" y2="1203.76" stroke="black"/>
<circle cx="993.995" cy="677.995" r="26.9952" fill="black"/>
<circle cx="989.569" cy="671.569" r="11.5694" fill="white"/>
<circle cx="845.995" cy="677.995" r="26.9952" fill="black"/>
<circle cx="845.569" cy="672.569" r="11.5694" fill="white"/>
<path d="M617.899 1203.89L895.576 1198.58" stroke="black"/>
<path d="M2110.81 955.752C2137.56 893.777 2225.44 893.777 2252.19 955.751L2674.18 1933.23C2696.13 1984.06 2658.86 2040.75 2603.49 2040.75H1759.51C1704.14 2040.75 1666.87 1984.06 1688.82 1933.23L2110.81 955.752Z" fill="#90BE6D"/>
<ellipse rx="32.6578" ry="3.91427" transform="matrix(-0.568871 -0.822427 -0.822427 0.568871 1821.33 745.604)" fill="#F9C74F"/>
<ellipse rx="32.6578" ry="3.91427" transform="matrix(-0.568871 -0.822427 -0.822427 0.568871 1841.38 751.774)" fill="#F9C74F"/>
<ellipse rx="25.6366" ry="3.91427" transform="matrix(-0.568871 -0.822427 -0.822427 0.568871 1808.35 748.293)" fill="#F9C74F"/>
<ellipse rx="21.3035" ry="3.91427" transform="matrix(-0.568871 -0.822427 -0.822427 0.568871 1793.85 747.23)" fill="#F9C74F"/>
<ellipse rx="15.8963" ry="3.91427" transform="matrix(-0.568871 -0.822427 -0.822427 0.568871 1776.31 744.159)" fill="#F9C74F"/>
<ellipse rx="32.6578" ry="3.91427" transform="matrix(-0.559193 0.829038 0.829038 0.559193 1821.04 799.773)" fill="#F9C74F"/>
<ellipse rx="32.6578" ry="3.91427" transform="matrix(-0.559193 0.829038 0.829038 0.559193 1836.46 804.4)" fill="#F9C74F"/>
<ellipse rx="24.8477" ry="3.91427" transform="matrix(-0.559193 0.829038 0.829038 0.559193 1808.44 785.585)" fill="#F9C74F"/>
<ellipse rx="18.9105" ry="3.91427" transform="matrix(-0.559193 0.829038 0.829038 0.559193 1793.24 774.493)" fill="#F9C74F"/>
<ellipse rx="12.6144" ry="3.91427" transform="matrix(-0.559193 0.829038 0.829038 0.559193 1778.25 764.645)" fill="#F9C74F"/>
<path d="M3984.01 1635.13C3988.45 1619.57 3985 1602.82 3974.77 1590.28L3430.54 922.967C3397.21 882.097 3331.59 914.748 3344.09 965.985L3395.45 1176.52C3397.66 1185.57 3402.38 1193.82 3409.07 1200.31L3897.15 1673.89C3924.01 1699.96 3968.96 1687.93 3979.22 1651.94L3984.01 1635.13Z" fill="white" stroke="black"/>
<rect x="3232.59" y="1964.21" width="142.748" height="539.122" rx="50" transform="rotate(-0.516261 3232.59 1964.21)" fill="#277DA1"/>
<rect x="3459.35" y="1962.67" width="142.748" height="539.122" rx="50" transform="rotate(-0.516261 3459.35 1962.67)" fill="#277DA1"/>
<path d="M2879.2 1629.01C2875.15 1613.8 2878.58 1597.57 2888.43 1585.29L3418.83 924.628C3452.04 883.272 3518.22 916.02 3505.49 967.503L3454.78 1172.51C3452.59 1181.36 3448 1189.43 3441.52 1195.83L2965.69 1666C2938.65 1692.72 2892.83 1680.25 2883.06 1643.52L2879.2 1629.01Z" fill="white" stroke="black"/>
<path d="M3355.95 963.726C3382.53 902.161 3469.83 902.161 3496.41 963.726L3918.34 1940.83C3940.14 1991.33 3903.11 2047.65 3848.1 2047.65H3004.26C2949.25 2047.65 2912.22 1991.33 2934.03 1940.83L3355.95 963.726Z" fill="white" stroke="black"/>
<path d="M3308.9 2047.66L3419.24 694.904L3529.58 2047.66H3308.9Z" fill="#277DA1" stroke="black"/>
<ellipse cx="3420.91" cy="737.804" rx="257.735" ry="246.501" fill="#277DA1"/>
<path d="M3579.71 694.477C3579.71 726.395 3552.81 752.367 3519.51 752.367C3486.21 752.367 3459.31 726.395 3459.31 694.477C3459.31 662.559 3486.21 636.588 3519.51 636.588C3552.81 636.588 3579.71 662.559 3579.71 694.477Z" stroke="black" stroke-width="3"/>
<ellipse rx="58.6148" ry="16.2886" transform="matrix(0.921348 -0.388739 -0.388739 -0.921348 3366.97 827.14)" fill="#C4C4C4"/>
<path d="M3526 529.775C3526.1 520.857 3482.96 513.119 3429.64 512.492C3376.31 511.865 3333 518.586 3332.9 527.505C3332.79 536.423 3375.28 525.812 3428.61 526.439C3481.93 527.066 3525.89 538.694 3526 529.775Z" fill="#C4C4C4"/>
<path d="M3547.28 559.588C3547.39 550.67 3494.65 542.819 3429.48 542.053C3364.32 541.286 3311.41 547.895 3311.3 556.813C3311.2 565.732 3363.09 555.232 3428.26 555.998C3493.42 556.764 3547.18 568.506 3547.28 559.588Z" fill="#C4C4C4"/>
<ellipse rx="58.6148" ry="16.2886" transform="matrix(0.921863 0.387516 0.387516 -0.921863 3481.13 827.077)" fill="#C4C4C4"/>
<path d="M3557.56 738.443C3552.46 773.616 3560.86 813.472 3583.81 848.861C3595.41 866.762 3609.58 881.733 3625.18 893.413" stroke="black" stroke-width="3"/>
<line x1="2137.06" y1="825.97" x2="1780.72" y2="753.469" stroke="#F9C74F" stroke-width="3"/>
<path d="M2932.75 798.14C2936.98 813.994 2933.16 830.915 2922.53 843.416L2333.72 1535.88C2299.24 1576.43 2233.69 1542.18 2247.29 1490.71L2307.63 1262.38C2310.04 1253.25 2314.99 1244.99 2321.9 1238.55L2844.42 752.135C2872.04 726.431 2917.08 739.396 2926.8 775.845L2932.75 798.14Z" fill="#90BE6D"/>
<path d="M1436.24 805.549C1431.45 821.179 1434.6 838.165 1444.68 851.036L1975.62 1528.97C2008.46 1570.91 2075.38 1539.25 2063.78 1487.25L2016.59 1275.74C2014.54 1266.56 2009.94 1258.13 2003.31 1251.44L1524.69 768.309C1498.08 741.453 1452.45 752.698 1441.36 788.841L1436.24 805.549Z" fill="#90BE6D"/>
<path d="M1327.35 748.759C1311.21 751.373 1297.37 761.711 1290.29 776.444L917.072 1552.46C893.983 1600.47 951.978 1646.48 993.48 1613.08L1162.31 1477.22C1169.64 1471.31 1175.16 1463.46 1178.23 1454.56L1399.87 811.616C1412.19 775.877 1381.92 739.919 1344.6 745.964L1327.35 748.759Z" fill="#F94144"/>
<rect x="564.5" y="1202.5" width="33" height="458" fill="#F8961E" stroke="black"/>
<path d="M3340.71 1028.56L3341.39 969.822L3398.35 984.185L3340.71 1028.56Z" fill="white" stroke="black"/>
<path d="M3439.14 983.285L3495.98 968.431L3497.17 1027.16L3439.14 983.285Z" fill="white" stroke="black"/>
<path d="M3602.29 1307.68L3552.84 1352.29L3499.58 1312.28L3497.74 1243.34L3596.38 1241.52L3602.29 1307.68Z" fill="white" stroke="black"/>
<line x1="3497.89" y1="1253.91" x2="3596.64" y2="1251.72" stroke="black"/>
<rect x="1975.38" y="1964.21" width="142.748" height="539.122" rx="50" transform="rotate(-0.516261 1975.38 1964.21)" fill="#90BE6D"/>
<rect x="722.806" y="1962.67" width="142.748" height="539.122" rx="50" transform="rotate(-0.516261 722.806 1962.67)" fill="#F94144"/>
<rect x="2195.97" y="1964.21" width="142.748" height="539.122" rx="50" transform="rotate(-0.516261 2195.97 1964.21)" fill="#90BE6D"/>
<rect x="949.566" y="1964.21" width="142.748" height="539.122" rx="50" transform="rotate(-0.516261 949.566 1964.21)" fill="#F94144"/>
<circle cx="3518.74" cy="695.694" r="26.9952" fill="black"/>
<circle cx="3518.74" cy="695.694" r="11.5694" fill="white"/>
<path d="M3270 700C3303.59 700 3356 700 3356 700" stroke="black" stroke-width="10"/>
<rect x="2018.92" y="344.793" width="328" height="207" fill="#F9C74F"/>
<path d="M2146.32 338.307L2018.86 428.682L2016.95 250.69L2146.32 338.307Z" fill="#F9C74F"/>
<path d="M2218.92 338.293L2347.92 249.525V427.061L2218.92 338.293Z" fill="#F9C74F"/>
<path d="M2183.2 234.819L2273.23 362.526L2095.23 363.943L2183.2 234.819Z" fill="#F9C74F"/>
<rect x="3255.92" y="354.793" width="328" height="207" fill="#F9C74F"/>
<path d="M3383.32 348.307L3255.86 438.682L3253.95 260.69L3383.32 348.307Z" fill="#F9C74F"/>
<path d="M3455.92 348.293L3584.92 259.525V437.061L3455.92 348.293Z" fill="#F9C74F"/>
<path d="M3420.2 244.819L3510.23 372.526L3332.23 373.943L3420.2 244.819Z" fill="#F9C74F"/>
<rect x="762.917" y="328.793" width="328" height="207" fill="#F9C74F"/>
<path d="M890.32 322.307L762.864 412.682L760.952 234.69L890.32 322.307Z" fill="#F9C74F"/>
<path d="M962.917 322.293L1091.92 233.525V411.061L962.917 322.293Z" fill="#F9C74F"/>
<path d="M927.205 218.819L1017.23 346.526L839.228 347.943L927.205 218.819Z" fill="#F9C74F"/>
<path d="M1007 826C1007 834.142 1004.92 842.204 1000.87 849.726C996.827 857.249 990.897 864.083 983.422 869.841C975.947 875.598 967.073 880.165 957.306 883.281C947.539 886.396 937.071 888 926.5 888C915.929 888 905.461 886.396 895.694 883.281C885.927 880.165 877.053 875.598 869.578 869.841C862.103 864.083 856.173 857.249 852.128 849.726C848.082 842.204 846 834.142 846 826L926.5 826H1007Z" fill="black"/>
<path d="M3372.26 881.574C3367.59 881.48 3363.61 885.288 3365.04 889.739C3367.43 897.141 3373.16 904.064 3381.68 909.638C3393.34 917.266 3409.28 921.741 3425.99 922.078C3442.69 922.415 3458.8 918.587 3470.76 911.436C3479.5 906.211 3485.5 899.524 3488.19 892.224C3489.8 887.835 3485.98 883.87 3481.3 883.776V883.776C3476.63 883.681 3472.86 887.56 3470.78 891.746C3468.53 896.267 3464.49 900.389 3458.94 903.705C3450.19 908.934 3438.42 911.733 3426.2 911.486C3413.99 911.24 3402.33 907.968 3393.8 902.39C3388.4 898.853 3384.52 894.571 3382.46 889.963C3380.54 885.696 3376.94 881.669 3372.26 881.574V881.574Z" fill="black"/>
<path d="M866 395.2C869.333 395.2 872.567 395.667 875.7 396.6C878.9 397.533 881.933 398.867 884.8 400.6L880.2 407.3C878.133 405.767 875.867 404.567 873.4 403.7C871 402.767 868.5 402.3 865.9 402.3C862.367 402.3 859.367 403.2 856.9 405C854.433 406.733 853.2 409.533 853.2 413.4C853.2 415.533 853.767 417.367 854.9 418.9C856.1 420.367 857.667 421.667 859.6 422.8C861.533 423.933 863.633 425.033 865.9 426.1C868.233 427.167 870.6 428.333 873 429.6C875.467 430.867 877.7 432.367 879.7 434.1C881.767 435.767 883.4 437.833 884.6 440.3C885.867 442.7 886.5 445.667 886.5 449.2C886.5 454 885.333 457.967 883 461.1C880.667 464.167 877.6 466.467 873.8 468C870 469.467 865.9 470.2 861.5 470.2C857.9 470.2 854.4 469.733 851 468.8C847.667 467.8 844.4 466.467 841.2 464.8L844.8 456.6C847 458.467 849.667 460 852.8 461.2C855.933 462.4 858.933 463 861.8 463C864 463 866.233 462.6 868.5 461.8C870.767 460.933 872.667 459.567 874.2 457.7C875.733 455.833 876.5 453.433 876.5 450.5C876.5 447.567 875.8 445.167 874.4 443.3C873 441.367 871.167 439.767 868.9 438.5C866.633 437.167 864.233 435.9 861.7 434.7C859.5 433.633 857.3 432.533 855.1 431.4C852.9 430.267 850.9 428.933 849.1 427.4C847.3 425.867 845.867 424.033 844.8 421.9C843.733 419.767 843.2 417.2 843.2 414.2C843.2 410 844.3 406.5 846.5 403.7C848.767 400.9 851.633 398.8 855.1 397.4C858.633 395.933 862.267 395.2 866 395.2ZM922.363 470.1C916.963 470.1 912.229 469.1 908.163 467.1C904.163 465.1 900.829 462.367 898.163 458.9C895.496 455.367 893.496 451.367 892.162 446.9C890.829 442.433 890.163 437.7 890.163 432.7C890.163 427.7 890.796 422.967 892.063 418.5C893.396 413.967 895.396 409.967 898.062 406.5C900.729 402.967 904.096 400.2 908.163 398.2C912.229 396.2 916.996 395.2 922.463 395.2C927.929 395.2 932.663 396.2 936.663 398.2C940.729 400.2 944.096 402.967 946.763 406.5C949.429 409.967 951.396 413.967 952.663 418.5C953.996 422.967 954.663 427.7 954.663 432.7C954.663 437.7 953.996 442.467 952.663 447C951.329 451.467 949.329 455.433 946.663 458.9C943.996 462.367 940.629 465.1 936.563 467.1C932.563 469.1 927.829 470.1 922.363 470.1ZM922.463 463.3C926.729 463.3 930.296 462.4 933.163 460.6C936.029 458.8 938.329 456.4 940.063 453.4C941.796 450.4 943.029 447.1 943.763 443.5C944.563 439.9 944.963 436.3 944.963 432.7C944.963 429.1 944.563 425.5 943.763 421.9C943.029 418.3 941.796 415.033 940.063 412.1C938.329 409.1 935.996 406.7 933.063 404.9C930.196 403.1 926.663 402.2 922.463 402.2C918.263 402.2 914.696 403.1 911.763 404.9C908.896 406.7 906.596 409.1 904.863 412.1C903.196 415.1 901.963 418.4 901.163 422C900.429 425.6 900.063 429.2 900.063 432.8C900.063 436.4 900.429 440 901.163 443.6C901.963 447.133 903.196 450.4 904.863 453.4C906.596 456.4 908.896 458.8 911.763 460.6C914.696 462.4 918.263 463.3 922.463 463.3ZM962.493 396.2H973.193V462.1H1003.79V469H963.893V402.8L962.493 396.2Z" fill="black"/>
<path d="M2070.1 396.2H2091.8C2096.4 396.2 2100.57 396.8 2104.3 398C2108.03 399.133 2110.97 401.167 2113.1 404.1C2115.3 407.033 2116.4 411.1 2116.4 416.3C2116.4 418.967 2115.77 421.533 2114.5 424C2113.23 426.467 2111.53 428.633 2109.4 430.5C2107.33 432.3 2105.03 433.6 2102.5 434.4L2122.9 469H2112.1L2093.3 436.3H2080.8V469H2071.5V402.8L2070.1 396.2ZM2080.8 403.1V429.5H2088.8C2092.13 429.5 2095.13 429.133 2097.8 428.4C2100.53 427.6 2102.7 426.2 2104.3 424.2C2105.9 422.2 2106.7 419.367 2106.7 415.7C2106.7 412.833 2106 410.5 2104.6 408.7C2103.2 406.833 2101.37 405.433 2099.1 404.5C2096.83 403.567 2094.4 403.1 2091.8 403.1H2080.8ZM2125.28 396.2H2168.98V403.1H2135.98V428.2H2161.58V435H2135.98V462.1H2168.98V469H2126.68V402.8L2125.28 396.2ZM2205.02 395.2C2207.62 395.2 2210.39 395.5 2213.32 396.1C2216.32 396.633 2219.19 397.533 2221.92 398.8C2224.72 400 2227.06 401.567 2228.92 403.5L2223.62 409.7C2221.56 408.033 2219.62 406.667 2217.82 405.6C2216.02 404.533 2214.12 403.733 2212.12 403.2C2210.19 402.667 2207.82 402.4 2205.02 402.4C2200.62 402.4 2196.89 403.233 2193.82 404.9C2190.82 406.567 2188.36 408.833 2186.42 411.7C2184.56 414.567 2183.19 417.8 2182.32 421.4C2181.46 425 2181.02 428.733 2181.02 432.6C2181.02 436.267 2181.42 439.9 2182.22 443.5C2183.02 447.033 2184.32 450.267 2186.12 453.2C2187.92 456.133 2190.29 458.467 2193.22 460.2C2196.16 461.933 2199.76 462.8 2204.02 462.8C2207.56 462.8 2210.59 462.033 2213.12 460.5C2215.72 458.9 2217.72 456.767 2219.12 454.1C2220.59 451.367 2221.32 448.3 2221.32 444.9V438.3H2203.42L2204.62 431.5H2230.72V452.4C2230.72 455.133 2230.82 457.9 2231.02 460.7C2231.29 463.5 2231.49 466.267 2231.62 469H2226.62L2223.42 461.4C2220.49 464.533 2217.32 466.8 2213.92 468.2C2210.59 469.533 2206.76 470.2 2202.42 470.2C2197.16 470.2 2192.56 469.233 2188.62 467.3C2184.76 465.3 2181.52 462.6 2178.92 459.2C2176.32 455.733 2174.39 451.8 2173.12 447.4C2171.86 443 2171.22 438.367 2171.22 433.5C2171.22 426.367 2172.46 419.933 2174.92 414.2C2177.46 408.4 2181.22 403.8 2186.22 400.4C2191.22 396.933 2197.49 395.2 2205.02 395.2ZM2252.93 396.2L2284.73 445.1C2285.33 446.033 2285.96 447.033 2286.63 448.1C2287.29 449.1 2287.96 450.067 2288.63 451C2288.56 449.867 2288.49 448.733 2288.43 447.6C2288.36 446.4 2288.33 445.267 2288.33 444.2V396.2H2295.93V469.5H2290.03L2252.93 412.7C2252.39 411.833 2251.79 410.933 2251.13 410C2250.53 409 2249.89 408.067 2249.23 407.2C2249.43 409.267 2249.53 411.433 2249.53 413.7V469H2241.93V402.8L2240.53 396.2H2252.93Z" fill="black"/>
<path d="M3329 418.2L3344.8 465.7C3345.33 467.367 3345.83 469 3346.3 470.6C3346.77 472.133 3347.27 473.833 3347.8 475.7C3348.33 473.967 3348.8 472.4 3349.2 471C3349.6 469.533 3350.07 468.033 3350.6 466.5L3367.2 418.1H3375.2L3350 491.3H3344.2L3319.1 418.2H3329ZM3380.55 418.2H3391.25V491H3381.95V424.8C3381.95 424.733 3381.82 424.2 3381.55 423.2C3381.35 422.2 3381.15 421.167 3380.95 420.1C3380.75 419.033 3380.62 418.4 3380.55 418.2ZM3415.71 418.2L3447.51 467.1C3448.11 468.033 3448.75 469.033 3449.41 470.1C3450.08 471.1 3450.75 472.067 3451.41 473C3451.35 471.867 3451.28 470.733 3451.21 469.6C3451.15 468.4 3451.11 467.267 3451.11 466.2V418.2H3458.71V491.5H3452.81L3415.71 434.7C3415.18 433.833 3414.58 432.933 3413.91 432C3413.31 431 3412.68 430.067 3412.01 429.2C3412.21 431.267 3412.31 433.433 3412.31 435.7V491H3404.71V424.8L3403.31 418.2H3415.71ZM3528.7 454.8C3528.7 461.8 3527.5 468.033 3525.1 473.5C3522.77 478.9 3519.17 483.167 3514.3 486.3C3509.43 489.433 3503.23 491 3495.7 491H3472V424.8C3472 424.733 3471.87 424.2 3471.6 423.2C3471.4 422.2 3471.2 421.167 3471 420.1C3470.8 419.033 3470.67 418.4 3470.6 418.2H3489.3C3497.43 418.2 3504.43 419.433 3510.3 421.9C3516.17 424.3 3520.7 428.2 3523.9 433.6C3527.1 438.933 3528.7 446 3528.7 454.8ZM3519 454.6C3519 444.067 3516.4 436.533 3511.2 432C3506.07 427.4 3498.53 425.1 3488.6 425.1H3481.3V484.1H3494.5C3500.57 484.1 3505.37 482.767 3508.9 480.1C3512.5 477.433 3515.07 473.867 3516.6 469.4C3518.2 464.933 3519 460 3519 454.6Z" fill="black"/>
</svg>
