<svg width="842" height="2048" viewBox="0 0 842 2048" fill="none" xmlns="http://www.w3.org/2000/svg">
<rect x="86" y="109" width="702" height="418" rx="30" fill="#323031"/>
<path d="M437.334 598.455L399.28 526.744L471.948 525.175L437.334 598.455Z" fill="#323031"/>
<path d="M799.212 1442.05C802.536 1430.39 799.951 1417.84 792.289 1408.45L490.331 1038.2C456.999 997.331 391.381 1029.98 403.881 1081.22L417.547 1137.23C419.756 1146.29 424.477 1154.54 431.166 1161.03L737.735 1458.49C757.854 1478.01 791.525 1469.01 799.212 1442.05Z" fill="white" stroke="black"/>
<rect x="313" y="1652.83" width="92.5382" height="349.493" rx="46.2691" transform="rotate(-0.516261 313 1652.83)" fill="#277DA1"/>
<rect x="460" y="1651.83" width="92.5382" height="349.493" rx="46.2691" transform="rotate(-0.516261 460 1651.83)" fill="#277DA1"/>
<path d="M84.6471 1437.62C81.6817 1426.47 84.195 1414.58 91.4169 1405.58L383.931 1041.23C417.133 999.871 483.318 1032.62 470.583 1084.1L458.054 1134.75C455.866 1143.6 451.277 1151.67 444.794 1158.08L145.206 1454.1C125.388 1473.68 91.8088 1464.55 84.6471 1437.62Z" fill="white" stroke="black"/>
<path d="M368.268 1061.91C394.852 1000.34 482.148 1000.34 508.732 1061.91L741.052 1599.92C762.86 1650.43 725.83 1706.75 670.82 1706.75H206.18C151.17 1706.75 114.14 1650.43 135.948 1599.92L368.268 1061.91Z" fill="white" stroke="black"/>
<path d="M362.662 1706.75L434 832.15L505.338 1706.75H362.662Z" fill="#277DA1" stroke="black"/>
<ellipse cx="435.08" cy="857.798" rx="167.08" ry="159.798" fill="#277DA1"/>
<path d="M537.5 829.712C537.5 850.093 520.318 866.712 499 866.712C477.682 866.712 460.5 850.093 460.5 829.712C460.5 809.331 477.682 792.712 499 792.712C520.318 792.712 537.5 809.331 537.5 829.712Z" stroke="black" stroke-width="3"/>
<ellipse rx="37.9978" ry="10.5593" transform="matrix(0.921348 -0.388739 -0.388739 -0.921348 400.114 915.712)" fill="#C4C4C4"/>
<path d="M503.205 722.94C503.273 717.158 475.306 712.142 440.739 711.736C406.172 711.329 378.094 715.687 378.026 721.468C377.958 727.249 405.503 720.371 440.071 720.777C474.638 721.184 503.137 728.721 503.205 722.94Z" fill="#C4C4C4"/>
<path d="M517.004 742.267C517.072 736.485 482.882 731.396 440.638 730.899C398.395 730.402 364.094 734.687 364.026 740.468C363.958 746.249 397.602 739.443 439.845 739.939C482.089 740.436 516.936 748.048 517.004 742.267Z" fill="#C4C4C4"/>
<ellipse rx="37.9978" ry="10.5593" transform="matrix(0.921863 0.387516 0.387516 -0.921863 474.121 915.671)" fill="#C4C4C4"/>
<path d="M523.666 858.211C520.359 881.013 525.808 906.85 540.683 929.792C548.207 941.396 557.391 951.101 567.5 958.672" stroke="black" stroke-width="3"/>
<path d="M383.269 1045.92L383.707 1008.43L420.065 1017.6L383.269 1045.92Z" fill="white" stroke="black"/>
<path d="M447.298 1017.01L483.575 1007.53L484.337 1045.02L447.298 1017.01Z" fill="white" stroke="black"/>
<path d="M552.484 1227.16L520.597 1255.92L486.255 1230.12L485.066 1185.69L548.674 1184.52L552.484 1227.16Z" fill="white" stroke="black"/>
<line x1="484.981" y1="1192.19" x2="548.996" y2="1190.77" stroke="black"/>
<circle cx="498.5" cy="830.5" r="17.5" fill="black"/>
<circle cx="498.5" cy="830.5" r="7.5" fill="white"/>
<path d="M337.5 833C359.174 833 393 833 393 833" stroke="black" stroke-width="10"/>
<path d="M177.8 187.96C179.88 187.96 182.093 188.2 184.44 188.68C186.84 189.107 189.133 189.827 191.32 190.84C193.56 191.8 195.427 193.053 196.92 194.6L192.68 199.56C191.027 198.227 189.48 197.133 188.04 196.28C186.6 195.427 185.08 194.787 183.48 194.36C181.933 193.933 180.04 193.72 177.8 193.72C174.28 193.72 171.293 194.387 168.84 195.72C166.44 197.053 164.467 198.867 162.92 201.16C161.427 203.453 160.333 206.04 159.64 208.92C158.947 211.8 158.6 214.787 158.6 217.88C158.6 220.813 158.92 223.72 159.56 226.6C160.2 229.427 161.24 232.013 162.68 234.36C164.12 236.707 166.013 238.573 168.36 239.96C170.707 241.347 173.587 242.04 177 242.04C179.827 242.04 182.253 241.427 184.28 240.2C186.36 238.92 187.96 237.213 189.08 235.08C190.253 232.893 190.84 230.44 190.84 227.72V222.44H176.52L177.48 217H198.36V233.72C198.36 235.907 198.44 238.12 198.6 240.36C198.813 242.6 198.973 244.813 199.08 247H195.08L192.52 240.92C190.173 243.427 187.64 245.24 184.92 246.36C182.253 247.427 179.187 247.96 175.72 247.96C171.507 247.96 167.827 247.187 164.68 245.64C161.587 244.04 159 241.88 156.92 239.16C154.84 236.387 153.293 233.24 152.28 229.72C151.267 226.2 150.76 222.493 150.76 218.6C150.76 212.893 151.747 207.747 153.72 203.16C155.747 198.52 158.76 194.84 162.76 192.12C166.76 189.347 171.773 187.96 177.8 187.96ZM215.162 193.88C215.162 195.213 214.682 196.36 213.723 197.32C212.816 198.28 211.669 198.76 210.282 198.76C208.949 198.76 207.802 198.28 206.842 197.32C205.936 196.36 205.482 195.213 205.482 193.88C205.482 192.547 205.936 191.4 206.842 190.44C207.802 189.48 208.949 189 210.282 189C211.616 189 212.762 189.48 213.723 190.44C214.682 191.4 215.162 192.547 215.162 193.88ZM213.723 207.24V247H207.082V211.96L206.122 207.24H213.723ZM243.598 206.68C244.345 208.493 244.851 210.333 245.118 212.2C246.558 210.813 248.318 209.48 250.398 208.2C252.478 206.92 254.585 206.28 256.718 206.28C259.278 206.28 261.465 206.813 263.278 207.88C265.091 208.893 266.558 210.573 267.678 212.92C269.278 211.32 271.171 209.827 273.358 208.44C275.545 207 277.785 206.28 280.078 206.28C284.505 206.28 287.625 207.613 289.438 210.28C291.305 212.947 292.238 216.333 292.238 220.44V247H285.598V222.6C285.598 221 285.465 219.4 285.198 217.8C284.985 216.2 284.398 214.867 283.438 213.8C282.531 212.733 281.038 212.2 278.958 212.2C277.091 212.2 275.251 212.813 273.438 214.04C271.625 215.213 270.105 216.413 268.878 217.64V247H262.238V222.6C262.238 220.947 262.105 219.347 261.838 217.8C261.625 216.2 261.038 214.867 260.078 213.8C259.171 212.733 257.678 212.2 255.598 212.2C254.425 212.2 253.225 212.493 251.998 213.08C250.771 213.613 249.598 214.307 248.478 215.16C247.358 215.96 246.371 216.733 245.518 217.48V247H238.878V218.12C238.878 216.467 238.665 214.653 238.238 212.68C237.865 210.653 237.225 208.92 236.318 207.48L243.598 206.68ZM317.206 206.28C322.006 206.28 325.633 207.72 328.086 210.6C330.593 213.427 331.846 217.16 331.846 221.8C331.846 222.547 331.793 223.32 331.686 224.12C331.633 224.867 331.553 225.667 331.446 226.52H306.166C306.166 231.587 307.286 235.507 309.526 238.28C311.766 241.053 314.753 242.44 318.486 242.44C321.526 242.44 324.886 241.48 328.566 239.56L331.046 243.56C329.18 245.053 327.073 246.173 324.726 246.92C322.38 247.667 320.006 248.04 317.606 248.04C313.446 248.04 309.98 247.053 307.206 245.08C304.486 243.107 302.46 240.547 301.126 237.4C299.793 234.253 299.126 230.973 299.126 227.56C299.126 224.893 299.5 222.307 300.246 219.8C300.993 217.293 302.113 215.027 303.606 213C305.153 210.92 307.046 209.293 309.286 208.12C311.526 206.893 314.166 206.28 317.206 206.28ZM316.566 211.32C314.753 211.32 313.153 211.827 311.766 212.84C310.38 213.853 309.26 215.16 308.406 216.76C307.553 218.307 306.966 219.907 306.646 221.56H324.886C324.993 218.253 324.3 215.72 322.806 213.96C321.313 212.2 319.233 211.32 316.566 211.32ZM349.538 206.28C351.084 206.28 352.551 206.467 353.938 206.84C355.378 207.213 356.844 207.4 358.338 207.4C360.364 207.4 362.418 207.293 364.498 207.08C366.578 206.813 368.764 206.52 371.058 206.2L369.618 211.96H363.218C362.844 211.96 362.444 211.96 362.018 211.96C361.644 211.907 361.271 211.853 360.898 211.8C362.711 214.253 363.618 216.893 363.618 219.72C363.618 223.773 362.311 227.133 359.698 229.8C357.084 232.413 353.324 233.72 348.418 233.72C347.084 233.72 345.911 234.067 344.898 234.76C343.884 235.453 343.378 236.52 343.378 237.96C343.378 238.92 343.618 239.613 344.098 240.04C344.631 240.413 345.271 240.627 346.018 240.68C346.764 240.733 347.511 240.76 348.258 240.76H356.018C357.884 240.76 359.778 240.947 361.698 241.32C363.618 241.693 365.218 242.467 366.498 243.64C367.831 244.813 368.498 246.627 368.498 249.08C368.498 252.013 367.911 254.52 366.738 256.6C365.564 258.68 363.991 260.36 362.018 261.64C360.044 262.973 357.831 263.933 355.378 264.52C352.924 265.107 350.444 265.4 347.938 265.4C346.444 265.4 344.871 265.213 343.218 264.84C341.564 264.52 339.991 263.96 338.498 263.16C337.058 262.413 335.884 261.4 334.978 260.12C334.071 258.84 333.618 257.24 333.618 255.32C333.618 253.293 334.231 251.507 335.458 249.96C336.738 248.413 338.204 247.107 339.858 246.04V245.8C337.351 244.52 336.098 242.6 336.098 240.04C336.098 239.347 336.364 238.707 336.898 238.12C337.431 237.48 338.098 236.653 338.898 235.64C339.751 234.627 340.658 233.24 341.618 231.48C339.751 230.2 338.258 228.573 337.138 226.6C336.018 224.573 335.458 222.413 335.458 220.12C335.458 217.507 336.098 215.16 337.378 213.08C338.658 211 340.364 209.347 342.497 208.12C344.684 206.893 347.031 206.28 349.538 206.28ZM349.618 211.08C347.644 211.08 345.938 211.96 344.498 213.72C343.111 215.427 342.418 217.533 342.418 220.04C342.418 222.6 343.111 224.76 344.498 226.52C345.938 228.227 347.618 229.08 349.538 229.08C351.724 229.08 353.458 228.253 354.738 226.6C356.071 224.947 356.738 222.787 356.738 220.12C356.738 217.56 356.018 215.427 354.578 213.72C353.191 211.96 351.538 211.08 349.618 211.08ZM344.578 247.08C343.564 247.827 342.631 248.84 341.778 250.12C340.924 251.453 340.498 252.733 340.498 253.96C340.498 255.24 340.951 256.333 341.858 257.24C342.818 258.147 343.964 258.813 345.298 259.24C346.684 259.72 347.964 259.96 349.138 259.96C351.004 259.96 352.951 259.693 354.978 259.16C357.058 258.627 358.791 257.72 360.178 256.44C361.618 255.213 362.338 253.533 362.338 251.4C362.338 250.013 361.911 249 361.058 248.36C360.204 247.773 359.138 247.4 357.858 247.24C356.631 247.133 355.404 247.08 354.178 247.08H344.578ZM401.62 206.28C403.433 206.28 405.22 206.52 406.98 207C408.793 207.427 410.447 208.12 411.94 209.08L409.62 214.2C408.447 213.24 407.14 212.52 405.7 212.04C404.26 211.56 402.847 211.32 401.46 211.32C399.487 211.32 397.753 211.773 396.26 212.68C394.82 213.587 394.1 214.947 394.1 216.76C394.1 218.733 394.74 220.2 396.02 221.16C397.353 222.12 398.927 223.027 400.74 223.88C402.5 224.68 404.26 225.587 406.02 226.6C407.833 227.56 409.353 228.813 410.58 230.36C411.807 231.853 412.42 233.88 412.42 236.44C412.42 239.107 411.753 241.32 410.42 243.08C409.14 244.787 407.433 246.04 405.3 246.84C403.22 247.64 400.953 248.04 398.5 248.04C396.367 248.04 394.233 247.747 392.1 247.16C389.967 246.573 387.993 245.747 386.18 244.68L388.98 239.8C390.26 240.76 391.7 241.533 393.3 242.12C394.9 242.707 396.447 243 397.94 243C399.967 243 401.727 242.52 403.22 241.56C404.767 240.6 405.54 239.16 405.54 237.24C405.54 235.907 405.113 234.813 404.26 233.96C403.46 233.053 402.42 232.253 401.14 231.56C399.86 230.867 398.527 230.2 397.14 229.56C395.54 228.76 393.967 227.907 392.42 227C390.927 226.04 389.7 224.84 388.74 223.4C387.78 221.96 387.3 220.12 387.3 217.88C387.3 215.32 387.967 213.187 389.3 211.48C390.687 209.773 392.473 208.493 394.66 207.64C396.847 206.733 399.167 206.28 401.62 206.28ZM426.395 186.04V223.64L441.275 207.24H448.395L433.115 223.96L450.555 247H442.635L426.395 225.4V247H419.755V190.76L418.715 186.04H426.395ZM455.344 207.24C456.518 210.547 457.664 213.853 458.784 217.16C459.958 220.467 461.131 223.853 462.304 227.32C462.891 229.133 463.478 230.973 464.064 232.84C464.704 234.653 465.318 236.467 465.904 238.28C466.491 236.413 467.078 234.573 467.664 232.76C468.304 230.947 468.918 229.133 469.504 227.32C470.678 223.853 471.824 220.467 472.944 217.16C474.118 213.853 475.291 210.547 476.464 207.24H482.704L468.624 247.16C468.038 248.813 467.291 250.627 466.384 252.6C465.478 254.627 464.411 256.52 463.184 258.28C461.958 260.04 460.518 261.48 458.864 262.6C457.211 263.773 455.344 264.36 453.264 264.36H450.224V259H451.104C453.344 259 455.184 258.333 456.624 257C458.118 255.667 459.344 254.04 460.304 252.12C461.264 250.253 462.064 248.44 462.704 246.68L448.144 207.24H455.344ZM500.897 206.28C505.697 206.28 509.324 207.72 511.777 210.6C514.284 213.427 515.537 217.16 515.537 221.8C515.537 222.547 515.484 223.32 515.377 224.12C515.324 224.867 515.244 225.667 515.137 226.52H489.857C489.857 231.587 490.977 235.507 493.217 238.28C495.457 241.053 498.444 242.44 502.177 242.44C505.217 242.44 508.577 241.48 512.257 239.56L514.737 243.56C512.87 245.053 510.764 246.173 508.417 246.92C506.07 247.667 503.697 248.04 501.297 248.04C497.137 248.04 493.67 247.053 490.897 245.08C488.177 243.107 486.15 240.547 484.817 237.4C483.484 234.253 482.817 230.973 482.817 227.56C482.817 224.893 483.19 222.307 483.937 219.8C484.684 217.293 485.804 215.027 487.297 213C488.844 210.92 490.737 209.293 492.977 208.12C495.217 206.893 497.857 206.28 500.897 206.28ZM500.257 211.32C498.444 211.32 496.844 211.827 495.457 212.84C494.07 213.853 492.95 215.16 492.097 216.76C491.244 218.307 490.657 219.907 490.337 221.56H508.577C508.684 218.253 507.99 215.72 506.497 213.96C505.004 212.2 502.924 211.32 500.257 211.32ZM526.748 206.52C527.708 208.867 528.321 211.347 528.588 213.96C529.975 211.773 531.841 209.987 534.188 208.6C536.535 207.213 539.015 206.52 541.628 206.52L540.028 213.56C537.468 213.56 535.281 214.227 533.468 215.56C531.708 216.893 530.135 218.573 528.748 220.6V247H522.108V218.2C522.108 216.653 521.895 214.813 521.468 212.68C521.095 210.493 520.455 208.733 519.548 207.4L526.748 206.52ZM545.521 237.08C547.441 237.08 548.908 237.773 549.921 239.16C550.988 240.493 551.521 242.067 551.521 243.88C551.521 246.653 550.695 249.16 549.041 251.4C547.441 253.693 545.548 255.613 543.361 257.16C542.401 256.307 541.495 255.4 540.641 254.44C541.335 253.693 542.161 252.813 543.121 251.8C544.081 250.787 544.561 249.773 544.561 248.76C544.561 248.013 544.215 247.4 543.521 246.92C542.881 246.387 542.215 245.747 541.521 245C540.881 244.253 540.561 243.213 540.561 241.88C540.561 240.493 541.041 239.347 542.001 238.44C543.015 237.533 544.188 237.08 545.521 237.08ZM587.267 206.28C589.08 206.28 590.867 206.52 592.627 207C594.44 207.427 596.094 208.12 597.587 209.08L595.267 214.2C594.094 213.24 592.787 212.52 591.347 212.04C589.907 211.56 588.494 211.32 587.107 211.32C585.134 211.32 583.4 211.773 581.907 212.68C580.467 213.587 579.747 214.947 579.747 216.76C579.747 218.733 580.387 220.2 581.667 221.16C583 222.12 584.574 223.027 586.387 223.88C588.147 224.68 589.907 225.587 591.667 226.6C593.48 227.56 595 228.813 596.227 230.36C597.454 231.853 598.067 233.88 598.067 236.44C598.067 239.107 597.4 241.32 596.067 243.08C594.787 244.787 593.08 246.04 590.947 246.84C588.867 247.64 586.6 248.04 584.147 248.04C582.014 248.04 579.88 247.747 577.747 247.16C575.614 246.573 573.64 245.747 571.827 244.68L574.627 239.8C575.907 240.76 577.347 241.533 578.947 242.12C580.547 242.707 582.094 243 583.587 243C585.614 243 587.374 242.52 588.867 241.56C590.414 240.6 591.187 239.16 591.187 237.24C591.187 235.907 590.76 234.813 589.907 233.96C589.107 233.053 588.067 232.253 586.787 231.56C585.507 230.867 584.174 230.2 582.787 229.56C581.187 228.76 579.614 227.907 578.067 227C576.574 226.04 575.347 224.84 574.387 223.4C573.427 221.96 572.947 220.12 572.947 217.88C572.947 215.32 573.614 213.187 574.947 211.48C576.334 209.773 578.12 208.493 580.307 207.64C582.494 206.733 584.814 206.28 587.267 206.28ZM612.282 186.04V247H605.642V190.68L604.602 186.04H612.282ZM630.6 193.88C630.6 195.213 630.12 196.36 629.16 197.32C628.253 198.28 627.107 198.76 625.72 198.76C624.387 198.76 623.24 198.28 622.28 197.32C621.373 196.36 620.92 195.213 620.92 193.88C620.92 192.547 621.373 191.4 622.28 190.44C623.24 189.48 624.387 189 625.72 189C627.053 189 628.2 189.48 629.16 190.44C630.12 191.4 630.6 192.547 630.6 193.88ZM629.16 207.24V247H622.52V211.96L621.56 207.24H629.16ZM645.798 186.04V223.64L660.678 207.24H667.798L652.518 223.96L669.958 247H662.038L645.798 225.4V247H639.158V190.76L638.118 186.04H645.798ZM698.081 206.28C702.294 206.28 705.467 207.427 707.601 209.72C709.734 212.013 710.801 215.24 710.801 219.4V239.32C710.801 240.44 711.014 241.213 711.441 241.64C711.867 242.013 712.374 242.2 712.961 242.2C713.441 242.2 713.947 242.147 714.481 242.04C715.014 241.88 715.521 241.693 716.001 241.48L717.441 245.8C716.587 246.28 715.494 246.707 714.161 247.08C712.881 247.507 711.547 247.72 710.161 247.72C708.774 247.72 707.521 247.347 706.401 246.6C705.281 245.8 704.587 244.36 704.321 242.28C702.774 243.933 700.961 245.293 698.881 246.36C696.801 247.373 694.614 247.88 692.321 247.88C689.174 247.88 686.561 246.947 684.481 245.08C682.401 243.213 681.361 240.653 681.361 237.4C681.361 234.36 682.081 231.933 683.521 230.12C685.014 228.307 686.934 226.947 689.281 226.04C691.627 225.133 694.107 224.52 696.721 224.2C699.387 223.88 701.867 223.72 704.161 223.72V219.48C704.161 217.24 703.707 215.347 702.801 213.8C701.894 212.253 700.134 211.48 697.521 211.48C695.494 211.48 693.547 211.88 691.681 212.68C689.814 213.48 687.947 214.653 686.081 216.2L682.801 211.48C684.987 209.72 687.387 208.413 690.001 207.56C692.614 206.707 695.307 206.28 698.081 206.28ZM704.161 228.92C702.721 228.92 701.094 229 699.281 229.16C697.467 229.267 695.707 229.587 694.001 230.12C692.294 230.6 690.881 231.4 689.761 232.52C688.694 233.64 688.161 235.187 688.161 237.16C688.161 238.92 688.747 240.227 689.921 241.08C691.147 241.88 692.667 242.28 694.481 242.28C696.401 242.28 698.081 241.747 699.521 240.68C700.961 239.613 702.081 238.253 702.881 236.6C703.734 234.947 704.161 233.24 704.161 231.48V228.92ZM729.932 195.88C729.559 197.693 729.212 199.587 728.892 201.56C728.625 203.48 728.439 205.373 728.332 207.24H738.732L737.372 212.28H728.332V237.72C728.332 239.267 728.599 240.493 729.132 241.4C729.719 242.307 730.865 242.76 732.572 242.76C733.425 242.76 734.279 242.68 735.132 242.52C735.985 242.36 736.812 242.173 737.612 241.96L738.732 246.44C737.399 246.813 736.119 247.133 734.892 247.4C733.719 247.72 732.359 247.88 730.812 247.88C727.399 247.88 725.025 246.973 723.692 245.16C722.359 243.347 721.692 240.813 721.692 237.56V212.28H715.772V208.28C717.905 208.227 719.585 207.533 720.812 206.2C722.039 204.813 722.972 203.16 723.612 201.24C724.252 199.32 724.732 197.533 725.052 195.88H729.932ZM161.96 290.88C161.96 292.213 161.48 293.36 160.52 294.32C159.613 295.28 158.467 295.76 157.08 295.76C155.747 295.76 154.6 295.28 153.64 294.32C152.68 293.36 152.2 292.213 152.2 290.88C152.2 289.547 152.68 288.4 153.64 287.44C154.6 286.48 155.747 286 157.08 286C158.413 286 159.56 286.48 160.52 287.44C161.48 288.4 161.96 289.547 161.96 290.88ZM160.36 304.24V342C160.36 344.027 160.227 346.133 159.96 348.32C159.693 350.56 159.16 352.667 158.36 354.64C157.613 356.613 156.493 358.293 155 359.68C153.507 361.067 151.507 361.92 149 362.24L147.88 359.04C149.853 358.027 151.24 356.613 152.04 354.8C152.84 353.04 153.32 351.093 153.48 348.96C153.64 346.88 153.72 344.88 153.72 342.96V308.96L152.68 304.24H160.36ZM185.478 303.28C190.278 303.28 193.905 304.72 196.358 307.6C198.865 310.427 200.118 314.16 200.118 318.8C200.118 319.547 200.065 320.32 199.958 321.12C199.905 321.867 199.825 322.667 199.718 323.52H174.438C174.438 328.587 175.558 332.507 177.798 335.28C180.038 338.053 183.025 339.44 186.758 339.44C189.798 339.44 193.158 338.48 196.838 336.56L199.318 340.56C197.451 342.053 195.345 343.173 192.998 343.92C190.651 344.667 188.278 345.04 185.878 345.04C181.718 345.04 178.251 344.053 175.478 342.08C172.758 340.107 170.731 337.547 169.398 334.4C168.065 331.253 167.398 327.973 167.398 324.56C167.398 321.893 167.771 319.307 168.518 316.8C169.265 314.293 170.385 312.027 171.878 310C173.425 307.92 175.318 306.293 177.558 305.12C179.798 303.893 182.438 303.28 185.478 303.28ZM184.838 308.32C183.025 308.32 181.425 308.827 180.038 309.84C178.651 310.853 177.531 312.16 176.678 313.76C175.825 315.307 175.238 316.907 174.918 318.56H193.158C193.265 315.253 192.571 312.72 191.078 310.96C189.585 309.2 187.505 308.32 184.838 308.32ZM217.809 303.28C219.356 303.28 220.823 303.467 222.209 303.84C223.649 304.213 225.116 304.4 226.609 304.4C228.636 304.4 230.689 304.293 232.769 304.08C234.849 303.813 237.036 303.52 239.329 303.2L237.889 308.96H231.489C231.116 308.96 230.716 308.96 230.289 308.96C229.916 308.907 229.543 308.853 229.169 308.8C230.983 311.253 231.889 313.893 231.889 316.72C231.889 320.773 230.583 324.133 227.969 326.8C225.356 329.413 221.596 330.72 216.689 330.72C215.356 330.72 214.183 331.067 213.169 331.76C212.156 332.453 211.649 333.52 211.649 334.96C211.649 335.92 211.889 336.613 212.369 337.04C212.903 337.413 213.543 337.627 214.289 337.68C215.036 337.733 215.783 337.76 216.529 337.76H224.289C226.156 337.76 228.049 337.947 229.969 338.32C231.889 338.693 233.489 339.467 234.769 340.64C236.103 341.813 236.769 343.627 236.769 346.08C236.769 349.013 236.183 351.52 235.009 353.6C233.836 355.68 232.263 357.36 230.289 358.64C228.316 359.973 226.103 360.933 223.649 361.52C221.196 362.107 218.716 362.4 216.209 362.4C214.716 362.4 213.143 362.213 211.489 361.84C209.836 361.52 208.263 360.96 206.769 360.16C205.329 359.413 204.156 358.4 203.249 357.12C202.343 355.84 201.889 354.24 201.889 352.32C201.889 350.293 202.503 348.507 203.729 346.96C205.009 345.413 206.476 344.107 208.129 343.04V342.8C205.623 341.52 204.369 339.6 204.369 337.04C204.369 336.347 204.636 335.707 205.169 335.12C205.703 334.48 206.369 333.653 207.169 332.64C208.023 331.627 208.929 330.24 209.889 328.48C208.023 327.2 206.529 325.573 205.409 323.6C204.289 321.573 203.729 319.413 203.729 317.12C203.729 314.507 204.369 312.16 205.649 310.08C206.929 308 208.636 306.347 210.769 305.12C212.956 303.893 215.303 303.28 217.809 303.28ZM217.889 308.08C215.916 308.08 214.209 308.96 212.769 310.72C211.383 312.427 210.689 314.533 210.689 317.04C210.689 319.6 211.383 321.76 212.769 323.52C214.209 325.227 215.889 326.08 217.809 326.08C219.996 326.08 221.729 325.253 223.009 323.6C224.343 321.947 225.009 319.787 225.009 317.12C225.009 314.56 224.289 312.427 222.849 310.72C221.463 308.96 219.809 308.08 217.889 308.08ZM212.849 344.08C211.836 344.827 210.903 345.84 210.049 347.12C209.196 348.453 208.769 349.733 208.769 350.96C208.769 352.24 209.223 353.333 210.129 354.24C211.089 355.147 212.236 355.813 213.569 356.24C214.956 356.72 216.236 356.96 217.409 356.96C219.276 356.96 221.223 356.693 223.249 356.16C225.329 355.627 227.063 354.72 228.449 353.44C229.889 352.213 230.609 350.533 230.609 348.4C230.609 347.013 230.183 346 229.329 345.36C228.476 344.773 227.409 344.4 226.129 344.24C224.903 344.133 223.676 344.08 222.449 344.08H212.849ZM263.492 283.04V320.64L278.372 304.24H285.492L270.212 320.96L287.652 344H279.732L263.492 322.4V344H256.852V287.76L255.812 283.04H263.492ZM304.521 303.28C308.735 303.28 311.908 304.427 314.041 306.72C316.175 309.013 317.241 312.24 317.241 316.4V336.32C317.241 337.44 317.455 338.213 317.881 338.64C318.308 339.013 318.815 339.2 319.401 339.2C319.881 339.2 320.388 339.147 320.921 339.04C321.455 338.88 321.961 338.693 322.441 338.48L323.881 342.8C323.028 343.28 321.935 343.707 320.601 344.08C319.321 344.507 317.988 344.72 316.601 344.72C315.215 344.72 313.961 344.347 312.841 343.6C311.721 342.8 311.028 341.36 310.761 339.28C309.215 340.933 307.401 342.293 305.321 343.36C303.241 344.373 301.055 344.88 298.761 344.88C295.615 344.88 293.001 343.947 290.921 342.08C288.841 340.213 287.801 337.653 287.801 334.4C287.801 331.36 288.521 328.933 289.961 327.12C291.455 325.307 293.375 323.947 295.721 323.04C298.068 322.133 300.548 321.52 303.161 321.2C305.828 320.88 308.308 320.72 310.601 320.72V316.48C310.601 314.24 310.148 312.347 309.241 310.8C308.335 309.253 306.575 308.48 303.961 308.48C301.935 308.48 299.988 308.88 298.121 309.68C296.255 310.48 294.388 311.653 292.521 313.2L289.241 308.48C291.428 306.72 293.828 305.413 296.441 304.56C299.055 303.707 301.748 303.28 304.521 303.28ZM310.601 325.92C309.161 325.92 307.535 326 305.721 326.16C303.908 326.267 302.148 326.587 300.441 327.12C298.735 327.6 297.321 328.4 296.201 329.52C295.135 330.64 294.601 332.187 294.601 334.16C294.601 335.92 295.188 337.227 296.361 338.08C297.588 338.88 299.108 339.28 300.921 339.28C302.841 339.28 304.521 338.747 305.961 337.68C307.401 336.613 308.521 335.253 309.321 333.6C310.175 331.947 310.601 330.24 310.601 328.48V325.92ZM331.653 303.6C332.026 304.507 332.346 305.44 332.613 306.4C332.879 307.36 333.066 308.32 333.173 309.28C334.773 307.68 336.666 306.293 338.853 305.12C341.039 303.893 343.279 303.28 345.573 303.28C349.999 303.28 353.119 304.613 354.933 307.28C356.799 309.947 357.733 313.333 357.733 317.44V344H351.173V319.6C351.173 317.947 351.039 316.32 350.773 314.72C350.559 313.12 349.973 311.813 349.013 310.8C348.106 309.733 346.586 309.2 344.453 309.2C342.479 309.2 340.506 309.76 338.533 310.88C336.613 311.947 334.959 313.147 333.573 314.48V344H327.013V315.84C327.013 314.773 326.933 313.547 326.773 312.16C326.613 310.72 326.346 309.333 325.973 308C325.599 306.613 325.066 305.467 324.373 304.56L331.653 303.6ZM395.92 303.28C397.733 303.28 399.52 303.52 401.28 304C403.093 304.427 404.747 305.12 406.24 306.08L403.92 311.2C402.747 310.24 401.44 309.52 400 309.04C398.56 308.56 397.147 308.32 395.76 308.32C393.787 308.32 392.053 308.773 390.56 309.68C389.12 310.587 388.4 311.947 388.4 313.76C388.4 315.733 389.04 317.2 390.32 318.16C391.653 319.12 393.227 320.027 395.04 320.88C396.8 321.68 398.56 322.587 400.32 323.6C402.133 324.56 403.653 325.813 404.88 327.36C406.107 328.853 406.72 330.88 406.72 333.44C406.72 336.107 406.053 338.32 404.72 340.08C403.44 341.787 401.733 343.04 399.6 343.84C397.52 344.64 395.253 345.04 392.8 345.04C390.667 345.04 388.533 344.747 386.4 344.16C384.267 343.573 382.293 342.747 380.48 341.68L383.28 336.8C384.56 337.76 386 338.533 387.6 339.12C389.2 339.707 390.747 340 392.24 340C394.267 340 396.027 339.52 397.52 338.56C399.067 337.6 399.84 336.16 399.84 334.24C399.84 332.907 399.413 331.813 398.56 330.96C397.76 330.053 396.72 329.253 395.44 328.56C394.16 327.867 392.827 327.2 391.44 326.56C389.84 325.76 388.267 324.907 386.72 324C385.227 323.04 384 321.84 383.04 320.4C382.08 318.96 381.6 317.12 381.6 314.88C381.6 312.32 382.267 310.187 383.6 308.48C384.987 306.773 386.773 305.493 388.96 304.64C391.147 303.733 393.467 303.28 395.92 303.28ZM423.335 292.88C422.962 294.693 422.615 296.587 422.295 298.56C422.028 300.48 421.842 302.373 421.735 304.24H432.135L430.775 309.28H421.735V334.72C421.735 336.267 422.002 337.493 422.535 338.4C423.122 339.307 424.268 339.76 425.975 339.76C426.828 339.76 427.682 339.68 428.535 339.52C429.388 339.36 430.215 339.173 431.015 338.96L432.135 343.44C430.802 343.813 429.522 344.133 428.295 344.4C427.122 344.72 425.762 344.88 424.215 344.88C420.802 344.88 418.428 343.973 417.095 342.16C415.762 340.347 415.095 337.813 415.095 334.56V309.28H409.175V305.28C411.308 305.227 412.988 304.533 414.215 303.2C415.442 301.813 416.375 300.16 417.015 298.24C417.655 296.32 418.135 294.533 418.455 292.88H423.335ZM443.587 304.24V328.72C443.587 330.267 443.72 331.867 443.987 333.52C444.254 335.12 444.84 336.453 445.747 337.52C446.707 338.587 448.2 339.12 450.227 339.12C452.2 339.12 453.987 338.693 455.587 337.84C457.24 336.987 458.574 335.813 459.587 334.32C460.6 332.773 461.107 330.987 461.107 328.96V308.96C461.107 308.907 461.027 308.533 460.867 307.84C460.707 307.093 460.547 306.347 460.387 305.6C460.227 304.8 460.12 304.347 460.067 304.24H467.747V336.24C467.747 338.213 468.467 339.2 469.907 339.2C470.654 339.2 471.667 338.96 472.947 338.48L474.387 342.8C472.094 344.08 469.667 344.72 467.107 344.72C465.72 344.72 464.494 344.32 463.427 343.52C462.36 342.72 461.667 341.307 461.347 339.28C459.8 340.88 457.934 342.24 455.747 343.36C453.614 344.48 451.4 345.04 449.107 345.04C444.734 345.04 441.614 343.707 439.747 341.04C437.88 338.373 436.947 334.987 436.947 330.88V308.96L435.907 304.24H443.587ZM492.926 303.36C494.739 303.36 496.552 303.653 498.366 304.24C500.179 304.827 501.752 305.733 503.086 306.96C503.032 306.213 502.979 305.493 502.926 304.8C502.926 304.053 502.926 303.333 502.926 302.64V287.76L501.806 283.04H509.486V332.56C509.486 334.213 509.672 336.133 510.046 338.32C510.472 340.507 511.112 342.347 511.966 343.84L504.926 344.72C504.552 343.813 504.232 342.907 503.966 342C503.699 341.093 503.512 340.187 503.406 339.28C502.019 341.093 500.286 342.507 498.206 343.52C496.126 344.533 493.939 345.04 491.646 345.04C488.872 345.04 486.446 344.453 484.366 343.28C482.286 342.107 480.552 340.533 479.166 338.56C477.832 336.533 476.819 334.32 476.126 331.92C475.486 329.467 475.166 326.987 475.166 324.48C475.166 320.853 475.806 317.44 477.086 314.24C478.419 310.987 480.392 308.373 483.006 306.4C485.619 304.373 488.926 303.36 492.926 303.36ZM493.086 308.8C490.312 308.8 488.126 309.573 486.526 311.12C484.926 312.667 483.806 314.613 483.166 316.96C482.526 319.307 482.206 321.653 482.206 324C482.206 326.4 482.552 328.773 483.246 331.12C483.992 333.467 485.192 335.413 486.846 336.96C488.552 338.453 490.819 339.2 493.646 339.2C495.512 339.2 497.219 338.667 498.766 337.6C500.366 336.48 501.752 335.253 502.926 333.92V320.48C502.926 318.347 502.579 316.4 501.886 314.64C501.246 312.88 500.206 311.467 498.766 310.4C497.326 309.333 495.432 308.8 493.086 308.8ZM534.575 303.28C539.375 303.28 543.002 304.72 545.455 307.6C547.962 310.427 549.215 314.16 549.215 318.8C549.215 319.547 549.162 320.32 549.055 321.12C549.002 321.867 548.922 322.667 548.815 323.52H523.535C523.535 328.587 524.655 332.507 526.895 335.28C529.135 338.053 532.122 339.44 535.855 339.44C538.895 339.44 542.255 338.48 545.935 336.56L548.415 340.56C546.548 342.053 544.442 343.173 542.095 343.92C539.748 344.667 537.375 345.04 534.975 345.04C530.815 345.04 527.348 344.053 524.575 342.08C521.855 340.107 519.828 337.547 518.495 334.4C517.162 331.253 516.495 327.973 516.495 324.56C516.495 321.893 516.868 319.307 517.615 316.8C518.362 314.293 519.482 312.027 520.975 310C522.522 307.92 524.415 306.293 526.655 305.12C528.895 303.893 531.535 303.28 534.575 303.28ZM533.935 308.32C532.122 308.32 530.522 308.827 529.135 309.84C527.748 310.853 526.628 312.16 525.775 313.76C524.922 315.307 524.335 316.907 524.015 318.56H542.255C542.362 315.253 541.668 312.72 540.175 310.96C538.682 309.2 536.602 308.32 533.935 308.32ZM560.426 303.52C561.386 305.867 562 308.347 562.266 310.96C563.653 308.773 565.52 306.987 567.866 305.6C570.213 304.213 572.693 303.52 575.306 303.52L573.706 310.56C571.146 310.56 568.96 311.227 567.146 312.56C565.386 313.893 563.813 315.573 562.426 317.6V344H555.786V315.2C555.786 313.653 555.573 311.813 555.146 309.68C554.773 307.493 554.133 305.733 553.226 304.4L560.426 303.52ZM595.597 303.28C600.397 303.28 604.024 304.72 606.477 307.6C608.984 310.427 610.237 314.16 610.237 318.8C610.237 319.547 610.184 320.32 610.077 321.12C610.024 321.867 609.944 322.667 609.837 323.52H584.557C584.557 328.587 585.677 332.507 587.917 335.28C590.157 338.053 593.144 339.44 596.877 339.44C599.917 339.44 603.277 338.48 606.957 336.56L609.437 340.56C607.57 342.053 605.464 343.173 603.117 343.92C600.77 344.667 598.397 345.04 595.997 345.04C591.837 345.04 588.37 344.053 585.597 342.08C582.877 340.107 580.85 337.547 579.517 334.4C578.184 331.253 577.517 327.973 577.517 324.56C577.517 321.893 577.89 319.307 578.637 316.8C579.384 314.293 580.504 312.027 581.997 310C583.544 307.92 585.437 306.293 587.677 305.12C589.917 303.893 592.557 303.28 595.597 303.28ZM594.957 308.32C593.144 308.32 591.544 308.827 590.157 309.84C588.77 310.853 587.65 312.16 586.797 313.76C585.944 315.307 585.357 316.907 585.037 318.56H603.277C603.384 315.253 602.69 312.72 601.197 310.96C599.704 309.2 597.624 308.32 594.957 308.32ZM646.926 303.36C648.739 303.36 650.552 303.653 652.366 304.24C654.179 304.827 655.752 305.733 657.086 306.96C657.032 306.213 656.979 305.493 656.926 304.8C656.926 304.053 656.926 303.333 656.926 302.64V287.76L655.806 283.04H663.486V332.56C663.486 334.213 663.672 336.133 664.046 338.32C664.472 340.507 665.112 342.347 665.966 343.84L658.926 344.72C658.552 343.813 658.232 342.907 657.966 342C657.699 341.093 657.512 340.187 657.406 339.28C656.019 341.093 654.286 342.507 652.206 343.52C650.126 344.533 647.939 345.04 645.646 345.04C642.872 345.04 640.446 344.453 638.366 343.28C636.286 342.107 634.552 340.533 633.166 338.56C631.832 336.533 630.819 334.32 630.126 331.92C629.486 329.467 629.166 326.987 629.166 324.48C629.166 320.853 629.806 317.44 631.086 314.24C632.419 310.987 634.392 308.373 637.006 306.4C639.619 304.373 642.926 303.36 646.926 303.36ZM647.086 308.8C644.312 308.8 642.126 309.573 640.526 311.12C638.926 312.667 637.806 314.613 637.166 316.96C636.526 319.307 636.206 321.653 636.206 324C636.206 326.4 636.552 328.773 637.246 331.12C637.992 333.467 639.192 335.413 640.846 336.96C642.552 338.453 644.819 339.2 647.646 339.2C649.512 339.2 651.219 338.667 652.766 337.6C654.366 336.48 655.752 335.253 656.926 333.92V320.48C656.926 318.347 656.579 316.4 655.886 314.64C655.246 312.88 654.206 311.467 652.766 310.4C651.326 309.333 649.432 308.8 647.086 308.8ZM688.575 303.28C693.375 303.28 697.002 304.72 699.455 307.6C701.962 310.427 703.215 314.16 703.215 318.8C703.215 319.547 703.162 320.32 703.055 321.12C703.002 321.867 702.922 322.667 702.815 323.52H677.535C677.535 328.587 678.655 332.507 680.895 335.28C683.135 338.053 686.122 339.44 689.855 339.44C692.895 339.44 696.255 338.48 699.935 336.56L702.415 340.56C700.548 342.053 698.442 343.173 696.095 343.92C693.748 344.667 691.375 345.04 688.975 345.04C684.815 345.04 681.348 344.053 678.575 342.08C675.855 340.107 673.828 337.547 672.495 334.4C671.162 331.253 670.495 327.973 670.495 324.56C670.495 321.893 670.868 319.307 671.615 316.8C672.362 314.293 673.482 312.027 674.975 310C676.522 307.92 678.415 306.293 680.655 305.12C682.895 303.893 685.535 303.28 688.575 303.28ZM687.935 308.32C686.122 308.32 684.522 308.827 683.135 309.84C681.748 310.853 680.628 312.16 679.775 313.76C678.922 315.307 678.335 316.907 678.015 318.56H696.255C696.362 315.253 695.668 312.72 694.175 310.96C692.682 309.2 690.602 308.32 687.935 308.32ZM158.04 400.6C158.413 401.507 158.733 402.44 159 403.4C159.267 404.36 159.453 405.32 159.56 406.28C161.16 404.68 163.053 403.293 165.24 402.12C167.427 400.893 169.667 400.28 171.96 400.28C176.387 400.28 179.507 401.613 181.32 404.28C183.187 406.947 184.12 410.333 184.12 414.44V441H177.56V416.6C177.56 414.947 177.427 413.32 177.16 411.72C176.947 410.12 176.36 408.813 175.4 407.8C174.493 406.733 172.973 406.2 170.84 406.2C168.867 406.2 166.893 406.76 164.92 407.88C163 408.947 161.347 410.147 159.96 411.48V441H153.4V412.84C153.4 411.773 153.32 410.547 153.16 409.16C153 407.72 152.733 406.333 152.36 405C151.987 403.613 151.453 402.467 150.76 401.56L158.04 400.6ZM191.07 431.4C191.07 428.36 191.79 425.933 193.23 424.12C194.723 422.307 196.643 420.947 198.99 420.04C201.337 419.133 203.817 418.52 206.43 418.2C209.097 417.88 211.577 417.72 213.87 417.72V413.48C213.87 411.24 213.417 409.347 212.51 407.8C211.603 406.253 209.843 405.48 207.23 405.48C205.257 405.48 203.177 405.88 200.99 406.68C198.857 407.48 197.123 408.653 195.79 410.2L192.51 405.48C194.697 403.72 197.097 402.413 199.71 401.56C202.323 400.707 205.017 400.28 207.79 400.28C210.457 400.28 212.803 400.76 214.83 401.72C216.857 402.68 218.377 404.013 219.39 405.72C220.883 404.067 222.67 402.76 224.75 401.8C226.83 400.787 229.23 400.28 231.95 400.28C236.75 400.28 240.377 401.72 242.83 404.6C245.337 407.427 246.59 411.16 246.59 415.8C246.59 416.547 246.537 417.32 246.43 418.12C246.377 418.867 246.297 419.667 246.19 420.52H220.91C220.91 423.72 221.417 426.52 222.43 428.92C223.443 431.267 224.83 433.107 226.59 434.44C228.35 435.773 230.323 436.44 232.51 436.44C234.217 436.44 236.03 436.12 237.95 435.48C239.87 434.787 241.497 433.88 242.83 432.76L245.79 437.56C243.923 439.053 241.817 440.173 239.47 440.92C237.123 441.667 234.75 442.04 232.35 442.04C228.617 442.04 225.443 441.24 222.83 439.64C220.27 437.987 218.243 435.853 216.75 433.24C214.883 436.387 212.67 438.627 210.11 439.96C207.55 441.24 204.857 441.88 202.03 441.88C198.883 441.88 196.27 440.947 194.19 439.08C192.11 437.213 191.07 434.653 191.07 431.4ZM221.39 415.56H239.63C239.737 412.253 239.043 409.72 237.55 407.96C236.057 406.2 233.977 405.32 231.31 405.32C229.497 405.32 227.897 405.827 226.51 406.84C225.123 407.853 224.003 409.16 223.15 410.76C222.297 412.307 221.71 413.907 221.39 415.56ZM197.87 431.16C197.87 432.92 198.457 434.227 199.63 435.08C200.857 435.88 202.377 436.28 204.19 436.28C206.11 436.28 207.79 435.747 209.23 434.68C210.67 433.613 211.79 432.253 212.59 430.6C213.443 428.947 213.87 427.24 213.87 425.48V422.92C212.43 422.92 210.803 423 208.99 423.16C207.177 423.267 205.417 423.587 203.71 424.12C202.003 424.6 200.59 425.4 199.47 426.52C198.403 427.64 197.87 429.187 197.87 431.16ZM257.814 400.52C258.774 402.867 259.387 405.347 259.654 407.96C261.04 405.773 262.907 403.987 265.254 402.6C267.6 401.213 270.08 400.52 272.694 400.52L271.094 407.56C268.534 407.56 266.347 408.227 264.534 409.56C262.774 410.893 261.2 412.573 259.814 414.6V441H253.174V412.2C253.174 410.653 252.96 408.813 252.534 406.68C252.16 404.493 251.52 402.733 250.614 401.4L257.814 400.52ZM282.504 400.68C283.251 402.493 283.758 404.333 284.024 406.2C285.464 404.813 287.224 403.48 289.304 402.2C291.384 400.92 293.491 400.28 295.624 400.28C298.184 400.28 300.371 400.813 302.184 401.88C303.998 402.893 305.464 404.573 306.584 406.92C308.184 405.32 310.078 403.827 312.264 402.44C314.451 401 316.691 400.28 318.984 400.28C323.411 400.28 326.531 401.613 328.344 404.28C330.211 406.947 331.144 410.333 331.144 414.44V441H324.504V416.6C324.504 415 324.371 413.4 324.104 411.8C323.891 410.2 323.304 408.867 322.344 407.8C321.438 406.733 319.944 406.2 317.864 406.2C315.998 406.2 314.158 406.813 312.344 408.04C310.531 409.213 309.011 410.413 307.784 411.64V441H301.144V416.6C301.144 414.947 301.011 413.347 300.744 411.8C300.531 410.2 299.944 408.867 298.984 407.8C298.078 406.733 296.584 406.2 294.504 406.2C293.331 406.2 292.131 406.493 290.904 407.08C289.678 407.613 288.504 408.307 287.384 409.16C286.264 409.96 285.278 410.733 284.424 411.48V441H277.784V412.12C277.784 410.467 277.571 408.653 277.144 406.68C276.771 404.653 276.131 402.92 275.224 401.48L282.504 400.68ZM356.112 400.28C360.912 400.28 364.539 401.72 366.992 404.6C369.499 407.427 370.752 411.16 370.752 415.8C370.752 416.547 370.699 417.32 370.592 418.12C370.539 418.867 370.459 419.667 370.352 420.52H345.072C345.072 425.587 346.192 429.507 348.432 432.28C350.672 435.053 353.659 436.44 357.392 436.44C360.432 436.44 363.792 435.48 367.472 433.56L369.952 437.56C368.086 439.053 365.979 440.173 363.632 440.92C361.286 441.667 358.912 442.04 356.512 442.04C352.352 442.04 348.886 441.053 346.112 439.08C343.392 437.107 341.366 434.547 340.032 431.4C338.699 428.253 338.032 424.973 338.032 421.56C338.032 418.893 338.406 416.307 339.152 413.8C339.899 411.293 341.019 409.027 342.512 407C344.059 404.92 345.952 403.293 348.192 402.12C350.432 400.893 353.072 400.28 356.112 400.28ZM355.472 405.32C353.659 405.32 352.059 405.827 350.672 406.84C349.286 407.853 348.166 409.16 347.312 410.76C346.459 412.307 345.872 413.907 345.552 415.56H363.792C363.899 412.253 363.206 409.72 361.712 407.96C360.219 406.2 358.139 405.32 355.472 405.32ZM381.964 400.52C382.924 402.867 383.537 405.347 383.804 407.96C385.19 405.773 387.057 403.987 389.404 402.6C391.75 401.213 394.23 400.52 396.844 400.52L395.244 407.56C392.684 407.56 390.497 408.227 388.684 409.56C386.924 410.893 385.35 412.573 383.964 414.6V441H377.324V412.2C377.324 410.653 377.11 408.813 376.684 406.68C376.31 404.493 375.67 402.733 374.764 401.4L381.964 400.52ZM417.134 400.28C421.934 400.28 425.561 401.72 428.014 404.6C430.521 407.427 431.774 411.16 431.774 415.8C431.774 416.547 431.721 417.32 431.614 418.12C431.561 418.867 431.481 419.667 431.374 420.52H406.094C406.094 425.587 407.214 429.507 409.454 432.28C411.694 435.053 414.681 436.44 418.414 436.44C421.454 436.44 424.814 435.48 428.494 433.56L430.974 437.56C429.108 439.053 427.001 440.173 424.654 440.92C422.308 441.667 419.934 442.04 417.534 442.04C413.374 442.04 409.908 441.053 407.134 439.08C404.414 437.107 402.388 434.547 401.054 431.4C399.721 428.253 399.054 424.973 399.054 421.56C399.054 418.893 399.428 416.307 400.174 413.8C400.921 411.293 402.041 409.027 403.534 407C405.081 404.92 406.974 403.293 409.214 402.12C411.454 400.893 414.094 400.28 417.134 400.28ZM416.494 405.32C414.681 405.32 413.081 405.827 411.694 406.84C410.308 407.853 409.188 409.16 408.334 410.76C407.481 412.307 406.894 413.907 406.574 415.56H424.814C424.921 412.253 424.228 409.72 422.734 407.96C421.241 406.2 419.161 405.32 416.494 405.32Z" fill="white"/>
</svg>
