<svg width="4001" height="4001" viewBox="0 0 4001 4001" fill="none" xmlns="http://www.w3.org/2000/svg">
<path d="M3798.96 2419.76C3798.96 2844.57 3578.19 3026.72 3385.57 3314.98C3173.89 3631.76 2631.97 3583.77 2296.72 3583.77C1927.05 3583.77 1455.44 3690.24 1243.15 3314.98C1087.73 3040.27 880.201 2573.03 880.201 2196.17C880.201 2042.23 1078.28 1774 1147.64 1641.79C1277.34 1394.52 1269.73 1073.5 1404.29 883.542C1498.97 749.89 1794.31 743.843 1908.8 599.447C2048.53 423.209 2119.18 330.005 2296.72 330.005C2473.51 330.005 2656.88 623.979 2820.82 801.996C2967.76 961.556 3285.51 1139.57 3385.57 1289.3C3479.8 1430.33 3564.99 1697.25 3637.33 1837.76C3712.85 1984.46 3798.96 2202.79 3798.96 2419.76Z" fill="url(#paint0_radial)"/>
<path d="M3310.29 2847.7C3310.29 3071.86 3163.49 3167.97 3035.41 3320.07C2894.66 3487.22 2534.33 3461.9 2311.41 3461.9C2065.61 3461.9 1752.02 3518.08 1610.86 3320.07C1507.52 3175.12 1369.53 2928.58 1369.53 2729.72C1369.53 2648.49 1501.24 2506.96 1547.35 2437.2C1633.6 2306.72 1628.54 2137.33 1718.01 2037.1C1780.97 1966.58 1977.34 1963.39 2053.47 1887.19C2146.39 1794.2 2193.36 1745.02 2311.41 1745.02C2428.96 1745.02 2550.89 1900.14 2659.9 1994.07C2757.6 2078.27 2968.89 2172.2 3035.41 2251.2C3098.08 2325.62 3154.72 2466.46 3202.82 2540.6C3253.03 2618.01 3310.29 2733.21 3310.29 2847.7Z" fill="url(#paint1_radial)"/>
<g filter="url(#filter0_b)">
<path d="M2672.6 2855.24C2672.6 2886.39 2650.86 2899.74 2631.9 2920.88C2611.06 2944.11 2557.72 2940.59 2524.71 2940.59C2488.32 2940.59 2441.9 2948.4 2421 2920.88C2405.7 2900.74 2385.27 2866.48 2385.27 2838.84C2385.27 2827.56 2404.77 2807.89 2411.6 2798.19C2424.37 2780.06 2423.62 2756.52 2436.86 2742.6C2446.18 2732.8 2475.26 2732.35 2486.53 2721.77C2500.28 2708.84 2507.24 2702.01 2524.71 2702.01C2542.12 2702.01 2560.17 2723.56 2576.31 2736.62C2590.77 2748.32 2622.05 2761.37 2631.9 2772.35C2641.18 2782.69 2649.57 2802.26 2656.69 2812.56C2664.12 2823.32 2672.6 2839.33 2672.6 2855.24Z" fill="url(#paint2_radial)"/>
<path d="M2478.13 2835.84C2474.76 2833.3 2474.35 2828.74 2477.22 2825.65L2513.11 2786.86C2515.98 2783.77 2521.02 2783.32 2524.39 2785.85C2527.76 2788.39 2528.16 2792.95 2525.3 2796.05L2489.41 2834.83C2486.54 2837.93 2481.49 2838.38 2478.13 2835.84Z" fill="#6C4C39"/>
<path d="M2515.32 2845.2C2511 2844.43 2508.19 2840.32 2509.04 2836.02L2518.54 2787.64C2519.39 2783.34 2523.57 2780.48 2527.88 2781.25C2532.2 2782.02 2535.01 2786.13 2534.17 2790.44L2524.66 2838.82C2523.81 2843.12 2519.63 2845.98 2515.32 2845.2Z" fill="#6C4C39"/>
<path d="M2556.65 2843.24C2552.73 2845.02 2547.86 2843.4 2545.78 2839.64L2521.03 2795.03C2518.94 2791.26 2520.43 2786.78 2524.35 2785.01C2528.27 2783.24 2533.14 2784.85 2535.23 2788.61L2559.98 2833.22C2562.06 2836.99 2560.58 2841.47 2556.65 2843.24Z" fill="#6C4C39"/>
<path d="M2586.47 2828.53C2583.69 2831.59 2578.75 2832.09 2575.42 2829.64L2531.55 2797.34C2528.22 2794.89 2527.77 2790.42 2530.55 2787.35C2533.32 2784.29 2538.26 2783.79 2541.59 2786.24L2585.46 2818.54C2588.79 2820.99 2589.24 2825.46 2586.47 2828.53Z" fill="#6C4C39"/>
<path d="M2589.67 2766.77C2589.67 2797.15 2566.88 2810.79 2529.8 2810.79C2492.72 2810.79 2467.83 2790.73 2467.83 2760.34C2467.83 2752.83 2466.09 2744.16 2467.83 2734.56C2471.74 2754.6 2491.62 2749.69 2493.11 2752.51C2493.11 2746.49 2500.75 2719.83 2504.4 2704.82C2507.48 2721.3 2529.21 2742.34 2531.38 2746.71C2534.18 2739.39 2552.07 2734.56 2557.95 2705.81C2560.98 2690.99 2565.04 2752.51 2565.04 2758.14C2576.34 2746.19 2584.02 2747.35 2591.77 2734.56C2593.96 2744.37 2589.67 2759.25 2589.67 2766.77Z" fill="#F3722C"/>
<path d="M2565.47 2779.62C2565.47 2795.37 2551.88 2802.44 2529.77 2802.44C2507.65 2802.44 2492.81 2792.04 2492.81 2776.29C2492.81 2772.39 2491.77 2767.9 2492.81 2762.92C2495.14 2773.31 2507 2770.76 2507.89 2772.22C2507.89 2769.11 2512.44 2755.28 2514.62 2747.5C2516.46 2756.04 2529.42 2766.95 2530.71 2769.22C2532.38 2765.42 2543.05 2762.92 2546.56 2748.01C2548.36 2740.32 2550.79 2772.22 2550.79 2775.15C2557.52 2768.95 2562.1 2769.55 2566.73 2762.92C2568.03 2768.01 2565.47 2775.72 2565.47 2779.62Z" fill="#F9C74F"/>
<path fill-rule="evenodd" clip-rule="evenodd" d="M2504.25 2668.44C2506.54 2663.68 2506.41 2658.11 2503.91 2653.46L2501.84 2649.58C2499.31 2644.88 2498.49 2639.46 2499.5 2634.22L2501.29 2625L2507.79 2626.26L2506 2635.48C2505.28 2639.22 2505.87 2643.1 2507.67 2646.45L2509.75 2650.32C2513.25 2656.84 2513.42 2664.64 2510.23 2671.31L2509.65 2672.5C2508.07 2675.8 2507.63 2679.54 2508.4 2683.13L2509.3 2687.32L2502.82 2688.71L2501.92 2684.52C2500.84 2679.5 2501.46 2674.26 2503.68 2669.63L2504.25 2668.44Z" fill="#B0AFAF"/>
<path fill-rule="evenodd" clip-rule="evenodd" d="M2528.42 2654.93C2530.7 2650.17 2530.57 2644.6 2528.08 2639.95L2526 2636.08C2523.47 2631.37 2522.65 2625.95 2523.67 2620.71L2525.45 2611.49L2531.95 2612.75L2530.17 2621.97C2529.44 2625.71 2530.03 2629.59 2531.83 2632.94L2533.91 2636.81C2537.41 2643.33 2537.59 2651.13 2534.39 2657.8L2533.82 2658.99C2532.23 2662.29 2531.79 2666.03 2532.56 2669.62L2533.46 2673.81L2526.98 2675.2L2526.08 2671.01C2525.01 2665.99 2525.63 2660.75 2527.85 2656.12L2528.42 2654.93Z" fill="#B0AFAF"/>
<path fill-rule="evenodd" clip-rule="evenodd" d="M2551.87 2674.05C2554.33 2669.14 2554.19 2663.34 2551.51 2658.55L2549.69 2655.29C2546.98 2650.46 2546.09 2644.81 2547.19 2639.37L2548.98 2630.54L2555.47 2631.85L2553.68 2640.69C2552.9 2644.57 2553.53 2648.6 2555.46 2652.06L2557.29 2655.31C2561.04 2662.02 2561.23 2670.14 2557.8 2677.01L2557.52 2677.57C2555.81 2680.98 2555.33 2684.88 2556.17 2688.6L2557.03 2692.45L2550.57 2693.9L2549.7 2690.05C2548.54 2684.84 2549.2 2679.38 2551.59 2674.61L2551.87 2674.05Z" fill="#B0AFAF"/>
</g>
<path d="M2385.27 2587.28H2671.98V2909.74H2385.27V2587.28Z" fill="#0B1110" fill-opacity="0.29"/>
<path d="M2221.28 2485.15C2228.19 2469.21 2250.81 2469.21 2257.73 2485.15L2514.79 3077.97C2520.48 3091.09 2510.87 3105.74 2496.57 3105.74H1982.43C1968.13 3105.74 1958.52 3091.09 1964.21 3077.97L2221.28 2485.15Z" fill="url(#paint3_linear)"/>
<path d="M2374.01 2412.92C2374.01 2486.67 2312.5 2546.46 2236.62 2546.46C2160.74 2546.46 2099.23 2486.67 2099.23 2412.92C2099.23 2339.16 2160.74 2279.37 2236.62 2279.37C2312.5 2279.37 2374.01 2339.16 2374.01 2412.92Z" fill="#746F71"/>
<path d="M2556.68 2387.55C2566.74 2397.28 2567.17 2413.26 2557.64 2423.51L2329.2 2669.29C2307.84 2692.26 2269.49 2675.42 2271.94 2644.15L2274.8 2607.86C2275.49 2599.03 2279.69 2590.85 2286.47 2585.14L2522.27 2386.38C2532.34 2377.88 2547.21 2378.39 2556.68 2387.55Z" fill="url(#paint4_linear)"/>
<path d="M1896.44 2405.28C1890.05 2416.37 1892.39 2430.43 1902.03 2438.85L2157.66 2661.97C2182.06 2683.26 2219.37 2660.47 2211.56 2629.04L2200.89 2586.06C2198.91 2578.1 2194.05 2571.16 2187.25 2566.57L1934.62 2396.44C1921.74 2387.77 1904.2 2391.83 1896.44 2405.28Z" fill="url(#paint5_linear)"/>
<path d="M1892.75 2376.54C1899.79 2395.81 1883.19 2415.43 1863.02 2411.67L1718.68 2384.78C1698.7 2381.06 1690.18 2357.15 1703.31 2341.63L1797.24 2230.63C1810.36 2215.11 1835.35 2219.55 1842.33 2238.64L1892.75 2376.54Z" fill="url(#paint6_diamond)"/>
<path d="M2591.71 2389.68C2571.56 2393.55 2554.85 2374.02 2561.79 2354.71L2611.45 2216.53C2618.32 2197.41 2643.29 2192.83 2656.5 2208.27L2751.03 2318.76C2764.25 2334.2 2755.86 2358.16 2735.9 2361.99L2591.71 2389.68Z" fill="url(#paint7_diamond)"/>
<path d="M0.218098 2527.96L1209.98 2263.2L1015.07 2446.29L1227.56 2351.28L1327.28 2765.32L1145.46 2764.6L1327.42 2799.78L117.652 3064.55L171.448 3022.1L116.988 3037.63L166.748 2944.79L100.949 2988.3L21.694 2568.36L196.398 2528.74L0.218098 2527.96Z" fill="#606863"/>
<path fill-rule="evenodd" clip-rule="evenodd" d="M1209.98 2263.2L0.218098 2527.96L196.398 2528.74L21.694 2568.36L100.949 2988.3L166.748 2944.79L116.988 3037.63L171.448 3022.1L117.652 3064.55L1327.42 2799.78L1145.46 2764.6L1327.28 2765.32L1227.56 2351.28L1015.07 2446.29L1209.98 2263.2ZM1227.1 2352.21L1015.34 2446.9L1014.62 2445.81L1207.78 2264.36L6.23081 2527.32L196.4 2528.08L196.544 2529.39L22.463 2568.86L101.415 2987.2L166.383 2944.24L167.332 2945.1L118.31 3036.56L171.266 3021.46L171.858 3022.62L120.32 3063.28L1324.14 2799.82L1145.34 2765.25L1145.46 2763.93L1326.44 2764.66L1227.1 2352.21Z" fill="black"/>
<path d="M668.688 2899.51L756.993 2880.49L907.376 3578.77L819.071 3597.78L668.688 2899.51Z" fill="url(#paint8_linear)"/>
<g filter="url(#filter1_d)">
<path d="M469.367 2564.84L460.589 2566.76L453.893 2536.15L420.509 2543.45L427.206 2574.06L418.473 2575.97L403.986 2509.75L412.719 2507.84L418.947 2536.31L452.331 2529.01L446.102 2500.54L454.88 2498.62L469.367 2564.84Z" fill="#FDFFFC"/>
<path d="M515.612 2522.65L486.913 2528.93L492.047 2552.4L525.385 2545.1L526.947 2552.24L484.877 2561.45L470.39 2495.23L512.006 2486.12L513.578 2493.31L480.694 2500.5L485.351 2521.79L514.05 2515.51L515.612 2522.65Z" fill="#FDFFFC"/>
<path d="M556.244 2517.76L540.69 2521.17L546.55 2547.96L537.772 2549.88L523.285 2483.65L545.207 2478.86C552.666 2477.23 558.768 2477.67 563.514 2480.19C568.289 2482.7 571.387 2487.21 572.807 2493.69C573.709 2497.82 573.373 2501.66 571.799 2505.21C570.256 2508.76 567.664 2511.72 564.023 2514.11L585.727 2538.81L585.846 2539.36L576.477 2541.41L556.244 2517.76ZM539.127 2514.03L552.545 2511.09C556.881 2510.14 560.077 2508.27 562.133 2505.47C564.219 2502.66 564.851 2499.37 564.029 2495.61C563.133 2491.52 561.219 2488.65 558.285 2487.01C555.382 2485.35 551.622 2485.02 547.007 2485.99L533.635 2488.92L539.127 2514.03Z" fill="#FDFFFC"/>
<path d="M618.32 2532.25L603.833 2466.03L625.483 2461.3C632.669 2459.72 638.391 2460.03 642.649 2462.21C646.938 2464.39 649.719 2468.39 650.993 2474.21C651.669 2477.3 651.39 2480.24 650.156 2483.02C648.914 2485.77 646.92 2488.12 644.173 2490.09C647.97 2490.31 651.208 2491.6 653.887 2493.97C656.589 2496.3 658.365 2499.41 659.214 2503.29C660.514 2509.23 659.61 2514.32 656.502 2518.56C653.395 2522.8 648.323 2525.69 641.289 2527.23L618.32 2532.25ZM620.277 2499.37L625.491 2523.2L639.909 2520.05C643.972 2519.16 646.942 2517.41 648.819 2514.81C650.719 2512.17 651.265 2509 650.456 2505.3C648.711 2497.33 643.503 2494.29 634.831 2496.19L620.277 2499.37ZM618.745 2492.37L631.935 2489.48C635.755 2488.65 638.593 2487.02 640.45 2484.62C642.336 2482.2 642.921 2479.36 642.205 2476.08C641.409 2472.44 639.77 2470.04 637.29 2468.86C634.802 2467.66 631.391 2467.53 627.055 2468.48L614.138 2471.31L618.745 2492.37Z" fill="#FDFFFC"/>
<path d="M720.519 2477.44C721.939 2483.93 722.087 2489.84 720.966 2495.17C719.837 2500.47 717.55 2504.83 714.105 2508.25C710.66 2511.67 706.269 2513.97 700.933 2515.13C695.717 2516.28 690.815 2516.01 686.225 2514.35C681.628 2512.65 677.691 2509.69 674.412 2505.45C671.157 2501.17 668.816 2495.92 667.389 2489.68L666.344 2484.91C664.951 2478.54 664.828 2472.67 665.973 2467.31C667.119 2461.94 669.426 2457.53 672.895 2454.07C676.387 2450.57 680.741 2448.25 685.957 2447.11C691.263 2445.95 696.214 2446.22 700.811 2447.91C705.431 2449.57 709.367 2452.6 712.618 2457.01C715.862 2461.38 718.191 2466.8 719.604 2473.26L720.519 2477.44ZM710.897 2475.07C709.179 2467.21 706.285 2461.54 702.217 2458.04C698.141 2454.52 693.268 2453.38 687.598 2454.62C682.08 2455.83 678.19 2458.88 675.928 2463.8C673.69 2468.67 673.341 2474.85 674.882 2482.33L675.947 2487.19C677.612 2494.8 680.514 2500.44 684.653 2504.11C688.815 2507.75 693.701 2508.95 699.311 2507.72C704.951 2506.49 708.869 2503.49 711.066 2498.72C713.257 2493.92 713.559 2487.67 711.971 2479.98L710.897 2475.07Z" fill="#FDFFFC"/>
<path d="M758.821 2473.45L743.266 2476.85L749.126 2503.64L740.348 2505.56L725.861 2439.34L747.783 2434.54C755.242 2432.91 761.345 2433.35 766.09 2435.87C770.866 2438.39 773.963 2442.89 775.383 2449.38C776.285 2453.5 775.949 2457.34 774.375 2460.89C772.832 2464.44 770.24 2467.41 766.599 2469.79L788.303 2494.5L788.423 2495.04L779.053 2497.09L758.821 2473.45ZM741.704 2469.71L755.121 2466.77C759.457 2465.82 762.653 2463.95 764.709 2461.15C766.795 2458.34 767.427 2455.06 766.605 2451.3C765.709 2447.2 763.795 2444.34 760.861 2442.69C757.958 2441.04 754.198 2440.7 749.583 2441.68L736.211 2444.6L741.704 2469.71Z" fill="#FDFFFC"/>
</g>
<g filter="url(#filter2_d)">
<path d="M160.067 2687.3L208.86 2769.35C210.533 2772.24 212.13 2775.08 213.652 2777.87C215.146 2780.54 216.77 2783.5 218.525 2786.76C218.812 2783.31 219.043 2780.2 219.217 2777.43C219.365 2774.54 219.623 2771.55 219.991 2768.48L231.191 2671.55L246.094 2668.29L228.981 2814.93L218.176 2817.29L141.624 2691.34L160.067 2687.3Z" fill="#FDFFFC"/>
<path d="M324.67 2744.99L291.323 2752.29L280.193 2803.14L264.358 2806.6L293.412 2670.82L288.155 2659.28L371.614 2641.02L374.385 2653.69L325.018 2664.49L335.206 2711.06L378.799 2701.53L381.733 2714.94L338.141 2724.48L349.022 2774.22L398.39 2763.42L401.284 2776.65L334.777 2791.19L324.67 2744.99ZM294.35 2737.57L321.735 2731.58L308.653 2671.78L294.35 2737.57Z" fill="#FDFFFC"/>
<path d="M391.724 2636.62L432.149 2627.78C440.719 2625.91 448.726 2625.33 456.17 2626.04C463.587 2626.63 469.88 2629.22 475.05 2633.82C480.343 2638.38 484.05 2645.51 486.169 2655.2C487.256 2660.17 487.122 2665.21 485.768 2670.32C484.413 2675.43 482.129 2680.16 478.916 2684.51C475.799 2688.7 472.045 2692.06 467.651 2694.58L519.756 2750.73L499.637 2755.13L451.286 2701.87L428 2706.97L441.327 2767.89L424.001 2771.68L397.022 2648.35L391.724 2636.62ZM414.469 2645.12L425.228 2694.3L440.132 2691.04C446.342 2689.68 451.781 2687.77 456.45 2685.32C461.216 2682.72 464.682 2679.23 466.847 2674.85C469.013 2670.47 469.349 2664.87 467.854 2658.04C466.686 2652.69 464.431 2648.63 461.089 2645.85C457.72 2642.94 453.734 2641.08 449.131 2640.27C444.528 2639.45 439.805 2639.57 434.961 2640.63L414.469 2645.12Z" fill="#FDFFFC"/>
<path d="M554.377 2599.09C559.221 2598.03 564.497 2597.46 570.206 2597.38C576.012 2597.15 581.719 2597.66 587.328 2598.91C593.033 2600 598.018 2601.97 602.284 2604.81L594.937 2618.52C590.408 2616.26 586.249 2614.5 582.461 2613.25C578.673 2611.99 574.807 2611.28 570.864 2611.1C567.045 2610.89 562.528 2611.36 557.311 2612.5C549.114 2614.3 542.499 2617.37 537.465 2621.72C532.556 2626.05 528.884 2631.28 526.451 2637.41C524.142 2643.51 522.913 2650.09 522.766 2657.15C522.619 2664.21 523.333 2671.34 524.909 2678.54C526.403 2685.37 528.629 2691.98 531.587 2698.36C534.517 2704.62 538.256 2710.11 542.805 2714.84C547.354 2719.57 552.714 2722.96 558.885 2724.99C565.056 2727.02 572.116 2727.17 580.064 2725.43C586.647 2723.99 591.985 2721.33 596.08 2717.44C600.271 2713.4 603.128 2708.61 604.649 2703.07C606.267 2697.38 606.384 2691.37 604.998 2685.03L602.308 2672.74L568.962 2680.03L568.426 2666.88L617.048 2656.24L625.566 2695.17C626.68 2700.27 627.994 2705.38 629.508 2710.52C631.146 2715.62 632.646 2720.7 634.008 2725.73L624.693 2727.77L615.635 2714.92C611.447 2721.95 606.472 2727.46 600.708 2731.46C595.042 2735.3 588.172 2738.1 580.099 2739.87C570.288 2742.02 561.324 2742.09 553.209 2740.09C545.191 2737.94 538.067 2734.23 531.837 2728.95C525.581 2723.56 520.376 2717.02 516.223 2709.34C512.07 2701.65 509.002 2693.28 507.019 2684.21C504.112 2670.93 503.787 2658.44 506.046 2646.75C508.402 2634.91 513.544 2624.81 521.473 2616.44C529.375 2607.94 540.343 2602.16 554.377 2599.09Z" fill="#FDFFFC"/>
<path d="M646.633 2580.86L666.358 2671.02C668.668 2681.58 673.124 2689.46 679.725 2694.65C686.327 2699.84 695.217 2701.22 706.395 2698.77C717.945 2696.24 725.878 2690.86 730.193 2682.63C734.633 2674.37 735.644 2664.72 733.226 2653.66L714.071 2566.11L728.416 2562.97L747.571 2650.53C751.021 2666.3 749.316 2679.62 742.454 2690.49C735.689 2701.21 724.359 2708.31 708.462 2711.79C692.937 2715.18 679.945 2713.8 669.485 2707.63C659.025 2701.45 652.084 2690.54 648.66 2674.9L631.625 2597.03L626.141 2585.34L646.633 2580.86Z" fill="#FDFFFC"/>
<path d="M879.332 2601.4C882.185 2614.44 882.49 2626.54 880.247 2637.7C878.101 2648.71 873.133 2658.13 865.344 2665.95C857.555 2673.77 846.643 2679.22 832.609 2682.29L788.457 2691.94L761.477 2568.62C761.45 2568.49 760.985 2567.55 760.08 2565.8C759.3 2564.02 758.506 2562.18 757.699 2560.27C756.892 2558.36 756.385 2557.24 756.18 2556.89L791.017 2549.27C806.168 2545.96 819.712 2545.4 831.646 2547.61C843.553 2549.69 853.588 2555.1 861.75 2563.86C869.885 2572.49 875.746 2585 879.332 2601.4ZM861.181 2604.98C856.888 2585.36 848.974 2572.38 837.439 2566.06C826.001 2559.58 811.03 2558.36 792.525 2562.41L778.925 2565.39L802.97 2675.3L827.561 2669.92C838.863 2667.45 847.262 2663.01 852.757 2656.6C858.377 2650.17 861.705 2642.47 862.741 2633.53C863.901 2624.56 863.381 2615.04 861.181 2604.98Z" fill="#FDFFFC"/>
<path d="M884.577 2528.8L965.987 2510.99L968.799 2523.85L907.322 2537.3L917.552 2584.06L965.243 2573.62L968.014 2586.29L920.323 2596.73L931.368 2647.21L992.844 2633.76L995.657 2646.62L916.854 2663.86L889.875 2540.53L884.577 2528.8Z" fill="#FDFFFC"/>
<path d="M1008.24 2501.75L1087.41 2579.89C1088.91 2581.38 1090.5 2582.99 1092.18 2584.7C1093.83 2586.29 1095.46 2587.82 1097.08 2589.29C1096.5 2587.21 1095.91 2585.12 1095.33 2583.04C1094.71 2580.83 1094.19 2578.73 1093.75 2576.74L1074.19 2487.32L1088.35 2484.23L1118.22 2620.78L1107.23 2623.18L1014.97 2532.49C1013.62 2531.09 1012.14 2529.66 1010.51 2528.19C1008.99 2526.57 1007.43 2525.09 1005.83 2523.75C1007.05 2527.52 1008.12 2531.51 1009.04 2535.74L1031.58 2638.76L1017.42 2641.85L990.441 2518.53L985.143 2506.8L1008.24 2501.75Z" fill="#FDFFFC"/>
</g>
<g filter="url(#filter3_d)">
<path d="M447.711 2805.97L534.71 2786.93L537.441 2799.41L491.149 2925.11L563.99 2909.17L565.311 2922.35L473.282 2942.48L470.552 2930L516.844 2804.31L450.523 2818.82L447.711 2805.97Z" fill="#FDFFFC"/>
<path d="M603.506 2771.88L680.122 2897.23L660.934 2901.43L635.096 2858.28L590.386 2868.06L584.74 2918.1L569.091 2921.52L586.554 2775.59L603.506 2771.88ZM598.419 2796.81L591.899 2854.46L628.04 2846.55L598.419 2796.81Z" fill="#FDFFFC"/>
<path d="M752.696 2772.24C753.702 2776.83 753.748 2781.51 752.836 2786.26C752.021 2790.86 750.215 2795.1 747.416 2798.96C744.715 2802.68 741.038 2805.5 736.384 2807.43C745.874 2806.78 753.912 2809.32 760.498 2815.04C767.057 2820.63 771.329 2827.96 773.312 2837.02C775.078 2845.1 775.028 2852.01 773.161 2857.75C771.267 2863.37 768.073 2868.1 763.579 2871.95C759.057 2875.67 753.738 2878.72 747.621 2881.1C741.478 2883.36 735.115 2885.2 728.532 2886.64L691.646 2894.71L664.666 2771.39C664.639 2771.26 664.173 2770.32 663.269 2768.57C662.489 2766.79 661.695 2764.94 660.888 2763.04C660.081 2761.13 659.574 2760.01 659.368 2759.66L704.638 2749.76C711.717 2748.21 718.552 2747.63 725.142 2748.01C731.856 2748.36 737.641 2750.41 742.496 2754.16C747.449 2757.77 750.849 2763.79 752.696 2772.24ZM734.707 2776.56C733.62 2771.59 731.66 2767.99 728.827 2765.74C726.118 2763.47 722.84 2762.17 718.994 2761.84C715.148 2761.51 711.114 2761.81 706.891 2762.73L682.114 2768.16L691.569 2811.38L711.503 2807.01C720.196 2805.11 726.709 2801.87 731.04 2797.27C735.468 2792.53 736.691 2785.63 734.707 2776.56ZM754.258 2838.26C752.872 2831.93 750.095 2827.27 745.926 2824.28C741.855 2821.13 737.035 2819.32 731.465 2818.85C725.993 2818.23 720.524 2818.51 715.06 2819.71L694.381 2824.23L706.159 2878.07L726.838 2873.54C733.42 2872.1 739.032 2870.1 743.674 2867.52C748.413 2864.79 751.762 2861.06 753.722 2856.34C755.682 2851.62 755.861 2845.59 754.258 2838.26Z" fill="#FDFFFC"/>
<path d="M851.796 2861.82C841.736 2864.03 832.511 2864.09 824.12 2862.02C815.853 2859.93 808.529 2856.19 802.148 2850.82C795.741 2845.33 790.385 2838.69 786.08 2830.91C781.776 2823.13 778.605 2814.59 776.567 2805.27C774.529 2795.96 773.78 2786.88 774.32 2778.05C774.956 2769.06 777.052 2760.79 780.607 2753.25C784.134 2745.58 789.279 2739.05 796.04 2733.67C802.8 2728.28 811.273 2724.48 821.457 2722.25C831.641 2720.02 840.867 2719.96 849.133 2722.05C857.524 2724.12 864.924 2727.9 871.332 2733.4C877.712 2738.77 883.006 2745.42 887.214 2753.35C891.518 2761.13 894.689 2769.67 896.727 2778.99C898.764 2788.3 899.465 2797.45 898.829 2806.44C898.165 2815.31 896.056 2823.51 892.501 2831.06C888.946 2838.6 883.788 2845.07 877.027 2850.45C870.39 2855.8 861.98 2859.6 851.796 2861.82ZM849.211 2849.12C857.16 2847.38 863.437 2844.25 868.044 2839.73C872.651 2835.2 875.958 2829.8 877.964 2823.5C879.97 2817.2 880.923 2810.55 880.822 2803.55C880.845 2796.52 880.123 2789.65 878.656 2782.94C877.189 2776.23 874.977 2769.69 872.019 2763.31C869.186 2756.9 865.557 2751.32 861.132 2746.56C856.681 2741.68 851.356 2738.16 845.157 2736C839.083 2733.82 832.134 2733.58 824.31 2735.29C816.486 2737 810.208 2740.13 805.477 2744.68C800.87 2749.2 797.563 2754.61 795.557 2760.91C793.675 2767.17 792.722 2773.82 792.699 2780.86C792.8 2787.86 793.584 2794.72 795.051 2801.43C796.518 2808.13 798.668 2814.69 801.502 2821.1C804.432 2827.35 808.061 2832.94 812.389 2837.85C816.84 2842.73 822.103 2846.26 828.177 2848.45C834.375 2850.6 841.387 2850.83 849.211 2849.12Z" fill="#FDFFFC"/>
</g>
<defs>
<filter id="filter0_b" x="2381.27" y="2607.49" width="295.329" height="338.12" filterUnits="userSpaceOnUse" color-interpolation-filters="sRGB">
<feFlood flood-opacity="0" result="BackgroundImageFix"/>
<feGaussianBlur in="BackgroundImage" stdDeviation="2"/>
<feComposite in2="SourceAlpha" operator="in" result="effect1_backgroundBlur"/>
<feBlend mode="normal" in="SourceGraphic" in2="effect1_backgroundBlur" result="shape"/>
</filter>
<filter id="filter1_d" x="399.787" y="2427.91" width="392.835" height="156.973" filterUnits="userSpaceOnUse" color-interpolation-filters="sRGB">
<feFlood flood-opacity="0" result="BackgroundImageFix"/>
<feColorMatrix in="SourceAlpha" type="matrix" values="0 0 0 0 0 0 0 0 0 0 0 0 0 0 0 0 0 0 127 0"/>
<feOffset dy="4"/>
<feGaussianBlur stdDeviation="2"/>
<feColorMatrix type="matrix" values="0 0 0 0 0 0 0 0 0 0 0 0 0 0 0 0 0 0 0.25 0"/>
<feBlend mode="normal" in2="BackgroundImageFix" result="effect1_dropShadow"/>
<feBlend mode="normal" in="SourceGraphic" in2="effect1_dropShadow" result="shape"/>
</filter>
<filter id="filter2_d" x="137.217" y="2482.36" width="985.292" height="354.832" filterUnits="userSpaceOnUse" color-interpolation-filters="sRGB">
<feFlood flood-opacity="0" result="BackgroundImageFix"/>
<feColorMatrix in="SourceAlpha" type="matrix" values="0 0 0 0 0 0 0 0 0 0 0 0 0 0 0 0 0 0 127 0"/>
<feOffset dy="4"/>
<feGaussianBlur stdDeviation="2"/>
<feColorMatrix type="matrix" values="0 0 0 0 0 0 0 0 0 0 0 0 0 0 0 0 0 0 0.25 0"/>
<feBlend mode="normal" in2="BackgroundImageFix" result="effect1_dropShadow"/>
<feBlend mode="normal" in="SourceGraphic" in2="effect1_dropShadow" result="shape"/>
</filter>
<filter id="filter3_d" x="439.205" y="2709.13" width="476.764" height="243.406" filterUnits="userSpaceOnUse" color-interpolation-filters="sRGB">
<feFlood flood-opacity="0" result="BackgroundImageFix"/>
<feColorMatrix in="SourceAlpha" type="matrix" values="0 0 0 0 0 0 0 0 0 0 0 0 0 0 0 0 0 0 127 0"/>
<feOffset dy="4"/>
<feGaussianBlur stdDeviation="2"/>
<feColorMatrix type="matrix" values="0 0 0 0 0 0 0 0 0 0 0 0 0 0 0 0 0 0 0.25 0"/>
<feBlend mode="normal" in2="BackgroundImageFix" result="effect1_dropShadow"/>
<feBlend mode="normal" in="SourceGraphic" in2="effect1_dropShadow" result="shape"/>
</filter>
<radialGradient id="paint0_radial" cx="0" cy="0" r="1" gradientUnits="userSpaceOnUse" gradientTransform="translate(2339.58 -398.261) rotate(89.2193) scale(6389.31 5708.38)">
<stop stop-color="#323031"/>
<stop offset="1" stop-color="#4D908E"/>
</radialGradient>
<radialGradient id="paint1_radial" cx="0" cy="0" r="1" gradientUnits="userSpaceOnUse" gradientTransform="translate(2339.91 2607.14) rotate(88.4393) scale(2125.46 2392.35)">
<stop/>
<stop offset="1" stop-opacity="0"/>
</radialGradient>
<radialGradient id="paint2_radial" cx="0" cy="0" r="1" gradientUnits="userSpaceOnUse" gradientTransform="translate(2528.93 2821.81) rotate(90) scale(156.664 187.79)">
<stop stop-color="#EBC84D"/>
<stop offset="0.390625" stop-color="#776527" stop-opacity="0.505208"/>
<stop offset="0.739583" stop-opacity="0"/>
</radialGradient>
<linearGradient id="paint3_linear" x1="2239.5" y1="2443.13" x2="2239.5" y2="3117.8" gradientUnits="userSpaceOnUse">
<stop stop-color="#958E91"/>
<stop offset="1" stop-color="#454141" stop-opacity="0"/>
</linearGradient>
<linearGradient id="paint4_linear" x1="2481.94" y1="2489.46" x2="2340.7" y2="2639.34" gradientUnits="userSpaceOnUse">
<stop stop-color="#958E91"/>
<stop offset="1" stop-color="#454141" stop-opacity="0"/>
</linearGradient>
<linearGradient id="paint5_linear" x1="1881.45" y1="2409.71" x2="2221.57" y2="2628.77" gradientUnits="userSpaceOnUse">
<stop offset="0.106789" stop-color="#958E91"/>
<stop offset="1" stop-color="#454141" stop-opacity="0"/>
</linearGradient>
<radialGradient id="paint6_diamond" cx="0" cy="0" r="1" gradientUnits="userSpaceOnUse" gradientTransform="translate(1882.73 2455.51) rotate(-127.577) scale(259.428 249.177)">
<stop stop-color="#958E91"/>
<stop stop-color="#C4C4C4" stop-opacity="0.407498"/>
<stop offset="1" stop-color="#C4C4C4" stop-opacity="0"/>
</radialGradient>
<radialGradient id="paint7_diamond" cx="0" cy="0" r="1" gradientUnits="userSpaceOnUse" gradientTransform="translate(2515.36 2367.15) rotate(-24.1906) scale(240.01 230.526)">
<stop stop-color="#958E91"/>
<stop stop-color="#C4C4C4" stop-opacity="0.407498"/>
<stop offset="1" stop-color="#C4C4C4" stop-opacity="0"/>
</radialGradient>
<linearGradient id="paint8_linear" x1="733.834" y1="3187.7" x2="788.161" y2="3597.62" gradientUnits="userSpaceOnUse">
<stop stop-color="#606863"/>
<stop offset="1" stop-color="#E0E0E0"/>
</linearGradient>
</defs>
</svg>
