<svg width="4001" height="4001" viewBox="0 0 4001 4001" fill="none" xmlns="http://www.w3.org/2000/svg">
<rect x="1398.67" y="2833.66" width="38.3243" height="1354.24" rx="19.1622" transform="rotate(-77.3603 1398.67 2833.66)" fill="#F9C74F"/>
<rect x="1361.43" y="3080.87" width="523.495" height="30.3716" rx="15.1858" transform="rotate(-83.5289 1361.43 3080.87)" fill="#F9C74F"/>
<rect x="1381.75" y="3083.07" width="120.44" height="9.42872" rx="4.71436" transform="rotate(-173.128 1381.75 3083.07)" fill="#F9C74F"/>
<rect x="1394.72" y="2963.61" width="120.44" height="9.42872" rx="4.71436" transform="rotate(-173.128 1394.72 2963.61)" fill="#F9C74F"/>
<rect x="1415.6" y="2752.51" width="120.44" height="9.42872" rx="4.71436" transform="rotate(-173.128 1415.6 2752.51)" fill="#F9C74F"/>
<rect x="1432.42" y="2619.21" width="120.44" height="9.42872" rx="4.71436" transform="rotate(-173.128 1432.42 2619.21)" fill="#F9C74F"/>
<rect x="1388.02" y="3022.55" width="120.44" height="9.42872" rx="4.71436" transform="rotate(-173.128 1388.02 3022.55)" fill="#F9C74F"/>
<rect x="1408.89" y="2811.45" width="120.44" height="9.42872" rx="4.71436" transform="rotate(-173.128 1408.89 2811.45)" fill="#F9C74F"/>
<rect x="1401" y="2903.09" width="120.44" height="9.42872" rx="4.71436" transform="rotate(-173.128 1401 2903.09)" fill="#F9C74F"/>
<rect x="1421.87" y="2691.99" width="120.44" height="9.42872" rx="4.71436" transform="rotate(-173.128 1421.87 2691.99)" fill="#F9C74F"/>
<rect x="1384.58" y="3068.66" width="120.44" height="9.42872" rx="4.71436" transform="rotate(-173.128 1384.58 3068.66)" fill="#F9C74F"/>
<rect x="1397.56" y="2949.2" width="120.44" height="9.42872" rx="4.71436" transform="rotate(-173.128 1397.56 2949.2)" fill="#F9C74F"/>
<rect x="1418.43" y="2738.09" width="120.44" height="9.42872" rx="4.71436" transform="rotate(-173.128 1418.43 2738.09)" fill="#F9C74F"/>
<rect x="1435.25" y="2604.79" width="120.44" height="9.42872" rx="4.71436" transform="rotate(-173.128 1435.25 2604.79)" fill="#F9C74F"/>
<rect x="1390.85" y="3008.14" width="120.44" height="9.42872" rx="4.71436" transform="rotate(-173.128 1390.85 3008.14)" fill="#F9C74F"/>
<rect x="1411.72" y="2797.03" width="120.44" height="9.42872" rx="4.71436" transform="rotate(-173.128 1411.72 2797.03)" fill="#F9C74F"/>
<rect x="1403.83" y="2888.67" width="120.44" height="9.42872" rx="4.71436" transform="rotate(-173.128 1403.83 2888.67)" fill="#F9C74F"/>
<rect x="1424.7" y="2677.57" width="120.44" height="9.42872" rx="4.71436" transform="rotate(-173.128 1424.7 2677.57)" fill="#F9C74F"/>
<rect x="1385.39" y="3053.1" width="120.44" height="9.42872" rx="4.71436" transform="rotate(-173.128 1385.39 3053.1)" fill="#F9C74F"/>
<rect x="1406.26" y="2842" width="120.44" height="9.42872" rx="4.71436" transform="rotate(-173.128 1406.26 2842)" fill="#F9C74F"/>
<rect x="1398.37" y="2933.64" width="120.44" height="9.42872" rx="4.71436" transform="rotate(-173.128 1398.37 2933.64)" fill="#F9C74F"/>
<rect x="1419.24" y="2722.53" width="120.44" height="9.42872" rx="4.71436" transform="rotate(-173.128 1419.24 2722.53)" fill="#F9C74F"/>
<rect x="1436.06" y="2589.23" width="120.44" height="9.42872" rx="4.71436" transform="rotate(-173.128 1436.06 2589.23)" fill="#F9C74F"/>
<rect x="1391.66" y="2992.58" width="120.44" height="9.42872" rx="4.71436" transform="rotate(-173.128 1391.66 2992.58)" fill="#F9C74F"/>
<rect x="1412.53" y="2781.47" width="120.44" height="9.42872" rx="4.71436" transform="rotate(-173.128 1412.53 2781.47)" fill="#F9C74F"/>
<rect x="1404.64" y="2873.12" width="120.44" height="9.42872" rx="4.71436" transform="rotate(-173.128 1404.64 2873.12)" fill="#F9C74F"/>
<rect x="1425.51" y="2662.01" width="120.44" height="9.42872" rx="4.71436" transform="rotate(-173.128 1425.51 2662.01)" fill="#F9C74F"/>
<rect x="1386.2" y="3037.54" width="120.44" height="9.42872" rx="4.71436" transform="rotate(-173.128 1386.2 3037.54)" fill="#F9C74F"/>
<rect x="1407.07" y="2826.44" width="120.44" height="9.42872" rx="4.71436" transform="rotate(-173.128 1407.07 2826.44)" fill="#F9C74F"/>
<rect x="1399.18" y="2918.08" width="120.44" height="9.42872" rx="4.71436" transform="rotate(-173.128 1399.18 2918.08)" fill="#F9C74F"/>
<rect x="1420.05" y="2706.97" width="120.44" height="9.42872" rx="4.71436" transform="rotate(-173.128 1420.05 2706.97)" fill="#F9C74F"/>
<rect x="1442.51" y="2574.35" width="126.123" height="9.42872" rx="4.71436" transform="rotate(-173.128 1442.51 2574.35)" fill="#F9C74F"/>
<rect x="1392.47" y="2977.02" width="120.44" height="9.42872" rx="4.71436" transform="rotate(-173.128 1392.47 2977.02)" fill="#F9C74F"/>
<rect x="1413.34" y="2765.91" width="120.44" height="9.42872" rx="4.71436" transform="rotate(-173.128 1413.34 2765.91)" fill="#F9C74F"/>
<rect x="1430.16" y="2632.61" width="120.44" height="9.42872" rx="4.71436" transform="rotate(-173.128 1430.16 2632.61)" fill="#F9C74F"/>
<rect x="1405.45" y="2857.55" width="120.44" height="9.42872" rx="4.71436" transform="rotate(-173.128 1405.45 2857.55)" fill="#F9C74F"/>
<rect x="1426.32" y="2646.45" width="120.44" height="9.42872" rx="4.71436" transform="rotate(-173.128 1426.32 2646.45)" fill="#F9C74F"/>
<ellipse cx="2137.3" cy="1550.45" rx="194.037" ry="185.58" fill="#90BE6D"/>
<circle cx="2218.58" cy="1528.28" r="20.3235" fill="black"/>
<circle cx="2212.77" cy="1522.48" r="8.71008" fill="white"/>
<circle cx="2059.47" cy="1528.28" r="20.3235" fill="black"/>
<circle cx="2053.67" cy="1522.48" r="8.71008" fill="white"/>
<ellipse cx="2137.28" cy="1400.54" rx="245.624" ry="35.421" fill="#F9C74F"/>
<path d="M1986.89 1268.8C1986.89 1234.9 2019.92 1210.83 2052.2 1221.2L2119.94 1242.99C2129.72 1246.13 2140.22 1246.19 2150.03 1243.16L2224.06 1220.25C2256.23 1210.3 2288.84 1234.34 2288.84 1268.01V1372.02C2288.84 1399.63 2266.45 1422.02 2238.84 1422.02H2036.89C2009.27 1422.02 1986.89 1399.63 1986.89 1372.02V1268.8Z" fill="#F9C74F"/>
<mask id="path-45-inside-1" fill="white">
<path d="M2170.47 1630.53C2170.16 1627.09 2168.84 1623.78 2166.6 1620.78C2164.36 1617.78 2161.23 1615.16 2157.39 1613.05C2153.56 1610.95 2149.09 1609.41 2144.25 1608.52C2139.41 1607.64 2134.29 1607.42 2129.17 1607.88C2124.06 1608.34 2119.06 1609.48 2114.46 1611.22C2109.85 1612.97 2105.74 1615.28 2102.34 1618.04C2098.95 1620.8 2096.34 1623.95 2094.68 1627.3C2093.01 1630.65 2092.31 1634.15 2092.62 1637.59L2131.55 1634.06L2170.47 1630.53Z"/>
</mask>
<path d="M2170.47 1630.53C2170.16 1627.09 2168.84 1623.78 2166.6 1620.78C2164.36 1617.78 2161.23 1615.16 2157.39 1613.05C2153.56 1610.95 2149.09 1609.41 2144.25 1608.52C2139.41 1607.64 2134.29 1607.42 2129.17 1607.88C2124.06 1608.34 2119.06 1609.48 2114.46 1611.22C2109.85 1612.97 2105.74 1615.28 2102.34 1618.04C2098.95 1620.8 2096.34 1623.95 2094.68 1627.3C2093.01 1630.65 2092.31 1634.15 2092.62 1637.59L2131.55 1634.06L2170.47 1630.53Z" fill="black" stroke="black" stroke-width="6" mask="url(#path-45-inside-1)"/>
<mask id="path-46-inside-2" fill="white">
<path d="M2092.95 1634C2093.15 1637.45 2094.36 1640.8 2096.5 1643.87C2098.65 1646.94 2101.69 1649.66 2105.46 1651.89C2109.23 1654.11 2113.64 1655.79 2118.45 1656.83C2123.26 1657.88 2128.38 1658.26 2133.5 1657.96C2138.62 1657.66 2143.66 1656.68 2148.31 1655.09C2152.97 1653.49 2157.16 1651.3 2160.64 1648.66C2164.12 1646.01 2166.82 1642.95 2168.6 1639.65C2170.37 1636.35 2171.18 1632.88 2170.98 1629.43L2131.96 1631.72L2092.95 1634Z"/>
</mask>
<path d="M2092.95 1634C2093.15 1637.45 2094.36 1640.8 2096.5 1643.87C2098.65 1646.94 2101.69 1649.66 2105.46 1651.89C2109.23 1654.11 2113.64 1655.79 2118.45 1656.83C2123.26 1657.88 2128.38 1658.26 2133.5 1657.96C2138.62 1657.66 2143.66 1656.68 2148.31 1655.09C2152.97 1653.49 2157.16 1651.3 2160.64 1648.66C2164.12 1646.01 2166.82 1642.95 2168.6 1639.65C2170.37 1636.35 2171.18 1632.88 2170.98 1629.43L2131.96 1631.72L2092.95 1634Z" fill="black" stroke="black" stroke-width="6" mask="url(#path-46-inside-2)"/>
<line x1="763.494" y1="1907.8" x2="763.494" y2="1891.54" stroke="black"/>
<path d="M377.458 2220.73C373.967 2207.61 376.926 2193.61 385.429 2183.01L748.048 1731.34C781.585 1689.56 848.438 1722.64 835.574 1774.64L811.692 1871.19C809.481 1880.13 804.846 1888.28 798.298 1894.75L448.758 2240.14C425.425 2263.19 385.89 2252.43 377.458 2220.73V2220.73Z" fill="#F94144"/>
<ellipse cx="790.176" cy="1550.09" rx="194.037" ry="188.366" fill="#F94144"/>
<path d="M719.494 1763.03C746.298 1701.19 833.986 1701.19 860.79 1763.03L1149.32 2428.64C1171.36 2479.49 1134.09 2536.27 1078.68 2536.27H501.608C446.191 2536.27 408.919 2479.49 430.96 2428.64L719.494 1763.03Z" fill="#F94144"/>
<path d="M866.193 1609.92C866.193 1603.44 864.225 1597.02 860.402 1591.03C856.58 1585.04 850.976 1579.6 843.913 1575.02C836.849 1570.43 828.464 1566.8 819.235 1564.32C810.006 1561.84 800.114 1560.56 790.125 1560.56C780.135 1560.56 770.244 1561.84 761.015 1564.32C751.786 1566.8 743.4 1570.43 736.336 1575.02C729.273 1579.6 723.67 1585.04 719.847 1591.03C716.024 1597.02 714.057 1603.44 714.057 1609.92L790.125 1609.92H866.193Z" fill="#773E1E"/>
<path d="M778.753 1515.85C778.753 1539.66 758.681 1559.06 733.799 1559.06C708.918 1559.06 688.846 1539.66 688.846 1515.85C688.846 1492.04 708.918 1472.64 733.799 1472.64C758.681 1472.64 778.753 1492.04 778.753 1515.85Z" stroke="black" stroke-width="3"/>
<path d="M891.404 1515.85C891.404 1539.66 871.332 1559.06 846.45 1559.06C821.568 1559.06 801.496 1539.66 801.496 1515.85C801.496 1492.04 821.568 1472.64 846.45 1472.64C871.332 1472.64 891.404 1492.04 891.404 1515.85Z" stroke="black" stroke-width="3"/>
<line x1="690.079" y1="1508.44" x2="615.753" y2="1465.47" stroke="black" stroke-width="3"/>
<line x1="892.075" y1="1510.36" x2="963.628" y2="1462.92" stroke="black" stroke-width="3"/>
<line x1="777.942" y1="1518.42" x2="803.491" y2="1518.59" stroke="black" stroke-width="3"/>
<path d="M970.12 1480.1C973.106 1476.48 974.31 1471.45 973.663 1465.3C973.017 1459.14 970.533 1451.99 966.352 1444.24C962.172 1436.49 956.377 1428.3 949.299 1420.13C942.222 1411.96 933.999 1403.98 925.101 1396.64C916.203 1389.29 906.805 1382.74 897.442 1377.34C888.078 1371.94 878.934 1367.81 870.531 1365.17C862.128 1362.54 854.631 1361.46 848.468 1361.99C842.304 1362.53 837.595 1364.66 834.609 1368.28L902.365 1424.19L970.12 1480.1Z" fill="#773E1E"/>
<path d="M733.544 1369.96C730.292 1366.58 725.474 1364.77 719.363 1364.63C713.253 1364.49 705.97 1366.03 697.93 1369.16C689.891 1372.29 681.252 1376.94 672.508 1382.86C663.764 1388.78 655.085 1395.84 646.967 1403.64C638.848 1411.45 631.45 1419.84 625.194 1428.35C618.939 1436.85 613.948 1445.3 610.506 1453.21C607.065 1461.12 605.241 1468.34 605.138 1474.45C605.035 1480.56 606.656 1485.45 609.907 1488.83L671.726 1429.4L733.544 1369.96Z" fill="#773E1E"/>
<circle cx="845.868" cy="1520.15" r="20.3235" fill="black"/>
<circle cx="857.482" cy="1518.99" r="8.71008" fill="white"/>
<circle cx="734.38" cy="1521.32" r="20.3235" fill="black"/>
<circle cx="745.993" cy="1521.32" r="8.71008" fill="white"/>
<path d="M2066.59 1762.25C2093.35 1700.29 2181.22 1700.29 2207.97 1762.25L2496.67 2430.84C2518.62 2481.67 2481.35 2538.36 2425.98 2538.36H1848.58C1793.21 2538.36 1755.94 2481.67 1777.89 2430.84L2066.59 1762.25Z" fill="#90BE6D"/>
<ellipse rx="24.5866" ry="2.94689" transform="matrix(-0.568871 -0.822427 -0.822427 0.568871 1866.26 1563.54)" fill="#F9C74F"/>
<ellipse rx="24.5866" ry="2.94689" transform="matrix(-0.568871 -0.822427 -0.822427 0.568871 1881.36 1568.18)" fill="#F9C74F"/>
<ellipse rx="19.3006" ry="2.94689" transform="matrix(-0.568871 -0.822427 -0.822427 0.568871 1856.49 1565.56)" fill="#F9C74F"/>
<ellipse rx="16.0385" ry="2.94689" transform="matrix(-0.568871 -0.822427 -0.822427 0.568871 1845.58 1564.76)" fill="#F9C74F"/>
<ellipse rx="11.9676" ry="2.94689" transform="matrix(-0.568871 -0.822427 -0.822427 0.568871 1832.37 1562.45)" fill="#F9C74F"/>
<ellipse rx="24.5866" ry="2.94689" transform="matrix(-0.559193 0.829038 0.829038 0.559193 1866.04 1604.32)" fill="#F9C74F"/>
<ellipse rx="24.5866" ry="2.94689" transform="matrix(-0.559193 0.829038 0.829038 0.559193 1877.66 1607.8)" fill="#F9C74F"/>
<ellipse rx="18.7068" ry="2.94689" transform="matrix(-0.559193 0.829038 0.829038 0.559193 1856.56 1593.64)" fill="#F9C74F"/>
<ellipse rx="14.2369" ry="2.94689" transform="matrix(-0.559193 0.829038 0.829038 0.559193 1845.12 1585.28)" fill="#F9C74F"/>
<ellipse rx="9.49683" ry="2.94689" transform="matrix(-0.559193 0.829038 0.829038 0.559193 1833.83 1577.87)" fill="#F9C74F"/>
<path d="M3841.95 2186.65L3468.73 1729.03C3435.4 1688.16 3369.78 1720.81 3382.28 1772.05L3407.16 1874.01C3409.37 1883.07 3414.09 1891.31 3420.78 1897.8L3778.48 2244.88C3801.89 2267.6 3841.06 2257.12 3850.01 2225.75C3853.88 2212.18 3850.87 2197.58 3841.95 2186.65Z" fill="white" stroke="black"/>
<rect x="3285.27" y="2470.52" width="107.469" height="405.882" rx="50" transform="rotate(-0.516261 3285.27 2470.52)" fill="#277DA1"/>
<rect x="3455.99" y="2469.36" width="107.469" height="405.882" rx="50" transform="rotate(-0.516261 3455.99 2469.36)" fill="#277DA1"/>
<path d="M2912.59 1890.38L3491.64 1904.39C3544.66 1905.67 3558.81 1978.15 3510.17 1999.28L3418.94 2038.9C3410.58 2042.53 3401.38 2043.79 3392.36 2042.52L2905.71 1974.39C2873.61 1969.9 2858.34 1932.39 2878.18 1906.75C2886.39 1896.14 2899.17 1890.06 2912.59 1890.38Z" fill="white" stroke="black"/>
<path d="M3501.25 1757.81L3789.95 2426.39C3811.76 2476.89 3774.73 2533.22 3719.72 2533.22H3142.32C3087.31 2533.22 3050.28 2476.89 3072.09 2426.39L3360.79 1757.81C3387.37 1696.24 3474.67 1696.24 3501.25 1757.81Z" fill="white" stroke="black"/>
<path d="M3342.86 2533.22L3425.79 1516.43L3508.73 2533.22H3342.86Z" fill="#277DA1" stroke="black"/>
<ellipse cx="3427.05" cy="1547.21" rx="194.037" ry="185.58" fill="#277DA1"/>
<path d="M3546.23 1514.59C3546.23 1538.41 3526.16 1557.81 3501.28 1557.81C3476.4 1557.81 3456.33 1538.41 3456.33 1514.59C3456.33 1490.78 3476.4 1471.38 3501.28 1471.38C3526.16 1471.38 3546.23 1490.78 3546.23 1514.59Z" stroke="black" stroke-width="3"/>
<ellipse rx="44.1285" ry="12.263" transform="matrix(0.921348 -0.388739 -0.388739 -0.921348 3386.44 1614.47)" fill="#C4C4C4"/>
<path d="M3506.16 1390.59C3506.24 1383.88 3473.76 1378.05 3433.62 1377.58C3393.47 1377.11 3360.87 1382.17 3360.79 1388.88C3360.71 1395.6 3392.7 1387.61 3432.84 1388.08C3472.99 1388.55 3506.09 1397.31 3506.16 1390.59Z" fill="#C4C4C4"/>
<path d="M3522.19 1413.04C3522.27 1406.33 3482.56 1400.42 3433.5 1399.84C3384.44 1399.26 3344.61 1404.24 3344.53 1410.95C3344.45 1417.67 3383.52 1409.76 3432.58 1410.34C3481.64 1410.91 3522.11 1419.75 3522.19 1413.04Z" fill="#C4C4C4"/>
<ellipse rx="44.1285" ry="12.263" transform="matrix(0.921863 0.387516 0.387516 -0.921863 3472.39 1614.42)" fill="#C4C4C4"/>
<path d="M3529.92 1547.69C3526.08 1574.17 3532.41 1604.18 3549.69 1630.82C3558.42 1644.3 3569.09 1655.57 3580.83 1664.36" stroke="black" stroke-width="3"/>
<line x1="2103.88" y1="1624.4" x2="1835.61" y2="1569.82" stroke="#F9C74F" stroke-width="3"/>
<path d="M1590.42 1865.19C1599.68 1855.26 1613.11 1850.31 1626.6 1851.88L2201.96 1918.73C2255.17 1924.91 2262.72 1999.12 2211.84 2015.89L2117.37 2047.01C2108.63 2049.89 2099.26 2050.3 2090.3 2048.2L1611.91 1935.89C1579.98 1928.39 1568.06 1889.19 1590.42 1865.19V1865.19Z" fill="#90BE6D"/>
<path d="M2554.43 2222.79C2558.34 2209.07 2555.3 2194.3 2546.28 2183.24L2173.06 1725.62C2139.39 1684.34 2073.11 1717.32 2085.74 1769.07L2110.61 1871.04C2112.85 1880.18 2117.61 1888.51 2124.37 1895.07L2482.07 2242.15C2505.75 2265.12 2545.38 2254.52 2554.43 2222.79V2222.79Z" fill="#90BE6D"/>
<path d="M1512.06 1915.48C1522.7 1892.83 1505.65 1866.93 1480.64 1867.76L918.851 1886.43C874.586 1887.9 853.947 1941.95 885.964 1972.55L905.516 1991.24C916.448 2001.68 931.521 2006.62 946.517 2004.67L1486.07 1934.45C1497.4 1932.97 1507.2 1925.82 1512.06 1915.48V1915.48Z" fill="#F94144"/>
<path d="M289.999 2193.35L274.822 2187.52L207.108 2409.08L289.999 2193.35Z" fill="white"/>
<path d="M122.967 2628.07L102.369 2620.15L206.066 2411.79L122.967 2628.07Z" fill="white"/>
<path d="M289.999 2193.35L274.822 2187.52L207.108 2409.08L289.999 2193.35Z" stroke="black"/>
<path d="M122.967 2628.07L102.369 2620.15L206.066 2411.79L122.967 2628.07Z" stroke="black"/>
<path d="M121.572 2628.24L201.189 2421.03L521.084 2543.95L417.725 2742.03L410.01 2739.07L121.572 2628.24Z" fill="#F8961E" stroke="black"/>
<path d="M288.66 2193.38L207.794 2403.84L527.69 2526.75L584.813 2307.17L577.099 2304.2L288.66 2193.38Z" fill="#F8961E" stroke="black"/>
<path d="M205.17 2410.89L101.264 2619.79" stroke="black"/>
<line x1="105.297" y1="2622.48" x2="201.533" y2="2420.59" stroke="black"/>
<line x1="112.877" y1="2625.41" x2="195.442" y2="2433.2" stroke="black"/>
<line x1="117.208" y1="2627.09" x2="195.438" y2="2433.21" stroke="black"/>
<line x1="108.644" y1="2622.53" x2="195.998" y2="2434.63" stroke="black"/>
<rect x="198.728" y="2426.48" width="24.5496" height="343.919" transform="rotate(-68.9814 198.728 2426.48)" fill="#F8961E" stroke="black"/>
<path d="M3366.8 1765.86L3367.31 1722.04L3409.79 1732.76L3366.8 1765.86Z" fill="white" stroke="black"/>
<path d="M3441.06 1732.08L3483.45 1721L3484.34 1764.8L3441.06 1732.08Z" fill="white" stroke="black"/>
<path d="M3563.48 1976.19L3526.37 2009.67L3486.4 1979.65L3485.02 1927.93L3559.04 1926.56L3563.48 1976.19Z" fill="white" stroke="black"/>
<line x1="3485" y1="1935.64" x2="3559.34" y2="1933.99" stroke="black"/>
<rect x="1982.24" y="2480.97" width="107.469" height="405.882" rx="50" transform="rotate(-0.516261 1982.24 2480.97)" fill="#90BE6D"/>
<rect x="650.182" y="2478.65" width="107.469" height="405.882" rx="50" transform="rotate(-0.516261 650.182 2478.65)" fill="#F94144"/>
<rect x="2148.32" y="2480.97" width="107.469" height="405.882" rx="50" transform="rotate(-0.516261 2148.32 2480.97)" fill="#90BE6D"/>
<rect x="811.609" y="2479.81" width="107.469" height="405.882" rx="50" transform="rotate(-0.516261 811.609 2479.81)" fill="#F94144"/>
<circle cx="3500.7" cy="1515.51" r="20.3235" fill="black"/>
<circle cx="3500.7" cy="1515.51" r="8.71008" fill="white"/>
<path d="M3313.72 1518.41C3338.89 1518.41 3378.18 1518.41 3378.18 1518.41" stroke="black" stroke-width="10"/>
<line x1="2103.88" y1="1504.87" x2="2062.07" y2="1472.35" stroke="black"/>
<line x1="2172.38" y1="1499.45" x2="2218.84" y2="1461.12" stroke="black"/>
<mask id="path-113-inside-3" fill="white">
<path d="M3463.05 1637.5C3462.73 1634.06 3461.42 1630.75 3459.17 1627.75C3456.93 1624.75 3453.8 1622.12 3449.97 1620.02C3446.13 1617.92 3441.67 1616.38 3436.82 1615.49C3431.98 1614.6 3426.86 1614.39 3421.75 1614.85C3416.64 1615.31 3411.64 1616.45 3407.03 1618.19C3402.43 1619.94 3398.31 1622.25 3394.92 1625.01C3391.52 1627.77 3388.92 1630.92 3387.25 1634.27C3385.58 1637.62 3384.88 1641.12 3385.2 1644.56L3424.12 1641.03L3463.05 1637.5Z"/>
</mask>
<path d="M3463.05 1637.5C3462.73 1634.06 3461.42 1630.75 3459.17 1627.75C3456.93 1624.75 3453.8 1622.12 3449.97 1620.02C3446.13 1617.92 3441.67 1616.38 3436.82 1615.49C3431.98 1614.6 3426.86 1614.39 3421.75 1614.85C3416.64 1615.31 3411.64 1616.45 3407.03 1618.19C3402.43 1619.94 3398.31 1622.25 3394.92 1625.01C3391.52 1627.77 3388.92 1630.92 3387.25 1634.27C3385.58 1637.62 3384.88 1641.12 3385.2 1644.56L3424.12 1641.03L3463.05 1637.5Z" fill="black" stroke="black" stroke-width="6" mask="url(#path-113-inside-3)"/>
<line x1="3424.38" y1="1495.61" x2="3360.5" y2="1457.29" stroke="black"/>
<line x1="3433.61" y1="1491.31" x2="3491.68" y2="1446.01" stroke="black"/>
<mask id="path-116-inside-4" fill="white">
<path d="M829.458 1633.39C829.633 1629.95 828.796 1626.48 826.995 1623.2C825.195 1619.91 822.466 1616.87 818.965 1614.25C815.463 1611.63 811.258 1609.48 806.589 1607.92C801.92 1606.36 796.878 1605.43 791.752 1605.17C786.626 1604.91 781.515 1605.33 776.713 1606.41C771.91 1607.49 767.509 1609.2 763.761 1611.46C760.013 1613.71 756.991 1616.46 754.868 1619.55C752.745 1622.63 751.563 1626 751.388 1629.44L790.423 1631.42L829.458 1633.39Z"/>
</mask>
<path d="M829.458 1633.39C829.633 1629.95 828.796 1626.48 826.995 1623.2C825.195 1619.91 822.466 1616.87 818.965 1614.25C815.463 1611.63 811.258 1609.48 806.589 1607.92C801.92 1606.36 796.878 1605.43 791.752 1605.17C786.626 1604.91 781.515 1605.33 776.713 1606.41C771.91 1607.49 767.509 1609.2 763.761 1611.46C760.013 1613.71 756.991 1616.46 754.868 1619.55C752.745 1622.63 751.563 1626 751.388 1629.44L790.423 1631.42L829.458 1633.39Z" fill="black" stroke="black" stroke-width="6" mask="url(#path-116-inside-4)"/>
<line x1="768.396" y1="1471.23" x2="737.04" y2="1453.81" stroke="black"/>
<line x1="803.268" y1="1470.34" x2="840.431" y2="1452.92" stroke="black"/>
</svg>
