<svg width="5857" height="5858" viewBox="0 0 5857 5858" fill="none" xmlns="http://www.w3.org/2000/svg">
<path d="M2880.02 5759.67C4470.61 5759.67 5760.04 4470.33 5760.04 2879.84C5760.04 1289.35 4470.61 0 2880.02 0C1289.43 0 0 1289.35 0 2879.84C0 4470.33 1289.43 5759.67 2880.02 5759.67Z" fill="#B20604" fill-opacity="0.988235"/>
<path d="M2880.01 5701.73C4438.59 5701.73 5702.08 4438.32 5702.08 2879.84C5702.08 1321.35 4438.59 57.9492 2880.01 57.9492C1321.42 57.9492 57.9375 1321.35 57.9375 2879.84C57.9375 4438.32 1321.42 5701.73 2880.01 5701.73Z" fill="#8B0000" fill-opacity="0.988235"/>
<path d="M2880.01 5686.83C4430.37 5686.83 5687.18 4430.1 5687.18 2879.84C5687.18 1329.58 4430.37 72.8496 2880.01 72.8496C1329.65 72.8496 72.8379 1329.58 72.8379 2879.84C72.8379 4430.1 1329.65 5686.83 2880.01 5686.83Z" fill="#E40000"/>
<path d="M2876.34 66.6895C2745.85 67.6892 2615.59 77.8157 2486.51 96.9945C2436.81 175.989 2402.52 262.489 2396.4 352.014C2389.02 460.216 2449.23 572.509 2523.5 651.553C2616.15 750.166 2759.43 786.767 2886.57 833.077C3094.12 908.677 3312.46 1019.38 3531.03 987.398C3704.07 962.08 3995.43 898.721 3984.88 724.163C3972.37 517.168 3620.01 492.214 3413.04 479.097C3259.15 469.345 3111.06 664.324 2968.25 606.181C2923.06 587.784 2880.13 525.353 2895.64 479.097C2910.28 435.403 2980.06 442.088 3022.73 424.657C3130.92 380.455 3234.01 315.527 3349.49 297.574C3541.21 267.769 3751.23 259.521 3930.44 333.879C4124.46 414.384 4340.19 550.782 4402.43 751.4C4439.39 870.543 4383.51 1012.48 4311.64 1114.45C4248.8 1203.61 4145.27 1269.82 4039.36 1295.97C3755.84 1365.98 3450.2 1280.2 3167.96 1205.23C2950.61 1147.5 2748.67 1039.59 2550.7 932.923C2354.17 827.033 2154.1 718.947 1987.92 569.876C1906.49 496.82 1848.64 392.834 1792.92 287.961C1561.39 384.513 1343.9 511.759 1146.28 666.28C1214.69 731.802 1282.48 796.228 1334.4 860.314C1415.2 960.052 1513.16 1044.73 1606.72 1132.62C1706.71 1226.55 1786.98 1356.37 1915.31 1404.88C2051.16 1456.25 2205.8 1404.88 2351.03 1404.88C2550.72 1404.88 2750.55 1397.77 2950.11 1404.88C3119.88 1410.94 3290.66 1414.44 3458.41 1441.19C3556.97 1456.91 3650.08 1499.63 3748.87 1513.8C3898.74 1535.3 4059.31 1580.52 4202.72 1531.97C4400.14 1465.14 4562.63 1302.17 4683.82 1132.62C4741.67 1051.67 4796.17 959.799 4827.99 863.484C4306.19 353.637 3605.89 67.7268 2876.34 66.6895V66.6895ZM4837.23 872.075C4826.38 926.578 4820.98 987.042 4801.06 1032.8C4773.09 1097.03 4744.95 1161.32 4712.49 1223.4C4670.28 1304.11 4512.8 1392.5 4574.69 1459.32C4668.85 1560.99 4855.65 1380.51 4948.71 1277.84C4989.57 1232.75 5031.09 1178.02 5063.05 1119.53C4992.78 1032.61 4917.38 949.975 4837.23 872.075V872.075ZM715.201 1089.77C622.29 1203.64 538.496 1324.65 464.597 1451.69C531.488 1474.95 602.497 1497.5 644.53 1541.04C701.116 1599.64 748.422 1671.71 771.621 1749.8C827.656 1938.4 708.863 2160.42 789.758 2339.77C846.081 2464.65 980.272 2538.22 1089.32 2621.14C1233.06 2730.44 1420.5 2779.02 1552.24 2902.51C1633.07 2978.29 1647.58 3118.25 1742.84 3174.82C2022.95 3341.15 2388.75 3267.07 2714.1 3283.73C3037.44 3300.29 3361.7 3282.88 3685.36 3274.63C3830.67 3270.92 3983.06 3302.22 4121.04 3256.49C4273.99 3205.81 4391.81 3081.26 4520.42 2984.19C4784.48 2784.89 5042.99 2576.64 5282.9 2348.84C5379.53 2257.09 5459.59 2148.83 5551.3 2052.3C5533.81 1993.2 5514.36 1934.7 5493 1876.88C5352.7 1975.37 5195.22 2124.7 5065.06 2176.39C4734.22 2307.77 4377.19 2373.8 4057.5 2530.37C3957.25 2579.46 3882.22 2677.26 3776.11 2711.89C3577.3 2776.76 3347 2678.67 3149.78 2748.23C3051.6 2782.85 2878.6 2827.05 2895.64 2929.75C2916.32 3054.4 3132.6 3031.29 3258.74 3038.67C3415.17 3047.81 3584.04 3031.87 3721.66 2956.95C3772.43 2929.32 3864.94 2881.88 3839.65 2829.9C3775.9 2698.86 3434.01 3008.81 3403.97 2866.21C3384.84 2775.39 3575.96 2792.53 3667.19 2775.43C3744.56 2760.93 3838.89 2720.96 3903.2 2766.36C3944.63 2795.61 3965.99 2863.95 3948.57 2911.58C3921.47 2985.68 3822.21 3009.59 3748.87 3038.67C3628.61 3086.34 3496.66 3101.55 3367.66 3111.27C3207.64 3123.34 3040.74 3137.64 2886.57 3093.11C2822.75 3074.67 2754.75 3045.79 2714.1 2993.26C2679.51 2948.55 2647.6 2882.33 2668.72 2829.9C2697.62 2758.2 2798.85 2745.68 2868.4 2711.89C2920.96 2686.35 3044.77 2705.36 3031.8 2648.38C3014.28 2571.45 2873.09 2682.3 2795.78 2666.52C2712.25 2649.46 2653.36 2559.99 2568.87 2548.53C2381.87 2523.18 2202.83 2646.74 2015.16 2666.52C1924.89 2676.03 1827.44 2699.42 1742.84 2666.52C1605.13 2612.95 1511.57 2479.77 1416.08 2367.01C1322.8 2256.86 1268.67 2117.88 1180.07 2003.93C1147.21 1961.67 1097.36 1932.61 1071.15 1885.95C974.046 1713.12 1011.35 1483.17 907.781 1314.14C858.366 1233.49 797.43 1132.69 715.201 1089.77V1089.77ZM2635.45 1534.42C2598.9 1535.12 2565.34 1544.1 2537.41 1568.24C2495.9 1604.1 2489.85 1684.35 2517.7 1731.59C2562.65 1807.83 2676.02 1819.83 2763.77 1831.44C2862.07 1844.45 2960.06 1801.2 3059.03 1795.13C3114.7 1791.73 3170.7 1798.78 3226.35 1795.13C3318.81 1789.07 3483.03 1849.53 3501.91 1758.83C3519.86 1672.63 3358.86 1651.21 3275.55 1622.71C3153.64 1581.02 3020.22 1586.53 2891.71 1577.31C2810.7 1571.49 2715.86 1532.89 2635.45 1534.42V1534.42ZM5603.19 2252.85C5155.16 2265.7 4866.17 3224.54 4363.6 3417.09C4287.58 3446.21 4199.52 3413.87 4119.71 3429.94C3890.17 3476.16 3678.43 3586.72 3458.62 3667.4C3218.38 3755.59 2987.05 3871.14 2739.74 3936.94C2649.66 3960.91 2556.9 3979 2463.73 3981.87C2248.82 3988.5 2031.43 3965.93 1821.9 3917.68C1526.39 3849.64 1241.22 3735.32 968.259 3603.21C805.763 3524.57 666.256 3237.47 506.12 3320.82C475.696 3336.65 493.252 3389.81 499.711 3423.5C515.746 3507.14 550.73 3592.27 608.836 3654.55C859.754 3923.47 1222.81 4076.92 1571.6 4193.67C1661.7 4223.82 1759.07 4228.72 1854.01 4232.19C1991.12 4237.2 2131.12 4237.44 2264.78 4206.52C2395.62 4176.25 2507.38 4087.39 2637.05 4052.47C2745.45 4023.28 2858.61 4011.1 2970.81 4007.54C3123.01 4002.71 3274.98 4024.51 3426.5 4039.65C3658.34 4062.82 3886.77 4124.5 4119.71 4129.48C4293.61 4133.19 4475.45 4142.11 4639.6 4084.58C4785.2 4033.56 4931.59 3950.87 5024.69 3827.86C5070.83 3766.9 5153.28 3659.45 5095.3 3609.62C5062.65 3581.56 5018.45 3648.5 4979.76 3667.4C4837.04 3737.15 4699.08 3818.65 4549.74 3872.79C4452.17 3908.15 4350.75 3964.81 4248.06 3949.79C4198.69 3942.57 4134.47 3920.45 4119.71 3872.79C4103 3818.83 4150.78 3759.07 4190.31 3718.74C4286.77 3620.34 4448.94 3616.93 4562.59 3539.02C4862.23 3333.64 5077.72 3025.12 5358.45 2794.55C5446.27 2722.42 5568.3 2681.97 5661.45 2617.05C5650.06 2494.5 5630.6 2372.84 5603.19 2252.85V2252.85ZM1524.56 2269.11C1515.87 2269.19 1506.95 2272.78 1497.76 2280.77C1418.23 2349.84 1586.58 2489.53 1679.33 2539.47C1771.28 2588.97 1978.63 2652.03 1992.49 2548.53C2005.31 2452.89 1796.03 2526.29 1711.1 2480.46C1636.11 2439.98 1585.34 2268.55 1524.56 2269.11V2269.11ZM153.686 3495.49C196.051 3678.22 256.686 3856.23 334.675 4026.84C464.737 4090.39 627 4108.25 750.042 4187.26C959.367 4321.67 1101.56 4547.03 1314.86 4675.04C1660.99 4882.75 2060.2 4987.93 2444.51 5111.44C2623.35 5168.92 2803.26 5272.36 2990.07 5252.64C3266.01 5223.51 3474.82 4977.93 3734.58 4880.39C3980.88 4787.9 4255.36 4782.2 4498.4 4681.45C4681.77 4605.43 4836.48 4472.76 5011.88 4379.79C5096.07 4335.17 5192.76 4307.19 5288.01 4277.83C5430.17 4035.21 5534.94 3772.55 5598.79 3498.7C5386.19 3567.63 5193.75 3976.05 4973.35 4123.07C4749.28 4272.54 4511.46 4400.77 4273.74 4527.4C3985.76 4680.79 3714.16 4892.4 3394.42 4957.43C3159.27 5005.26 2912.87 4954.4 2675.54 4918.91C2350.69 4870.33 2024.43 4802.81 1719.22 4681.45C1541.18 4610.65 1374.17 4510.87 1218.59 4399.05C1031.61 4264.67 889.082 4075.42 705.11 3936.94C533.911 3808.08 330.601 3494.79 153.686 3495.49V3495.49ZM2971.76 4122.25C2960.8 4122.05 2949.79 4122.3 2938.73 4123.07C2803.92 4132.43 2562.04 4148.48 2566.45 4283.53C2569.79 4385.65 2761.11 4346.52 2855.27 4386.2C2971.66 4435.25 3070.5 4534.76 3195.47 4553.07C3298.48 4568.16 3401.29 4521.27 3503.55 4501.73C3722.83 4459.83 4166.78 4583.6 4158.2 4360.53C4149.07 4123.2 3684.87 4311.9 3452.17 4264.27C3289.14 4230.89 3136.16 4125.2 2971.76 4122.25V4122.25Z" fill="#EC412C"/>
<path d="M1071.67 730.337C1040.78 756.301 1010.46 782.931 980.718 810.207C1040.46 878.083 1097.12 947.209 1125.03 1031.48C1160.91 1139.84 1105.34 1262.82 1131.88 1373.83C1186.01 1600.34 1257.42 1852.83 1435.25 2003.22C1527.05 2080.85 1673.07 2052.1 1781.65 2103.71C1925.76 2172.2 2024.74 2323.25 2175.34 2375.95C2510.54 2493.25 2887.28 2502.45 3238.3 2448.56C3468.11 2413.27 3659.4 2237.56 3887.87 2194.46C4036.17 2166.48 4207.65 2265.84 4340.6 2194.46C4455.72 2132.65 4464.33 1959.73 4557.12 1867.75C4713.96 1712.26 4939.93 1644.25 5112.56 1506.51C5152.16 1474.91 5205.46 1442.28 5262.97 1408.81C5249.43 1385.52 5235.56 1362.43 5221.35 1339.54C5199.34 1361.36 5177.04 1379.7 5154.5 1392.51C4952.02 1507.59 4716.48 1550.95 4498.07 1631.78C4320.59 1697.47 4147.77 1776.79 3966.59 1831.44C3786.09 1885.89 3603.92 1954 3415.44 1958.49C3075.48 1966.6 2742.28 1856.06 2411.56 1776.97C2165.11 1718.03 1894.23 1699.48 1683.23 1559.18C1468.06 1416.09 1347.71 1165.78 1191.16 960.199C1146.48 901.528 1108.02 819.38 1071.67 730.337V730.337ZM4150 758.563C4144.17 758.777 4138.49 759.777 4133.06 761.631C4070.06 783.107 4084.39 885.544 4057.82 946.563C4040.01 987.467 4022.1 1028.42 4001.43 1067.95C3974.55 1119.36 3874.26 1175.66 3913.68 1218.22C3973.64 1282.96 4092.58 1168.01 4151.84 1102.62C4216.66 1031.1 4284.77 921.804 4252.14 830.967C4238.55 793.141 4190.84 757.061 4150 758.563V758.563ZM280.622 1825.51C228.583 1956.2 186.475 2090.63 154.655 2227.66C251.492 2291.98 348.212 2358.02 403.453 2435.12C513.34 2588.5 586.912 2764.89 679.454 2929.31C760.28 3072.92 807.524 3242.12 923.342 3359.34C1069.56 3507.34 1271.2 3592 1462.49 3673.81C1597.59 3731.6 1740.79 3774.01 1886.11 3795.75C2013.08 3814.74 2142.96 3808.22 2271.2 3802.19C2464.73 3793.09 2660.81 3784.52 2848.88 3738C3036.31 3691.64 3204.91 3587.43 3388.03 3526.21C3501.75 3488.19 3651.71 3516.57 3734.6 3429.94C3754.32 3409.32 3772.21 3368.36 3753.86 3346.49C3621.68 3188.94 3341.37 3350.03 3137.7 3378.6C2883.29 3414.3 2643.62 3548.73 2386.74 3551.88C2301.57 3552.92 2217.6 3526.37 2136.44 3500.54C1989.47 3453.76 1850.83 3383.29 1712.82 3314.41C1517.41 3216.89 1321.32 3117.54 1141.56 2993.5C987.795 2887.4 820.217 2786.05 711.534 2634.1C624.854 2512.92 621.476 2348.22 551.067 2216.92C476.372 2077.62 418.575 1899.66 280.622 1825.51V1825.51ZM103.689 2508.83C92.3463 2597.84 85.2934 2687.35 82.5527 2777.04C84.6176 2778.59 86.972 2780.15 88.9619 2781.71C177.977 2851.39 303.222 2869.68 384.191 2948.57C446.736 3009.51 459.141 3109.63 518.987 3173.22C581.213 3239.33 666.92 3375.83 743.614 3327.23C800.361 3291.28 739.692 3189.28 711.534 3128.29C656.189 3008.41 549.841 2918.29 454.794 2826.64C344.969 2720.73 243.686 2520 103.689 2508.83ZM5669.61 2726.76C5550.6 2766.74 5470.33 2897.95 5384.17 2993.5C5321.37 3063.14 5292.62 3160.97 5223.7 3224.56C5067.28 3368.88 4822.82 3395.61 4671.7 3545.47C4624.02 3592.75 4537.73 3659.33 4569.01 3718.74C4598.98 3775.66 4699.33 3747.88 4761.56 3731.6C4882.69 3699.9 4970.68 3458.59 5076.05 3526.21C5112.47 3549.58 5064.28 3611.94 5056.82 3654.55C5045.55 3719.03 5015.47 3781.7 5018.3 3847.09C5020.61 3900.52 5015.86 3976.31 5063.23 4001.14C5117.17 4029.39 5189.61 3982.22 5236.52 3943.39C5300.71 3890.26 5329.27 3803.2 5358.46 3725.15C5391.39 3637.13 5404.7 3542.48 5416.25 3449.2C5422.8 3396.08 5404.72 3339.18 5422.66 3288.75C5454.92 3198.04 5533.32 3130.79 5595.98 3057.69C5614.79 3035.74 5640.22 3016.12 5667.87 2997.39C5671.14 2953.22 5673.36 2908.98 5674.52 2864.71C5674.02 2818.69 5672.38 2772.69 5669.61 2726.76V2726.76ZM1979.45 4386.34C1904.65 4389.47 1846.89 4414.24 1828.33 4482.47C1816.18 4527.13 1900.93 4542.21 1943.86 4559.51C2066.85 4609.09 2204.33 4609.94 2335.4 4630.11C2435.59 4645.53 2537.12 4651.69 2637.07 4668.6C2790.15 4694.49 2938.25 4749.69 3092.77 4764.87C3265.25 4781.81 3439.36 4760.78 3612.66 4758.46C3760.28 4756.48 3915.14 4797.73 4055.53 4752.05C4140.2 4724.5 4306.85 4680.65 4273.75 4598C4230.34 4489.58 4043.21 4636.05 3927.18 4649.37C3692.59 4676.31 3455.87 4732.93 3221.15 4707.12C2933.93 4675.54 2679.96 4485.55 2393.15 4450.39C2276.16 4436.06 2104.12 4381.12 1979.45 4386.34V4386.34ZM561.976 4431.13C561.61 4431.12 561.261 4431.19 560.894 4431.17C816.858 4809.98 1161.75 5120.3 1565.4 5334.99C1969.05 5549.68 2419.16 5662.2 2876.36 5662.7C3320.85 5662.52 3758.9 5556.46 4154.24 5353.31C4130.39 5362.2 4106.12 5369.54 4081.21 5374.58C3947.01 5401.75 3802.2 5337.29 3670.45 5374.58C3576.18 5401.26 3515.95 5508.27 3420.12 5528.63C3151.96 5585.58 2869.1 5492.89 2604.97 5419.51C2537.57 5400.79 2473.86 5369.53 2412.42 5336.09C2317.56 5284.47 2243.21 5196.29 2142.86 5156.38C2060.17 5123.49 1968.69 5110.43 1879.71 5111.45C1801.25 5112.35 1725.83 5170.43 1648.64 5156.38C1436.01 5117.66 1283.99 4923.98 1096.64 4816.24C927.42 4718.93 720.323 4437.74 561.985 4431.13L561.976 4431.13ZM4889.37 4803.69C4846.49 4830.7 4803.03 4855.69 4761.56 4861.17C4564.02 4887.25 4354.89 4769.78 4164.66 4829.05C4051.08 4864.45 3985.22 4987.68 3882.25 5047.26C3722 5139.98 3546.51 5207.22 3368.77 5259.05C3216.47 5303.46 2887.78 5184.36 2900.22 5342.5C2908.94 5453.43 3122.86 5354.98 3233.97 5348.91C3434.29 5337.97 3634.61 5313.33 3830.91 5271.9C4044.85 5226.75 4246.99 5135.61 4459.89 5085.78C4503.35 5075.61 4549.56 5071.73 4596.66 5070.1C4700.4 4988.32 4798.21 4899.29 4889.37 4803.69V4803.69Z" fill="#F10F0F"/>
<path d="M1380.22 4514.58C1653.82 4409.07 1757.86 4058.64 1612.61 3731.86C1467.36 3405.09 1127.82 3225.71 854.22 3331.21C580.622 3436.72 476.577 3787.15 621.828 4113.92C767.079 4440.7 1106.62 4620.08 1380.22 4514.58Z" fill="#D00C0C" stroke="#B50000" stroke-width="1.0734"/>
<path d="M1338.17 4419.97C1568.02 4331.33 1655.43 4036.93 1533.4 3762.41C1411.38 3487.88 1126.13 3337.19 896.277 3425.82C666.427 3514.45 579.019 3808.85 701.045 4083.38C823.07 4357.9 1108.32 4508.6 1338.17 4419.97Z" fill="#D50D0D" stroke="#B50000" stroke-width="1.0734"/>
<path d="M896.232 3425.85C666.381 3514.49 579.072 3808.9 701.099 4083.42C711.981 4107.91 724.129 4131.4 737.453 4153.83C683.06 3952.63 791.342 3740.48 1000.27 3659.91C1209.15 3579.37 1446.82 3658.03 1561.07 3836.07C1553.48 3811.48 1544.27 3786.9 1533.41 3762.47C1411.39 3487.94 1126.08 3337.22 896.232 3425.85Z" fill="#B40C0C" stroke="#B50000" stroke-width="1.0734"/>
<path d="M939.688 4364.88C1064.45 4444.38 1209.86 4469.4 1338.1 4419.94C1466.35 4370.49 1550.33 4257.01 1578.25 4118.64C1531.23 4233.45 1441.37 4327.21 1318.03 4374.78C1194.68 4422.34 1060.08 4415.13 939.688 4364.88Z" fill="#C40707" stroke="#B50000" stroke-width="1.0734"/>
<path opacity="0.6788" d="M856.149 3335.67C584.625 3440.37 481.442 3788.25 625.592 4112.54C769.742 4436.84 1106.67 4614.84 1378.2 4510.14C1465.57 4476.45 1535.52 4417.53 1585.41 4342.38C1538.14 4395.92 1478.49 4438.64 1407.88 4465.87C1136.77 4570.41 807.219 4408.27 671.897 4103.83C536.575 3799.39 646.699 3467.87 917.802 3363.33C1019.47 3324.13 1129.27 3322.39 1234.03 3351.61C1110.26 3298.56 976.719 3289.17 856.149 3335.67Z" fill="#D15B5B" stroke="#B50000" stroke-width="1.0734"/>
<path d="M1820.52 5172.25C1748.62 5320.47 1854.01 5498.17 2055.92 5569.14C2257.83 5640.12 2479.8 5577.5 2551.7 5429.28C2623.6 5281.05 2518.21 5103.36 2316.3 5032.38C2114.39 4961.4 1892.42 5024.02 1820.52 5172.25Z" fill="#D00C0C" stroke="#B50000" stroke-width="0.622416"/>
<path d="M1878.97 5192.8C1818.57 5317.32 1907.11 5466.61 2076.73 5526.23C2246.36 5585.86 2432.83 5533.25 2493.23 5408.73C2553.64 5284.21 2465.1 5134.93 2295.47 5075.3C2125.85 5015.67 1939.37 5068.28 1878.97 5192.8Z" fill="#D50D0D" stroke="#B50000" stroke-width="0.622416"/>
<path d="M2493.26 5408.69C2553.66 5284.17 2465.07 5134.92 2295.45 5075.3C2280.32 5069.98 2265.08 5065.54 2249.78 5061.98C2359.11 5119.38 2403.54 5244.67 2348.64 5357.85C2293.74 5471.01 2158.43 5533.18 2033.41 5508.24C2047.17 5514.88 2061.62 5520.89 2076.72 5526.2C2246.34 5585.83 2432.85 5533.21 2493.26 5408.69Z" fill="#B40C0C" stroke="#B50000" stroke-width="0.622416"/>
<path d="M2073 5058.53C1985.63 5076.23 1912.73 5123.29 1879.03 5192.77C1845.33 5262.24 1857.94 5339.45 1905.19 5404.47C1876.19 5341.19 1874.52 5269.4 1906.94 5202.58C1939.35 5135.76 2000.01 5085.95 2073 5058.53Z" fill="#C40707" stroke="#B50000" stroke-width="0.622416"/>
<path opacity="0.6788" d="M2548.97 5428.29C2620.32 5281.19 2515.65 5104.83 2315.27 5034.39C2114.89 4963.95 1894.63 5026.09 1823.28 5173.19C1800.32 5220.53 1795.6 5270.91 1806.4 5319.8C1803.72 5280.39 1810.96 5240.36 1829.52 5202.11C1900.76 5055.23 2111.08 4989.78 2299.19 5055.9C2487.3 5122.03 2582.01 5294.71 2510.76 5441.58C2484.04 5496.66 2437.82 5540.27 2380.51 5569.8C2456.14 5542.15 2517.28 5493.61 2548.97 5428.29Z" fill="#D15B5B" stroke="#B50000" stroke-width="0.622416"/>
<path d="M2013.93 3955.22C2139.69 3952.02 2232.25 3825.41 2220.67 3672.44C2209.08 3519.46 2097.73 3398.04 1971.97 3401.24C1846.2 3404.44 1753.64 3531.05 1765.23 3684.02C1776.82 3837 1888.17 3958.42 2013.93 3955.22Z" fill="#D00C0C" stroke="#B50000" stroke-width="0.460509"/>
<path d="M2010.57 3910.93C2116.23 3908.24 2193.99 3801.88 2184.25 3673.36C2174.52 3544.85 2080.97 3442.84 1975.32 3445.53C1869.66 3448.22 1791.9 3554.58 1801.64 3683.09C1811.38 3811.61 1904.92 3913.62 2010.57 3910.93Z" fill="#D50D0D" stroke="#B50000" stroke-width="0.460509"/>
<path d="M1975.31 3445.55C1869.66 3448.24 1791.94 3554.61 1801.67 3683.13C1802.54 3694.59 1804.06 3705.84 1806.22 3716.82C1813.24 3627.68 1887.58 3557.56 1983.61 3555.12C2079.63 3552.68 2164.33 3618.72 2184.83 3707.12C2185.31 3696.09 2185.13 3684.84 2184.26 3673.4C2174.53 3544.88 2080.97 3442.86 1975.31 3445.55Z" fill="#B40C0C" stroke="#B50000" stroke-width="0.460509"/>
<path d="M1857.51 3831.24C1896.47 3881.34 1951.62 3912.41 2010.57 3910.91C2069.51 3909.41 2119.81 3875.66 2151.04 3823.77C2115.49 3863.39 2065.66 3888.32 2008.96 3889.77C1952.27 3891.21 1898.92 3868.89 1857.51 3831.24Z" fill="#C40707" stroke="#B50000" stroke-width="0.460509"/>
<path opacity="0.6788" d="M1972.11 3403.32C1847.3 3406.5 1755.46 3532.19 1766.96 3684.01C1778.46 3835.83 1888.95 3956.31 2013.76 3953.14C2053.92 3952.12 2090.68 3938.39 2121.67 3915.21C2094.85 3930.04 2064.59 3938.7 2032.13 3939.53C1907.52 3942.7 1797.72 3829.68 1786.92 3687.16C1776.13 3544.64 1868.42 3426.56 1993.03 3423.39C2039.77 3422.2 2084.38 3437.32 2122.51 3464.23C2080.14 3424.95 2027.53 3401.91 1972.11 3403.32Z" fill="#D15B5B" stroke="#B50000" stroke-width="0.460509"/>
<path d="M1123.27 3168.32C1217.77 3193.68 1314.74 3119.67 1339.85 3003.02C1364.97 2886.37 1308.72 2771.25 1214.21 2745.89C1119.71 2720.53 1022.74 2794.54 997.628 2911.19C972.514 3027.84 1028.77 3142.96 1123.27 3168.32Z" fill="#D00C0C" stroke="#B50000" stroke-width="0.358171"/>
<path d="M1130.54 3134.55C1209.93 3155.85 1291.4 3093.68 1312.49 2995.68C1333.59 2897.68 1286.33 2800.97 1206.94 2779.66C1127.55 2758.36 1046.09 2820.53 1024.99 2918.53C1003.89 3016.53 1051.15 3113.24 1130.54 3134.55Z" fill="#D50D0D" stroke="#B50000" stroke-width="0.358171"/>
<path d="M1206.91 2779.66C1127.52 2758.35 1046.08 2820.55 1024.98 2918.55C1023.1 2927.29 1021.76 2936.01 1020.94 2944.67C1045.84 2879.74 1116.76 2843.84 1188.92 2863.21C1261.07 2882.57 1309.67 2950.51 1305.45 3020.97C1308.24 3012.85 1310.59 3004.41 1312.47 2995.69C1333.57 2897.69 1286.3 2800.96 1206.91 2779.66Z" fill="#B40C0C" stroke="#B50000" stroke-width="0.358171"/>
<path d="M1033.94 3041.33C1051.94 3087.3 1086.22 3122.64 1130.51 3134.52C1174.81 3146.41 1219.77 3132.33 1254.51 3100.52C1219.25 3122.22 1176.59 3129.83 1133.98 3118.4C1091.38 3106.97 1056.51 3078.55 1033.94 3041.33Z" fill="#C40707" stroke="#B50000" stroke-width="0.358171"/>
<path opacity="0.6788" d="M1213.85 2747.47C1120.06 2722.3 1023.83 2795.79 998.905 2911.56C973.982 3027.32 1029.8 3141.56 1123.59 3166.73C1153.77 3174.83 1184.21 3172.7 1212.44 3162.25C1189.17 3167.39 1164.69 3167.17 1140.29 3160.63C1046.65 3135.5 989.704 3026.99 1013.1 2918.31C1036.5 2809.64 1131.39 2741.92 1225.03 2767.05C1260.14 2776.47 1290.08 2797.6 1312.58 2826.08C1289.65 2787.44 1255.49 2758.65 1213.85 2747.47Z" fill="#D15B5B" stroke="#B50000" stroke-width="0.358171"/>
<path d="M4725.3 1750.31C4891.29 1617.52 4886.5 1352.56 4714.6 1158.51C4542.69 964.454 4268.76 914.796 4102.77 1047.59C3936.77 1180.39 3941.56 1445.35 4113.47 1639.4C4285.38 1833.45 4559.3 1883.11 4725.3 1750.31Z" fill="#D00C0C" stroke="#B50000" stroke-width="0.778157"/>
<path d="M4675.54 1694.13C4814.99 1582.57 4810.96 1359.98 4666.54 1196.96C4522.12 1033.93 4292 992.215 4152.55 1103.78C4013.09 1215.34 4017.12 1437.93 4161.54 1600.95C4305.96 1763.98 4536.08 1805.7 4675.54 1694.13Z" fill="#D50D0D" stroke="#B50000" stroke-width="0.778157"/>
<path d="M4152.53 1103.8C4013.08 1215.36 4017.17 1437.94 4161.59 1600.96C4174.47 1615.5 4188.01 1629.08 4202.13 1641.67C4120.5 1514.52 4148.9 1344.2 4275.66 1242.79C4402.39 1141.41 4583.87 1143.76 4701.79 1241.8C4691.16 1226.47 4679.42 1211.5 4666.57 1196.99C4522.15 1033.96 4291.98 992.239 4152.53 1103.8Z" fill="#B40C0C" stroke="#B50000" stroke-width="0.778157"/>
<path d="M4388.08 1743.27C4491.7 1770.9 4597.67 1756.37 4675.48 1694.12C4753.29 1631.88 4786.49 1535.07 4775.5 1433.33C4768.13 1522.97 4726.55 1607.43 4651.72 1667.3C4576.88 1727.17 4482.28 1751.64 4388.08 1743.27Z" fill="#C40707" stroke="#B50000" stroke-width="0.778157"/>
<path opacity="0.6788" d="M4105.07 1050.24C3940.33 1182.03 3945.16 1445.04 4115.76 1637.62C4286.37 1830.2 4558.19 1879.48 4722.92 1747.69C4775.94 1705.28 4811.39 1649.25 4829.42 1586.39C4808.47 1633.74 4776.59 1676.32 4733.75 1710.6C4569.27 1842.18 4306.02 1802.25 4145.86 1621.46C3985.7 1440.68 3989.25 1187.45 4153.73 1055.87C4215.42 1006.53 4290.92 981.292 4369.72 978.562C4272.57 968.983 4178.22 991.723 4105.07 1050.24Z" fill="#D15B5B" stroke="#B50000" stroke-width="0.778157"/>
<path d="M906.797 1870.74C677.819 1687.56 684.429 1322.06 921.561 1054.39C1158.69 786.709 1536.55 718.209 1765.53 901.389C1994.51 1084.57 1987.9 1450.06 1750.76 1717.74C1513.63 1985.42 1135.77 2053.92 906.797 1870.74Z" fill="#D00C0C" stroke="#B50000" stroke-width="1.0734"/>
<path d="M975.446 1793.23C783.081 1639.34 788.634 1332.29 987.849 1107.42C1187.06 882.539 1504.5 824.992 1696.87 978.882C1889.23 1132.77 1883.68 1439.82 1684.46 1664.7C1485.25 1889.58 1167.81 1947.12 975.446 1793.23Z" fill="#D50D0D" stroke="#B50000" stroke-width="1.0734"/>
<path d="M1696.9 978.937C1889.27 1132.83 1883.62 1439.86 1684.4 1664.73C1666.64 1684.79 1647.96 1703.52 1628.49 1720.88C1741.09 1545.49 1701.91 1310.55 1527.05 1170.67C1352.24 1030.82 1101.91 1034.05 939.242 1169.3C953.902 1148.15 970.097 1127.5 987.827 1107.48C1187.04 882.604 1504.54 825.047 1696.9 978.937Z" fill="#B40C0C" stroke="#B50000" stroke-width="1.0734"/>
<path d="M1371.98 1861.03C1229.04 1899.15 1082.86 1879.1 975.534 1793.24C868.205 1707.38 822.402 1573.84 837.558 1433.5C847.729 1557.14 905.081 1673.66 1008.31 1756.24C1111.54 1838.82 1242.04 1872.58 1371.98 1861.03Z" fill="#C40707" stroke="#B50000" stroke-width="1.0734"/>
<path opacity="0.6788" d="M1762.35 905.051C1989.6 1086.84 1982.93 1449.64 1747.6 1715.29C1512.27 1980.94 1137.32 2048.91 910.073 1867.12C836.948 1808.62 788.046 1731.33 763.174 1644.63C792.076 1709.94 836.046 1768.68 895.143 1815.95C1122.03 1997.46 1485.16 1942.38 1706.09 1693C1927.01 1443.62 1922.11 1094.32 1695.22 912.811C1610.14 844.745 1505.99 809.938 1397.29 806.172C1531.3 792.958 1661.45 824.326 1762.35 905.051Z" fill="#D15B5B" stroke="#B50000" stroke-width="1.0734"/>
<path d="M4413.57 2402.02C4516.35 2319.8 4513.39 2155.74 4406.94 2035.58C4300.5 1915.43 4130.89 1884.68 4028.11 1966.91C3925.33 2049.13 3928.29 2213.19 4034.74 2333.35C4141.18 2453.5 4310.79 2484.25 4413.57 2402.02Z" fill="#D00C0C" stroke="#B50000" stroke-width="0.481824"/>
<path d="M4382.76 2367.24C4469.11 2298.16 4466.62 2160.33 4377.19 2059.39C4287.77 1958.45 4145.28 1932.62 4058.93 2001.7C3972.58 2070.77 3975.08 2208.6 4064.5 2309.54C4153.92 2410.49 4296.41 2436.32 4382.76 2367.24Z" fill="#D50D0D" stroke="#B50000" stroke-width="0.481824"/>
<path d="M4058.9 2001.72C3972.55 2070.8 3975.09 2208.62 4064.51 2309.56C4072.49 2318.56 4080.87 2326.97 4089.61 2334.76C4039.07 2256.03 4056.65 2150.57 4135.14 2087.78C4213.61 2025.01 4325.98 2026.46 4399 2087.17C4392.42 2077.68 4385.15 2068.41 4377.19 2059.42C4287.77 1958.48 4145.25 1932.64 4058.9 2001.72Z" fill="#B40C0C" stroke="#B50000" stroke-width="0.481824"/>
<path d="M4204.77 2397.67C4268.93 2414.78 4334.55 2405.78 4382.72 2367.24C4430.9 2328.7 4451.46 2268.76 4444.66 2205.76C4440.09 2261.26 4414.35 2313.57 4368.01 2350.63C4321.67 2387.7 4263.1 2402.86 4204.77 2397.67Z" fill="#C40707" stroke="#B50000" stroke-width="0.481824"/>
<path opacity="0.6788" d="M4029.54 1968.55C3927.54 2050.15 3930.53 2213 4036.16 2332.24C4141.8 2451.49 4310.11 2482 4412.11 2400.4C4444.93 2374.14 4466.88 2339.44 4478.05 2300.52C4465.07 2329.84 4445.34 2356.21 4418.81 2377.43C4316.97 2458.9 4153.97 2434.18 4054.8 2322.24C3955.63 2210.3 3957.83 2053.51 4059.67 1972.03C4097.87 1941.48 4144.62 1925.85 4193.41 1924.16C4133.26 1918.23 4074.84 1932.31 4029.54 1968.55Z" fill="#D15B5B" stroke="#B50000" stroke-width="0.481824"/>
<path d="M1851.73 830.987C1748.95 748.762 1751.91 584.702 1858.36 464.548C1964.8 344.394 2134.41 313.646 2237.19 395.871C2339.97 478.096 2337.01 642.156 2230.56 762.31C2124.12 882.464 1954.51 913.212 1851.73 830.987Z" fill="#D00C0C" stroke="#B50000" stroke-width="0.481824"/>
<path d="M1882.54 796.203C1796.19 727.126 1798.68 589.298 1888.11 488.357C1977.53 387.415 2120.02 361.584 2206.37 430.661C2292.71 499.738 2290.22 637.566 2200.8 738.507C2111.38 839.449 1968.89 865.28 1882.54 796.203Z" fill="#D50D0D" stroke="#B50000" stroke-width="0.481824"/>
<path d="M2206.4 430.686C2292.75 499.763 2290.21 637.58 2200.79 738.522C2192.81 747.524 2184.43 755.931 2175.69 763.725C2226.23 684.998 2208.64 579.537 2130.16 516.748C2051.69 453.973 1939.32 455.427 1866.3 516.133C1872.88 506.639 1880.15 497.37 1888.11 488.386C1977.53 387.445 2120.05 361.609 2206.4 430.686Z" fill="#B40C0C" stroke="#B50000" stroke-width="0.481824"/>
<path d="M2060.53 826.634C1996.37 843.744 1930.75 834.746 1882.58 796.205C1834.4 757.664 1813.84 697.723 1820.64 634.726C1825.21 690.228 1850.95 742.528 1897.29 779.598C1943.63 816.667 2002.2 831.821 2060.53 826.634Z" fill="#C40707" stroke="#B50000" stroke-width="0.481824"/>
<path opacity="0.6788" d="M2235.76 397.513C2337.76 479.114 2334.77 641.964 2229.14 761.207C2123.5 880.45 1955.19 910.962 1853.19 829.36C1820.37 803.102 1798.42 768.41 1787.25 729.489C1800.22 758.807 1819.96 785.173 1846.49 806.394C1948.33 887.87 2111.33 863.145 2210.5 751.204C2309.67 639.263 2307.47 482.471 2205.62 400.996C2167.43 370.443 2120.68 354.819 2071.89 353.129C2132.04 347.197 2190.46 361.278 2235.76 397.513Z" fill="#D15B5B" stroke="#B50000" stroke-width="0.481824"/>
<path d="M448.819 2897.11C285.719 2924.07 147.168 2799.82 139.356 2619.59C131.544 2439.35 257.429 2271.39 420.528 2244.43C583.628 2217.48 722.179 2341.73 729.991 2521.96C737.803 2702.19 611.918 2870.15 448.819 2897.11Z" fill="#D00C0C" stroke="#B50000" stroke-width="0.572434"/>
<path d="M446.566 2844.93C309.546 2867.58 193.149 2763.2 186.586 2611.78C180.023 2460.37 285.779 2319.26 422.8 2296.62C559.82 2273.97 676.217 2378.35 682.78 2529.77C689.343 2681.18 583.587 2822.28 446.566 2844.93Z" fill="#D50D0D" stroke="#B50000" stroke-width="0.572434"/>
<path d="M422.816 2296.62C559.836 2273.98 676.185 2378.39 682.748 2529.81C683.333 2543.31 683.04 2556.72 681.896 2569.98C659.531 2468.32 552.959 2405.13 428.411 2425.72C303.893 2446.3 204.211 2543.54 190.877 2651.07C188.616 2638.39 187.167 2625.29 186.583 2611.82C180.02 2460.4 285.795 2319.27 422.816 2296.62Z" fill="#B40C0C" stroke="#B50000" stroke-width="0.572434"/>
<path d="M632.633 2715.19C589.726 2782.79 523.044 2832.27 446.594 2844.9C370.145 2857.54 300.083 2830.67 251.968 2778.11C303.843 2815.38 371.985 2832.15 445.515 2819.99C519.044 2807.84 584.704 2768.95 632.633 2715.19Z" fill="#C40707" stroke="#B50000" stroke-width="0.572434"/>
<path opacity="0.6788" d="M420.658 2246.88C582.521 2220.13 720.01 2343.5 727.763 2522.37C735.516 2701.23 610.599 2867.9 448.736 2894.66C396.65 2903.27 347.071 2896.31 303.542 2876.99C340.431 2887.64 380.854 2890.31 422.948 2883.35C584.561 2856.64 709.693 2698.81 702.415 2530.89C695.136 2362.98 558.203 2248.54 396.59 2275.25C335.985 2285.27 280.543 2313.69 235.261 2354.19C284.188 2298.31 348.783 2258.76 420.658 2246.88Z" fill="#D15B5B" stroke="#B50000" stroke-width="0.572434"/>
<path d="M4842.95 4680.5C4989.28 4564.51 4985.05 4333.07 4833.52 4163.58C4681.98 3994.08 4440.52 3950.7 4294.19 4066.7C4147.87 4182.69 4152.09 4414.12 4303.63 4583.62C4455.16 4753.11 4696.63 4796.49 4842.95 4680.5Z" fill="#D00C0C" stroke="#B50000" stroke-width="0.682977"/>
<path d="M4799.09 4631.43C4922.01 4533.98 4918.46 4339.55 4791.16 4197.16C4663.85 4054.76 4461 4018.32 4338.07 4115.77C4215.14 4213.21 4218.69 4407.64 4346 4550.04C4473.3 4692.43 4676.16 4728.87 4799.09 4631.43Z" fill="#D50D0D" stroke="#B50000" stroke-width="0.682977"/>
<path d="M4338.06 4115.81C4215.14 4213.25 4218.75 4407.66 4346.05 4550.06C4357.41 4562.76 4369.34 4574.62 4381.78 4585.61C4309.83 4474.55 4334.87 4325.78 4446.6 4237.21C4558.32 4148.66 4718.28 4150.71 4822.24 4236.34C4812.87 4222.95 4802.52 4209.87 4791.19 4197.2C4663.88 4054.81 4460.99 4018.36 4338.06 4115.81Z" fill="#B40C0C" stroke="#B50000" stroke-width="0.682977"/>
<path d="M4545.7 4674.34C4637.04 4698.48 4730.45 4685.79 4799.04 4631.42C4867.63 4577.05 4896.9 4492.49 4887.21 4403.63C4880.71 4481.92 4844.06 4555.7 4778.1 4607.99C4712.13 4660.28 4628.74 4681.66 4545.7 4674.34Z" fill="#C40707" stroke="#B50000" stroke-width="0.682977"/>
<path opacity="0.6788" d="M4296.21 4069.01C4151 4184.12 4155.25 4413.85 4305.64 4582.06C4456.03 4750.27 4695.63 4793.31 4840.85 4678.2C4887.58 4641.16 4918.83 4592.22 4934.72 4537.32C4916.25 4578.67 4888.15 4615.87 4850.39 4645.8C4705.4 4760.74 4473.35 4725.86 4332.17 4567.95C4190.99 4410.04 4194.12 4188.86 4339.11 4073.93C4393.48 4030.83 4460.04 4008.79 4529.5 4006.4C4443.86 3998.03 4360.7 4017.9 4296.21 4069.01Z" fill="#D15B5B" stroke="#B50000" stroke-width="0.682977"/>
<path opacity="0.375" d="M4903.2 840.387C5067.1 1263.58 5128.67 1719.51 5082.87 2171.01C5005.78 2930.89 4629.97 3629.03 4038.11 4111.84C3446.25 4594.65 2686.82 4822.58 1926.89 4745.5C1318.32 4682.63 745.585 4427.6 291.699 4017.39C483.622 4512.95 808.936 4945.75 1231.63 5267.88C1654.33 5590.01 2157.92 5788.9 2686.67 5842.54C3446.6 5919.63 4206.03 5691.69 4797.89 5208.88C5389.75 4726.07 5765.56 4027.94 5842.65 3268.06C5887.69 2818.07 5826.11 2363.79 5662.89 1942.03C5499.68 1520.26 5239.42 1142.86 4903.2 840.387V840.387Z" fill="#4B0101" fill-opacity="0.890196"/>
<g opacity="0.329" filter="url(#filter0_f)">
<path d="M1659.89 2772.32C2286.93 2772.32 2795.25 2264.03 2795.25 1637.03C2795.25 1010.02 2286.93 501.738 1659.89 501.738C1032.84 501.738 524.525 1010.02 524.525 1637.03C524.525 2264.03 1032.84 2772.32 1659.89 2772.32Z" fill="white" fill-opacity="0.988235"/>
</g>
<path d="M5240.86 3245.58C5103.94 3233.84 4995.65 3056.7 4998.99 2849.93C5002.32 2643.16 5116.02 2485.06 5252.94 2496.8C5389.85 2508.54 5498.14 2685.68 5494.81 2892.45C5491.47 3099.22 5377.78 3257.32 5240.86 3245.58Z" fill="#D00C0C" stroke="#B50000" stroke-width="0.558791"/>
<path d="M5241.83 3185.72C5126.81 3175.86 5035.83 3027.05 5038.64 2853.34C5041.44 2679.63 5136.95 2546.81 5251.98 2556.67C5367 2566.54 5457.98 2715.35 5455.17 2889.06C5452.37 3062.76 5356.86 3195.59 5241.83 3185.72Z" fill="#D50D0D" stroke="#B50000" stroke-width="0.558791"/>
<path d="M5251.99 2556.68C5367.01 2566.54 5457.94 2715.37 5455.14 2889.08C5454.89 2904.57 5453.92 2919.73 5452.24 2934.5C5439.21 2813.21 5354.15 2713.74 5249.6 2704.78C5145.07 2695.81 5056.99 2780.38 5040.05 2899.07C5038.87 2884.08 5038.38 2868.83 5038.63 2853.37C5041.43 2679.66 5136.96 2546.81 5251.99 2556.68Z" fill="#B40C0C" stroke="#B50000" stroke-width="0.558791"/>
<path d="M5403.43 3086.66C5364.11 3152.32 5306.04 3191.2 5241.86 3185.7C5177.68 3180.19 5120.96 3131.47 5083.87 3059.26C5124.92 3115.07 5180.59 3151.82 5242.32 3157.12C5304.05 3162.41 5360.69 3135.29 5403.43 3086.66Z" fill="#C40707" stroke="#B50000" stroke-width="0.558791"/>
<path opacity="0.6788" d="M5252.91 2499.61C5388.79 2511.26 5496.25 2687.13 5492.94 2892.33C5489.63 3097.53 5376.81 3254.42 5240.93 3242.76C5197.2 3239.01 5156.41 3218.24 5121.31 3184.99C5151.37 3206.66 5184.79 3220.2 5220.13 3223.23C5355.8 3234.86 5468.31 3088.07 5471.42 2895.43C5474.53 2702.79 5367.05 2537.22 5231.38 2525.59C5180.5 2521.23 5132.91 2539.11 5093.1 2573.35C5136.78 2522.58 5192.58 2494.44 5252.91 2499.61Z" fill="#D15B5B" stroke="#B50000" stroke-width="0.558791"/>
<defs>
<filter id="filter0_f" x="474.083" y="451.296" width="2371.61" height="2371.46" filterUnits="userSpaceOnUse" color-interpolation-filters="sRGB">
<feFlood flood-opacity="0" result="BackgroundImageFix"/>
<feBlend mode="normal" in="SourceGraphic" in2="BackgroundImageFix" result="shape"/>
<feGaussianBlur stdDeviation="25.221" result="effect1_foregroundBlur"/>
</filter>
</defs>
</svg>
