<svg width="3433" height="7209" viewBox="0 0 3433 7209" fill="none" xmlns="http://www.w3.org/2000/svg">
<mask id="mask0" mask-type="alpha" maskUnits="userSpaceOnUse" x="0" y="0" width="3433" height="7209">
<path d="M0 0H3433V7209H0V0Z" fill="#C4C4C4"/>
</mask>
<g mask="url(#mask0)">
<path d="M3405.02 6567.67C4995.61 6567.67 6285.04 5278.33 6285.04 3687.84C6285.04 2097.35 4995.61 808 3405.02 808C1814.43 808 525 2097.35 525 3687.84C525 5278.33 1814.43 6567.67 3405.02 6567.67Z" fill="#B20604" fill-opacity="0.988235"/>
<path d="M3405.01 6509.73C4963.59 6509.73 6227.08 5246.33 6227.08 3687.84C6227.08 2129.35 4963.59 865.95 3405.01 865.95C1846.42 865.95 582.938 2129.35 582.938 3687.84C582.938 5246.33 1846.42 6509.73 3405.01 6509.73Z" fill="#8B0000" fill-opacity="0.988235"/>
<path d="M3405.01 6494.83C4955.37 6494.83 6212.18 5238.1 6212.18 3687.84C6212.18 2137.58 4955.37 880.851 3405.01 880.851C1854.65 880.851 597.838 2137.58 597.838 3687.84C597.838 5238.1 1854.65 6494.83 3405.01 6494.83Z" fill="#E40000"/>
<path d="M3401.34 874.688C3270.85 875.688 3140.59 885.815 3011.51 904.994C2961.81 983.988 2927.52 1070.49 2921.4 1160.01C2914.02 1268.22 2974.23 1380.51 3048.5 1459.55C3141.15 1558.17 3284.43 1594.77 3411.57 1641.08C3619.12 1716.68 3837.46 1827.37 4056.03 1795.4C4229.07 1770.08 4520.43 1706.72 4509.88 1532.16C4497.37 1325.17 4145.01 1300.21 3938.04 1287.1C3784.15 1277.34 3636.06 1472.32 3493.25 1414.18C3448.06 1395.78 3405.13 1333.35 3420.64 1287.1C3435.28 1243.4 3505.06 1250.09 3547.73 1232.66C3655.92 1188.45 3759.01 1123.53 3874.49 1105.57C4066.21 1075.77 4276.23 1067.52 4455.44 1141.88C4649.46 1222.38 4865.19 1358.78 4927.43 1559.4C4964.39 1678.54 4908.51 1820.48 4836.64 1922.45C4773.8 2011.61 4670.27 2077.82 4564.36 2103.97C4280.84 2173.98 3975.2 2088.2 3692.96 2013.22C3475.61 1955.49 3273.67 1847.59 3075.7 1740.92C2879.17 1635.03 2679.1 1526.95 2512.92 1377.88C2431.49 1304.82 2373.64 1200.83 2317.92 1095.96C2086.39 1192.51 1868.9 1319.76 1671.28 1474.28C1739.69 1539.8 1807.48 1604.23 1859.4 1668.31C1940.2 1768.05 2038.16 1852.73 2131.72 1940.62C2231.71 2034.55 2311.98 2164.37 2440.31 2212.88C2576.16 2264.24 2730.8 2212.88 2876.03 2212.88C3075.72 2212.88 3275.55 2205.77 3475.11 2212.88C3644.88 2218.94 3815.66 2222.44 3983.41 2249.19C4081.97 2264.9 4175.08 2307.63 4273.87 2321.8C4423.74 2343.3 4584.31 2388.52 4727.72 2339.97C4925.14 2273.13 5087.63 2110.17 5208.82 1940.62C5266.67 1859.67 5321.17 1767.8 5352.99 1671.48C4831.19 1161.64 4130.89 875.726 3401.34 874.688V874.688ZM5362.23 1680.07C5351.38 1734.58 5345.98 1795.04 5326.06 1840.8C5298.09 1905.03 5269.95 1969.31 5237.49 2031.39C5195.28 2112.11 5037.8 2200.5 5099.69 2267.32C5193.85 2368.99 5380.65 2188.51 5473.71 2085.83C5514.57 2040.75 5556.09 1986.02 5588.05 1927.53C5517.78 1840.61 5442.38 1757.97 5362.23 1680.07V1680.07ZM1240.2 1897.77C1147.29 2011.64 1063.5 2132.65 989.597 2259.69C1056.49 2282.95 1127.5 2305.5 1169.53 2349.03C1226.12 2407.64 1273.42 2479.71 1296.62 2557.8C1352.66 2746.4 1233.86 2968.42 1314.76 3147.77C1371.08 3272.64 1505.27 3346.22 1614.32 3429.14C1758.06 3538.44 1945.5 3587.02 2077.24 3710.51C2158.07 3786.29 2172.58 3926.25 2267.84 3982.82C2547.95 4149.14 2913.75 4075.07 3239.1 4091.73C3562.44 4108.29 3886.7 4090.88 4210.36 4082.63C4355.67 4078.92 4508.06 4110.22 4646.04 4064.49C4798.99 4013.81 4916.81 3889.26 5045.42 3792.19C5309.48 3592.89 5567.99 3384.64 5807.9 3156.84C5904.53 3065.09 5984.59 2956.83 6076.3 2860.3C6058.81 2801.2 6039.36 2742.7 6018 2684.88C5877.7 2783.36 5720.22 2932.7 5590.06 2984.38C5259.22 3115.77 4902.19 3181.8 4582.5 3338.36C4482.25 3387.46 4407.22 3485.26 4301.11 3519.89C4102.3 3584.76 3872 3486.67 3674.78 3556.23C3576.6 3590.85 3403.6 3635.05 3420.64 3737.75C3441.32 3862.39 3657.6 3839.29 3783.74 3846.66C3940.17 3855.81 4109.04 3839.87 4246.66 3764.95C4297.43 3737.32 4389.94 3689.88 4364.65 3637.9C4300.9 3506.86 3959.01 3816.81 3928.97 3674.21C3909.84 3583.39 4100.96 3600.52 4192.19 3583.43C4269.56 3568.93 4363.89 3528.96 4428.2 3574.36C4469.63 3603.61 4490.99 3671.95 4473.57 3719.58C4446.47 3793.68 4347.21 3817.59 4273.87 3846.66C4153.61 3894.34 4021.66 3909.55 3892.66 3919.27C3732.64 3931.34 3565.74 3945.64 3411.57 3901.1C3347.75 3882.67 3279.75 3853.79 3239.1 3801.26C3204.51 3756.55 3172.6 3690.33 3193.72 3637.9C3222.62 3566.19 3323.85 3553.68 3393.4 3519.89C3445.96 3494.35 3569.77 3513.35 3556.8 3456.38C3539.28 3379.45 3398.09 3490.3 3320.78 3474.52C3237.25 3457.46 3178.36 3367.99 3093.87 3356.53C2906.87 3331.18 2727.83 3454.74 2540.16 3474.52C2449.89 3484.03 2352.44 3507.42 2267.84 3474.52C2130.13 3420.95 2036.57 3287.77 1941.08 3175.01C1847.8 3064.86 1793.67 2925.88 1705.07 2811.93C1672.21 2769.67 1622.36 2740.61 1596.15 2693.95C1499.05 2521.12 1536.35 2291.17 1432.78 2122.14C1383.37 2041.49 1322.43 1940.69 1240.2 1897.77V1897.77ZM3160.45 2342.42C3123.9 2343.12 3090.34 2352.1 3062.41 2376.24C3020.9 2412.1 3014.85 2492.35 3042.7 2539.59C3087.65 2615.83 3201.02 2627.83 3288.77 2639.44C3387.07 2652.45 3485.06 2609.2 3584.03 2603.13C3639.7 2599.72 3695.7 2606.78 3751.35 2603.13C3843.81 2597.07 4008.03 2657.53 4026.91 2566.83C4044.86 2480.63 3883.86 2459.21 3800.55 2430.71C3678.64 2389.02 3545.22 2394.53 3416.71 2385.31C3335.7 2379.49 3240.86 2340.89 3160.45 2342.42V2342.42ZM6128.19 3060.85C5680.16 3073.7 5391.17 4032.54 4888.6 4225.09C4812.58 4254.21 4724.52 4221.87 4644.71 4237.94C4415.17 4284.16 4203.43 4394.72 3983.62 4475.4C3743.38 4563.58 3512.05 4679.14 3264.74 4744.94C3174.66 4768.91 3081.9 4787 2988.73 4789.87C2773.82 4796.5 2556.43 4773.93 2346.9 4725.68C2051.39 4657.64 1766.22 4543.31 1493.26 4411.21C1330.76 4332.57 1191.26 4045.47 1031.12 4128.82C1000.7 4144.65 1018.25 4197.81 1024.71 4231.49C1040.75 4315.14 1075.73 4400.27 1133.84 4462.55C1384.75 4731.47 1747.81 4884.92 2096.6 5001.67C2186.7 5031.82 2284.07 5036.71 2379.01 5040.19C2516.12 5045.2 2656.12 5045.44 2789.78 5014.52C2920.62 4984.25 3032.38 4895.39 3162.05 4860.47C3270.45 4831.28 3383.61 4819.1 3495.81 4815.54C3648.01 4810.71 3799.98 4832.51 3951.5 4847.65C4183.34 4870.82 4411.77 4932.5 4644.71 4937.48C4818.61 4941.19 5000.45 4950.11 5164.6 4892.58C5310.2 4841.56 5456.59 4758.87 5549.69 4635.86C5595.83 4574.9 5678.28 4467.45 5620.3 4417.62C5587.65 4389.56 5543.45 4456.5 5504.76 4475.4C5362.04 4545.15 5224.08 4626.65 5074.74 4680.79C4977.17 4716.15 4875.75 4772.81 4773.06 4757.79C4723.69 4750.57 4659.47 4728.45 4644.71 4680.79C4628 4626.83 4675.78 4567.07 4715.31 4526.74C4811.77 4428.34 4973.94 4424.92 5087.59 4347.02C5387.23 4141.63 5602.72 3833.12 5883.45 3602.55C5971.27 3530.42 6093.3 3489.97 6186.45 3425.05C6175.06 3302.5 6155.6 3180.83 6128.19 3060.85V3060.85ZM2049.56 3077.11C2040.87 3077.19 2031.95 3080.78 2022.76 3088.76C1943.23 3157.84 2111.58 3297.52 2204.33 3347.47C2296.28 3396.97 2503.63 3460.03 2517.49 3356.53C2530.31 3260.89 2321.03 3334.29 2236.1 3288.46C2161.11 3247.98 2110.34 3076.55 2049.56 3077.11V3077.11ZM678.686 4303.49C721.051 4486.22 781.686 4664.23 859.675 4834.83C989.737 4898.39 1152 4916.25 1275.04 4995.26C1484.37 5129.67 1626.56 5355.03 1839.86 5483.04C2185.99 5690.75 2585.2 5795.93 2969.51 5919.44C3148.35 5976.92 3328.26 6080.36 3515.07 6060.64C3791.01 6031.51 3999.82 5785.93 4259.58 5688.39C4505.88 5595.9 4780.36 5590.19 5023.4 5489.44C5206.77 5413.43 5361.48 5280.76 5536.88 5187.79C5621.07 5143.17 5717.76 5115.19 5813.01 5085.83C5955.17 4843.21 6059.94 4580.55 6123.79 4306.69C5911.19 4375.63 5718.75 4784.05 5498.35 4931.07C5274.28 5080.54 5036.46 5208.77 4798.74 5335.4C4510.76 5488.79 4239.16 5700.4 3919.42 5765.43C3684.27 5813.25 3437.87 5762.4 3200.54 5726.91C2875.69 5678.33 2549.43 5610.81 2244.22 5489.44C2066.18 5418.65 1899.17 5318.87 1743.59 5207.05C1556.61 5072.66 1414.08 4883.42 1230.11 4744.94C1058.91 4616.08 855.601 4302.79 678.686 4303.49V4303.49ZM3496.76 4930.25C3485.8 4930.05 3474.79 4930.3 3463.73 4931.07C3328.92 4940.42 3087.04 4956.48 3091.45 5091.52C3094.79 5193.65 3286.11 5154.52 3380.27 5194.2C3496.66 5243.25 3595.5 5342.76 3720.47 5361.07C3823.48 5376.16 3926.29 5329.27 4028.55 5309.73C4247.83 5267.83 4691.78 5391.6 4683.2 5168.53C4674.07 4931.2 4209.87 5119.9 3977.17 5072.26C3814.14 5038.89 3661.16 4933.2 3496.76 4930.25V4930.25Z" fill="#EC412C"/>
<path d="M1596.67 1538.34C1565.78 1564.3 1535.46 1590.93 1505.72 1618.21C1565.46 1686.08 1622.12 1755.21 1650.03 1839.48C1685.91 1947.83 1630.34 2070.82 1656.88 2181.83C1711.01 2408.34 1782.42 2660.83 1960.25 2811.22C2052.05 2888.85 2198.07 2860.1 2306.65 2911.71C2450.76 2980.2 2549.74 3131.24 2700.34 3183.95C3035.54 3301.25 3412.28 3310.45 3763.3 3256.55C3993.11 3221.27 4184.4 3045.55 4412.87 3002.46C4561.17 2974.48 4732.65 3073.84 4865.6 3002.46C4980.72 2940.65 4989.33 2767.73 5082.12 2675.75C5238.96 2520.26 5464.93 2452.25 5637.56 2314.51C5677.16 2282.91 5730.46 2250.28 5787.97 2216.81C5774.43 2193.52 5760.56 2170.43 5746.35 2147.54C5724.34 2169.36 5702.04 2187.7 5679.5 2200.51C5477.02 2315.59 5241.48 2358.95 5023.07 2439.78C4845.59 2505.47 4672.77 2584.79 4491.59 2639.44C4311.09 2693.89 4128.92 2762 3940.44 2766.49C3600.48 2774.6 3267.28 2664.06 2936.56 2584.97C2690.11 2526.03 2419.23 2507.48 2208.23 2367.17C1993.06 2224.09 1872.71 1973.78 1716.16 1768.2C1671.48 1709.53 1633.02 1627.38 1596.67 1538.34V1538.34ZM4675 1566.56C4669.17 1566.78 4663.49 1567.78 4658.06 1569.63C4595.06 1591.11 4609.39 1693.54 4582.82 1754.56C4565.01 1795.47 4547.1 1836.42 4526.43 1875.95C4499.55 1927.35 4399.26 1983.66 4438.68 2026.22C4498.64 2090.96 4617.58 1976.01 4676.84 1910.62C4741.66 1839.1 4809.77 1729.8 4777.14 1638.97C4763.55 1601.14 4715.84 1565.06 4675 1566.56V1566.56ZM805.622 2633.51C753.583 2764.2 711.475 2898.63 679.655 3035.66C776.492 3099.98 873.212 3166.02 928.453 3243.12C1038.34 3396.5 1111.91 3572.89 1204.45 3737.31C1285.28 3880.92 1332.52 4050.12 1448.34 4167.34C1594.56 4315.34 1796.2 4400 1987.49 4481.81C2122.59 4539.6 2265.79 4582.01 2411.11 4603.75C2538.08 4622.74 2667.96 4616.22 2796.2 4610.19C2989.73 4601.09 3185.81 4592.52 3373.88 4546C3561.31 4499.64 3729.91 4395.43 3913.03 4334.21C4026.75 4296.19 4176.71 4324.57 4259.6 4237.94C4279.32 4217.32 4297.21 4176.36 4278.86 4154.49C4146.68 3996.94 3866.37 4158.02 3662.7 4186.6C3408.29 4222.3 3168.62 4356.73 2911.74 4359.88C2826.57 4360.92 2742.6 4334.37 2661.44 4308.54C2514.47 4261.76 2375.83 4191.29 2237.82 4122.41C2042.41 4024.89 1846.32 3925.54 1666.56 3801.5C1512.79 3695.4 1345.22 3594.05 1236.53 3442.1C1149.85 3320.92 1146.48 3156.22 1076.07 3024.92C1001.37 2885.62 943.575 2707.66 805.622 2633.51V2633.51ZM628.689 3316.82C617.346 3405.84 610.293 3495.34 607.553 3585.04C609.618 3586.59 611.972 3588.15 613.962 3589.71C702.977 3659.39 828.222 3677.68 909.191 3756.57C971.736 3817.51 984.141 3917.63 1043.99 3981.22C1106.21 4047.33 1191.92 4183.83 1268.61 4135.23C1325.36 4099.27 1264.69 3997.28 1236.53 3936.29C1181.19 3816.41 1074.84 3726.29 979.794 3634.64C869.969 3528.73 768.686 3328 628.689 3316.82ZM6194.61 3534.75C6075.6 3574.74 5995.33 3705.95 5909.17 3801.5C5846.37 3871.14 5817.62 3968.97 5748.7 4032.56C5592.28 4176.87 5347.82 4203.61 5196.7 4353.47C5149.02 4400.75 5062.73 4467.33 5094.01 4526.74C5123.98 4583.66 5224.33 4555.88 5286.56 4539.59C5407.69 4507.89 5495.68 4266.58 5601.05 4334.21C5637.47 4357.58 5589.28 4419.93 5581.82 4462.55C5570.55 4527.03 5540.47 4589.7 5543.3 4655.09C5545.61 4708.52 5540.86 4784.31 5588.23 4809.14C5642.17 4837.39 5714.61 4790.21 5761.52 4751.39C5825.71 4698.25 5854.27 4611.19 5883.46 4533.15C5916.39 4445.12 5929.7 4350.47 5941.25 4257.2C5947.8 4204.08 5929.72 4147.18 5947.66 4096.74C5979.92 4006.04 6058.32 3938.79 6120.98 3865.69C6139.79 3843.74 6165.22 3824.12 6192.87 3805.39C6196.14 3761.22 6198.36 3716.98 6199.52 3672.71C6199.02 3626.69 6197.38 3580.69 6194.61 3534.75V3534.75ZM2504.45 5194.34C2429.65 5197.47 2371.89 5222.24 2353.33 5290.47C2341.18 5335.13 2425.93 5350.21 2468.86 5367.51C2591.85 5417.09 2729.33 5417.94 2860.4 5438.11C2960.59 5453.53 3062.12 5459.69 3162.07 5476.6C3315.15 5502.49 3463.25 5557.69 3617.77 5572.86C3790.25 5589.81 3964.36 5568.78 4137.66 5566.46C4285.28 5564.47 4440.14 5605.73 4580.53 5560.05C4665.2 5532.5 4831.85 5488.65 4798.75 5406C4755.34 5297.58 4568.21 5444.04 4452.18 5457.37C4217.59 5484.31 3980.87 5540.93 3746.15 5515.12C3458.93 5483.54 3204.96 5293.55 2918.15 5258.39C2801.16 5244.06 2629.12 5189.12 2504.45 5194.34V5194.34ZM1086.98 5239.13C1086.61 5239.12 1086.26 5239.19 1085.89 5239.17C1341.86 5617.98 1686.75 5928.3 2090.4 6142.99C2494.05 6357.68 2944.16 6470.2 3401.36 6470.7C3845.85 6470.52 4283.9 6364.46 4679.24 6161.31C4655.39 6170.2 4631.12 6177.54 4606.21 6182.58C4472.01 6209.75 4327.2 6145.29 4195.45 6182.58C4101.18 6209.26 4040.95 6316.27 3945.12 6336.63C3676.96 6393.58 3394.1 6300.89 3129.97 6227.51C3062.57 6208.79 2998.86 6177.53 2937.42 6144.09C2842.56 6092.47 2768.21 6004.29 2667.86 5964.38C2585.17 5931.49 2493.69 5918.43 2404.71 5919.45C2326.25 5920.35 2250.83 5978.43 2173.64 5964.38C1961.01 5925.66 1808.99 5731.98 1621.64 5624.24C1452.42 5526.93 1245.32 5245.74 1086.98 5239.13L1086.98 5239.13ZM5414.37 5611.69C5371.49 5638.7 5328.03 5663.69 5286.56 5669.17C5089.02 5695.25 4879.89 5577.78 4689.66 5637.05C4576.08 5672.45 4510.22 5795.68 4407.25 5855.26C4247 5947.98 4071.51 6015.22 3893.77 6067.05C3741.47 6111.46 3412.78 5992.36 3425.22 6150.5C3433.94 6261.42 3647.86 6162.98 3758.97 6156.91C3959.29 6145.97 4159.61 6121.33 4355.91 6079.9C4569.85 6034.75 4771.99 5943.61 4984.89 5893.78C5028.35 5883.61 5074.56 5879.73 5121.66 5878.1C5225.4 5796.31 5323.21 5707.29 5414.37 5611.69V5611.69Z" fill="#F10F0F"/>
<path d="M1905.22 5322.58C2178.82 5217.07 2282.86 4866.64 2137.61 4539.86C1992.36 4213.09 1652.82 4033.71 1379.22 4139.21C1105.62 4244.72 1001.58 4595.15 1146.83 4921.92C1292.08 5248.7 1631.62 5428.08 1905.22 5322.58Z" fill="#D00C0C" stroke="#B50000" stroke-width="1.0734"/>
<path d="M1863.17 5227.97C2093.02 5139.33 2180.43 4844.93 2058.4 4570.41C1936.38 4295.88 1651.13 4145.19 1421.28 4233.82C1191.43 4322.45 1104.02 4616.85 1226.04 4891.38C1348.07 5165.9 1633.32 5316.6 1863.17 5227.97Z" fill="#D50D0D" stroke="#B50000" stroke-width="1.0734"/>
<path d="M1421.23 4233.85C1191.38 4322.49 1104.07 4616.89 1226.1 4891.42C1236.98 4915.9 1249.13 4939.4 1262.45 4961.83C1208.06 4760.63 1316.34 4548.48 1525.27 4467.91C1734.15 4387.37 1971.82 4466.03 2086.07 4644.07C2078.48 4619.48 2069.27 4594.9 2058.41 4570.47C1936.39 4295.94 1651.08 4145.22 1421.23 4233.85Z" fill="#B40C0C" stroke="#B50000" stroke-width="1.0734"/>
<path d="M1464.69 5172.88C1589.45 5252.38 1734.86 5277.4 1863.1 5227.95C1991.35 5178.49 2075.33 5065.01 2103.25 4926.64C2056.23 5041.45 1966.37 5135.21 1843.03 5182.78C1719.68 5230.34 1585.08 5223.13 1464.69 5172.88Z" fill="#C40707" stroke="#B50000" stroke-width="1.0734"/>
<path opacity="0.6788" d="M1381.15 4143.67C1109.63 4248.37 1006.44 4596.25 1150.59 4920.54C1294.74 5244.84 1631.67 5422.84 1903.2 5318.14C1990.57 5284.45 2060.52 5225.53 2110.41 5150.38C2063.14 5203.92 2003.49 5246.64 1932.88 5273.87C1661.77 5378.41 1332.22 5216.27 1196.9 4911.83C1061.57 4607.39 1171.7 4275.87 1442.8 4171.33C1544.47 4132.13 1654.27 4130.39 1759.03 4159.61C1635.26 4106.56 1501.72 4097.17 1381.15 4143.67Z" fill="#D15B5B" stroke="#B50000" stroke-width="1.0734"/>
<path d="M2345.52 5980.25C2273.62 6128.47 2379.01 6306.17 2580.92 6377.14C2782.83 6448.12 3004.8 6385.5 3076.7 6237.28C3148.6 6089.05 3043.21 5911.36 2841.3 5840.38C2639.39 5769.4 2417.42 5832.02 2345.52 5980.25Z" fill="#D00C0C" stroke="#B50000" stroke-width="0.622416"/>
<path d="M2403.97 6000.8C2343.57 6125.32 2432.11 6274.61 2601.73 6334.23C2771.36 6393.86 2957.83 6341.25 3018.23 6216.73C3078.64 6092.21 2990.1 5942.93 2820.47 5883.3C2650.85 5823.67 2464.37 5876.28 2403.97 6000.8Z" fill="#D50D0D" stroke="#B50000" stroke-width="0.622416"/>
<path d="M3018.26 6216.69C3078.66 6092.17 2990.07 5942.92 2820.45 5883.29C2805.32 5877.98 2790.08 5873.54 2774.78 5869.98C2884.11 5927.38 2928.54 6052.66 2873.64 6165.85C2818.74 6279.01 2683.43 6341.18 2558.41 6316.24C2572.17 6322.88 2586.62 6328.89 2601.72 6334.2C2771.34 6393.83 2957.85 6341.21 3018.26 6216.69Z" fill="#B40C0C" stroke="#B50000" stroke-width="0.622416"/>
<path d="M2598 5866.53C2510.63 5884.23 2437.73 5931.29 2404.03 6000.77C2370.33 6070.25 2382.94 6147.45 2430.19 6212.47C2401.19 6149.19 2399.52 6077.4 2431.94 6010.58C2464.35 5943.76 2525.01 5893.95 2598 5866.53Z" fill="#C40707" stroke="#B50000" stroke-width="0.622416"/>
<path opacity="0.6788" d="M3073.97 6236.29C3145.32 6089.19 3040.65 5912.83 2840.27 5842.39C2639.89 5771.95 2419.63 5834.09 2348.28 5981.19C2325.32 6028.53 2320.6 6078.91 2331.4 6127.8C2328.72 6088.39 2335.96 6048.36 2354.52 6010.11C2425.76 5863.23 2636.08 5797.78 2824.19 5863.9C3012.3 5930.03 3107.01 6102.71 3035.76 6249.58C3009.04 6304.66 2962.82 6348.27 2905.51 6377.8C2981.14 6350.15 3042.28 6301.61 3073.97 6236.29Z" fill="#D15B5B" stroke="#B50000" stroke-width="0.622416"/>
<path d="M2538.93 4763.22C2664.69 4760.02 2757.25 4633.41 2745.67 4480.44C2734.08 4327.46 2622.73 4206.04 2496.97 4209.24C2371.2 4212.44 2278.64 4339.05 2290.23 4492.02C2301.82 4645 2413.17 4766.42 2538.93 4763.22Z" fill="#D00C0C" stroke="#B50000" stroke-width="0.460509"/>
<path d="M2535.57 4718.93C2641.23 4716.24 2718.99 4609.88 2709.25 4481.36C2699.52 4352.85 2605.97 4250.84 2500.32 4253.53C2394.66 4256.22 2316.9 4362.58 2326.64 4491.09C2336.38 4619.61 2429.92 4721.62 2535.57 4718.93Z" fill="#D50D0D" stroke="#B50000" stroke-width="0.460509"/>
<path d="M2500.31 4253.55C2394.66 4256.24 2316.94 4362.61 2326.67 4491.13C2327.54 4502.59 2329.06 4513.84 2331.22 4524.82C2338.24 4435.68 2412.58 4365.56 2508.61 4363.12C2604.63 4360.68 2689.33 4426.72 2709.83 4515.12C2710.31 4504.09 2710.13 4492.84 2709.26 4481.4C2699.53 4352.88 2605.97 4250.86 2500.31 4253.55Z" fill="#B40C0C" stroke="#B50000" stroke-width="0.460509"/>
<path d="M2382.51 4639.24C2421.47 4689.34 2476.62 4720.41 2535.57 4718.91C2594.51 4717.41 2644.81 4683.66 2676.04 4631.77C2640.49 4671.39 2590.66 4696.32 2533.96 4697.77C2477.27 4699.21 2423.92 4676.89 2382.51 4639.24Z" fill="#C40707" stroke="#B50000" stroke-width="0.460509"/>
<path opacity="0.6788" d="M2497.11 4211.32C2372.3 4214.5 2280.46 4340.19 2291.96 4492.01C2303.46 4643.83 2413.95 4764.31 2538.76 4761.14C2578.92 4760.12 2615.68 4746.39 2646.67 4723.22C2619.85 4738.04 2589.59 4746.7 2557.13 4747.53C2432.52 4750.7 2322.72 4637.68 2311.92 4495.16C2301.13 4352.64 2393.42 4234.56 2518.03 4231.39C2564.77 4230.2 2609.38 4245.32 2647.51 4272.23C2605.14 4232.95 2552.53 4209.91 2497.11 4211.32Z" fill="#D15B5B" stroke="#B50000" stroke-width="0.460509"/>
<path d="M1648.27 3976.32C1742.77 4001.68 1839.74 3927.67 1864.85 3811.02C1889.97 3694.37 1833.72 3579.25 1739.21 3553.89C1644.71 3528.53 1547.74 3602.54 1522.63 3719.19C1497.51 3835.84 1553.77 3950.96 1648.27 3976.32Z" fill="#D00C0C" stroke="#B50000" stroke-width="0.358171"/>
<path d="M1655.54 3942.55C1734.93 3963.85 1816.4 3901.68 1837.49 3803.68C1858.59 3705.68 1811.33 3608.97 1731.94 3587.66C1652.55 3566.36 1571.09 3628.53 1549.99 3726.53C1528.89 3824.53 1576.15 3921.24 1655.54 3942.55Z" fill="#D50D0D" stroke="#B50000" stroke-width="0.358171"/>
<path d="M1731.91 3587.66C1652.52 3566.35 1571.08 3628.55 1549.98 3726.55C1548.1 3735.29 1546.76 3744.01 1545.94 3752.67C1570.84 3687.74 1641.76 3651.84 1713.92 3671.21C1786.07 3690.57 1834.67 3758.51 1830.45 3828.97C1833.24 3820.85 1835.59 3812.41 1837.47 3803.69C1858.57 3705.69 1811.3 3608.96 1731.91 3587.66Z" fill="#B40C0C" stroke="#B50000" stroke-width="0.358171"/>
<path d="M1558.94 3849.33C1576.94 3895.3 1611.22 3930.64 1655.51 3942.52C1699.81 3954.41 1744.77 3940.33 1779.51 3908.52C1744.25 3930.22 1701.59 3937.83 1658.98 3926.4C1616.38 3914.97 1581.51 3886.55 1558.94 3849.33Z" fill="#C40707" stroke="#B50000" stroke-width="0.358171"/>
<path opacity="0.6788" d="M1738.85 3555.47C1645.06 3530.3 1548.83 3603.79 1523.91 3719.56C1498.98 3835.32 1554.8 3949.56 1648.59 3974.73C1678.77 3982.83 1709.21 3980.7 1737.44 3970.25C1714.17 3975.39 1689.69 3975.17 1665.29 3968.63C1571.65 3943.5 1514.7 3834.99 1538.1 3726.31C1561.5 3617.64 1656.39 3549.92 1750.03 3575.05C1785.14 3584.47 1815.08 3605.6 1837.58 3634.08C1814.65 3595.44 1780.49 3566.65 1738.85 3555.47Z" fill="#D15B5B" stroke="#B50000" stroke-width="0.358171"/>
<path d="M1431.8 2678.74C1202.82 2495.56 1209.43 2130.06 1446.56 1862.39C1683.69 1594.71 2061.55 1526.21 2290.53 1709.39C2519.51 1892.57 2512.9 2258.06 2275.76 2525.74C2038.63 2793.42 1660.77 2861.92 1431.8 2678.74Z" fill="#D00C0C" stroke="#B50000" stroke-width="1.0734"/>
<path d="M1500.45 2601.23C1308.08 2447.34 1313.63 2140.29 1512.85 1915.41C1712.06 1690.54 2029.5 1632.99 2221.87 1786.88C2414.23 1940.77 2408.68 2247.82 2209.46 2472.7C2010.25 2697.58 1692.81 2755.12 1500.45 2601.23Z" fill="#D50D0D" stroke="#B50000" stroke-width="1.0734"/>
<path d="M2221.9 1786.94C2414.27 1940.83 2408.62 2247.85 2209.4 2472.73C2191.64 2492.79 2172.96 2511.52 2153.49 2528.88C2266.09 2353.49 2226.91 2118.55 2052.05 1978.67C1877.24 1838.82 1626.91 1842.05 1464.24 1977.3C1478.9 1956.15 1495.1 1935.5 1512.83 1915.48C1712.04 1690.6 2029.54 1633.05 2221.9 1786.94Z" fill="#B40C0C" stroke="#B50000" stroke-width="1.0734"/>
<path d="M1896.98 2669.03C1754.04 2707.15 1607.86 2687.1 1500.53 2601.24C1393.21 2515.38 1347.4 2381.84 1362.56 2241.5C1372.73 2365.14 1430.08 2481.66 1533.31 2564.24C1636.54 2646.82 1767.04 2680.58 1896.98 2669.03Z" fill="#C40707" stroke="#B50000" stroke-width="1.0734"/>
<path opacity="0.6788" d="M2287.35 1713.05C2514.6 1894.84 2507.93 2257.64 2272.6 2523.29C2037.27 2788.94 1662.32 2856.91 1435.07 2675.12C1361.95 2616.62 1313.05 2539.33 1288.17 2452.63C1317.08 2517.94 1361.05 2576.68 1420.14 2623.95C1647.03 2805.46 2010.16 2750.38 2231.09 2501C2452.01 2251.62 2447.11 1902.32 2220.22 1720.81C2135.14 1652.74 2030.99 1617.94 1922.29 1614.17C2056.3 1600.96 2186.45 1632.33 2287.35 1713.05Z" fill="#D15B5B" stroke="#B50000" stroke-width="1.0734"/>
<path d="M2376.73 1638.99C2273.95 1556.76 2276.91 1392.7 2383.36 1272.55C2489.8 1152.39 2659.41 1121.65 2762.19 1203.87C2864.97 1286.1 2862.01 1450.16 2755.56 1570.31C2649.12 1690.46 2479.51 1721.21 2376.73 1638.99Z" fill="#D00C0C" stroke="#B50000" stroke-width="0.481824"/>
<path d="M2407.54 1604.2C2321.19 1535.13 2323.68 1397.3 2413.11 1296.36C2502.53 1195.42 2645.02 1169.58 2731.37 1238.66C2817.71 1307.74 2815.22 1445.57 2725.8 1546.51C2636.38 1647.45 2493.89 1673.28 2407.54 1604.2Z" fill="#D50D0D" stroke="#B50000" stroke-width="0.481824"/>
<path d="M2731.4 1238.69C2817.75 1307.76 2815.21 1445.58 2725.79 1546.52C2717.81 1555.52 2709.43 1563.93 2700.69 1571.72C2751.23 1493 2733.64 1387.54 2655.16 1324.75C2576.69 1261.97 2464.32 1263.43 2391.3 1324.13C2397.88 1314.64 2405.15 1305.37 2413.11 1296.39C2502.53 1195.44 2645.05 1169.61 2731.4 1238.69Z" fill="#B40C0C" stroke="#B50000" stroke-width="0.481824"/>
<path d="M2585.53 1634.63C2521.37 1651.74 2455.75 1642.75 2407.58 1604.21C2359.4 1565.66 2338.84 1505.72 2345.64 1442.73C2350.21 1498.23 2375.95 1550.53 2422.29 1587.6C2468.63 1624.67 2527.2 1639.82 2585.53 1634.63Z" fill="#C40707" stroke="#B50000" stroke-width="0.481824"/>
<path opacity="0.6788" d="M2760.76 1205.51C2862.76 1287.11 2859.77 1449.96 2754.14 1569.21C2648.5 1688.45 2480.19 1718.96 2378.19 1637.36C2345.37 1611.1 2323.42 1576.41 2312.25 1537.49C2325.22 1566.81 2344.96 1593.17 2371.49 1614.39C2473.33 1695.87 2636.33 1671.14 2735.5 1559.2C2834.67 1447.26 2832.47 1290.47 2730.62 1209C2692.43 1178.44 2645.68 1162.82 2596.89 1161.13C2657.04 1155.2 2715.46 1169.28 2760.76 1205.51Z" fill="#D15B5B" stroke="#B50000" stroke-width="0.481824"/>
<path d="M973.819 3705.11C810.719 3732.07 672.168 3607.82 664.356 3427.59C656.544 3247.35 782.429 3079.39 945.528 3052.43C1108.63 3025.48 1247.18 3149.73 1254.99 3329.96C1262.8 3510.19 1136.92 3678.15 973.819 3705.11Z" fill="#D00C0C" stroke="#B50000" stroke-width="0.572434"/>
<path d="M971.566 3652.93C834.546 3675.58 718.149 3571.19 711.586 3419.78C705.023 3268.37 810.779 3127.26 947.8 3104.62C1084.82 3081.97 1201.22 3186.35 1207.78 3337.77C1214.34 3489.18 1108.59 3630.28 971.566 3652.93Z" fill="#D50D0D" stroke="#B50000" stroke-width="0.572434"/>
<path d="M947.816 3104.62C1084.84 3081.98 1201.18 3186.39 1207.75 3337.81C1208.33 3351.31 1208.04 3364.72 1206.9 3377.98C1184.53 3276.32 1077.96 3213.13 953.411 3233.72C828.893 3254.3 729.211 3351.54 715.877 3459.07C713.616 3446.39 712.167 3433.29 711.583 3419.82C705.02 3268.4 810.795 3127.27 947.816 3104.62Z" fill="#B40C0C" stroke="#B50000" stroke-width="0.572434"/>
<path d="M1157.63 3523.19C1114.73 3590.79 1048.04 3640.27 971.594 3652.9C895.145 3665.54 825.083 3638.67 776.968 3586.11C828.843 3623.38 896.985 3640.15 970.515 3627.99C1044.04 3615.84 1109.7 3576.95 1157.63 3523.19Z" fill="#C40707" stroke="#B50000" stroke-width="0.572434"/>
<path opacity="0.6788" d="M945.658 3054.88C1107.52 3028.13 1245.01 3151.5 1252.76 3330.37C1260.52 3509.23 1135.6 3675.9 973.736 3702.66C921.65 3711.27 872.071 3704.31 828.542 3684.99C865.431 3695.64 905.854 3698.31 947.948 3691.35C1109.56 3664.64 1234.69 3506.81 1227.41 3338.89C1220.14 3170.98 1083.2 3056.54 921.59 3083.25C860.985 3093.27 805.543 3121.69 760.261 3162.19C809.188 3106.31 873.783 3066.76 945.658 3054.88Z" fill="#D15B5B" stroke="#B50000" stroke-width="0.572434"/>
<path opacity="0.375" d="M5428.2 1648.39C5592.1 2071.58 5653.67 2527.51 5607.87 2979.01C5530.78 3738.89 5154.97 4437.03 4563.11 4919.84C3971.25 5402.65 3211.82 5630.58 2451.89 5553.5C1843.32 5490.63 1270.58 5235.6 816.699 4825.39C1008.62 5320.95 1333.94 5753.75 1756.63 6075.88C2179.33 6398.01 2682.92 6596.9 3211.67 6650.54C3971.6 6727.63 4731.03 6499.69 5322.89 6016.88C5914.75 5534.07 6290.56 4835.94 6367.65 4076.06C6412.69 3626.07 6351.11 3171.79 6187.89 2750.03C6024.68 2328.26 5764.42 1950.86 5428.2 1648.39V1648.39Z" fill="#4B0101" fill-opacity="0.890196"/>
<g opacity="0.329" filter="url(#filter0_f)">
<path d="M2184.89 3580.32C2811.93 3580.32 3320.25 3072.03 3320.25 2445.03C3320.25 1818.03 2811.93 1309.74 2184.89 1309.74C1557.84 1309.74 1049.53 1818.03 1049.53 2445.03C1049.53 3072.03 1557.84 3580.32 2184.89 3580.32Z" fill="white" fill-opacity="0.988235"/>
</g>
</g>
<defs>
<filter id="filter0_f" x="999.083" y="1259.3" width="2371.61" height="2371.46" filterUnits="userSpaceOnUse" color-interpolation-filters="sRGB">
<feFlood flood-opacity="0" result="BackgroundImageFix"/>
<feBlend mode="normal" in="SourceGraphic" in2="BackgroundImageFix" result="shape"/>
<feGaussianBlur stdDeviation="25.221" result="effect1_foregroundBlur"/>
</filter>
</defs>
</svg>
