<svg width="4001" height="4001" viewBox="0 0 4001 4001" fill="none" xmlns="http://www.w3.org/2000/svg">
<path d="M382.396 3245.57L411.423 3142.8C411.423 3142.8 402.793 3169.47 423.191 3207.52C443.588 3245.57 442.804 3245.57 442.804 3245.57L453.787 3174.57C453.787 3174.57 461.261 3202.81 463.986 3220.07C466.711 3237.33 478.5 3105.14 478.5 3105.14L526.748 3245.57L588.333 3147.9C589.712 3186.04 568.72 3207.52 591.864 3245.57C615.007 3283.62 632.659 3201.24 632.659 3201.24C632.659 3201.24 651.095 3301.66 664.825 3257.34C678.554 3213.01 673.192 3187.53 678.554 3142.8L726.802 3266.36C758.479 3259.3 779.201 3238.36 820.161 3178.1L808.393 3245.57C862.388 3258.37 880.135 3248.98 883.315 3194.58L911.166 3245.57C974.025 3225.48 983.31 3204.07 953.922 3147.9C983.81 3193.33 1004.9 3216.22 1061.79 3245.57L1039.04 3142.8C1040.14 3143.35 1019.32 3057.85 1086.51 3207.52L1116.71 3253.42C1154.23 3215.32 1162.64 3185.68 1155.15 3118.08L1217.13 3245.57C1255.55 3230.38 1270.93 3213.06 1288.91 3168.69V3245.57L1345.79 3203.99C1331.18 3230.39 1332.37 3240.66 1362.27 3245.57C1362.27 3245.57 1406.99 3028.26 1395.22 3123.97C1383.45 3219.68 1415.22 3245.57 1415.22 3245.57C1415.22 3245.57 1497.99 2975.3 1479.16 3070.62C1460.33 3165.94 1469.75 3619 1469.75 3619H382.396V3245.57Z" fill="#90BE6D"/>
<path d="M0.332031 3245.57L29.3595 3142.8C29.3595 3142.8 20.7297 3169.47 41.1274 3207.52C61.525 3245.57 60.7405 3245.57 60.7405 3245.57L71.7239 3174.57C71.7239 3174.57 79.1975 3202.81 81.9227 3220.07C84.6479 3237.33 96.4364 3105.14 96.4364 3105.14L144.685 3245.57L206.27 3147.9C207.649 3186.04 186.657 3207.52 209.8 3245.57C232.944 3283.62 250.596 3201.24 250.596 3201.24C250.596 3201.24 269.032 3301.66 282.761 3257.34C296.49 3213.01 291.129 3187.53 296.49 3142.8L344.739 3266.36C376.416 3259.3 397.137 3238.36 438.097 3178.1L426.329 3245.57C480.325 3258.37 498.071 3248.98 501.252 3194.58L529.102 3245.57C591.962 3225.48 601.246 3204.07 571.859 3147.9C601.747 3193.33 622.832 3216.22 679.731 3245.57L656.98 3142.8C658.077 3143.35 637.26 3057.85 704.444 3207.52L734.648 3253.42C772.162 3215.32 780.574 3185.68 773.09 3118.08L835.067 3245.57C873.487 3230.38 888.865 3213.06 906.851 3168.69V3245.57L963.729 3203.99C949.114 3230.39 950.306 3240.66 980.204 3245.57C980.204 3245.57 1024.92 3028.26 1013.15 3123.97C1001.39 3219.68 1033.16 3245.57 1033.16 3245.57C1033.16 3245.57 1115.93 2975.3 1097.1 3070.62C1078.27 3165.94 1087.68 3619 1087.68 3619H0.332031V3245.57Z" fill="#90BE6D"/>
<path d="M1409.34 3245.57L1438.37 3142.8C1438.37 3142.8 1429.74 3169.47 1450.14 3207.52C1470.53 3245.57 1469.75 3245.57 1469.75 3245.57L1480.73 3174.57C1480.73 3174.57 1488.21 3202.81 1490.93 3220.07C1493.66 3237.33 1505.44 3105.14 1505.44 3105.14L1553.69 3245.57L1615.28 3147.9C1616.66 3186.04 1595.66 3207.52 1618.81 3245.57C1641.95 3283.62 1659.6 3201.24 1659.6 3201.24C1659.6 3201.24 1678.04 3301.66 1691.77 3257.34C1705.5 3213.01 1700.14 3187.53 1705.5 3142.8L1753.75 3266.36C1785.42 3259.3 1806.15 3238.36 1847.11 3178.1L1835.34 3245.57C1889.33 3258.37 1907.08 3248.98 1910.26 3194.58L1938.11 3245.57C2000.97 3225.48 2010.25 3204.07 1980.87 3147.9C2010.75 3193.33 2031.84 3216.22 2088.74 3245.57L2065.99 3142.8C2067.08 3143.35 2046.27 3057.85 2113.45 3207.52L2143.66 3253.42C2181.17 3215.32 2189.58 3185.68 2182.1 3118.08L2244.07 3245.57C2282.49 3230.38 2297.87 3213.06 2315.86 3168.69V3245.57L2372.74 3203.99C2358.12 3230.39 2359.31 3240.66 2389.21 3245.57C2389.21 3245.57 2433.93 3028.26 2422.16 3123.97C2410.39 3219.68 2442.17 3245.57 2442.17 3245.57C2442.17 3245.57 2524.94 2975.3 2506.11 3070.62C2487.28 3165.94 2496.69 3619 2496.69 3619H1409.34V3245.57Z" fill="#90BE6D"/>
<path d="M1939.68 3281.64L1965.9 3188.78C1965.9 3188.78 1958.1 3212.88 1976.53 3247.26C1994.95 3281.64 1994.24 3281.64 1994.24 3281.64L2004.17 3217.49C2004.17 3217.49 2010.92 3243.01 2013.38 3258.6C2015.84 3274.2 2026.49 3154.76 2026.49 3154.76L2070.07 3281.64L2125.7 3193.39C2126.94 3227.85 2107.98 3247.26 2128.89 3281.64C2149.79 3316.02 2165.74 3241.59 2165.74 3241.59C2165.74 3241.59 2182.39 3332.32 2194.79 3292.27C2207.19 3252.22 2202.35 3229.2 2207.19 3188.78L2250.78 3300.42C2279.39 3294.04 2298.11 3275.13 2335.11 3220.68L2324.48 3281.64C2373.25 3293.2 2389.28 3284.72 2392.15 3235.57L2417.31 3281.64C2474.09 3263.49 2482.48 3244.14 2455.93 3193.39C2482.93 3234.44 2501.97 3255.12 2553.37 3281.64L2532.82 3188.78C2533.81 3189.28 2515.01 3112.03 2575.69 3247.26L2602.98 3288.73C2636.86 3254.31 2644.46 3227.53 2637.7 3166.46L2693.68 3281.64C2728.39 3267.91 2742.28 3252.26 2758.52 3212.17V3281.64L2809.9 3244.07C2796.7 3267.92 2797.78 3277.2 2824.78 3281.64C2824.78 3281.64 2865.18 3085.3 2854.55 3171.77C2843.92 3258.25 2872.62 3281.64 2872.62 3281.64C2872.62 3281.64 2947.38 3037.45 2930.37 3123.57C2913.36 3209.69 2921.87 3619.04 2921.87 3619.04H1939.68V3281.64Z" fill="#90BE6D"/>
<path d="M2508.85 3245.57L2537.88 3142.8C2537.88 3142.8 2529.25 3169.47 2549.65 3207.52C2570.05 3245.57 2569.26 3245.57 2569.26 3245.57L2580.24 3174.57C2580.24 3174.57 2587.72 3202.81 2590.44 3220.07C2593.17 3237.33 2604.96 3105.14 2604.96 3105.14L2653.21 3245.57L2714.79 3147.9C2716.17 3186.04 2695.18 3207.52 2718.32 3245.57C2741.46 3283.62 2759.12 3201.24 2759.12 3201.24C2759.12 3201.24 2777.55 3301.66 2791.28 3257.34C2805.01 3213.01 2799.65 3187.53 2805.01 3142.8L2853.26 3266.36C2884.94 3259.3 2905.66 3238.36 2946.62 3178.1L2934.85 3245.57C2988.85 3258.37 3006.59 3248.98 3009.77 3194.58L3037.62 3245.57C3100.48 3225.48 3109.77 3204.07 3080.38 3147.9C3110.27 3193.33 3131.35 3216.22 3188.25 3245.57L3165.5 3142.8C3166.6 3143.35 3145.78 3057.85 3212.96 3207.52L3243.17 3253.42C3280.68 3215.32 3289.09 3185.68 3281.61 3118.08L3343.59 3245.57C3382.01 3230.38 3397.39 3213.06 3415.37 3168.69V3245.57L3472.25 3203.99C3457.63 3230.39 3458.83 3240.66 3488.72 3245.57C3488.72 3245.57 3533.44 3028.26 3521.67 3123.97C3509.91 3219.68 3541.68 3245.57 3541.68 3245.57C3541.68 3245.57 3624.45 2975.3 3605.62 3070.62C3586.79 3165.94 3596.2 3619 3596.2 3619H2508.85V3245.57Z" fill="#90BE6D"/>
<path d="M2877.19 3245.57L2906.21 3142.8C2906.21 3142.8 2897.59 3169.47 2917.98 3207.52C2938.38 3245.57 2937.6 3245.57 2937.6 3245.57L2948.58 3174.57C2948.58 3174.57 2956.05 3202.81 2958.78 3220.07C2961.5 3237.33 2973.29 3105.14 2973.29 3105.14L3021.54 3245.57L3083.13 3147.9C3084.5 3186.04 3063.51 3207.52 3086.66 3245.57C3109.8 3283.62 3127.45 3201.24 3127.45 3201.24C3127.45 3201.24 3145.89 3301.66 3159.62 3257.34C3173.35 3213.01 3167.98 3187.53 3173.35 3142.8L3221.59 3266.36C3253.27 3259.3 3273.99 3238.36 3314.95 3178.1L3303.18 3245.57C3357.18 3258.37 3374.93 3248.98 3378.11 3194.58L3405.96 3245.57C3468.82 3225.48 3478.1 3204.07 3448.71 3147.9C3478.6 3193.33 3499.69 3216.22 3556.59 3245.57L3533.84 3142.8C3534.93 3143.35 3514.12 3057.85 3581.3 3207.52L3611.5 3253.42C3649.02 3215.32 3657.43 3185.68 3649.95 3118.08L3711.92 3245.57C3750.34 3230.38 3765.72 3213.06 3783.71 3168.69V3245.57L3840.58 3203.99C3825.97 3230.39 3827.16 3240.66 3857.06 3245.57C3857.06 3245.57 3901.78 3028.26 3890.01 3123.97C3878.24 3219.68 3910.02 3245.57 3910.02 3245.57C3910.02 3245.57 3992.78 2975.3 3973.95 3070.62C3955.13 3165.94 3964.54 3619 3964.54 3619H2877.19V3245.57Z" fill="#90BE6D"/>
<rect x="3394.69" y="2798.28" width="13.8499" height="491.673" fill="#90BE6D"/>
<path d="M3447.28 2543.21C3447.28 2568.65 3441.87 2591.65 3433.14 2608.27C3424.4 2624.92 3412.41 2635.05 3399.3 2635.05C3386.2 2635.05 3374.21 2624.92 3365.47 2608.27C3356.74 2591.65 3351.33 2568.65 3351.33 2543.21C3351.33 2517.78 3356.74 2494.78 3365.47 2478.16C3374.21 2461.51 3386.2 2451.38 3399.3 2451.38C3412.41 2451.38 3424.4 2461.51 3433.14 2478.16C3441.87 2494.78 3447.28 2517.78 3447.28 2543.21Z" fill="#F8961E" stroke="black"/>
<path d="M3447.28 2755C3447.28 2780.6 3441.87 2803.74 3433.14 2820.47C3424.4 2837.22 3412.41 2847.41 3399.3 2847.41C3386.2 2847.41 3374.21 2837.22 3365.47 2820.47C3356.74 2803.74 3351.33 2780.6 3351.33 2755C3351.33 2729.41 3356.74 2706.27 3365.47 2689.54C3374.21 2672.79 3386.2 2662.59 3399.3 2662.59C3412.41 2662.59 3424.4 2672.79 3433.14 2689.54C3441.87 2706.27 3447.28 2729.41 3447.28 2755Z" fill="#F8961E" stroke="black"/>
<path d="M3366.43 2759.19C3351.76 2780.13 3334.05 2795.96 3317.32 2804.63C3300.55 2813.32 3284.89 2814.78 3274.16 2807.26C3263.43 2799.73 3259.45 2784.52 3261.9 2765.79C3264.34 2747.1 3273.18 2725.06 3287.85 2704.12C3302.52 2683.19 3320.22 2667.36 3336.96 2658.68C3353.73 2650 3369.39 2648.54 3380.12 2656.06C3390.85 2663.58 3394.83 2678.8 3392.38 2697.52C3389.94 2716.22 3381.1 2738.26 3366.43 2759.19Z" fill="#F8961E" stroke="black"/>
<path d="M3517.25 2596.77C3502.58 2617.71 3484.88 2633.53 3468.14 2642.21C3451.37 2650.9 3435.71 2652.35 3424.98 2644.83C3414.25 2637.31 3410.27 2622.09 3412.72 2603.37C3415.16 2584.68 3424 2562.64 3438.67 2541.7C3453.34 2520.76 3471.05 2504.94 3487.79 2496.26C3504.55 2487.57 3520.21 2486.12 3530.94 2493.64C3541.68 2501.16 3545.65 2516.38 3543.2 2535.1C3540.76 2553.79 3531.92 2575.83 3517.25 2596.77Z" fill="#F8961E" stroke="black"/>
<path d="M3508.37 2610.66C3533.97 2610.66 3557.11 2616.07 3573.84 2624.8C3590.59 2633.54 3600.78 2645.53 3600.78 2658.63C3600.78 2671.74 3590.59 2683.72 3573.84 2692.46C3557.11 2701.19 3533.97 2706.61 3508.37 2706.61C3482.78 2706.61 3459.64 2701.19 3442.91 2692.46C3426.16 2683.72 3415.96 2671.74 3415.96 2658.63C3415.96 2645.53 3426.16 2633.54 3442.91 2624.8C3459.64 2616.07 3482.78 2610.66 3508.37 2610.66Z" fill="#F8961E" stroke="black"/>
<path d="M3312.17 2610.66C3337.76 2610.66 3360.9 2616.07 3377.63 2624.8C3394.38 2633.54 3404.58 2645.53 3404.58 2658.63C3404.58 2671.74 3394.38 2683.72 3377.63 2692.46C3360.9 2701.19 3337.76 2706.61 3312.17 2706.61C3286.57 2706.61 3263.43 2701.19 3246.7 2692.46C3229.95 2683.72 3219.76 2671.74 3219.76 2658.63C3219.76 2645.53 3229.95 2633.54 3246.7 2624.8C3263.43 2616.07 3286.57 2610.66 3312.17 2610.66Z" fill="#F8961E" stroke="black"/>
<path d="M3366.28 2542.06C3380.81 2563.1 3389.49 2585.2 3391.81 2603.91C3394.12 2622.65 3390.05 2637.84 3379.26 2645.29C3368.47 2652.74 3352.82 2651.17 3336.12 2642.37C3319.44 2633.58 3301.85 2617.63 3287.32 2596.59C3272.8 2575.55 3264.11 2553.45 3261.8 2534.74C3259.48 2516 3263.56 2500.81 3274.35 2493.37C3285.13 2485.92 3300.78 2487.48 3317.49 2496.29C3334.16 2505.08 3351.76 2521.03 3366.28 2542.06Z" fill="#F8961E" stroke="black"/>
<path d="M3517.11 2712.78C3531.63 2733.81 3540.32 2755.91 3542.63 2774.63C3544.95 2793.36 3540.87 2808.55 3530.08 2816C3519.3 2823.45 3503.65 2821.88 3486.94 2813.08C3470.27 2804.29 3452.67 2788.34 3438.15 2767.3C3423.62 2746.26 3414.93 2724.16 3412.62 2705.45C3410.3 2686.71 3414.38 2671.52 3425.17 2664.08C3435.95 2656.63 3451.6 2658.19 3468.31 2667C3484.99 2675.79 3502.58 2691.74 3517.11 2712.78Z" fill="#F8961E" stroke="black"/>
<ellipse cx="3404.5" cy="2655.17" rx="28.2769" ry="27.6999" fill="#90BE6D"/>
<ellipse rx="114.151" ry="31.7217" transform="matrix(0.921863 0.387516 0.387516 -0.921863 3297.54 2994.1)" fill="#90BE6D"/>
<ellipse rx="114.151" ry="31.7217" transform="matrix(0.921863 -0.387516 -0.387516 -0.921863 3501.83 2994.1)" fill="#90BE6D"/>
<path d="M3428.08 3022.54L3511.23 2985.83L3590.82 2956.76" stroke="#447321"/>
<path d="M3212.33 2959.06L3297.64 2990.45L3375.07 3024.85" stroke="#447321"/>
<rect x="526.749" y="2854.13" width="9.41431" height="466.008" fill="#90BE6D"/>
<path d="M576.458 2613.28C576.458 2637.48 571.334 2659.36 563.073 2675.18C554.799 2691.02 543.457 2700.65 531.064 2700.65C518.67 2700.65 507.328 2691.02 499.054 2675.18C490.793 2659.36 485.669 2637.48 485.669 2613.28C485.669 2589.08 490.793 2567.2 499.054 2551.38C507.328 2535.54 518.67 2525.91 531.064 2525.91C543.457 2525.91 554.799 2535.54 563.073 2551.38C571.334 2567.2 576.458 2589.08 576.458 2613.28Z" fill="#F94144" stroke="black"/>
<path d="M576.458 2813.33C576.458 2837.53 571.334 2859.42 563.073 2875.23C554.799 2891.07 543.457 2900.7 531.064 2900.7C518.67 2900.7 507.328 2891.07 499.054 2875.23C490.793 2859.42 485.669 2837.53 485.669 2813.33C485.669 2789.13 490.793 2767.25 499.054 2751.43C507.328 2735.59 518.67 2725.96 531.064 2725.96C543.457 2725.96 554.799 2735.59 563.073 2751.43C571.334 2767.25 576.458 2789.13 576.458 2813.33Z" fill="#F94144" stroke="black"/>
<path d="M499.738 2817.65C485.849 2837.46 469.093 2852.44 453.251 2860.66C437.385 2868.88 422.571 2870.25 412.422 2863.14C402.273 2856.03 398.51 2841.63 400.825 2823.91C403.137 2806.22 411.5 2785.36 425.389 2765.54C439.278 2745.72 456.034 2730.74 471.876 2722.53C487.742 2714.31 502.556 2712.94 512.705 2720.05C522.854 2727.16 526.617 2741.55 524.302 2759.27C521.99 2776.97 513.627 2797.83 499.738 2817.65Z" fill="#F94144" stroke="black"/>
<path d="M642.521 2663.88C628.632 2683.7 611.876 2698.68 596.034 2706.89C580.168 2715.11 565.354 2716.49 555.205 2709.37C545.056 2702.26 541.293 2687.87 543.609 2670.15C545.921 2652.46 554.284 2631.59 568.172 2611.78C582.061 2591.96 598.817 2576.98 614.659 2568.77C630.525 2560.54 645.339 2559.17 655.488 2566.28C665.637 2573.4 669.401 2587.79 667.085 2605.51C664.773 2623.2 656.41 2644.06 642.521 2663.88Z" fill="#F94144" stroke="black"/>
<path d="M634.229 2677.32C658.429 2677.32 680.313 2682.45 696.129 2690.71C711.969 2698.98 721.596 2710.33 721.596 2722.72C721.596 2735.11 711.969 2746.45 696.129 2754.73C680.313 2762.99 658.429 2768.11 634.229 2768.11C610.029 2768.11 588.145 2762.99 572.329 2754.73C556.49 2746.45 546.862 2735.11 546.862 2722.72C546.862 2710.33 556.49 2698.98 572.329 2690.71C588.145 2682.45 610.029 2677.32 634.229 2677.32Z" fill="#F94144" stroke="black"/>
<path d="M448.297 2677.32C472.496 2677.32 494.38 2682.45 510.196 2690.71C526.036 2698.98 535.663 2710.33 535.663 2722.72C535.663 2735.11 526.036 2746.45 510.196 2754.73C494.38 2762.99 472.496 2768.11 448.297 2768.11C424.097 2768.11 402.213 2762.99 386.397 2754.73C370.557 2746.45 360.93 2735.11 360.93 2722.72C360.93 2710.33 370.557 2698.98 386.397 2690.71C402.213 2682.45 424.097 2677.32 448.297 2677.32Z" fill="#F94144" stroke="black"/>
<path d="M499.599 2612.12C513.35 2632.03 521.569 2652.95 523.758 2670.66C525.951 2688.39 522.088 2702.76 511.89 2709.8C501.692 2716.85 486.888 2715.37 471.079 2707.04C455.295 2698.72 438.643 2683.62 424.891 2663.71C411.14 2643.79 402.922 2622.88 400.732 2605.17C398.539 2587.43 402.402 2573.06 412.6 2566.02C422.798 2558.98 437.602 2560.46 453.411 2568.79C469.196 2577.11 485.848 2592.2 499.599 2612.12Z" fill="#F94144" stroke="black"/>
<path d="M642.383 2773.73C656.134 2793.64 664.353 2814.56 666.542 2832.27C668.735 2850.01 664.872 2864.38 654.674 2871.42C644.476 2878.46 629.672 2876.98 613.864 2868.65C598.079 2860.33 581.427 2845.23 567.676 2825.32C553.924 2805.41 545.706 2784.49 543.516 2766.78C541.323 2749.04 545.186 2734.68 555.384 2727.64C565.582 2720.59 580.386 2722.07 596.195 2730.4C611.98 2738.72 628.632 2753.82 642.383 2773.73Z" fill="#F94144" stroke="black"/>
<circle cx="536.556" cy="2719.58" r="26.2816" fill="#90BE6D"/>
<ellipse rx="77.5924" ry="21.5624" transform="matrix(0.921863 0.387516 0.387516 -0.921863 462.282 3000.57)" fill="#90BE6D"/>
<ellipse rx="77.5924" ry="21.5624" transform="matrix(0.921863 -0.387516 -0.387516 -0.921863 597.221 3000.57)" fill="#90BE6D"/>
<path d="M543.17 3022.26L599.693 2997.3L653.788 2977.54" stroke="#447321"/>
<path d="M402.795 2977.54L460.779 2998.87L513.414 3022.25" stroke="#447321"/>
<rect x="1525.18" y="2940.61" width="7.66713" height="379.523" fill="#90BE6D"/>
<path d="M1565.57 2744.46C1565.57 2764.16 1561.4 2781.96 1554.68 2794.83C1547.95 2807.72 1538.73 2815.52 1528.69 2815.52C1518.65 2815.52 1509.44 2807.72 1502.71 2794.83C1495.99 2781.96 1491.82 2764.16 1491.82 2744.46C1491.82 2724.76 1495.99 2706.96 1502.71 2694.09C1509.44 2681.2 1518.65 2673.4 1528.69 2673.4C1538.73 2673.4 1547.95 2681.2 1554.68 2694.09C1561.4 2706.96 1565.57 2724.76 1565.57 2744.46Z" fill="#43AA8B" stroke="black"/>
<path d="M1565.57 2907.39C1565.57 2927.08 1561.4 2944.89 1554.68 2957.76C1547.95 2970.65 1538.73 2978.45 1528.69 2978.45C1518.65 2978.45 1509.44 2970.65 1502.71 2957.76C1495.99 2944.89 1491.82 2927.08 1491.82 2907.39C1491.82 2887.69 1495.99 2869.88 1502.71 2857.02C1509.44 2844.13 1518.65 2836.33 1528.69 2836.33C1538.73 2836.33 1547.95 2844.13 1554.68 2857.02C1561.4 2869.88 1565.57 2887.69 1565.57 2907.39Z" fill="#43AA8B" stroke="black"/>
<path d="M1503.1 2910.85C1491.8 2926.98 1478.16 2939.17 1465.28 2945.85C1452.37 2952.54 1440.35 2953.64 1432.12 2947.88C1423.9 2942.11 1420.83 2930.44 1422.72 2916.02C1424.6 2901.63 1431.4 2884.65 1442.71 2868.52C1454.01 2852.39 1467.65 2840.2 1480.53 2833.52C1493.44 2826.83 1505.46 2825.73 1513.69 2831.49C1521.91 2837.25 1524.98 2848.93 1523.09 2863.35C1521.21 2877.74 1514.41 2894.72 1503.1 2910.85Z" fill="#43AA8B" stroke="black"/>
<path d="M1619.39 2785.62C1608.08 2801.75 1594.45 2813.94 1581.56 2820.62C1568.65 2827.31 1556.63 2828.41 1548.41 2822.65C1540.18 2816.88 1537.12 2805.21 1539 2790.79C1540.88 2776.4 1547.69 2759.42 1558.99 2743.29C1570.29 2727.16 1583.93 2714.97 1596.82 2708.29C1609.73 2701.6 1621.75 2700.5 1629.97 2706.26C1638.2 2712.03 1641.26 2723.7 1639.38 2738.12C1637.5 2752.51 1630.69 2769.49 1619.39 2785.62Z" fill="#43AA8B" stroke="black"/>
<path d="M1612.71 2796.71C1632.41 2796.71 1650.22 2800.89 1663.08 2807.6C1675.97 2814.34 1683.77 2823.55 1683.77 2833.59C1683.77 2843.63 1675.97 2852.85 1663.08 2859.58C1650.22 2866.3 1632.41 2870.47 1612.71 2870.47C1593.02 2870.47 1575.21 2866.3 1562.34 2859.58C1549.45 2852.85 1541.65 2843.63 1541.65 2833.59C1541.65 2823.55 1549.45 2814.34 1562.34 2807.6C1575.21 2800.89 1593.02 2796.71 1612.71 2796.71Z" fill="#43AA8B" stroke="black"/>
<path d="M1461.29 2796.71C1480.98 2796.71 1498.79 2800.89 1511.66 2807.6C1524.54 2814.34 1532.35 2823.55 1532.35 2833.59C1532.35 2843.63 1524.54 2852.85 1511.66 2859.58C1498.79 2866.3 1480.98 2870.47 1461.29 2870.47C1441.59 2870.47 1423.78 2866.3 1410.92 2859.58C1398.03 2852.85 1390.23 2843.63 1390.23 2833.59C1390.23 2823.55 1398.03 2814.34 1410.92 2807.6C1423.78 2800.89 1441.59 2796.71 1461.29 2796.71Z" fill="#43AA8B" stroke="black"/>
<path d="M1502.99 2743.57C1514.18 2759.78 1520.87 2776.8 1522.65 2791.2C1524.44 2805.64 1521.29 2817.29 1513.03 2823C1504.76 2828.7 1492.75 2827.52 1479.88 2820.74C1467.05 2813.97 1453.49 2801.69 1442.3 2785.48C1431.11 2769.27 1424.42 2752.25 1422.64 2737.84C1420.86 2723.41 1424.01 2711.76 1432.27 2706.05C1440.53 2700.35 1452.55 2701.53 1465.41 2708.31C1478.25 2715.08 1491.8 2727.36 1502.99 2743.57Z" fill="#43AA8B" stroke="black"/>
<path d="M1619.28 2875.19C1630.47 2891.4 1637.16 2908.42 1638.94 2922.82C1640.72 2937.25 1637.57 2948.91 1629.31 2954.62C1621.05 2960.32 1609.03 2959.14 1596.17 2952.36C1583.33 2945.59 1569.78 2933.31 1558.59 2917.1C1547.39 2900.89 1540.71 2883.87 1538.93 2869.46C1537.14 2855.03 1540.29 2843.38 1548.55 2837.67C1556.82 2831.96 1568.83 2833.15 1581.69 2839.93C1594.53 2846.7 1608.08 2858.98 1619.28 2875.19Z" fill="#43AA8B" stroke="black"/>
<circle cx="1533.17" cy="2831.03" r="21.4041" fill="#F94144"/>
<ellipse rx="63.1922" ry="17.5607" transform="matrix(0.921863 0.387516 0.387516 -0.921863 1472.68 3059.88)" fill="#90BE6D"/>
<ellipse rx="63.1922" ry="17.5607" transform="matrix(0.921863 -0.387516 -0.387516 -0.921863 1582.57 3059.88)" fill="#90BE6D"/>
<path d="M1538.55 3077.54L1584.58 3057.21L1628.64 3041.12" stroke="#447321"/>
<path d="M1424.23 3041.12L1471.45 3058.49L1514.32 3077.53" stroke="#447321"/>
<rect x="2671.8" y="3006.7" width="6.00392" height="293.038" fill="#90BE6D"/>
<path d="M2703.32 2855.25C2703.32 2870.44 2700.06 2884.17 2694.8 2894.08C2689.54 2904.02 2682.36 2910 2674.55 2910C2666.74 2910 2659.56 2904.02 2654.3 2894.08C2649.04 2884.17 2645.78 2870.44 2645.78 2855.25C2645.78 2840.05 2649.04 2826.32 2654.3 2816.41C2659.56 2806.48 2666.74 2800.49 2674.55 2800.49C2682.36 2800.49 2689.54 2806.48 2694.8 2816.41C2700.06 2826.32 2703.32 2840.05 2703.32 2855.25Z" fill="#F94144" stroke="black"/>
<path d="M2703.32 2981.05C2703.32 2996.24 2700.06 3009.97 2694.8 3019.88C2689.54 3029.82 2682.36 3035.8 2674.55 3035.8C2666.74 3035.8 2659.56 3029.82 2654.3 3019.88C2649.04 3009.97 2645.78 2996.24 2645.78 2981.05C2645.78 2965.85 2649.04 2952.12 2654.3 2942.21C2659.56 2932.27 2666.74 2926.29 2674.55 2926.29C2682.36 2926.29 2689.54 2932.27 2694.8 2942.21C2700.06 2952.12 2703.32 2965.85 2703.32 2981.05Z" fill="#F94144" stroke="black"/>
<path d="M2654.42 2983.66C2645.58 2996.1 2634.92 3005.5 2624.84 3010.64C2614.75 3015.8 2605.38 3016.63 2599 3012.22C2592.61 3007.8 2590.2 2998.84 2591.68 2987.72C2593.15 2976.63 2598.46 2963.54 2607.31 2951.1C2616.15 2938.66 2626.82 2929.26 2636.89 2924.11C2646.98 2918.95 2656.35 2918.12 2662.74 2922.54C2669.13 2926.95 2671.53 2935.92 2670.06 2947.03C2668.59 2958.12 2663.27 2971.21 2654.42 2983.66Z" fill="#F94144" stroke="black"/>
<path d="M2745.48 2886.96C2736.64 2899.4 2725.97 2908.8 2715.9 2913.95C2705.81 2919.11 2696.44 2919.94 2690.05 2915.52C2683.66 2911.11 2681.26 2902.15 2682.73 2891.03C2684.2 2879.94 2689.52 2866.85 2698.37 2854.4C2707.21 2841.96 2717.88 2832.56 2727.95 2827.42C2738.04 2822.26 2747.41 2821.43 2753.8 2825.84C2760.18 2830.26 2762.59 2839.22 2761.12 2850.34C2759.65 2861.43 2754.33 2874.52 2745.48 2886.96Z" fill="#F94144" stroke="black"/>
<path d="M2740.34 2895.71C2755.76 2895.71 2769.68 2898.92 2779.74 2904.1C2789.82 2909.3 2795.88 2916.38 2795.88 2924.07C2795.88 2931.75 2789.82 2938.84 2779.74 2944.03C2769.68 2949.21 2755.76 2952.43 2740.34 2952.43C2724.93 2952.43 2711.01 2949.21 2700.95 2944.03C2690.87 2938.84 2684.81 2931.75 2684.81 2924.07C2684.81 2916.38 2690.87 2909.3 2700.95 2904.1C2711.01 2898.92 2724.93 2895.71 2740.34 2895.71Z" fill="#F94144" stroke="black"/>
<path d="M2621.77 2895.71C2637.18 2895.71 2651.11 2898.92 2661.16 2904.1C2671.24 2909.3 2677.3 2916.38 2677.3 2924.07C2677.3 2931.75 2671.24 2938.84 2661.16 2944.03C2651.11 2949.21 2637.18 2952.43 2621.77 2952.43C2606.36 2952.43 2592.43 2949.21 2582.37 2944.03C2572.29 2938.84 2566.23 2931.75 2566.23 2924.07C2566.23 2916.38 2572.29 2909.3 2582.37 2904.1C2592.43 2898.92 2606.36 2895.71 2621.77 2895.71Z" fill="#F94144" stroke="black"/>
<path d="M2654.33 2854.62C2663.09 2867.12 2668.32 2880.25 2669.71 2891.35C2671.1 2902.48 2668.64 2911.42 2662.22 2915.79C2655.8 2920.17 2646.44 2919.27 2636.38 2914.04C2626.34 2908.83 2615.75 2899.36 2606.99 2886.86C2598.23 2874.35 2593.01 2861.23 2591.62 2850.13C2590.22 2839 2592.69 2830.05 2599.11 2825.68C2605.53 2821.31 2614.89 2822.21 2624.94 2827.43C2634.98 2832.65 2645.58 2842.12 2654.33 2854.62Z" fill="#F94144" stroke="black"/>
<path d="M2745.39 2956.25C2754.15 2968.75 2759.38 2981.88 2760.77 2992.98C2762.16 3004.1 2759.7 3013.05 2753.28 3017.42C2746.86 3021.79 2737.5 3020.9 2727.44 3015.67C2717.41 3010.46 2706.81 3000.99 2698.05 2988.48C2689.3 2975.98 2684.07 2962.85 2682.68 2951.75C2681.28 2940.63 2683.75 2931.68 2690.17 2927.31C2696.59 2922.94 2705.95 2923.83 2716 2929.06C2726.04 2934.28 2736.64 2943.75 2745.39 2956.25Z" fill="#F94144" stroke="black"/>
<ellipse cx="2678.05" cy="2922.09" rx="16.7609" ry="16.5265" fill="#90BE6D"/>
<ellipse rx="49.3808" ry="13.588" transform="matrix(0.923792 0.382896 0.392172 -0.919892 2630.69 3098.79)" fill="#90BE6D"/>
<ellipse rx="49.3808" ry="13.588" transform="matrix(0.923792 -0.382896 -0.392172 -0.919892 2716.74 3098.79)" fill="#90BE6D"/>
<path d="M2682.27 3112.42L2718.32 3096.73L2752.82 3084.3" stroke="#447321"/>
<path d="M2592.75 3084.3L2629.73 3097.72L2663.29 3112.42" stroke="#447321"/>
<rect x="1177.85" y="2787.41" width="9.70545" height="480.42" fill="#90BE6D"/>
<path d="M1229.11 2539.11C1229.11 2564.06 1223.83 2586.63 1215.31 2602.93C1206.78 2619.26 1195.08 2629.2 1182.3 2629.2C1169.51 2629.2 1157.81 2619.26 1149.28 2602.93C1140.76 2586.63 1135.48 2564.06 1135.48 2539.11C1135.48 2514.16 1140.76 2491.6 1149.28 2475.29C1157.81 2458.96 1169.51 2449.03 1182.3 2449.03C1195.08 2449.03 1206.78 2458.96 1215.31 2475.29C1223.83 2491.6 1229.11 2514.16 1229.11 2539.11Z" fill="white" stroke="black"/>
<path d="M1229.11 2745.35C1229.11 2770.3 1223.83 2792.87 1215.31 2809.17C1206.78 2825.51 1195.08 2835.44 1182.3 2835.44C1169.51 2835.44 1157.81 2825.51 1149.28 2809.17C1140.76 2792.87 1135.48 2770.3 1135.48 2745.35C1135.48 2720.4 1140.76 2697.84 1149.28 2681.53C1157.81 2665.2 1169.51 2655.27 1182.3 2655.27C1195.08 2655.27 1206.78 2665.2 1215.31 2681.53C1223.83 2697.84 1229.11 2720.4 1229.11 2745.35Z" fill="white" stroke="black"/>
<path d="M1150.01 2749.81C1135.69 2770.24 1118.42 2785.69 1102.08 2794.15C1085.72 2802.63 1070.45 2804.05 1059.98 2796.71C1049.51 2789.38 1045.63 2774.53 1048.01 2756.26C1050.4 2738.02 1059.02 2716.51 1073.34 2696.07C1087.66 2675.64 1104.94 2660.2 1121.27 2651.73C1137.63 2643.25 1152.91 2641.83 1163.38 2649.17C1173.85 2656.51 1177.73 2671.36 1175.34 2689.63C1172.96 2707.87 1164.33 2729.38 1150.01 2749.81Z" fill="white" stroke="black"/>
<path d="M1297.21 2591.29C1282.89 2611.72 1265.62 2627.17 1249.28 2635.63C1232.92 2644.11 1217.65 2645.53 1207.18 2638.19C1196.71 2630.85 1192.83 2616.01 1195.21 2597.74C1197.6 2579.5 1206.22 2557.99 1220.54 2537.55C1234.86 2517.12 1252.14 2501.68 1268.47 2493.21C1284.83 2484.73 1300.11 2483.31 1310.58 2490.65C1321.05 2497.99 1324.93 2512.83 1322.54 2531.1C1320.16 2549.35 1311.53 2570.86 1297.21 2591.29Z" fill="white" stroke="black"/>
<path d="M1288.65 2605.12C1313.6 2605.12 1336.17 2610.41 1352.47 2618.92C1368.8 2627.46 1378.74 2639.15 1378.74 2651.94C1378.74 2664.72 1368.8 2676.42 1352.47 2684.95C1336.17 2693.47 1313.6 2698.75 1288.65 2698.75C1263.7 2698.75 1241.14 2693.47 1224.83 2684.95C1208.5 2676.42 1198.57 2664.72 1198.57 2651.94C1198.57 2639.15 1208.5 2627.46 1224.83 2618.92C1241.14 2610.41 1263.7 2605.12 1288.65 2605.12Z" fill="white" stroke="black"/>
<path d="M1096.97 2605.12C1121.92 2605.12 1144.48 2610.41 1160.79 2618.92C1177.12 2627.46 1187.05 2639.15 1187.05 2651.94C1187.05 2664.72 1177.12 2676.42 1160.79 2684.95C1144.48 2693.47 1121.92 2698.75 1096.97 2698.75C1072.02 2698.75 1049.46 2693.47 1033.15 2684.95C1016.82 2676.42 1006.88 2664.72 1006.88 2651.94C1006.88 2639.15 1016.82 2627.46 1033.15 2618.92C1049.46 2610.41 1072.02 2605.12 1096.97 2605.12Z" fill="white" stroke="black"/>
<path d="M1149.87 2537.91C1164.05 2558.44 1172.52 2580.01 1174.78 2598.27C1177.04 2616.55 1173.06 2631.37 1162.54 2638.64C1152.02 2645.9 1136.75 2644.38 1120.45 2635.78C1104.17 2627.21 1087.01 2611.64 1072.83 2591.11C1058.65 2570.58 1050.18 2549.01 1047.92 2530.75C1045.66 2512.47 1049.64 2497.65 1060.16 2490.38C1070.68 2483.12 1085.95 2484.64 1102.25 2493.23C1118.52 2501.81 1135.69 2517.38 1149.87 2537.91Z" fill="white" stroke="black"/>
<path d="M1297.07 2704.52C1311.25 2725.05 1319.72 2746.62 1321.98 2764.88C1324.24 2783.16 1320.26 2797.98 1309.74 2805.25C1299.22 2812.51 1283.95 2810.99 1267.65 2802.4C1251.37 2793.82 1234.2 2778.25 1220.03 2757.72C1205.85 2737.19 1197.38 2715.62 1195.12 2697.36C1192.86 2679.08 1196.84 2664.26 1207.36 2656.99C1217.88 2649.73 1233.15 2651.25 1249.45 2659.84C1265.72 2668.42 1282.89 2683.99 1297.07 2704.52Z" fill="white" stroke="black"/>
<circle cx="1187.55" cy="2638.59" r="41.2482" fill="#EBC84D"/>
<ellipse rx="79.9919" ry="22.2292" transform="matrix(0.921863 0.387516 0.387516 -0.921863 1111.39 2938.38)" fill="#90BE6D"/>
<ellipse rx="79.9919" ry="22.2292" transform="matrix(0.921863 -0.387516 -0.387516 -0.921863 1250.5 2938.38)" fill="#90BE6D"/>
<path d="M1194.78 2960.73L1253.05 2935.01L1308.82 2914.63" stroke="#447321"/>
<path d="M1050.06 2914.64L1109.84 2936.63L1164.1 2960.73" stroke="#447321"/>
<rect x="2184.45" y="2854.13" width="9.41431" height="466.008" fill="#90BE6D"/>
<rect x="2448.84" y="2811.43" width="4.70715" height="547.599" fill="#90BE6D"/>
<rect x="1925.56" y="2554.44" width="6.2762" height="771.189" fill="#90BE6D"/>
<rect x="915.089" y="2802.35" width="7.06073" height="517.787" fill="#90BE6D"/>
<path d="M2234.16 2613.28C2234.16 2637.48 2229.04 2659.36 2220.78 2675.18C2212.5 2691.02 2201.16 2700.64 2188.77 2700.64C2176.37 2700.64 2165.03 2691.02 2156.76 2675.18C2148.5 2659.36 2143.37 2637.48 2143.37 2613.28C2143.37 2589.08 2148.5 2567.19 2156.76 2551.38C2165.03 2535.54 2176.37 2525.91 2188.77 2525.91C2201.16 2525.91 2212.5 2535.54 2220.78 2551.38C2229.04 2567.19 2234.16 2589.08 2234.16 2613.28Z" fill="white" stroke="black"/>
<path d="M2234.16 2813.33C2234.16 2837.53 2229.04 2859.42 2220.78 2875.23C2212.5 2891.07 2201.16 2900.7 2188.77 2900.7C2176.37 2900.7 2165.03 2891.07 2156.76 2875.23C2148.5 2859.42 2143.37 2837.53 2143.37 2813.33C2143.37 2789.13 2148.5 2767.25 2156.76 2751.43C2165.03 2735.59 2176.37 2725.96 2188.77 2725.96C2201.16 2725.96 2212.5 2735.59 2220.78 2751.43C2229.04 2767.25 2234.16 2789.13 2234.16 2813.33Z" fill="white" stroke="black"/>
<path d="M2157.44 2817.65C2143.55 2837.46 2126.79 2852.44 2110.95 2860.66C2095.09 2868.88 2080.27 2870.25 2070.12 2863.14C2059.97 2856.03 2056.21 2841.63 2058.53 2823.91C2060.84 2806.22 2069.2 2785.36 2083.09 2765.54C2096.98 2745.72 2113.74 2730.74 2129.58 2722.53C2145.44 2714.31 2160.26 2712.94 2170.41 2720.05C2180.56 2727.16 2184.32 2741.55 2182 2759.27C2179.69 2776.97 2171.33 2797.83 2157.44 2817.65Z" fill="white" stroke="black"/>
<path d="M2300.22 2663.88C2286.33 2683.7 2269.58 2698.68 2253.74 2706.89C2237.87 2715.11 2223.06 2716.49 2212.91 2709.37C2202.76 2702.26 2199 2687.87 2201.31 2670.15C2203.62 2652.46 2211.99 2631.59 2225.87 2611.78C2239.76 2591.96 2256.52 2576.98 2272.36 2568.77C2288.23 2560.54 2303.04 2559.17 2313.19 2566.28C2323.34 2573.4 2327.1 2587.79 2324.79 2605.51C2322.48 2623.2 2314.11 2644.06 2300.22 2663.88Z" fill="white" stroke="black"/>
<path d="M2291.93 2677.33C2316.13 2677.33 2338.02 2682.45 2353.83 2690.71C2369.67 2698.98 2379.3 2710.33 2379.3 2722.72C2379.3 2735.11 2369.67 2746.46 2353.83 2754.73C2338.02 2762.99 2316.13 2768.12 2291.93 2768.12C2267.73 2768.12 2245.85 2762.99 2230.03 2754.73C2214.19 2746.46 2204.56 2735.11 2204.56 2722.72C2204.56 2710.33 2214.19 2698.98 2230.03 2690.71C2245.85 2682.45 2267.73 2677.33 2291.93 2677.33Z" fill="white" stroke="black"/>
<path d="M2106 2677.33C2130.2 2677.33 2152.08 2682.45 2167.9 2690.71C2183.74 2698.98 2193.36 2710.33 2193.36 2722.72C2193.36 2735.11 2183.74 2746.46 2167.9 2754.73C2152.08 2762.99 2130.2 2768.12 2106 2768.12C2081.8 2768.12 2059.91 2762.99 2044.1 2754.73C2028.26 2746.46 2018.63 2735.11 2018.63 2722.72C2018.63 2710.33 2028.26 2698.98 2044.1 2690.71C2059.91 2682.45 2081.8 2677.33 2106 2677.33Z" fill="white" stroke="black"/>
<path d="M2157.3 2612.12C2171.05 2632.03 2179.27 2652.95 2181.46 2670.66C2183.65 2688.4 2179.79 2702.76 2169.59 2709.81C2159.39 2716.85 2144.59 2715.37 2128.78 2707.04C2113 2698.72 2096.34 2683.62 2082.59 2663.71C2068.84 2643.8 2060.62 2622.88 2058.43 2605.17C2056.24 2587.43 2060.1 2573.07 2070.3 2566.02C2080.5 2558.98 2095.3 2560.46 2111.11 2568.79C2126.9 2577.11 2143.55 2592.21 2157.3 2612.12Z" fill="white" stroke="black"/>
<path d="M2300.08 2773.73C2313.84 2793.64 2322.05 2814.56 2324.24 2832.27C2326.44 2850.01 2322.57 2864.38 2312.38 2871.42C2302.18 2878.46 2287.37 2876.98 2271.56 2868.65C2255.78 2860.33 2239.13 2845.23 2225.38 2825.32C2211.63 2805.41 2203.41 2784.49 2201.22 2766.78C2199.02 2749.04 2202.89 2734.68 2213.09 2727.64C2223.28 2720.59 2238.09 2722.07 2253.9 2730.4C2269.68 2738.72 2286.33 2753.82 2300.08 2773.73Z" fill="white" stroke="black"/>
<circle cx="2193.87" cy="2709.77" r="40.0108" fill="#EBC84D"/>
<ellipse rx="77.5924" ry="21.5624" transform="matrix(0.921863 0.387516 0.387516 -0.921863 2119.98 3000.57)" fill="#90BE6D"/>
<ellipse rx="49.4968" ry="23.711" transform="matrix(0.700154 0.713992 0.170734 -0.985317 2417.72 2983.45)" fill="#90BE6D"/>
<ellipse rx="69.7317" ry="33.4043" transform="matrix(0.700154 0.713992 0.170734 -0.985317 1881.23 2796.5)" fill="#90BE6D"/>
<ellipse rx="69.7317" ry="33.4043" transform="matrix(0.700154 0.713992 0.170734 -0.985317 1881.23 2705.8)" fill="#90BE6D"/>
<ellipse rx="69.7317" ry="33.4043" transform="matrix(0.700154 0.713992 0.170734 -0.985317 1881.23 2616.37)" fill="#90BE6D"/>
<ellipse rx="69.7317" ry="33.4043" transform="matrix(0.700154 0.713992 0.170734 -0.985317 1881.23 2531.23)" fill="#90BE6D"/>
<ellipse rx="49.4968" ry="23.711" transform="matrix(0.700154 0.713992 0.170734 -0.985317 2417.72 2912.6)" fill="#90BE6D"/>
<ellipse rx="49.4968" ry="23.711" transform="matrix(0.700154 0.713992 0.170734 -0.985317 2417.72 2795.15)" fill="#90BE6D"/>
<ellipse rx="49.4968" ry="23.711" transform="matrix(0.700154 0.713992 0.170734 -0.985317 2417.72 2840.4)" fill="#90BE6D"/>
<ellipse rx="49.4968" ry="23.711" transform="matrix(0.700154 0.713992 0.170734 -0.985317 2417.72 2870.03)" fill="#90BE6D"/>
<ellipse rx="49.4968" ry="23.711" transform="matrix(0.700154 0.713992 0.170734 -0.985317 2417.72 2946.05)" fill="#90BE6D"/>
<ellipse rx="71.9415" ry="31.0295" transform="matrix(0.769958 0.638095 0.208532 -0.978016 862.41 2783.67)" fill="#90BE6D"/>
<ellipse rx="71.9415" ry="31.0295" transform="matrix(0.769958 0.638095 0.208532 -0.978016 862.41 3057.2)" fill="#90BE6D"/>
<ellipse rx="66.8535" ry="25.5774" transform="matrix(0.828557 0.559905 0.252983 -0.967471 864.841 2922.31)" fill="#90BE6D"/>
<ellipse rx="77.5924" ry="21.5624" transform="matrix(0.921863 -0.387516 -0.387516 -0.921863 2254.92 3000.57)" fill="#90BE6D"/>
<ellipse rx="49.4968" ry="23.711" transform="matrix(0.700154 -0.713992 -0.170734 -0.985317 2483.09 2983.45)" fill="#90BE6D"/>
<ellipse rx="69.7317" ry="33.4043" transform="matrix(0.700154 -0.713992 -0.170734 -0.985317 1973.34 2796.5)" fill="#90BE6D"/>
<ellipse rx="69.7317" ry="33.4043" transform="matrix(0.700154 -0.713992 -0.170734 -0.985317 1973.34 2705.8)" fill="#90BE6D"/>
<ellipse rx="69.7317" ry="33.4043" transform="matrix(0.700154 -0.713992 -0.170734 -0.985317 1973.34 2616.37)" fill="#90BE6D"/>
<ellipse rx="69.7317" ry="33.4043" transform="matrix(0.700154 -0.713992 -0.170734 -0.985317 1973.34 2531.23)" fill="#90BE6D"/>
<ellipse rx="49.4968" ry="23.711" transform="matrix(0.700154 -0.713992 -0.170734 -0.985317 2483.09 2912.6)" fill="#90BE6D"/>
<ellipse rx="49.4968" ry="23.711" transform="matrix(0.700154 -0.713992 -0.170734 -0.985317 2483.09 2795.15)" fill="#90BE6D"/>
<ellipse rx="49.4968" ry="23.711" transform="matrix(0.700154 -0.713992 -0.170734 -0.985317 2483.09 2840.38)" fill="#90BE6D"/>
<ellipse rx="49.4968" ry="23.711" transform="matrix(0.700154 -0.713992 -0.170734 -0.985317 2483.09 2870.03)" fill="#90BE6D"/>
<ellipse rx="49.4968" ry="23.711" transform="matrix(0.700154 -0.713992 -0.170734 -0.985317 2483.09 2946.05)" fill="#90BE6D"/>
<ellipse rx="71.9415" ry="34.8286" transform="matrix(0.769958 -0.638095 -0.208532 -0.978016 966.113 2779.96)" fill="#90BE6D"/>
<ellipse rx="71.9415" ry="31.0295" transform="matrix(0.769958 -0.638095 -0.208532 -0.978016 966.906 3057.2)" fill="#90BE6D"/>
<ellipse rx="66.8535" ry="25.5774" transform="matrix(0.828557 -0.559905 -0.252983 -0.967471 969.336 2922.31)" fill="#90BE6D"/>
<path d="M2200.87 3022.26L2257.39 2997.3L2311.49 2977.54" stroke="#447321"/>
<path d="M2456.91 3008.93L2484.29 2979.61L2510.5 2956.37" stroke="#447321"/>
<path d="M1936.44 2832.41L1975.02 2791.09L2011.95 2758.36" stroke="#447321"/>
<path d="M1936.44 2741.7L1975.02 2700.39L2011.95 2667.66" stroke="#447321"/>
<path d="M1936.44 2652.28L1975.02 2610.96L2011.95 2578.23" stroke="#447321"/>
<path d="M1936.44 2567.18L1975.02 2525.86L2011.95 2493.13" stroke="#447321"/>
<path d="M2456.91 2938.09L2484.29 2908.76L2510.5 2885.53" stroke="#447321"/>
<path d="M2456.91 2820.66L2484.29 2791.33L2510.5 2768.1" stroke="#447321"/>
<path d="M2456.91 2865.87L2484.29 2836.54L2510.5 2813.31" stroke="#447321"/>
<path d="M2456.91 2895.52L2484.29 2866.19L2510.5 2842.96" stroke="#447321"/>
<path d="M2456.91 2971.54L2484.29 2942.21L2510.5 2918.98" stroke="#447321"/>
<path d="M925.049 2816.78L968.82 2778.69L1010.71 2748.51" stroke="#447321"/>
<path d="M925.049 3090.3L968.82 3052.21L1010.71 3022.03" stroke="#447321"/>
<path d="M927.48 2949.31L971.25 2918.24L1013.14 2893.64" stroke="#447321"/>
<path d="M2060.5 2977.54L2118.48 2998.87L2171.11 3022.25" stroke="#447321"/>
<path d="M2388.9 2956.37L2416.99 2981.45L2442.49 3008.93" stroke="#447321"/>
<path d="M1840.63 2758.36L1880.21 2793.69L1916.13 2832.4" stroke="#447321"/>
<path d="M1840.63 2667.66L1880.21 2702.99L1916.13 2741.7" stroke="#447321"/>
<path d="M1840.63 2578.27L1880.21 2613.6L1916.13 2652.32" stroke="#447321"/>
<path d="M1840.63 2493.09L1880.21 2528.42L1916.13 2567.13" stroke="#447321"/>
<path d="M2388.9 2885.53L2416.99 2910.61L2442.49 2938.08" stroke="#447321"/>
<path d="M2388.9 2768.08L2416.99 2793.16L2442.49 2820.64" stroke="#447321"/>
<path d="M2388.9 2813.33L2416.99 2838.4L2442.49 2865.88" stroke="#447321"/>
<path d="M2388.9 2842.96L2416.99 2868.04L2442.49 2895.51" stroke="#447321"/>
<path d="M2388.9 2918.98L2416.99 2944.06L2442.49 2971.53" stroke="#447321"/>
<path d="M816.343 2748.51L861.246 2781.08L902.006 2816.78" stroke="#447321"/>
<path d="M816.343 3022.04L861.246 3054.61L902.006 3090.3" stroke="#447321"/>
<path d="M818.774 2893.64L863.677 2920.2L904.437 2949.3" stroke="#447321"/>
<rect x="3174.19" y="3060.95" width="6.06518" height="270.956" fill="#90BE6D"/>
<path d="M3206.04 2920.91C3206.04 2934.94 3202.75 2947.62 3197.45 2956.78C3192.14 2965.95 3184.88 2971.5 3176.97 2971.5C3169.06 2971.5 3161.81 2965.95 3156.5 2956.78C3151.2 2947.62 3147.91 2934.94 3147.91 2920.91C3147.91 2906.87 3151.2 2894.19 3156.5 2885.03C3161.81 2875.86 3169.06 2870.32 3176.97 2870.32C3184.88 2870.32 3192.14 2875.86 3197.45 2885.03C3202.75 2894.19 3206.04 2906.87 3206.04 2920.91Z" fill="white" stroke="black"/>
<path d="M3206.04 3037.23C3206.04 3051.26 3202.75 3063.94 3197.45 3073.1C3192.14 3082.27 3184.88 3087.82 3176.97 3087.82C3169.06 3087.82 3161.81 3082.27 3156.5 3073.1C3151.2 3063.94 3147.91 3051.26 3147.91 3037.23C3147.91 3023.19 3151.2 3010.51 3156.5 3001.35C3161.81 2992.18 3169.06 2986.64 3176.97 2986.64C3184.88 2986.64 3192.14 2992.18 3197.45 3001.35C3202.75 3010.51 3206.04 3023.19 3206.04 3037.23Z" fill="white" stroke="black"/>
<path d="M3156.63 3039.63C3147.7 3051.13 3136.93 3059.82 3126.76 3064.58C3116.57 3069.34 3107.12 3070.11 3100.66 3066.03C3094.2 3061.94 3091.78 3053.66 3093.27 3043.39C3094.75 3033.14 3100.12 3021.04 3109.05 3009.54C3117.98 2998.04 3128.75 2989.35 3138.92 2984.6C3149.11 2979.83 3158.57 2979.06 3165.02 2983.14C3171.48 2987.23 3173.91 2995.51 3172.42 3005.78C3170.93 3016.03 3165.56 3028.13 3156.63 3039.63Z" fill="white" stroke="black"/>
<path d="M3248.62 2950.23C3239.69 2961.73 3228.92 2970.41 3218.75 2975.17C3208.56 2979.94 3199.11 2980.71 3192.65 2976.62C3186.19 2972.54 3183.77 2964.25 3185.25 2953.98C3186.74 2943.73 3192.11 2931.63 3201.04 2920.13C3209.97 2908.63 3220.74 2899.95 3230.91 2895.19C3241.1 2890.42 3250.55 2889.65 3257.01 2893.74C3263.47 2897.82 3265.89 2906.11 3264.41 2916.38C3262.92 2926.63 3257.55 2938.73 3248.62 2950.23Z" fill="white" stroke="black"/>
<path d="M3243.44 2958.35C3259.01 2958.35 3273.09 2961.33 3283.25 2966.12C3293.46 2970.93 3299.55 2977.48 3299.55 2984.54C3299.55 2991.6 3293.46 2998.15 3283.25 3002.96C3273.09 3007.75 3259.01 3010.72 3243.44 3010.72C3227.86 3010.72 3213.79 3007.75 3203.62 3002.96C3193.42 2998.15 3187.33 2991.6 3187.33 2984.54C3187.33 2977.48 3193.42 2970.93 3203.62 2966.12C3213.79 2961.33 3227.86 2958.35 3243.44 2958.35Z" fill="white" stroke="black"/>
<path d="M3123.65 2958.35C3139.23 2958.35 3153.3 2961.33 3163.47 2966.12C3173.67 2970.93 3179.76 2977.48 3179.76 2984.54C3179.76 2991.6 3173.67 2998.15 3163.47 3002.96C3153.3 3007.75 3139.23 3010.72 3123.65 3010.72C3108.08 3010.72 3094 3007.75 3083.84 3002.96C3073.63 2998.15 3067.54 2991.6 3067.54 2984.54C3067.54 2977.48 3073.63 2970.93 3083.84 2966.12C3094 2961.33 3108.08 2958.35 3123.65 2958.35Z" fill="white" stroke="black"/>
<path d="M3156.54 2920.33C3165.38 2931.89 3170.66 2944.02 3172.07 2954.28C3173.48 2964.56 3170.99 2972.83 3164.5 2976.87C3158.01 2980.92 3148.56 2980.09 3138.41 2975.26C3128.27 2970.44 3117.57 2961.69 3108.73 2950.13C3099.89 2938.57 3094.61 2926.44 3093.2 2916.18C3091.8 2905.9 3094.28 2897.63 3100.77 2893.59C3107.26 2889.54 3116.71 2890.37 3126.87 2895.2C3137 2900.02 3147.7 2908.78 3156.54 2920.33Z" fill="white" stroke="black"/>
<path d="M3248.53 3014.3C3257.37 3025.86 3262.65 3037.99 3264.06 3048.25C3265.47 3058.53 3262.98 3066.8 3256.49 3070.84C3250 3074.89 3240.55 3074.06 3230.39 3069.23C3220.26 3064.41 3209.56 3055.65 3200.72 3044.1C3191.88 3032.54 3186.6 3020.41 3185.19 3010.15C3183.79 2999.87 3186.27 2991.6 3192.76 2987.56C3199.25 2983.51 3208.7 2984.34 3218.86 2989.17C3228.99 2993.99 3239.69 3002.74 3248.53 3014.3Z" fill="white" stroke="black"/>
<ellipse cx="3180.26" cy="2977.01" rx="25.777" ry="23.2639" fill="#EBC84D"/>
<ellipse rx="49.2879" ry="12.7498" transform="matrix(0.934976 0.35471 0.422219 -0.906494 3132.66 3146.09)" fill="#90BE6D"/>
<ellipse rx="49.2879" ry="12.7498" transform="matrix(0.934976 -0.35471 -0.422219 -0.906494 3219.6 3146.09)" fill="#90BE6D"/>
<path d="M3184.77 3158.7L3221.19 3144.19L3256.04 3132.7" stroke="#447321"/>
<path d="M3094.33 3132.7L3131.69 3145.11L3165.6 3158.7" stroke="#447321"/>
<rect x="777.797" y="2985.93" width="9.41431" height="334.208" fill="#90BE6D"/>
<path d="M813.385 2812.55C813.385 2829.81 809.709 2845.42 803.791 2856.69C797.861 2867.99 789.755 2874.81 780.934 2874.81C772.114 2874.81 764.008 2867.99 758.078 2856.69C752.16 2845.42 748.484 2829.81 748.484 2812.55C748.484 2795.28 752.16 2779.67 758.078 2768.4C764.008 2757.1 772.114 2750.29 780.934 2750.29C789.755 2750.29 797.861 2757.1 803.791 2768.4C809.709 2779.67 813.385 2795.28 813.385 2812.55Z" fill="#F8961E" stroke="black"/>
<path d="M813.385 2956.51C813.385 2973.88 809.709 2989.59 803.79 3000.93C797.859 3012.3 789.753 3019.16 780.934 3019.16C772.116 3019.16 764.01 3012.3 758.079 3000.93C752.16 2989.59 748.484 2973.88 748.484 2956.51C748.484 2939.13 752.16 2923.43 758.079 2912.08C764.01 2900.71 772.116 2893.85 780.934 2893.85C789.753 2893.85 797.859 2900.71 803.79 2912.08C809.709 2923.43 813.385 2939.13 813.385 2956.51Z" fill="#F8961E" stroke="black"/>
<path d="M758.458 2959.27C748.496 2973.48 736.481 2984.22 725.131 2990.1C713.756 2996 703.184 2996.96 695.961 2991.9C688.739 2986.83 686.033 2976.57 687.693 2963.86C689.35 2951.19 695.344 2936.23 705.306 2922.02C715.268 2907.8 727.283 2897.06 738.633 2891.18C750.008 2885.28 760.58 2884.32 767.803 2889.39C775.025 2894.45 777.731 2904.71 776.07 2917.42C774.414 2930.09 768.42 2945.05 758.458 2959.27Z" fill="#F8961E" stroke="black"/>
<path d="M860.976 2848.86C851.015 2863.07 839 2873.81 827.649 2879.7C816.274 2885.59 805.702 2886.55 798.48 2881.49C791.257 2876.43 788.552 2866.16 790.212 2853.46C791.869 2840.78 797.863 2825.82 807.825 2811.61C817.787 2797.4 829.801 2786.66 841.152 2780.77C852.527 2774.88 863.099 2773.92 870.321 2778.98C877.544 2784.04 880.249 2794.31 878.589 2807.01C876.933 2819.69 870.938 2834.65 860.976 2848.86Z" fill="#F8961E" stroke="black"/>
<path d="M855.072 2858.55C872.448 2858.55 888.154 2862.22 899.498 2868.14C910.866 2874.07 917.727 2882.18 917.727 2891C917.727 2899.82 910.866 2907.92 899.498 2913.86C888.154 2919.77 872.448 2923.45 855.072 2923.45C837.697 2923.45 821.991 2919.77 810.647 2913.86C799.279 2907.92 792.418 2899.82 792.418 2891C792.418 2882.18 799.279 2874.07 810.647 2868.14C821.991 2862.22 837.697 2858.55 855.072 2858.55Z" fill="#F8961E" stroke="black"/>
<path d="M721.703 2858.55C739.079 2858.55 754.785 2862.22 766.129 2868.14C777.497 2874.07 784.357 2882.18 784.357 2891C784.357 2899.82 777.497 2907.92 766.129 2913.86C754.785 2919.77 739.079 2923.45 721.703 2923.45C704.327 2923.45 688.621 2919.77 677.278 2913.86C665.91 2907.92 659.049 2899.82 659.049 2891C659.049 2882.18 665.91 2874.07 677.278 2868.14C688.621 2862.22 704.327 2858.55 721.703 2858.55Z" fill="#F8961E" stroke="black"/>
<path d="M758.357 2811.86C768.22 2826.14 774.11 2841.14 775.679 2853.83C777.251 2866.54 774.475 2876.79 767.218 2881.8C759.96 2886.81 749.395 2885.78 738.061 2879.8C726.752 2873.84 714.811 2863.02 704.948 2848.74C695.085 2834.46 689.194 2819.46 687.626 2806.77C686.054 2794.05 688.83 2783.81 696.087 2778.8C703.345 2773.78 713.91 2774.82 725.244 2780.79C736.553 2786.75 748.493 2797.57 758.357 2811.86Z" fill="#F8961E" stroke="black"/>
<path d="M860.876 2927.89C870.739 2942.18 876.63 2957.18 878.199 2969.86C879.771 2982.58 876.995 2992.83 869.737 2997.84C862.48 3002.85 851.914 3001.82 840.581 2995.84C829.271 2989.88 817.331 2979.06 807.468 2964.78C797.605 2950.49 791.714 2935.49 790.145 2922.81C788.573 2910.09 791.349 2899.84 798.607 2894.83C805.864 2889.82 816.429 2890.85 827.763 2896.83C839.073 2902.79 851.013 2913.61 860.876 2927.89Z" fill="#F8961E" stroke="black"/>
<ellipse cx="784.465" cy="2888.65" rx="19.2209" ry="18.8286" fill="#90BE6D"/>
<rect x="1807.09" y="2985.93" width="9.41431" height="334.208" fill="#90BE6D"/>
<path d="M1842.68 2812.55C1842.68 2829.81 1839.01 2845.42 1833.09 2856.69C1827.16 2867.99 1819.05 2874.81 1810.23 2874.81C1801.41 2874.81 1793.31 2867.99 1787.38 2856.69C1781.46 2845.42 1777.78 2829.81 1777.78 2812.55C1777.78 2795.28 1781.46 2779.67 1787.38 2768.4C1793.31 2757.1 1801.41 2750.29 1810.23 2750.29C1819.05 2750.29 1827.16 2757.1 1833.09 2768.4C1839.01 2779.67 1842.68 2795.28 1842.68 2812.55Z" fill="#F9C74F" stroke="black"/>
<path d="M1842.68 2956.51C1842.68 2973.88 1839.01 2989.59 1833.09 3000.93C1827.16 3012.3 1819.05 3019.16 1810.23 3019.16C1801.41 3019.16 1793.31 3012.3 1787.38 3000.93C1781.46 2989.59 1777.78 2973.88 1777.78 2956.51C1777.78 2939.13 1781.46 2923.43 1787.38 2912.08C1793.31 2900.71 1801.41 2893.85 1810.23 2893.85C1819.05 2893.85 1827.16 2900.71 1833.09 2912.08C1839.01 2923.43 1842.68 2939.13 1842.68 2956.51Z" fill="#F9C74F" stroke="black"/>
<path d="M1787.76 2959.27C1777.79 2973.48 1765.78 2984.22 1754.43 2990.1C1743.05 2996 1732.48 2996.96 1725.26 2991.9C1718.04 2986.83 1715.33 2976.57 1716.99 2963.86C1718.65 2951.19 1724.64 2936.23 1734.6 2922.02C1744.57 2907.8 1756.58 2897.06 1767.93 2891.18C1779.31 2885.28 1789.88 2884.32 1797.1 2889.39C1804.32 2894.45 1807.03 2904.71 1805.37 2917.42C1803.71 2930.09 1797.72 2945.05 1787.76 2959.27Z" fill="#F9C74F" stroke="black"/>
<path d="M1890.27 2848.86C1880.31 2863.07 1868.3 2873.81 1856.95 2879.7C1845.57 2885.59 1835 2886.55 1827.78 2881.49C1820.55 2876.43 1817.85 2866.16 1819.51 2853.46C1821.17 2840.78 1827.16 2825.82 1837.12 2811.61C1847.08 2797.4 1859.1 2786.66 1870.45 2780.77C1881.82 2774.88 1892.4 2773.92 1899.62 2778.98C1906.84 2784.04 1909.55 2794.31 1907.89 2807.01C1906.23 2819.69 1900.24 2834.65 1890.27 2848.86Z" fill="#F9C74F" stroke="black"/>
<path d="M1884.37 2858.55C1901.75 2858.55 1917.45 2862.22 1928.8 2868.14C1940.16 2874.07 1947.02 2882.18 1947.02 2891C1947.02 2899.82 1940.16 2907.92 1928.8 2913.86C1917.45 2919.77 1901.75 2923.45 1884.37 2923.45C1866.99 2923.45 1851.29 2919.77 1839.94 2913.86C1828.58 2907.92 1821.72 2899.82 1821.72 2891C1821.72 2882.18 1828.58 2874.07 1839.94 2868.14C1851.29 2862.22 1866.99 2858.55 1884.37 2858.55Z" fill="#F9C74F" stroke="black"/>
<path d="M1751 2858.55C1768.38 2858.55 1784.08 2862.22 1795.43 2868.14C1806.79 2874.07 1813.66 2882.18 1813.66 2891C1813.66 2899.82 1806.79 2907.92 1795.43 2913.86C1784.08 2919.77 1768.38 2923.45 1751 2923.45C1733.63 2923.45 1717.92 2919.77 1706.58 2913.86C1695.21 2907.92 1688.35 2899.82 1688.35 2891C1688.35 2882.18 1695.21 2874.07 1706.58 2868.14C1717.92 2862.22 1733.63 2858.55 1751 2858.55Z" fill="#F9C74F" stroke="black"/>
<path d="M1787.65 2811.86C1797.52 2826.14 1803.41 2841.14 1804.98 2853.83C1806.55 2866.54 1803.77 2876.79 1796.52 2881.8C1789.26 2886.81 1778.69 2885.78 1767.36 2879.8C1756.05 2873.84 1744.11 2863.02 1734.25 2848.74C1724.38 2834.46 1718.49 2819.46 1716.92 2806.77C1715.35 2794.05 1718.13 2783.81 1725.39 2778.8C1732.64 2773.78 1743.21 2774.82 1754.54 2780.79C1765.85 2786.75 1777.79 2797.57 1787.65 2811.86Z" fill="#F9C74F" stroke="black"/>
<path d="M1890.17 2927.89C1900.04 2942.18 1905.93 2957.18 1907.5 2969.86C1909.07 2982.58 1906.29 2992.83 1899.03 2997.84C1891.78 3002.85 1881.21 3001.82 1869.88 2995.84C1858.57 2989.88 1846.63 2979.06 1836.77 2964.78C1826.9 2950.49 1821.01 2935.49 1819.44 2922.81C1817.87 2910.09 1820.65 2899.84 1827.9 2894.83C1835.16 2889.82 1845.73 2890.85 1857.06 2896.83C1868.37 2902.79 1880.31 2913.61 1890.17 2927.89Z" fill="#F9C74F" stroke="black"/>
<ellipse cx="1813.76" cy="2888.65" rx="19.2209" ry="18.8286" fill="#90BE6D"/>
<rect x="2926.61" y="2985.93" width="9.41431" height="334.208" fill="#90BE6D"/>
<path d="M2962.2 2812.55C2962.2 2829.81 2958.52 2845.42 2952.61 2856.69C2946.68 2867.99 2938.57 2874.81 2929.75 2874.81C2920.93 2874.81 2912.82 2867.99 2906.89 2856.69C2900.98 2845.42 2897.3 2829.81 2897.3 2812.55C2897.3 2795.28 2900.98 2779.67 2906.89 2768.4C2912.82 2757.1 2920.93 2750.29 2929.75 2750.29C2938.57 2750.29 2946.68 2757.1 2952.61 2768.4C2958.52 2779.67 2962.2 2795.28 2962.2 2812.55Z" fill="#F8961E" stroke="black"/>
<path d="M2962.2 2956.51C2962.2 2973.88 2958.52 2989.59 2952.61 3000.93C2946.67 3012.3 2938.57 3019.16 2929.75 3019.16C2920.93 3019.16 2912.83 3012.3 2906.89 3000.93C2900.98 2989.59 2897.3 2973.88 2897.3 2956.51C2897.3 2939.13 2900.98 2923.43 2906.89 2912.08C2912.83 2900.71 2920.93 2893.85 2929.75 2893.85C2938.57 2893.85 2946.67 2900.71 2952.61 2912.08C2958.52 2923.43 2962.2 2939.13 2962.2 2956.51Z" fill="#F8961E" stroke="black"/>
<path d="M2907.27 2959.27C2897.31 2973.48 2885.3 2984.22 2873.95 2990.1C2862.57 2996 2852 2996.96 2844.78 2991.9C2837.55 2986.83 2834.85 2976.57 2836.51 2963.86C2838.17 2951.19 2844.16 2936.23 2854.12 2922.02C2864.08 2907.8 2876.1 2897.06 2887.45 2891.18C2898.82 2885.28 2909.4 2884.32 2916.62 2889.39C2923.84 2894.45 2926.55 2904.71 2924.89 2917.42C2923.23 2930.09 2917.24 2945.05 2907.27 2959.27Z" fill="#F8961E" stroke="black"/>
<path d="M3009.79 2848.86C2999.83 2863.07 2987.82 2873.81 2976.46 2879.7C2965.09 2885.59 2954.52 2886.55 2947.3 2881.49C2940.07 2876.43 2937.37 2866.16 2939.03 2853.46C2940.68 2840.78 2946.68 2825.82 2956.64 2811.61C2966.6 2797.4 2978.62 2786.66 2989.97 2780.77C3001.34 2774.88 3011.91 2773.92 3019.14 2778.98C3026.36 2784.04 3029.06 2794.31 3027.4 2807.01C3025.75 2819.69 3019.75 2834.65 3009.79 2848.86Z" fill="#F8961E" stroke="black"/>
<path d="M3003.89 2858.55C3021.26 2858.55 3036.97 2862.22 3048.31 2868.14C3059.68 2874.07 3066.54 2882.18 3066.54 2891C3066.54 2899.82 3059.68 2907.92 3048.31 2913.86C3036.97 2919.77 3021.26 2923.45 3003.89 2923.45C2986.51 2923.45 2970.81 2919.77 2959.46 2913.86C2948.09 2907.92 2941.23 2899.82 2941.23 2891C2941.23 2882.18 2948.09 2874.07 2959.46 2868.14C2970.81 2862.22 2986.51 2858.55 3003.89 2858.55Z" fill="#F8961E" stroke="black"/>
<path d="M2870.52 2858.55C2887.89 2858.55 2903.6 2862.22 2914.94 2868.14C2926.31 2874.07 2933.17 2882.18 2933.17 2891C2933.17 2899.82 2926.31 2907.92 2914.94 2913.86C2903.6 2919.77 2887.89 2923.45 2870.52 2923.45C2853.14 2923.45 2837.44 2919.77 2826.09 2913.86C2814.73 2907.92 2807.86 2899.82 2807.86 2891C2807.86 2882.18 2814.73 2874.07 2826.09 2868.14C2837.44 2862.22 2853.14 2858.55 2870.52 2858.55Z" fill="#F8961E" stroke="black"/>
<path d="M2907.17 2811.86C2917.04 2826.14 2922.93 2841.14 2924.49 2853.83C2926.07 2866.54 2923.29 2876.79 2916.03 2881.8C2908.78 2886.81 2898.21 2885.78 2886.88 2879.8C2875.57 2873.84 2863.63 2863.02 2853.76 2848.74C2843.9 2834.46 2838.01 2819.46 2836.44 2806.77C2834.87 2794.05 2837.65 2783.81 2844.9 2778.8C2852.16 2773.78 2862.73 2774.82 2874.06 2780.79C2885.37 2786.75 2897.31 2797.57 2907.17 2811.86Z" fill="#F8961E" stroke="black"/>
<path d="M3009.69 2927.89C3019.56 2942.18 3025.45 2957.18 3027.02 2969.86C3028.59 2982.58 3025.81 2992.83 3018.55 2997.84C3011.3 3002.85 3000.73 3001.82 2989.4 2995.84C2978.09 2989.88 2966.15 2979.06 2956.28 2964.78C2946.42 2950.49 2940.53 2935.49 2938.96 2922.81C2937.39 2910.09 2940.17 2899.84 2947.42 2894.83C2954.68 2889.82 2965.25 2890.85 2976.58 2896.83C2987.89 2902.79 2999.83 2913.61 3009.69 2927.89Z" fill="#F8961E" stroke="black"/>
<ellipse cx="2933.28" cy="2888.65" rx="19.2209" ry="18.8286" fill="#90BE6D"/>
<circle cx="824.084" cy="906.15" r="523.279" fill="#EDAD13"/>
<circle cx="857.819" cy="906.15" r="523.279" fill="#F9C74F"/>
<path d="M388.339 781.387C384.616 783.735 380.045 780.215 381.472 776.05C390.663 749.219 403.701 720.332 419.958 690.831C438.699 656.82 461.287 622.774 486.22 590.957C511.154 559.14 537.86 530.282 564.561 506.303C586.531 486.573 608.084 470.518 628.252 458.827C632.714 456.24 637.684 460.687 635.827 465.499V465.499C635.322 466.809 634.345 467.881 633.096 468.523C611.538 479.61 587.963 496.508 563.847 518.165C539.004 540.475 514.156 567.325 490.958 596.927C467.761 626.53 446.744 658.207 429.307 689.85C412.218 720.862 398.952 751.144 390.351 778.763C390.013 779.85 389.302 780.78 388.339 781.387V781.387Z" fill="#F3DFAF"/>
<path d="M373.336 835.387C370.54 836.237 367.752 834.052 368.024 831.141C368.816 822.656 370.347 813.997 372.598 805.283C373.03 803.611 374.53 802.444 376.257 802.403V802.403C378.881 802.34 380.823 804.827 380.206 807.379C378.231 815.547 376.94 823.65 376.351 831.577C376.22 833.346 375.034 834.871 373.336 835.387V835.387Z" fill="#F3DFAF"/>
<path d="M1286.06 1305.22L1298.57 1339.74C1313.02 1379.61 1351.34 1405.78 1393.73 1404.74L1413.09 1404.26C1460.33 1403.1 1498.48 1442.53 1495.75 1489.7V1489.7C1493.78 1523.84 1513.51 1555.53 1545.01 1568.82L1560.07 1575.17" stroke="#EDAD13" stroke-width="12"/>
<path d="M1406.59 1125.92L1424.56 1157.93C1445.32 1194.91 1487.39 1214.49 1529.04 1206.55L1548.07 1202.93C1594.48 1194.08 1638.55 1226.78 1643.55 1273.76V1273.76C1647.16 1307.76 1671.79 1335.81 1705.04 1343.79L1720.93 1347.6" stroke="#EDAD13" stroke-width="12"/>
<path d="M1290.09 1305.22L1302.6 1339.74C1317.06 1379.61 1355.37 1405.78 1397.77 1404.74L1417.13 1404.26C1464.36 1403.1 1502.51 1442.53 1499.79 1489.7V1489.7C1497.82 1523.84 1517.55 1555.53 1549.05 1568.82L1564.1 1575.17" stroke="#F9C74F" stroke-width="12"/>
<path d="M1410.58 1125.26L1428.54 1157.27C1449.3 1194.25 1491.37 1213.83 1533.03 1205.89L1552.05 1202.27C1598.47 1193.43 1642.53 1226.12 1647.53 1273.1V1273.1C1651.15 1307.1 1675.78 1335.15 1709.03 1343.13L1724.91 1346.94" stroke="#F9C74F" stroke-width="12"/>
<path d="M1135.92 1421.98L1140.21 1458.61C1145.14 1500.61 1176.21 1534.84 1217.53 1543.8L1236.32 1547.87C1282.41 1557.87 1310.29 1604.92 1296.92 1650.15V1650.15C1287.25 1682.86 1299.07 1718.13 1326.5 1738.4L1339.74 1748.17" stroke="#EDAD13" stroke-width="12"/>
<path d="M1139.45 1419.96L1143.74 1456.59C1148.67 1498.59 1179.74 1532.82 1221.07 1541.78L1239.85 1545.85C1285.94 1555.85 1313.83 1602.91 1300.45 1648.13V1648.13C1290.78 1680.84 1302.6 1716.11 1330.04 1736.38L1343.27 1746.15" stroke="#F8C347" stroke-width="12"/>
<path d="M932.44 1485.39L925.049 1521.21C916.461 1562.84 935.57 1605.27 972.43 1626.43L989.329 1636.13C1030.36 1659.69 1042.36 1713.37 1015.26 1752.15V1752.15C995.64 1780.24 995.925 1817.66 1015.98 1845.44L1025.48 1858.62" stroke="#EDAD13" stroke-width="12"/>
<path d="M724.231 1508.36L711.661 1546.12C698.693 1585.08 709.866 1626.83 739.991 1651.97L754.009 1663.67C788.422 1692.4 791.749 1745.02 761.451 1781.35V1781.35C739.677 1807.47 734.589 1843.24 748.474 1872.6L755.761 1888" stroke="#EDAD13" stroke-width="12"/>
<path d="M937.284 1485.39L929.893 1521.21C921.305 1562.84 940.414 1605.27 977.274 1626.43L994.173 1636.13C1035.21 1659.69 1047.21 1713.37 1020.11 1752.15V1752.15C1000.48 1780.24 1000.77 1817.66 1020.82 1845.44L1030.33 1858.62" stroke="#F9C74F" stroke-width="12"/>
<path d="M728.551 1508.89L715.981 1546.66C703.013 1585.62 714.186 1627.36 744.312 1652.51L758.329 1664.21C792.742 1692.93 796.07 1745.55 765.771 1781.89V1781.89C743.998 1808 738.909 1843.78 752.794 1873.13L760.081 1888.53" stroke="#F9C74F" stroke-width="12"/>
</svg>
