<svg width="4000" height="4000" viewBox="0 0 4000 4000" fill="none" xmlns="http://www.w3.org/2000/svg">
<path d="M1889.58 3157.15L1913.95 3070.77C1913.95 3070.77 1906.71 3093.19 1923.83 3125.17C1940.95 3157.15 1940.29 3157.15 1940.29 3157.15L1949.51 3097.48C1949.51 3097.48 1955.79 3121.21 1958.07 3135.72C1960.36 3150.23 1970.26 3039.13 1970.26 3039.13L2010.76 3157.15L2062.46 3075.06C2063.61 3107.12 2045.99 3125.17 2065.42 3157.15C2084.85 3189.13 2099.66 3119.9 2099.66 3119.9C2099.66 3119.9 2115.14 3204.29 2126.67 3167.04C2138.19 3129.79 2133.69 3108.37 2138.19 3070.77L2178.69 3174.62C2205.28 3168.68 2222.68 3151.09 2257.06 3100.44L2247.18 3157.15C2292.51 3167.91 2307.4 3160.02 2310.07 3114.29L2333.45 3157.15C2386.22 3140.26 2394.01 3122.27 2369.34 3075.06C2394.43 3113.24 2412.13 3132.49 2459.89 3157.15L2440.8 3070.77C2441.72 3071.24 2424.24 2999.38 2480.64 3125.17L2505.99 3163.74C2537.48 3131.73 2544.54 3106.82 2538.26 3050L2590.29 3157.15C2622.54 3144.38 2635.45 3129.82 2650.55 3092.53V3157.15L2698.29 3122.2C2686.02 3144.39 2687.02 3153.02 2712.12 3157.15C2712.12 3157.15 2749.66 2974.51 2739.78 3054.95C2729.9 3135.39 2756.57 3157.15 2756.57 3157.15C2756.57 3157.15 2826.05 2930 2810.25 3010.11C2794.44 3090.22 2802.34 3471 2802.34 3471H1889.58V3157.15Z" fill="#90BE6D"/>
<circle cx="1055.08" cy="1016.5" r="486.5" fill="#EDAD13"/>
<circle cx="1087.08" cy="1016.5" r="486.5" fill="#F9C74F"/>
<path d="M650.358 900.429C646.897 902.611 642.648 899.339 643.974 895.468C652.518 870.528 664.637 843.677 679.748 816.255C697.168 784.642 718.164 752.995 741.34 723.42C764.516 693.846 789.34 667.021 814.16 644.732C834.581 626.393 854.615 611.47 873.362 600.602C877.51 598.198 882.129 602.332 880.403 606.804V606.804C879.933 608.022 879.025 609.018 877.864 609.615C857.826 619.921 835.912 635.627 813.496 655.758C790.403 676.496 767.307 701.453 745.744 728.969C724.181 756.486 704.646 785.93 688.438 815.343C672.554 844.169 660.222 872.318 652.228 897.99C651.913 899 651.252 899.865 650.358 900.429V900.429Z" fill="#F3DFAF"/>
<path d="M636.411 950.622C633.812 951.413 631.221 949.382 631.473 946.676C632.209 938.789 633.633 930.741 635.726 922.64C636.127 921.086 637.521 920.001 639.126 919.963V919.963C641.566 919.905 643.37 922.217 642.797 924.589C640.961 932.181 639.761 939.713 639.214 947.081C639.092 948.726 637.989 950.143 636.411 950.622V950.622Z" fill="#F3DFAF"/>
<path d="M1484.81 1387.35L1496.43 1419.43C1509.87 1456.49 1545.48 1480.82 1584.89 1479.85L1602.89 1479.4C1646.79 1478.33 1682.26 1514.98 1679.72 1558.83V1558.83C1677.89 1590.56 1696.23 1620.01 1725.51 1632.36L1739.5 1638.27" stroke="#EDAD13" stroke-width="12"/>
<path d="M1596.85 1220.68L1613.55 1250.43C1632.84 1284.81 1671.94 1303.01 1710.67 1295.63L1728.35 1292.26C1771.49 1284.04 1812.46 1314.43 1817.1 1358.1V1358.1C1820.46 1389.71 1843.36 1415.77 1874.26 1423.19L1889.03 1426.74" stroke="#EDAD13" stroke-width="12"/>
<path d="M1488.56 1387.35L1500.19 1419.43C1513.62 1456.49 1549.24 1480.82 1588.64 1479.85L1606.64 1479.4C1650.55 1478.33 1686.01 1514.98 1683.48 1558.83V1558.83C1681.64 1590.56 1699.98 1620.01 1729.27 1632.36L1743.26 1638.27" stroke="#F9C74F" stroke-width="12"/>
<path d="M1600.55 1220.06L1617.25 1249.82C1636.54 1284.2 1675.65 1302.39 1714.37 1295.02L1732.06 1291.65C1775.2 1283.43 1816.16 1313.82 1820.8 1357.49V1357.49C1824.17 1389.09 1847.06 1415.16 1877.97 1422.58L1892.73 1426.12" stroke="#F9C74F" stroke-width="12"/>
<path d="M1345.25 1495.88L1349.24 1529.92C1353.82 1568.97 1382.7 1600.78 1421.11 1609.11L1438.57 1612.9C1481.42 1622.18 1507.33 1665.93 1494.9 1707.97V1707.97C1485.91 1738.37 1496.9 1771.15 1522.4 1789.99L1534.7 1799.08" stroke="#EDAD13" stroke-width="12"/>
<path d="M1348.53 1494L1352.52 1528.05C1357.1 1567.09 1385.98 1598.91 1424.4 1607.24L1441.86 1611.02C1484.7 1620.31 1510.62 1664.05 1498.19 1706.09V1706.09C1489.2 1736.49 1500.19 1769.27 1525.69 1788.11L1537.99 1797.2" stroke="#F8C347" stroke-width="12"/>
<path d="M1156.11 1554.81L1149.24 1588.11C1141.26 1626.81 1159.02 1666.25 1193.28 1685.92L1208.99 1694.93C1247.13 1716.83 1258.29 1766.72 1233.1 1802.78V1802.78C1214.86 1828.88 1215.12 1863.67 1233.76 1889.49L1242.6 1901.74" stroke="#EDAD13" stroke-width="12"/>
<path d="M962.576 1576.17L951.189 1610.38C938.955 1647.13 949.496 1686.51 977.917 1710.24L990.256 1720.53C1022.24 1747.23 1025.34 1796.15 997.173 1829.92V1829.92C976.934 1854.19 972.204 1887.45 985.111 1914.73L991.884 1929.05" stroke="#EDAD13" stroke-width="12"/>
<path d="M1160.61 1554.81L1153.74 1588.11C1145.76 1626.81 1163.52 1666.25 1197.79 1685.92L1213.49 1694.93C1251.64 1716.83 1262.79 1766.72 1237.6 1802.78V1802.78C1219.36 1828.88 1219.62 1863.67 1238.26 1889.49L1247.1 1901.74" stroke="#F9C74F" stroke-width="12"/>
<path d="M966.592 1576.66L955.205 1610.87C942.971 1647.63 953.511 1687.01 981.932 1710.73L994.271 1721.03C1026.26 1747.73 1029.35 1796.64 1001.19 1830.42V1830.42C980.95 1854.69 976.22 1887.94 989.126 1915.23L995.9 1929.55" stroke="#F9C74F" stroke-width="12"/>
<path d="M442.106 3123.85L469.088 3028.32C469.088 3028.32 461.066 3053.12 480.026 3088.48C498.986 3123.85 498.257 3123.85 498.257 3123.85L508.466 3057.86C508.466 3057.86 515.413 3084.11 517.946 3100.15C520.479 3116.19 531.437 2993.32 531.437 2993.32L576.285 3123.85L633.53 3033.06C634.811 3068.52 615.299 3088.48 636.811 3123.85C658.324 3159.22 674.732 3082.65 674.732 3082.65C674.732 3082.65 691.869 3175.99 704.63 3134.79C717.392 3093.59 712.408 3069.9 717.392 3028.32L762.24 3143.18C791.684 3136.61 810.945 3117.15 849.018 3061.14L838.08 3123.85C888.27 3135.75 904.766 3127.02 907.722 3076.45L933.609 3123.85C992.039 3105.18 1000.67 3085.28 973.353 3033.06C1001.13 3075.29 1020.73 3096.57 1073.62 3123.85L1052.47 3028.32C1053.49 3028.84 1034.14 2949.36 1096.59 3088.48L1124.67 3131.14C1159.54 3095.73 1167.36 3068.19 1160.4 3005.35L1218.01 3123.85C1253.72 3109.73 1268.02 3093.63 1284.74 3052.39V3123.85L1337.6 3085.2C1324.02 3109.74 1325.13 3119.29 1352.92 3123.85C1352.92 3123.85 1394.49 2921.85 1383.55 3010.82C1372.61 3099.79 1402.14 3123.85 1402.14 3123.85C1402.14 3123.85 1479.08 2872.63 1461.57 2961.23C1444.07 3049.83 1452.82 3470.97 1452.82 3470.97H442.106V3123.85Z" fill="#90BE6D"/>
<path d="M86.9697 3123.85L113.951 3028.32C113.951 3028.32 105.93 3053.12 124.89 3088.48C143.85 3123.85 143.121 3123.85 143.121 3123.85L153.33 3057.86C153.33 3057.86 160.277 3084.11 162.81 3100.15C165.343 3116.19 176.301 2993.32 176.301 2993.32L221.149 3123.85L278.394 3033.06C279.675 3068.52 260.163 3088.48 281.675 3123.85C303.188 3159.22 319.595 3082.65 319.595 3082.65C319.595 3082.65 336.732 3175.99 349.494 3134.79C362.255 3093.59 357.272 3069.9 362.255 3028.32L407.103 3143.18C436.548 3136.61 455.809 3117.15 493.882 3061.14L482.944 3123.85C533.133 3135.75 549.629 3127.02 552.585 3076.45L578.473 3123.85C636.903 3105.18 645.533 3085.28 618.217 3033.06C645.998 3075.29 665.597 3096.57 718.486 3123.85L697.338 3028.32C698.358 3028.84 679.008 2949.36 741.457 3088.48L769.533 3131.14C804.403 3095.73 812.222 3068.19 805.265 3005.35L862.874 3123.85C898.586 3109.73 912.881 3093.63 929.599 3052.39V3123.85L982.469 3085.2C968.884 3109.74 969.991 3119.29 997.783 3123.85C997.783 3123.85 1039.35 2921.85 1028.41 3010.82C1017.47 3099.79 1047.01 3123.85 1047.01 3123.85C1047.01 3123.85 1123.94 2872.63 1106.44 2961.23C1088.94 3049.83 1097.69 3470.97 1097.69 3470.97H86.9697V3123.85Z" fill="#90BE6D"/>
<path d="M1396.67 3123.85L1423.65 3028.32C1423.65 3028.32 1415.63 3053.12 1434.59 3088.48C1453.55 3123.85 1452.82 3123.85 1452.82 3123.85L1463.03 3057.86C1463.03 3057.86 1469.98 3084.11 1472.51 3100.15C1475.05 3116.19 1486 2993.32 1486 2993.32L1530.85 3123.85L1588.1 3033.06C1589.38 3068.52 1569.87 3088.48 1591.38 3123.85C1612.89 3159.22 1629.3 3082.65 1629.3 3082.65C1629.3 3082.65 1646.44 3175.99 1659.2 3134.79C1671.96 3093.59 1666.97 3069.9 1671.96 3028.32L1716.81 3143.18C1746.25 3136.61 1765.51 3117.15 1803.59 3061.14L1792.65 3123.85C1842.84 3135.75 1859.33 3127.02 1862.29 3076.45L1888.18 3123.85C1946.61 3105.18 1955.24 3085.28 1927.92 3033.06C1955.7 3075.29 1975.3 3096.57 2028.19 3123.85L2007.04 3028.32C2008.06 3028.84 1988.71 2949.36 2051.16 3088.48L2079.24 3131.14C2114.11 3095.73 2121.92 3068.19 2114.97 3005.35L2172.58 3123.85C2208.29 3109.73 2222.58 3093.63 2239.3 3052.39V3123.85L2292.17 3085.2C2278.59 3109.74 2279.69 3119.29 2307.49 3123.85C2307.49 3123.85 2349.05 2921.85 2338.11 3010.82C2327.18 3099.79 2356.71 3123.85 2356.71 3123.85C2356.71 3123.85 2433.64 2872.63 2416.14 2961.23C2398.64 3049.83 2407.39 3470.97 2407.39 3470.97H1396.67V3123.85Z" fill="#90BE6D"/>
<path d="M2418.69 3123.85L2445.68 3028.32C2445.68 3028.32 2437.65 3053.12 2456.61 3088.48C2475.57 3123.85 2474.85 3123.85 2474.85 3123.85L2485.05 3057.86C2485.05 3057.86 2492 3084.11 2494.53 3100.15C2497.07 3116.19 2508.03 2993.32 2508.03 2993.32L2552.87 3123.85L2610.12 3033.06C2611.4 3068.52 2591.89 3088.48 2613.4 3123.85C2634.91 3159.22 2651.32 3082.65 2651.32 3082.65C2651.32 3082.65 2668.46 3175.99 2681.22 3134.79C2693.98 3093.59 2689 3069.9 2693.98 3028.32L2738.83 3143.18C2768.27 3136.61 2787.53 3117.15 2825.61 3061.14L2814.67 3123.85C2864.86 3135.75 2881.35 3127.02 2884.31 3076.45L2910.2 3123.85C2968.63 3105.18 2977.26 3085.28 2949.94 3033.06C2977.72 3075.29 2997.32 3096.57 3050.21 3123.85L3029.06 3028.32C3030.08 3028.84 3010.73 2949.36 3073.18 3088.48L3101.26 3131.14C3136.13 3095.73 3143.95 3068.19 3136.99 3005.35L3194.6 3123.85C3230.31 3109.73 3244.61 3093.63 3261.32 3052.39V3123.85L3314.19 3085.2C3300.61 3109.74 3301.72 3119.29 3329.51 3123.85C3329.51 3123.85 3371.07 2921.85 3360.14 3010.82C3349.2 3099.79 3378.73 3123.85 3378.73 3123.85C3378.73 3123.85 3455.66 2872.63 3438.16 2961.23C3420.66 3049.83 3429.41 3470.97 3429.41 3470.97H2418.69V3123.85Z" fill="#90BE6D"/>
<path d="M2761.07 3123.85L2788.05 3028.32C2788.05 3028.32 2780.03 3053.12 2798.99 3088.48C2817.95 3123.85 2817.22 3123.85 2817.22 3123.85L2827.43 3057.86C2827.43 3057.86 2834.38 3084.11 2836.91 3100.15C2839.44 3116.19 2850.4 2993.32 2850.4 2993.32L2895.25 3123.85L2952.49 3033.06C2953.77 3068.52 2934.26 3088.48 2955.77 3123.85C2977.29 3159.22 2993.69 3082.65 2993.69 3082.65C2993.69 3082.65 3010.83 3175.99 3023.59 3134.79C3036.36 3093.59 3031.37 3069.9 3036.36 3028.32L3081.2 3143.18C3110.65 3136.61 3129.91 3117.15 3167.98 3061.14L3157.04 3123.85C3207.23 3135.75 3223.73 3127.02 3226.69 3076.45L3252.57 3123.85C3311 3105.18 3319.63 3085.28 3292.32 3033.06C3320.1 3075.29 3339.7 3096.57 3392.59 3123.85L3371.44 3028.32C3372.46 3028.84 3353.11 2949.36 3415.56 3088.48L3443.63 3131.14C3478.5 3095.73 3486.32 3068.19 3479.36 3005.35L3536.97 3123.85C3572.69 3109.73 3586.98 3093.63 3603.7 3052.39V3123.85L3656.57 3085.2C3642.98 3109.74 3644.09 3119.29 3671.88 3123.85C3671.88 3123.85 3713.45 2921.85 3702.51 3010.82C3691.57 3099.79 3721.11 3123.85 3721.11 3123.85C3721.11 3123.85 3798.04 2872.63 3780.54 2961.23C3763.04 3049.83 3771.79 3470.97 3771.79 3470.97H2761.07V3123.85Z" fill="#90BE6D"/>
<rect x="3242.1" y="2708.09" width="12.8738" height="457.021" fill="#90BE6D"/>
<path d="M3416.93 2675.27C3395.67 2685.61 3374.25 2690.43 3356.82 2689.9C3339.35 2689.36 3326.03 2683.46 3320.71 2672.52C3315.39 2661.59 3318.97 2647.46 3329.33 2633.39C3339.67 2619.34 3356.69 2605.47 3377.94 2595.13C3399.2 2584.79 3420.62 2579.96 3438.05 2580.5C3455.52 2581.03 3468.84 2586.93 3474.16 2597.87C3479.48 2608.81 3475.9 2622.93 3465.54 2637C3455.2 2651.05 3438.18 2664.93 3416.93 2675.27Z" fill="#8E5714" stroke="black"/>
<path d="M3239.9 2761.39C3218.51 2771.79 3196.97 2776.68 3179.45 2776.18C3161.9 2775.69 3148.52 2769.82 3143.2 2758.88C3137.88 2747.94 3141.51 2733.79 3151.96 2719.68C3162.39 2705.59 3179.53 2691.65 3200.92 2681.25C3222.3 2670.84 3243.85 2665.96 3261.37 2666.45C3278.92 2666.95 3292.3 2672.82 3297.62 2683.76C3302.94 2694.69 3299.31 2708.84 3288.86 2722.96C3278.43 2737.05 3261.29 2750.98 3239.9 2761.39Z" fill="#8E5714" stroke="black"/>
<path d="M3203.54 2695.51C3180.08 2691.76 3159.66 2683.4 3145.61 2672.94C3131.53 2662.46 3123.96 2649.98 3125.88 2637.97C3127.8 2625.96 3138.89 2616.45 3155.52 2610.89C3172.14 2605.33 3194.15 2603.75 3217.61 2607.5C3241.07 2611.25 3261.49 2619.61 3275.55 2630.07C3289.62 2640.55 3297.19 2653.03 3295.27 2665.04C3293.35 2677.06 3282.27 2686.56 3265.63 2692.12C3249.01 2697.68 3227 2699.26 3203.54 2695.51Z" fill="#8E5714" stroke="black"/>
<path d="M3400.64 2755.53C3377.17 2751.78 3356.75 2743.42 3342.7 2732.96C3328.63 2722.48 3321.05 2710 3322.97 2697.99C3324.89 2685.97 3335.98 2676.47 3352.62 2670.91C3369.23 2665.35 3391.24 2663.77 3414.7 2667.52C3438.16 2671.27 3458.59 2679.63 3472.64 2690.09C3486.71 2700.57 3494.29 2713.05 3492.37 2725.06C3490.45 2737.07 3479.36 2746.58 3462.72 2752.14C3446.11 2757.7 3424.1 2759.28 3400.64 2755.53Z" fill="#8E5714" stroke="black"/>
<path d="M3738.47 2794.85C3748.88 2816.24 3753.76 2837.78 3753.27 2855.3C3752.78 2872.86 3746.9 2886.23 3735.97 2891.55C3725.03 2896.87 3710.88 2893.24 3696.77 2882.79C3682.68 2872.36 3668.74 2855.22 3658.34 2833.84C3647.93 2812.45 3643.05 2790.91 3643.54 2773.38C3644.03 2755.83 3649.91 2742.45 3660.84 2737.13C3671.78 2731.81 3685.93 2735.45 3700.04 2745.89C3714.14 2756.32 3728.07 2773.46 3738.47 2794.85Z" fill="#8E5714" stroke="black"/>
<path d="M3305.6 2589.8C3316 2611.19 3320.89 2632.73 3320.4 2650.25C3319.9 2667.81 3314.03 2681.18 3303.09 2686.5C3292.16 2691.82 3278.01 2688.19 3263.89 2677.74C3249.8 2667.31 3235.87 2650.17 3225.46 2628.79C3215.06 2607.4 3210.17 2585.86 3210.66 2568.33C3211.16 2550.78 3217.03 2537.4 3227.97 2532.08C3238.9 2526.76 3253.05 2530.4 3267.17 2540.84C3281.26 2551.27 3295.19 2568.41 3305.6 2589.8Z" fill="#8E5714" stroke="black"/>
<path d="M3384.94 2607.11C3373.26 2627.8 3358.32 2644.04 3343.63 2653.58C3328.91 2663.14 3314.57 2665.9 3303.98 2659.92C3293.39 2653.94 3288.33 2640.24 3288.9 2622.71C3289.46 2605.2 3295.64 2584.01 3307.31 2563.32C3318.99 2542.63 3333.93 2526.38 3348.62 2516.85C3363.34 2507.29 3377.68 2504.53 3388.27 2510.51C3398.86 2516.49 3403.92 2530.19 3403.35 2547.72C3402.79 2565.23 3396.61 2586.42 3384.94 2607.11Z" fill="#8E5714" stroke="black"/>
<path d="M3740.56 2553.21C3728.88 2573.9 3713.94 2590.14 3699.25 2599.68C3684.53 2609.23 3670.19 2611.99 3659.6 2606.01C3649.01 2600.04 3643.95 2586.34 3644.52 2568.8C3645.08 2551.29 3651.26 2530.11 3662.93 2509.41C3674.61 2488.72 3689.55 2472.48 3704.24 2462.94C3718.96 2453.39 3733.3 2450.63 3743.89 2456.61C3754.48 2462.58 3759.54 2476.28 3758.97 2493.82C3758.41 2511.33 3752.23 2532.51 3740.56 2553.21Z" fill="#8E5714" stroke="black"/>
<ellipse cx="3305.97" cy="2685.06" rx="26.284" ry="25.7476" transform="rotate(64.0575 3305.97 2685.06)" fill="#90BE6D"/>
<ellipse rx="106.106" ry="29.486" transform="matrix(0.921863 0.387516 0.387516 -0.921863 3151.79 2890.11)" fill="#90BE6D"/>
<ellipse rx="106.106" ry="29.486" transform="matrix(0.921863 -0.387516 -0.387516 -0.921863 3341.68 2890.11)" fill="#90BE6D"/>
<path d="M3273.14 2916.54L3350.43 2882.42L3424.4 2855.39" stroke="#447321"/>
<path d="M3072.59 2857.54L3151.88 2886.71L3223.86 2918.68" stroke="#447321"/>
<rect x="576.285" y="2760" width="8.7508" height="433.165" fill="#90BE6D"/>
<path d="M469.234 2608.33C485.976 2623.34 497.936 2640.46 503.751 2655.99C509.575 2671.54 509.193 2685.35 501.514 2693.91C493.836 2702.47 480.152 2704.35 464.061 2700.24C447.996 2696.15 429.677 2686.11 412.935 2671.1C396.192 2656.08 384.233 2638.96 378.418 2623.43C372.594 2607.88 372.976 2594.07 380.654 2585.51C388.333 2576.95 402.017 2575.07 418.108 2579.18C434.173 2583.28 452.491 2593.31 469.234 2608.33Z" fill="#9F2A2C" stroke="black"/>
<path d="M607.667 2732.48C624.41 2747.5 636.369 2764.62 642.184 2780.15C648.009 2795.7 647.626 2809.51 639.948 2818.07C632.269 2826.63 618.585 2828.51 602.494 2824.4C586.43 2820.3 568.111 2810.27 551.368 2795.26C534.626 2780.24 522.667 2763.12 516.852 2747.59C511.027 2732.04 511.409 2718.23 519.088 2709.67C526.767 2701.11 540.451 2699.23 556.542 2703.34C572.606 2707.44 590.925 2717.47 607.667 2732.48Z" fill="#9F2A2C" stroke="black"/>
<path d="M563.028 2788.23C568.121 2810.14 568.087 2831.02 563.938 2847.08C559.783 2863.15 551.546 2874.24 540.345 2876.85C529.143 2879.45 516.86 2873.13 506.038 2860.54C495.234 2847.96 485.991 2829.23 480.898 2807.33C475.805 2785.42 475.839 2764.54 479.988 2748.48C484.143 2732.41 492.38 2721.32 503.582 2718.71C514.783 2716.11 527.066 2722.43 537.888 2735.02C548.692 2747.6 557.936 2766.33 563.028 2788.23Z" fill="#9F2A2C" stroke="black"/>
<path d="M545.239 2594C550.332 2615.9 550.298 2636.79 546.149 2652.84C541.994 2668.92 533.757 2680.01 522.555 2682.61C511.354 2685.21 499.071 2678.9 488.249 2666.3C477.445 2653.73 468.202 2635 463.109 2613.09C458.016 2591.19 458.05 2570.3 462.199 2554.25C466.354 2538.17 474.591 2527.08 485.793 2524.48C496.994 2521.88 509.277 2528.19 520.099 2540.79C530.903 2553.36 540.146 2572.09 545.239 2594Z" fill="#9F2A2C" stroke="black"/>
<path d="M549.456 2608.1C564.472 2591.35 581.595 2579.39 597.121 2573.58C612.672 2567.75 626.479 2568.14 635.041 2575.81C643.602 2583.49 645.479 2597.18 641.374 2613.27C637.277 2629.33 627.244 2647.65 612.228 2664.39C597.212 2681.14 580.089 2693.1 564.563 2698.91C549.012 2704.74 535.205 2704.35 526.644 2696.67C518.083 2689 516.206 2675.31 520.31 2659.22C524.408 2643.16 534.44 2624.84 549.456 2608.1Z" fill="#9F2A2C" stroke="black"/>
<path d="M434.062 2736.76C449.078 2720.01 466.201 2708.06 481.727 2702.24C497.278 2696.42 511.085 2696.8 519.647 2704.48C528.208 2712.16 530.085 2725.84 525.98 2741.93C521.883 2757.99 511.85 2776.31 496.834 2793.06C481.818 2809.8 464.695 2821.76 449.169 2827.57C433.618 2833.4 419.811 2833.02 411.25 2825.34C402.688 2817.66 400.812 2803.97 404.916 2787.88C409.014 2771.82 419.046 2753.5 434.062 2736.76Z" fill="#9F2A2C" stroke="black"/>
<path d="M380.706 3069.8C403.016 3072.64 422.587 3079.94 436.194 3089.41C449.823 3098.9 457.355 3110.47 455.901 3121.88C454.447 3133.29 444.254 3142.61 428.681 3148.38C413.133 3154.13 392.359 3156.29 370.049 3153.45C347.74 3150.6 328.169 3143.31 314.562 3133.84C300.932 3124.35 293.401 3112.77 294.855 3101.36C296.308 3089.96 306.502 3080.64 322.075 3074.87C337.622 3069.11 358.397 3066.96 380.706 3069.8Z" fill="#9F2A2C" stroke="black"/>
<path d="M466.756 3104.07C489.066 3106.92 508.636 3114.21 522.244 3123.68C535.873 3133.17 543.404 3144.75 541.951 3156.16C540.497 3167.56 530.304 3176.88 514.731 3182.65C499.183 3188.41 478.408 3190.56 456.099 3187.72C433.79 3184.88 414.219 3177.58 400.611 3168.11C386.982 3158.62 379.451 3147.05 380.904 3135.64C382.358 3124.23 392.552 3114.91 408.125 3109.14C423.672 3103.39 444.447 3101.23 466.756 3104.07Z" fill="#9F2A2C" stroke="black"/>
<circle cx="518.052" cy="2701.89" r="24.4293" transform="rotate(-48.1117 518.052 2701.89)" fill="#90BE6D"/>
<ellipse rx="72.1238" ry="20.0427" transform="matrix(0.921863 0.387516 0.387516 -0.921863 516.361 2896.12)" fill="#90BE6D"/>
<ellipse rx="72.1238" ry="20.0427" transform="matrix(0.921863 -0.387516 -0.387516 -0.921863 641.79 2896.12)" fill="#90BE6D"/>
<path d="M591.549 2916.27L644.088 2893.08L694.371 2874.71" stroke="#447321"/>
<path d="M461.066 2874.71L514.964 2894.54L563.889 2916.27" stroke="#447321"/>
<rect x="1504.35" y="2840.39" width="7.12677" height="352.775" fill="#90BE6D"/>
<path d="M1413.64 2738.09C1427.41 2750.15 1437.3 2763.96 1442.18 2776.54C1447.07 2789.13 1446.88 2800.34 1440.74 2807.34C1434.6 2814.35 1423.52 2816.01 1410.39 2812.83C1397.29 2809.65 1382.29 2801.66 1368.52 2789.6C1354.75 2777.54 1344.86 2763.72 1339.98 2751.15C1335.09 2738.55 1335.28 2727.35 1341.42 2720.34C1347.56 2713.34 1358.64 2711.67 1371.77 2714.86C1384.87 2718.04 1399.87 2726.02 1413.64 2738.09Z" fill="#255C4C" stroke="black"/>
<path d="M1527.17 3120.69C1540.94 3132.75 1550.83 3146.57 1555.71 3159.14C1560.59 3171.74 1560.4 3182.94 1554.26 3189.95C1548.13 3196.95 1537.05 3198.62 1523.92 3195.43C1510.81 3192.25 1495.81 3184.27 1482.04 3172.21C1468.27 3160.14 1458.38 3146.33 1453.5 3133.75C1448.62 3121.16 1448.81 3109.95 1454.95 3102.95C1461.08 3095.94 1472.16 3094.28 1485.29 3097.46C1498.4 3100.64 1513.4 3108.63 1527.17 3120.69Z" fill="#255C4C" stroke="black"/>
<path d="M1491.71 2883.65C1496.07 2901.43 1496.24 2918.42 1493.02 2931.52C1489.79 2944.64 1483.2 2953.7 1474.15 2955.92C1465.11 2958.13 1455.08 2953.14 1446.15 2942.99C1437.25 2932.87 1429.55 2917.72 1425.19 2899.94C1420.84 2882.16 1420.67 2865.17 1423.89 2852.07C1427.12 2838.95 1433.7 2829.89 1442.75 2827.67C1451.8 2825.46 1461.83 2830.45 1470.75 2840.6C1479.66 2850.72 1487.36 2865.87 1491.71 2883.65Z" fill="#255C4C" stroke="black"/>
<path d="M1475.37 2725.64C1479.73 2743.42 1479.9 2760.42 1476.68 2773.51C1473.45 2786.63 1466.86 2795.7 1457.81 2797.91C1448.77 2800.13 1438.74 2795.13 1429.81 2784.99C1420.91 2774.86 1413.21 2759.71 1408.85 2741.93C1404.5 2724.15 1404.33 2707.16 1407.55 2694.07C1410.78 2680.95 1417.36 2671.88 1426.41 2669.67C1435.46 2667.45 1445.49 2672.45 1454.41 2682.59C1463.32 2692.72 1471.02 2707.87 1475.37 2725.64Z" fill="#255C4C" stroke="black"/>
<path d="M1479.1 2737.12C1491.16 2723.35 1504.98 2713.46 1517.55 2708.59C1530.15 2703.7 1541.35 2703.89 1548.36 2710.03C1555.36 2716.16 1557.03 2727.25 1553.85 2740.38C1550.67 2753.48 1542.68 2768.48 1530.62 2782.25C1518.56 2796.02 1504.74 2805.91 1492.17 2810.79C1479.57 2815.68 1468.37 2815.48 1461.36 2809.35C1454.35 2803.21 1452.69 2792.13 1455.87 2779C1459.05 2765.89 1467.04 2750.89 1479.1 2737.12Z" fill="#255C4C" stroke="black"/>
<path d="M1410.98 3088.93C1423.04 3075.16 1436.86 3065.27 1449.43 3060.39C1462.03 3055.5 1473.23 3055.7 1480.24 3061.83C1487.24 3067.97 1488.91 3079.05 1485.72 3092.18C1482.54 3105.29 1474.56 3120.29 1462.5 3134.06C1450.44 3147.82 1436.62 3157.72 1424.05 3162.59C1411.45 3167.48 1400.25 3167.29 1393.24 3161.15C1386.23 3155.01 1384.57 3143.93 1387.75 3130.8C1390.93 3117.7 1398.92 3102.7 1410.98 3088.93Z" fill="#255C4C" stroke="black"/>
<path d="M1374.71 2781.3C1392.89 2783.4 1408.89 2789.15 1420.04 2796.73C1431.22 2804.32 1437.43 2813.64 1436.36 2822.9C1435.29 2832.15 1427.12 2839.82 1414.51 2844.66C1401.92 2849.49 1385.04 2851.44 1366.85 2849.34C1348.67 2847.24 1332.68 2841.49 1321.52 2833.91C1310.34 2826.33 1304.13 2817 1305.2 2807.74C1306.27 2798.49 1314.44 2790.82 1327.06 2785.99C1339.65 2781.16 1356.53 2779.2 1374.71 2781.3Z" fill="#255C4C" stroke="black"/>
<path d="M1537.96 2780.61C1556.14 2782.71 1572.14 2788.46 1583.29 2796.03C1594.47 2803.62 1600.68 2812.95 1599.61 2822.2C1598.54 2831.45 1590.37 2839.12 1577.76 2843.96C1565.17 2848.79 1548.29 2850.74 1530.1 2848.64C1511.92 2846.54 1495.93 2840.79 1484.77 2833.22C1473.59 2825.63 1467.38 2816.3 1468.45 2807.05C1469.52 2797.8 1477.69 2790.13 1490.31 2785.29C1502.9 2780.46 1519.78 2778.51 1537.96 2780.61Z" fill="#255C4C" stroke="black"/>
<circle cx="1454.35" cy="2813.74" r="19.8956" transform="rotate(-48.7833 1454.35 2813.74)" fill="#F94144"/>
<ellipse rx="58.7385" ry="16.323" transform="matrix(0.921863 0.387516 0.387516 -0.921863 1455.55 2951.25)" fill="#90BE6D"/>
<ellipse rx="58.7385" ry="16.323" transform="matrix(0.921863 -0.387516 -0.387516 -0.921863 1557.7 2951.25)" fill="#90BE6D"/>
<path d="M1516.78 2967.66L1559.57 2948.77L1600.52 2933.81" stroke="#447321"/>
<path d="M1410.51 2933.81L1454.41 2949.96L1494.25 2967.66" stroke="#447321"/>
<rect x="2570.16" y="2901.82" width="5.58077" height="272.385" fill="#90BE6D"/>
<path d="M2599.42 2761.04C2599.42 2775.16 2596.39 2787.91 2591.51 2797.12C2586.62 2806.35 2579.95 2811.9 2572.72 2811.9C2565.48 2811.9 2558.81 2806.35 2553.92 2797.12C2549.04 2787.91 2546.01 2775.16 2546.01 2761.04C2546.01 2746.92 2549.04 2734.17 2553.92 2724.96C2558.81 2715.73 2565.48 2710.18 2572.72 2710.18C2579.95 2710.18 2586.62 2715.73 2591.51 2724.96C2596.39 2734.17 2599.42 2746.92 2599.42 2761.04Z" fill="#F94144" stroke="black"/>
<path d="M2599.42 2877.97C2599.42 2892.09 2596.39 2904.85 2591.51 2914.05C2586.62 2923.28 2579.95 2928.83 2572.72 2928.83C2565.48 2928.83 2558.81 2923.28 2553.92 2914.05C2549.04 2904.85 2546.01 2892.09 2546.01 2877.97C2546.01 2863.85 2549.04 2851.1 2553.92 2841.89C2558.81 2832.66 2565.48 2827.11 2572.72 2827.11C2579.95 2827.11 2586.62 2832.66 2591.51 2841.89C2596.39 2851.1 2599.42 2863.85 2599.42 2877.97Z" fill="#F94144" stroke="black"/>
<path d="M2553.98 2880.38C2545.76 2891.94 2535.85 2900.67 2526.49 2905.45C2517.11 2910.24 2508.43 2911.01 2502.5 2906.92C2496.58 2902.82 2494.35 2894.51 2495.71 2884.18C2497.08 2873.88 2502.02 2861.72 2510.24 2850.15C2518.46 2838.59 2528.37 2829.86 2537.72 2825.08C2547.1 2820.29 2555.79 2819.52 2561.71 2823.62C2567.63 2827.71 2569.87 2836.02 2568.5 2846.35C2567.14 2856.65 2562.19 2868.82 2553.98 2880.38Z" fill="#F94144" stroke="black"/>
<path d="M2638.62 2790.5C2630.4 2802.06 2620.49 2810.79 2611.14 2815.57C2601.76 2820.37 2593.07 2821.13 2587.15 2817.04C2581.22 2812.95 2578.99 2804.63 2580.36 2794.3C2581.72 2784 2586.66 2771.84 2594.88 2760.28C2603.1 2748.71 2613.01 2739.98 2622.36 2735.2C2631.74 2730.41 2640.43 2729.64 2646.35 2733.74C2652.28 2737.83 2654.51 2746.14 2653.14 2756.47C2651.78 2766.78 2646.84 2778.94 2638.62 2790.5Z" fill="#F94144" stroke="black"/>
<path d="M2633.87 2798.68C2648.19 2798.68 2661.13 2801.67 2670.47 2806.48C2679.84 2811.31 2685.46 2817.88 2685.46 2825.01C2685.46 2832.13 2679.84 2838.71 2670.47 2843.53C2661.13 2848.34 2648.19 2851.33 2633.87 2851.33C2619.55 2851.33 2606.61 2848.34 2597.27 2843.53C2587.9 2838.71 2582.28 2832.13 2582.28 2825.01C2582.28 2817.88 2587.9 2811.31 2597.27 2806.48C2606.61 2801.67 2619.55 2798.68 2633.87 2798.68Z" fill="#F94144" stroke="black"/>
<path d="M2523.65 2798.68C2537.97 2798.68 2550.91 2801.67 2560.25 2806.48C2569.62 2811.31 2575.24 2817.88 2575.24 2825.01C2575.24 2832.13 2569.62 2838.71 2560.25 2843.53C2550.91 2848.34 2537.97 2851.33 2523.65 2851.33C2509.33 2851.33 2496.39 2848.34 2487.05 2843.53C2477.68 2838.71 2472.06 2832.13 2472.06 2825.01C2472.06 2817.88 2477.68 2811.31 2487.05 2806.48C2496.39 2801.67 2509.33 2798.68 2523.65 2798.68Z" fill="#F94144" stroke="black"/>
<path d="M2553.89 2760.48C2562.03 2772.09 2566.89 2784.29 2568.18 2794.6C2569.48 2804.94 2567.18 2813.24 2561.23 2817.29C2555.28 2821.34 2546.6 2820.52 2537.25 2815.66C2527.93 2810.82 2518.08 2802.02 2509.95 2790.4C2501.81 2778.78 2496.95 2766.59 2495.66 2756.28C2494.36 2745.94 2496.66 2737.64 2502.61 2733.59C2508.56 2729.53 2517.24 2730.36 2526.59 2735.22C2535.91 2740.06 2545.76 2748.86 2553.89 2760.48Z" fill="#F94144" stroke="black"/>
<path d="M2727.83 2971.72C2735.97 2983.34 2740.82 2995.54 2742.12 3005.85C2743.41 3016.19 2741.12 3024.48 2735.17 3028.54C2729.22 3032.59 2720.53 3031.76 2711.19 3026.91C2701.87 3022.06 2692.02 3013.26 2683.88 3001.65C2675.75 2990.03 2670.89 2977.83 2669.6 2967.52C2668.3 2957.18 2670.59 2948.88 2676.55 2944.83C2682.5 2940.78 2691.18 2941.6 2700.53 2946.46C2709.85 2951.31 2719.69 2960.1 2727.83 2971.72Z" fill="#F94144" stroke="black"/>
<ellipse cx="2575.97" cy="2823.17" rx="15.5797" ry="15.3618" fill="#90BE6D"/>
<ellipse rx="45.9005" ry="12.6304" transform="matrix(0.923792 0.382896 0.392172 -0.919892 2531.94 2987.41)" fill="#90BE6D"/>
<ellipse rx="45.9005" ry="12.6304" transform="matrix(0.923792 -0.382896 -0.392172 -0.919892 2611.93 2987.41)" fill="#90BE6D"/>
<path d="M2579.89 3000.09L2613.4 2985.5L2645.47 2973.95" stroke="#447321"/>
<path d="M2496.68 2973.95L2531.05 2986.42L2562.25 3000.09" stroke="#447321"/>
<rect x="1171.29" y="2717.67" width="9.02143" height="446.561" fill="#90BE6D"/>
<path d="M1041.72 2586.83C1061.53 2598.89 1076.88 2613.99 1085.71 2628.63C1094.54 2643.29 1096.77 2657.37 1090.59 2667.5C1084.42 2677.63 1070.9 2682.12 1053.82 2680.99C1036.76 2679.87 1016.3 2673.16 996.493 2661.1C976.689 2649.04 961.335 2633.94 952.51 2619.3C943.671 2604.63 941.45 2590.56 947.621 2580.43C953.792 2570.3 967.315 2565.81 984.4 2566.93C1001.46 2568.06 1021.92 2574.77 1041.72 2586.83Z" fill="white" stroke="black"/>
<path d="M1205.46 2686.54C1225.26 2698.6 1240.61 2713.7 1249.44 2728.34C1258.28 2743.01 1260.5 2757.08 1254.33 2767.21C1248.16 2777.35 1234.63 2781.83 1217.55 2780.71C1200.49 2779.58 1180.03 2772.87 1160.22 2760.81C1140.42 2748.75 1125.07 2733.65 1116.24 2719.01C1107.4 2704.35 1105.18 2690.27 1111.35 2680.14C1117.52 2670.01 1131.05 2665.52 1148.13 2666.65C1165.19 2667.77 1185.65 2674.48 1205.46 2686.54Z" fill="white" stroke="black"/>
<path d="M1215.21 3089.65C1224.51 3110.89 1228.42 3132.07 1227.24 3149.12C1226.06 3166.2 1219.81 3179 1208.94 3183.76C1198.07 3188.52 1184.42 3184.43 1171.07 3173.7C1157.75 3162.99 1144.84 3145.75 1135.55 3124.51C1126.25 3103.27 1122.34 3082.09 1123.52 3065.04C1124.7 3047.96 1130.96 3035.16 1141.82 3030.4C1152.69 3025.65 1166.34 3029.73 1179.69 3040.46C1193.01 3051.17 1205.92 3068.41 1215.21 3089.65Z" fill="white" stroke="black"/>
<path d="M1116.06 2557.97C1125.35 2579.22 1129.26 2600.39 1128.09 2617.45C1126.91 2634.53 1120.65 2647.33 1109.78 2652.08C1098.91 2656.84 1085.26 2652.75 1071.92 2642.03C1058.59 2631.32 1045.69 2614.08 1036.39 2592.84C1027.1 2571.59 1023.19 2550.42 1024.37 2533.36C1025.54 2516.28 1031.8 2503.48 1042.67 2498.73C1053.54 2493.97 1067.19 2498.06 1080.53 2508.78C1093.86 2519.49 1106.76 2536.73 1116.06 2557.97Z" fill="white" stroke="black"/>
<path d="M1122.97 2571.46C1135.03 2551.66 1150.13 2536.31 1164.77 2527.48C1179.43 2518.64 1193.5 2516.42 1203.64 2522.59C1213.77 2528.76 1218.25 2542.28 1217.13 2559.37C1216.01 2576.43 1209.3 2596.89 1197.24 2616.69C1185.17 2636.5 1170.08 2651.85 1155.43 2660.68C1140.77 2669.51 1126.7 2671.74 1116.57 2665.57C1106.43 2659.39 1101.95 2645.87 1103.07 2628.79C1104.19 2611.73 1110.9 2591.27 1122.97 2571.46Z" fill="white" stroke="black"/>
<path d="M1030.29 2723.64C1042.35 2703.83 1057.45 2688.48 1072.09 2679.66C1086.76 2670.82 1100.83 2668.6 1110.96 2674.77C1121.09 2680.94 1125.58 2694.46 1124.46 2711.54C1123.33 2728.6 1116.62 2749.06 1104.56 2768.87C1092.5 2788.67 1077.4 2804.03 1062.76 2812.85C1048.1 2821.69 1034.02 2823.91 1023.89 2817.74C1013.76 2811.57 1009.27 2798.05 1010.4 2780.96C1011.52 2763.9 1018.23 2743.44 1030.29 2723.64Z" fill="white" stroke="black"/>
<path d="M1002.48 2649.16C1025.63 2647.83 1046.84 2651.53 1062.42 2658.56C1078.03 2665.61 1087.85 2675.92 1088.53 2687.77C1089.21 2699.61 1080.63 2710.99 1065.94 2719.77C1051.26 2728.54 1030.61 2734.65 1007.46 2735.98C984.313 2737.3 963.099 2733.6 947.518 2726.57C931.912 2719.53 922.088 2709.21 921.408 2697.37C920.728 2685.52 929.307 2674.15 944.004 2665.36C958.677 2656.59 979.329 2650.49 1002.48 2649.16Z" fill="white" stroke="black"/>
<path d="M1205.92 2612.85C1229.06 2611.52 1250.28 2615.22 1265.86 2622.26C1281.47 2629.3 1291.29 2639.62 1291.97 2651.46C1292.65 2663.31 1284.07 2674.68 1269.37 2683.46C1254.7 2692.23 1234.05 2698.34 1210.9 2699.67C1187.75 2701 1166.54 2697.3 1150.96 2690.26C1135.35 2683.22 1125.53 2672.9 1124.85 2661.06C1124.17 2649.21 1132.74 2637.84 1147.44 2629.05C1162.11 2620.28 1182.77 2614.18 1205.92 2612.85Z" fill="white" stroke="black"/>
<circle cx="1100.63" cy="2667.89" r="38.3411" transform="rotate(-58.6587 1100.63 2667.89)" fill="#EBC84D"/>
<ellipse rx="74.3543" ry="20.6625" transform="matrix(0.921863 0.387516 0.387516 -0.921863 1109.51 2858)" fill="#90BE6D"/>
<ellipse rx="74.3543" ry="20.6625" transform="matrix(0.921863 -0.387516 -0.387516 -0.921863 1238.82 2858)" fill="#90BE6D"/>
<path d="M1187.02 2878.78L1241.19 2854.87L1293.03 2835.93" stroke="#447321"/>
<path d="M1052.5 2835.93L1108.07 2856.38L1158.51 2878.78" stroke="#447321"/>
<rect x="2117.16" y="2808.13" width="8.7508" height="385.035" fill="#90BE6D"/>
<rect x="2362.91" y="2720.31" width="4.3754" height="509.005" fill="#90BE6D"/>
<ellipse rx="72.1238" ry="20.0427" transform="matrix(0.921863 0.387516 0.387516 -0.921863 2057.23 2896.12)" fill="#90BE6D"/>
<rect x="1876.51" y="2481.43" width="5.83387" height="716.837" fill="#90BE6D"/>
<rect x="937.256" y="2711.87" width="6.5631" height="481.294" fill="#90BE6D"/>
<path d="M2073.16 2784.56C2076.74 2806.76 2075.28 2827.6 2070.04 2843.33C2064.79 2859.08 2055.82 2869.58 2044.46 2871.41C2033.11 2873.24 2021.29 2866.1 2011.35 2852.79C2001.43 2839.51 1993.49 2820.19 1989.91 2797.98C1986.33 2775.78 1987.8 2754.95 1993.03 2739.22C1998.28 2723.46 2007.26 2712.96 2018.61 2711.13C2029.96 2709.3 2041.78 2716.44 2051.72 2729.75C2061.64 2743.04 2069.58 2762.35 2073.16 2784.56Z" fill="#968C8C" stroke="black"/>
<path d="M2102.97 2801.99C2123.09 2791.95 2143.42 2787.14 2159.99 2787.46C2176.6 2787.77 2189.29 2793.21 2194.42 2803.5C2199.55 2813.8 2196.26 2827.21 2186.52 2840.66C2176.79 2854.08 2160.71 2867.42 2140.59 2877.45C2120.46 2887.48 2100.13 2892.3 2083.56 2891.98C2066.95 2891.67 2054.26 2886.23 2049.13 2875.94C2044 2865.64 2047.29 2852.23 2057.04 2838.78C2066.76 2825.36 2082.84 2812.02 2102.97 2801.99Z" fill="#968C8C" stroke="black"/>
<path d="M1982.43 2796.23C2002.12 2807.09 2017.63 2821.08 2026.79 2834.9C2035.97 2848.74 2038.7 2862.28 2033.15 2872.35C2027.6 2882.42 2014.68 2887.33 1998.08 2886.95C1981.51 2886.58 1961.4 2880.93 1941.71 2870.07C1922.01 2859.21 1906.51 2845.22 1897.34 2831.4C1888.17 2817.56 1885.43 2804.02 1890.99 2793.95C1896.54 2783.88 1909.45 2778.97 1926.05 2779.34C1942.63 2779.72 1962.73 2785.37 1982.43 2796.23Z" fill="#968C8C" stroke="black"/>
<path d="M2120.98 2870.61C2140.67 2881.47 2156.18 2895.46 2165.34 2909.28C2174.52 2923.12 2177.26 2936.66 2171.7 2946.73C2166.15 2956.8 2153.24 2961.71 2136.64 2961.33C2120.06 2960.96 2099.96 2955.31 2080.26 2944.45C2060.57 2933.59 2045.06 2919.6 2035.9 2905.78C2026.72 2891.94 2023.99 2878.4 2029.54 2868.33C2035.09 2858.26 2048 2853.35 2064.61 2853.73C2081.18 2854.1 2101.29 2859.75 2120.98 2870.61Z" fill="#968C8C" stroke="black"/>
<ellipse rx="46.0084" ry="22.0399" transform="matrix(0.700154 0.713992 0.170734 -0.985317 2333.98 2880.2)" fill="#90BE6D"/>
<ellipse rx="64.8171" ry="31.05" transform="matrix(0.700154 0.713992 0.170734 -0.985317 1835.31 2706.43)" fill="#90BE6D"/>
<ellipse rx="64.8171" ry="31.05" transform="matrix(0.700154 0.713992 0.170734 -0.985317 1835.31 2622.12)" fill="#90BE6D"/>
<ellipse rx="64.8171" ry="31.05" transform="matrix(0.700154 0.713992 0.170734 -0.985317 1835.31 2539)" fill="#90BE6D"/>
<ellipse rx="64.8171" ry="31.05" transform="matrix(0.700154 0.713992 0.170734 -0.985317 1835.31 2459.86)" fill="#90BE6D"/>
<ellipse rx="46.0084" ry="22.0399" transform="matrix(0.700154 0.713992 0.170734 -0.985317 2333.98 2814.35)" fill="#90BE6D"/>
<ellipse rx="46.0084" ry="22.0399" transform="matrix(0.700154 0.713992 0.170734 -0.985317 2333.98 2705.18)" fill="#90BE6D"/>
<ellipse rx="46.0084" ry="22.0399" transform="matrix(0.700154 0.713992 0.170734 -0.985317 2333.98 2747.23)" fill="#90BE6D"/>
<ellipse rx="46.0084" ry="22.0399" transform="matrix(0.700154 0.713992 0.170734 -0.985317 2333.98 2774.78)" fill="#90BE6D"/>
<ellipse rx="46.0084" ry="22.0399" transform="matrix(0.700154 0.713992 0.170734 -0.985317 2333.98 2845.44)" fill="#90BE6D"/>
<ellipse rx="66.8712" ry="28.8426" transform="matrix(0.769958 0.638095 0.208532 -0.978016 888.291 2694.51)" fill="#90BE6D"/>
<ellipse rx="66.8712" ry="28.8426" transform="matrix(0.769958 0.638095 0.208532 -0.978016 888.291 2948.76)" fill="#90BE6D"/>
<ellipse rx="62.1418" ry="23.7747" transform="matrix(0.828557 0.559905 0.252983 -0.967471 890.549 2823.38)" fill="#90BE6D"/>
<ellipse rx="46.0084" ry="22.0399" transform="matrix(0.700154 -0.713992 -0.170734 -0.985317 2394.75 2880.2)" fill="#90BE6D"/>
<ellipse rx="64.8171" ry="31.05" transform="matrix(0.700154 -0.713992 -0.170734 -0.985317 1920.92 2706.43)" fill="#90BE6D"/>
<ellipse rx="64.8171" ry="31.05" transform="matrix(0.700154 -0.713992 -0.170734 -0.985317 1920.92 2622.12)" fill="#90BE6D"/>
<ellipse rx="64.8171" ry="31.05" transform="matrix(0.700154 -0.713992 -0.170734 -0.985317 1920.92 2539)" fill="#90BE6D"/>
<ellipse rx="64.8171" ry="31.05" transform="matrix(0.700154 -0.713992 -0.170734 -0.985317 1920.92 2459.86)" fill="#90BE6D"/>
<ellipse rx="46.0084" ry="22.0399" transform="matrix(0.700154 -0.713992 -0.170734 -0.985317 2394.75 2814.35)" fill="#90BE6D"/>
<ellipse rx="46.0084" ry="22.0399" transform="matrix(0.700154 -0.713992 -0.170734 -0.985317 2394.75 2705.18)" fill="#90BE6D"/>
<ellipse rx="46.0084" ry="22.0399" transform="matrix(0.700154 -0.713992 -0.170734 -0.985317 2394.75 2747.22)" fill="#90BE6D"/>
<ellipse rx="46.0084" ry="22.0399" transform="matrix(0.700154 -0.713992 -0.170734 -0.985317 2394.75 2774.78)" fill="#90BE6D"/>
<ellipse rx="46.0084" ry="22.0399" transform="matrix(0.700154 -0.713992 -0.170734 -0.985317 2394.75 2845.44)" fill="#90BE6D"/>
<ellipse rx="66.8712" ry="32.3739" transform="matrix(0.769958 -0.638095 -0.208532 -0.978016 984.685 2691.06)" fill="#90BE6D"/>
<ellipse rx="66.8712" ry="28.8426" transform="matrix(0.769958 -0.638095 -0.208532 -0.978016 985.422 2948.76)" fill="#90BE6D"/>
<ellipse rx="62.1418" ry="23.7747" transform="matrix(0.828557 -0.559905 -0.252983 -0.967471 987.68 2823.38)" fill="#90BE6D"/>
<path d="M2370.41 2903.89L2395.86 2876.63L2420.23 2855.04" stroke="#447321"/>
<path d="M1886.63 2739.81L1922.49 2701.4L1956.81 2670.98" stroke="#447321"/>
<path d="M1886.63 2655.5L1922.49 2617.09L1956.81 2586.67" stroke="#447321"/>
<path d="M1886.63 2572.37L1922.49 2533.97L1956.81 2503.55" stroke="#447321"/>
<path d="M1886.63 2493.27L1922.49 2454.86L1956.81 2424.44" stroke="#447321"/>
<path d="M2370.41 2838.04L2395.86 2810.78L2420.23 2789.19" stroke="#447321"/>
<path d="M2370.41 2728.88L2395.86 2701.62L2420.23 2680.03" stroke="#447321"/>
<path d="M2370.41 2770.91L2395.86 2743.65L2420.23 2722.06" stroke="#447321"/>
<path d="M2370.41 2798.47L2395.86 2771.21L2420.23 2749.62" stroke="#447321"/>
<path d="M2370.41 2869.13L2395.86 2841.87L2420.23 2820.28" stroke="#447321"/>
<path d="M946.515 2725.28L987.201 2689.87L1026.14 2661.82" stroke="#447321"/>
<path d="M946.515 2979.53L987.201 2944.12L1026.14 2916.07" stroke="#447321"/>
<path d="M948.774 2848.47L989.46 2819.59L1028.4 2796.72" stroke="#447321"/>
<path d="M2104.76 2916.27L2068.23 2899.55" stroke="#447321"/>
<path d="M2307.19 2855.04L2333.31 2878.35L2357.01 2903.89" stroke="#447321"/>
<path d="M1797.57 2670.98L1834.35 2703.82L1867.75 2739.8" stroke="#447321"/>
<path d="M1797.57 2586.67L1834.35 2619.51L1867.75 2655.49" stroke="#447321"/>
<path d="M1797.57 2503.59L1834.35 2536.43L1867.75 2572.41" stroke="#447321"/>
<path d="M1797.57 2424.41L1834.35 2457.24L1867.75 2493.23" stroke="#447321"/>
<path d="M2307.19 2789.19L2333.31 2812.5L2357.01 2838.04" stroke="#447321"/>
<path d="M2307.19 2680.01L2333.31 2703.32L2357.01 2728.87" stroke="#447321"/>
<path d="M2307.19 2722.07L2333.31 2745.38L2357.01 2770.92" stroke="#447321"/>
<path d="M2307.19 2749.62L2333.31 2772.93L2357.01 2798.47" stroke="#447321"/>
<path d="M2307.19 2820.28L2333.31 2843.59L2357.01 2869.13" stroke="#447321"/>
<path d="M845.471 2661.82L887.209 2692.1L925.096 2725.28" stroke="#447321"/>
<path d="M845.471 2916.07L887.209 2946.35L925.096 2979.53" stroke="#447321"/>
<path d="M847.729 2796.72L889.467 2821.41L927.355 2848.47" stroke="#447321"/>
<path d="M2122.63 2861.52L2122.69 2842.92L2121.23 2825.41L2119.04 2804.27L2116.45 2791.87L2110.47 2782.45L2103.36 2775.86L2094.37 2770.34L2077.49 2767.18L2061.34 2768.69L2056.46 2770.44L2050.82 2774.55L2044.08 2782.64L2038.66 2801.93L2038.14 2817.51L2038.47 2839.19L2042.17 2865.64" stroke="#90BE6D" stroke-width="13"/>
<ellipse cx="2040.59" cy="2875.98" rx="36.3922" ry="29.9726" transform="rotate(-26.4969 2040.59 2875.98)" fill="#EBC84D"/>
<path d="M2252.28 2622.56L2252.28 2603.96L2250.82 2586.46L2248.64 2565.31L2246.08 2552.92L2240.25 2543.48L2233.32 2536.87L2224.57 2531.32L2208.16 2528.12L2192.48 2529.58L2187.74 2531.32L2182.28 2535.41L2175.75 2543.48L2170.54 2562.75L2170.08 2578.33L2170.46 2600.01L2174.13 2626.45" stroke="#90BE6D" stroke-width="10"/>
<rect x="3037.14" y="2952.24" width="5.63772" height="251.86" fill="#90BE6D"/>
<path d="M3066.71 2822.07C3066.71 2835.11 3063.65 2846.89 3058.73 2855.4C3053.8 2863.92 3047.06 2869.06 3039.73 2869.06C3032.39 2869.06 3025.66 2863.92 3020.73 2855.4C3015.8 2846.89 3012.74 2835.11 3012.74 2822.07C3012.74 2809.03 3015.8 2797.25 3020.73 2788.74C3025.66 2780.22 3032.39 2775.08 3039.73 2775.08C3047.06 2775.08 3053.8 2780.22 3058.73 2788.74C3063.65 2797.25 3066.71 2809.03 3066.71 2822.07Z" fill="white" stroke="black"/>
<path d="M3066.71 2930.19C3066.71 2943.23 3063.65 2955.02 3058.73 2963.52C3053.8 2972.04 3047.06 2977.18 3039.73 2977.18C3032.39 2977.18 3025.66 2972.04 3020.73 2963.52C3015.8 2955.02 3012.74 2943.23 3012.74 2930.19C3012.74 2917.15 3015.8 2905.37 3020.73 2896.86C3025.66 2888.35 3032.39 2883.2 3039.73 2883.2C3047.06 2883.2 3053.8 2888.35 3058.73 2896.86C3063.65 2905.37 3066.71 2917.15 3066.71 2930.19Z" fill="white" stroke="black"/>
<path d="M3020.79 2932.41C3012.49 2943.1 3002.49 2951.17 2993.04 2955.59C2983.57 2960.01 2974.8 2960.72 2968.81 2956.94C2962.83 2953.15 2960.57 2945.47 2961.96 2935.92C2963.33 2926.4 2968.32 2915.16 2976.62 2904.48C2984.92 2893.79 2994.93 2885.72 3004.37 2881.3C3013.84 2876.87 3022.61 2876.16 3028.6 2879.95C3034.58 2883.74 3036.84 2891.42 3035.46 2900.96C3034.08 2910.48 3029.09 2921.73 3020.79 2932.41Z" fill="white" stroke="black"/>
<path d="M3106.3 2849.31C3098 2859.99 3087.99 2868.06 3078.55 2872.48C3069.08 2876.91 3060.31 2877.62 3054.32 2873.83C3048.33 2870.05 3046.08 2862.36 3047.46 2852.82C3048.84 2843.3 3053.83 2832.06 3062.13 2821.37C3070.43 2810.68 3080.43 2802.61 3089.88 2798.2C3099.34 2793.77 3108.12 2793.06 3114.1 2796.84C3120.09 2800.63 3122.34 2808.32 3120.96 2817.86C3119.58 2827.38 3114.6 2838.62 3106.3 2849.31Z" fill="white" stroke="black"/>
<path d="M3101.51 2856.91C3115.98 2856.91 3129.06 2859.68 3138.5 2864.13C3147.98 2868.6 3153.63 2874.68 3153.63 2881.22C3153.63 2887.76 3147.98 2893.84 3138.5 2898.31C3129.06 2902.76 3115.98 2905.52 3101.51 2905.52C3087.03 2905.52 3073.96 2902.76 3064.51 2898.31C3055.03 2893.84 3049.39 2887.76 3049.39 2881.22C3049.39 2874.68 3055.03 2868.6 3064.51 2864.13C3073.96 2859.68 3087.03 2856.91 3101.51 2856.91Z" fill="white" stroke="black"/>
<path d="M2880.85 2976.42C2890.94 2966.04 2902.04 2958.59 2911.81 2954.92C2921.62 2951.24 2929.91 2951.43 2934.6 2955.99C2939.29 2960.55 2939.72 2968.83 2936.32 2978.74C2932.93 2988.61 2925.8 2999.92 2915.71 3010.3C2905.62 3020.68 2894.52 3028.13 2884.75 3031.8C2874.94 3035.49 2866.65 3035.3 2861.96 3030.74C2857.27 3026.18 2856.84 3017.9 2860.24 3007.98C2863.63 2998.11 2870.76 2986.8 2880.85 2976.42Z" fill="white" stroke="black"/>
<path d="M3020.71 2821.56C3028.92 2832.29 3033.83 2843.56 3035.13 2853.09C3036.44 2862.64 3034.13 2870.32 3028.11 2874.07C3022.1 2877.81 3013.33 2877.05 3003.9 2872.56C2994.48 2868.08 2984.54 2859.95 2976.33 2849.22C2968.11 2838.48 2963.21 2827.21 2961.9 2817.68C2960.59 2808.13 2962.9 2800.45 2968.92 2796.71C2974.94 2792.96 2983.7 2793.72 2993.14 2798.21C3002.55 2802.69 3012.49 2810.82 3020.71 2821.56Z" fill="white" stroke="black"/>
<path d="M3106.21 2908.9C3114.43 2919.64 3119.33 2930.91 3120.64 2940.44C3121.95 2949.99 3119.63 2957.66 3113.62 2961.41C3107.6 2965.16 3098.83 2964.39 3089.4 2959.91C3079.99 2955.43 3070.05 2947.3 3061.83 2936.56C3053.61 2925.82 3048.71 2914.55 3047.41 2905.02C3046.1 2895.47 3048.41 2887.8 3054.43 2884.05C3060.44 2880.3 3069.21 2881.07 3078.64 2885.55C3088.05 2890.03 3098 2898.16 3106.21 2908.9Z" fill="white" stroke="black"/>
<ellipse cx="3042.78" cy="2874.22" rx="23.9603" ry="21.6243" fill="#EBC84D"/>
<ellipse rx="45.8142" ry="11.8512" transform="matrix(0.934976 0.35471 0.422219 -0.906494 2998.54 3031.39)" fill="#90BE6D"/>
<ellipse rx="45.8142" ry="11.8512" transform="matrix(0.934976 -0.35471 -0.422219 -0.906494 3079.35 3031.39)" fill="#90BE6D"/>
<path d="M3046.98 3043.11L3080.83 3029.62L3113.22 3018.94" stroke="#447321"/>
<path d="M2962.91 3018.94L2997.64 3030.47L3029.16 3043.11" stroke="#447321"/>
<rect x="809.64" y="2882.51" width="8.7508" height="310.654" fill="#90BE6D"/>
<path d="M720.037 2770.65C731.238 2782.14 738.916 2794.9 742.29 2806.24C745.671 2817.6 744.697 2827.38 738.841 2833.09C732.984 2838.8 723.181 2839.53 711.909 2835.86C700.663 2832.2 688.094 2824.2 676.893 2812.71C665.692 2801.22 658.014 2788.45 654.641 2777.12C651.259 2765.76 652.233 2755.97 658.089 2750.26C663.946 2744.55 673.749 2743.83 685.021 2747.5C696.268 2751.16 708.836 2759.16 720.037 2770.65Z" fill="#C6781A" stroke="black"/>
<path d="M813.45 2866.46C824.721 2878.02 832.463 2890.86 835.882 2902.24C839.31 2913.65 838.363 2923.46 832.507 2929.17C826.652 2934.88 816.822 2935.57 805.503 2931.86C794.209 2928.15 781.577 2920.09 770.305 2908.52C759.033 2896.96 751.292 2884.13 747.872 2872.75C744.445 2861.34 745.392 2851.53 751.247 2845.82C757.102 2840.11 766.932 2839.41 778.252 2843.13C789.545 2846.84 802.178 2854.9 813.45 2866.46Z" fill="#C6781A" stroke="black"/>
<path d="M778.672 2903.92C781.265 2919.84 780.236 2934.78 776.501 2946.05C772.757 2957.35 766.35 2964.83 758.278 2966.15C750.206 2967.46 741.757 2962.4 734.621 2952.87C727.502 2943.36 721.788 2929.52 719.195 2913.6C716.603 2897.68 717.632 2882.75 721.367 2871.47C725.11 2860.17 731.517 2852.69 739.589 2851.38C747.661 2850.06 756.111 2855.12 763.246 2864.65C770.365 2874.16 776.08 2888 778.672 2903.92Z" fill="#C6781A" stroke="black"/>
<path d="M775.266 2763.92C777.858 2779.84 776.829 2794.77 773.094 2806.05C769.35 2817.35 762.944 2824.83 754.872 2826.14C746.8 2827.46 738.35 2822.4 731.215 2812.87C724.095 2803.36 718.381 2789.52 715.789 2773.6C713.196 2757.68 714.225 2742.74 717.96 2731.47C721.704 2720.17 728.11 2712.69 736.182 2711.37C744.254 2710.06 752.704 2715.12 759.84 2724.65C766.959 2734.16 772.673 2748 775.266 2763.92Z" fill="#C6781A" stroke="black"/>
<path d="M777.683 2774.22C789.244 2762.94 802.078 2755.2 813.462 2751.78C824.872 2748.36 834.681 2749.3 840.389 2755.16C846.098 2761.01 846.795 2770.84 843.079 2782.16C839.372 2793.46 831.307 2806.09 819.746 2817.36C808.184 2828.63 795.351 2836.37 783.967 2839.79C772.557 2843.22 762.747 2842.27 757.039 2836.42C751.331 2830.56 750.633 2820.73 754.349 2809.41C758.057 2798.12 766.121 2785.49 777.683 2774.22Z" fill="#C6781A" stroke="black"/>
<path d="M497.614 3113.45C509.176 3102.17 522.009 3094.43 533.393 3091.01C544.803 3087.59 554.613 3088.53 560.321 3094.39C566.029 3100.24 566.727 3110.07 563.011 3121.39C559.303 3132.69 551.239 3145.32 539.677 3156.59C528.116 3167.86 515.282 3175.6 503.898 3179.02C492.488 3182.45 482.679 3181.5 476.971 3175.65C471.262 3169.79 470.565 3159.96 474.281 3148.64C477.988 3137.35 486.053 3124.72 497.614 3113.45Z" fill="#C6781A" stroke="black"/>
<path d="M682.983 2805.9C698.811 2809.01 712.459 2815.17 721.731 2822.59C731.024 2830.03 735.812 2838.64 734.237 2846.66C732.663 2854.69 724.977 2860.85 713.562 2864.23C702.173 2867.6 687.21 2868.14 671.382 2865.04C655.554 2861.93 641.906 2855.77 632.635 2848.35C623.342 2840.91 618.553 2832.3 620.128 2824.28C621.702 2816.25 629.389 2810.09 640.804 2806.71C652.193 2803.34 667.155 2802.8 682.983 2805.9Z" fill="#C6781A" stroke="black"/>
<path d="M826.511 2816.61C842.339 2819.72 855.986 2825.88 865.258 2833.3C874.551 2840.74 879.339 2849.35 877.765 2857.37C876.19 2865.4 868.504 2871.56 857.089 2874.94C845.7 2878.31 830.737 2878.85 814.909 2875.75C799.081 2872.64 785.434 2866.48 776.162 2859.06C766.869 2851.62 762.081 2843.01 763.655 2834.98C765.23 2826.96 772.916 2820.8 784.331 2817.42C795.72 2814.05 810.683 2813.51 826.511 2816.61Z" fill="#C6781A" stroke="black"/>
<ellipse cx="750.193" cy="2840.04" rx="17.8662" ry="17.5016" transform="rotate(-44.2726 750.193 2840.04)" fill="#90BE6D"/>
<rect x="1736.5" y="2862.09" width="8.7508" height="310.654" fill="#90BE6D"/>
<path d="M1771 2801.56C1771 2817.61 1767.58 2832.11 1762.09 2842.58C1756.58 2853.08 1749.05 2859.4 1740.87 2859.4C1732.69 2859.4 1725.17 2853.08 1719.66 2842.58C1714.16 2832.11 1710.74 2817.61 1710.74 2801.56C1710.74 2785.52 1714.16 2771.02 1719.66 2760.54C1725.17 2750.05 1732.69 2743.72 1740.87 2743.72C1749.05 2743.72 1756.58 2750.05 1762.09 2760.54C1767.58 2771.02 1771 2785.52 1771 2801.56Z" fill="#AF8C37" stroke="black"/>
<path d="M1719.95 2937.92C1710.69 2951.13 1699.53 2961.11 1688.98 2966.57C1678.41 2972.05 1668.6 2972.94 1661.91 2968.24C1655.21 2963.55 1652.69 2954.02 1654.24 2942.22C1655.77 2930.44 1661.34 2916.55 1670.6 2903.34C1679.86 2890.13 1691.02 2880.15 1701.57 2874.69C1712.14 2869.21 1721.95 2868.32 1728.64 2873.02C1735.34 2877.71 1737.86 2887.23 1736.31 2899.04C1734.78 2910.81 1729.21 2924.71 1719.95 2937.92Z" fill="#AF8C37" stroke="black"/>
<path d="M1815.24 2835.3C1805.99 2848.51 1794.82 2858.48 1784.28 2863.95C1773.71 2869.43 1763.9 2870.31 1757.2 2865.62C1750.5 2860.92 1747.99 2851.4 1749.53 2839.6C1751.07 2827.82 1756.64 2813.92 1765.9 2800.71C1775.15 2787.5 1786.32 2777.53 1796.86 2772.06C1807.43 2766.58 1817.24 2765.7 1823.94 2770.39C1830.64 2775.08 1833.15 2784.61 1831.61 2796.41C1830.07 2808.19 1824.5 2822.09 1815.24 2835.3Z" fill="#AF8C37" stroke="black"/>
<path d="M1809.78 2844.36C1825.93 2844.36 1840.52 2847.77 1851.06 2853.27C1861.62 2858.78 1867.99 2866.31 1867.99 2874.49C1867.99 2882.66 1861.62 2890.19 1851.06 2895.7C1840.52 2901.2 1825.93 2904.61 1809.78 2904.61C1793.64 2904.61 1779.04 2901.2 1768.51 2895.7C1757.94 2890.19 1751.58 2882.66 1751.58 2874.49C1751.58 2866.31 1757.94 2858.78 1768.51 2853.27C1779.04 2847.77 1793.64 2844.36 1809.78 2844.36Z" fill="#AF8C37" stroke="black"/>
<path d="M1685.81 2844.36C1701.96 2844.36 1716.55 2847.77 1727.09 2853.27C1737.65 2858.78 1744.02 2866.31 1744.02 2874.49C1744.02 2882.66 1737.65 2890.19 1727.09 2895.7C1716.55 2901.2 1701.96 2904.61 1685.81 2904.61C1669.67 2904.61 1655.07 2901.2 1644.54 2895.7C1633.97 2890.19 1627.61 2882.66 1627.61 2874.49C1627.61 2866.31 1633.97 2858.78 1644.54 2853.27C1655.07 2847.77 1669.67 2844.36 1685.81 2844.36Z" fill="#AF8C37" stroke="black"/>
<path d="M1719.86 2800.94C1729.02 2814.21 1734.49 2828.15 1735.95 2839.94C1737.41 2851.75 1734.83 2861.26 1728.1 2865.91C1721.37 2870.55 1711.57 2869.6 1701.04 2864.05C1690.53 2858.51 1679.43 2848.46 1670.27 2835.18C1661.1 2821.91 1655.63 2807.97 1654.17 2796.19C1652.71 2784.37 1655.29 2774.87 1662.02 2770.22C1668.75 2765.57 1678.56 2766.53 1689.09 2772.08C1699.6 2777.61 1710.69 2787.67 1719.86 2800.94Z" fill="#AF8C37" stroke="black"/>
<path d="M1815.15 2908.8C1824.31 2922.07 1829.79 2936.01 1831.25 2947.8C1832.71 2959.61 1830.12 2969.12 1823.39 2973.77C1816.67 2978.41 1806.86 2977.46 1796.33 2971.91C1785.82 2966.37 1774.73 2956.32 1765.56 2943.04C1756.4 2929.77 1750.92 2915.83 1749.47 2904.05C1748.01 2892.23 1750.59 2882.73 1757.32 2878.08C1764.05 2873.43 1773.85 2874.39 1784.38 2879.94C1794.89 2885.47 1805.98 2895.53 1815.15 2908.8Z" fill="#AF8C37" stroke="black"/>
<ellipse cx="1744.15" cy="2872.3" rx="17.8662" ry="17.5016" fill="#90BE6D"/>
<rect x="2807.01" y="2882.51" width="8.7508" height="310.654" fill="#90BE6D"/>
<path d="M2840.06 2721.35C2840.06 2737.39 2836.64 2751.89 2831.14 2762.37C2825.63 2772.86 2818.11 2779.19 2809.93 2779.19C2801.75 2779.19 2794.22 2772.86 2788.71 2762.37C2783.22 2751.89 2779.8 2737.39 2779.8 2721.35C2779.8 2705.3 2783.22 2690.8 2788.71 2680.33C2794.22 2669.83 2801.75 2663.51 2809.93 2663.51C2818.11 2663.51 2825.63 2669.83 2831.14 2680.33C2836.64 2690.8 2840.06 2705.3 2840.06 2721.35Z" fill="#F8961E" stroke="black"/>
<path d="M2840.06 2855.16C2840.06 2871.31 2836.64 2885.9 2831.14 2896.44C2825.63 2907 2818.11 2913.37 2809.93 2913.37C2801.75 2913.37 2794.23 2907 2788.71 2896.44C2783.22 2885.9 2779.8 2871.31 2779.8 2855.16C2779.8 2839.02 2783.22 2824.42 2788.71 2813.88C2794.23 2803.32 2801.75 2796.96 2809.93 2796.96C2818.11 2796.96 2825.63 2803.32 2831.14 2813.88C2836.64 2824.42 2840.06 2839.02 2840.06 2855.16Z" fill="#F8961E" stroke="black"/>
<path d="M2789.01 2857.71C2779.75 2870.91 2768.59 2880.89 2758.04 2886.36C2747.47 2891.83 2737.66 2892.72 2730.96 2888.03C2724.27 2883.33 2721.75 2873.81 2723.29 2862C2724.83 2850.23 2730.4 2836.33 2739.66 2823.12C2748.92 2809.91 2760.08 2799.93 2770.62 2794.47C2781.19 2788.99 2791 2788.11 2797.7 2792.8C2804.4 2797.49 2806.91 2807.02 2805.37 2818.82C2803.83 2830.6 2798.26 2844.5 2789.01 2857.71Z" fill="#F8961E" stroke="black"/>
<path d="M2884.3 2755.08C2875.04 2768.29 2863.88 2778.27 2853.33 2783.73C2842.77 2789.21 2832.95 2790.1 2826.26 2785.4C2819.56 2780.71 2817.05 2771.18 2818.59 2759.38C2820.13 2747.6 2825.7 2733.71 2834.95 2720.5C2844.21 2707.29 2855.37 2697.31 2865.92 2691.84C2876.49 2686.37 2886.3 2685.48 2893 2690.18C2899.69 2694.87 2902.21 2704.39 2900.67 2716.2C2899.13 2727.97 2893.56 2741.87 2884.3 2755.08Z" fill="#F8961E" stroke="black"/>
<path d="M2878.84 2764.14C2894.99 2764.14 2909.58 2767.56 2920.12 2773.06C2930.68 2778.57 2937.04 2786.09 2937.04 2794.27C2937.04 2802.45 2930.68 2809.97 2920.12 2815.48C2909.58 2820.98 2894.99 2824.4 2878.84 2824.4C2862.69 2824.4 2848.1 2820.98 2837.56 2815.48C2827 2809.97 2820.64 2802.45 2820.64 2794.27C2820.64 2786.09 2827 2778.57 2837.56 2773.06C2848.1 2767.56 2862.69 2764.14 2878.84 2764.14Z" fill="#F8961E" stroke="black"/>
<path d="M2754.87 2764.14C2771.02 2764.14 2785.61 2767.56 2796.15 2773.06C2806.71 2778.57 2813.07 2786.09 2813.07 2794.27C2813.07 2802.45 2806.71 2809.97 2796.15 2815.48C2785.61 2820.98 2771.02 2824.4 2754.87 2824.4C2738.72 2824.4 2724.13 2820.98 2713.59 2815.48C2703.03 2809.97 2696.67 2802.45 2696.67 2794.27C2696.67 2786.09 2703.03 2778.57 2713.59 2773.06C2724.13 2767.56 2738.72 2764.14 2754.87 2764.14Z" fill="#F8961E" stroke="black"/>
<path d="M2923.88 2903.34C2933.04 2916.61 2938.52 2930.55 2939.97 2942.33C2941.43 2954.15 2938.85 2963.65 2932.12 2968.3C2925.39 2972.95 2915.59 2971.99 2905.06 2966.44C2894.55 2960.91 2883.46 2950.85 2874.29 2937.58C2865.13 2924.31 2859.65 2910.37 2858.2 2898.58C2856.73 2886.77 2859.32 2877.26 2866.05 2872.61C2872.77 2867.97 2882.58 2868.92 2893.11 2874.47C2903.62 2880.01 2914.71 2890.06 2923.88 2903.34Z" fill="#F8961E" stroke="black"/>
<ellipse cx="2813.21" cy="2792.08" rx="17.8662" ry="17.5016" fill="#90BE6D"/>
</svg>
