<svg width="4001" height="4001" viewBox="0 0 4001 4001" fill="none" xmlns="http://www.w3.org/2000/svg">
<path d="M3798.96 2419.76C3798.96 2844.57 3578.19 3026.72 3385.57 3314.98C3173.89 3631.76 2631.97 3583.77 2296.72 3583.77C1927.05 3583.77 1455.44 3690.24 1243.15 3314.98C1087.73 3040.27 880.201 2573.03 880.201 2196.17C880.201 2042.23 1078.28 1774 1147.64 1641.79C1277.34 1394.52 1269.73 1073.5 1404.29 883.542C1498.97 749.89 1794.31 743.843 1908.8 599.447C2048.53 423.209 2119.18 330.005 2296.72 330.005C2473.51 330.005 2656.88 623.979 2820.82 801.996C2967.76 961.556 3285.51 1139.57 3385.57 1289.3C3479.8 1430.33 3564.99 1697.25 3637.33 1837.76C3712.85 1984.46 3798.96 2202.79 3798.96 2419.76Z" fill="url(#paint0_radial)"/>
<path d="M3310.29 2847.7C3310.29 3071.86 3163.49 3167.97 3035.41 3320.07C2894.66 3487.22 2534.33 3461.9 2311.41 3461.9C2065.61 3461.9 1752.02 3518.08 1610.86 3320.07C1507.52 3175.12 1369.53 2928.58 1369.53 2729.72C1369.53 2648.49 1501.24 2506.96 1547.35 2437.2C1633.6 2306.72 1628.54 2137.33 1718.01 2037.1C1780.97 1966.58 1977.34 1963.39 2053.47 1887.19C2146.39 1794.2 2193.36 1745.02 2311.41 1745.02C2428.96 1745.02 2550.89 1900.14 2659.9 1994.07C2757.6 2078.27 2968.89 2172.2 3035.41 2251.2C3098.08 2325.62 3154.72 2466.46 3202.82 2540.6C3253.03 2618.01 3310.29 2733.21 3310.29 2847.7Z" fill="url(#paint1_radial)"/>
<defs>
<radialGradient id="paint0_radial" cx="0" cy="0" r="1" gradientUnits="userSpaceOnUse" gradientTransform="translate(2339.58 -398.261) rotate(89.2193) scale(6389.31 5708.38)">
<stop stop-color="#323031"/>
<stop offset="1" stop-color="#4D908E"/>
</radialGradient>
<radialGradient id="paint1_radial" cx="0" cy="0" r="1" gradientUnits="userSpaceOnUse" gradientTransform="translate(2339.91 2607.14) rotate(88.4393) scale(2125.46 2392.35)">
<stop/>
<stop offset="1" stop-opacity="0"/>
</radialGradient>
</defs>
</svg>
