<svg width="4001" height="4001" viewBox="0 0 4001 4001" fill="none" xmlns="http://www.w3.org/2000/svg">
<rect x="399.994" y="2699.37" width="99.2558" height="374.864" rx="49.6279" transform="rotate(-0.516261 399.994 2699.37)" fill="#277DA1"/>
<path d="M922.016 2473.43C925.63 2460.76 922.82 2447.12 914.49 2436.91L580.47 2027.35C546.801 1986.07 480.521 2019.05 493.147 2070.8L511.856 2147.49C514.088 2156.64 518.856 2164.97 525.613 2171.52L855.187 2491.31C877.058 2512.53 913.66 2502.74 922.016 2473.43V2473.43Z" fill="#277DA1"/>
<rect x="557.664" y="2698.3" width="99.2558" height="374.864" rx="49.6279" transform="rotate(-0.516261 557.664 2698.3)" fill="#277DA1"/>
<path d="M154.545 2468.68C151.321 2456.55 154.054 2443.62 161.907 2433.84L485.963 2030.19C519.5 1988.42 586.353 2021.5 573.49 2073.5L555.852 2144.8C553.642 2153.74 549.007 2161.89 542.458 2168.36L220.396 2486.6C198.846 2507.89 162.333 2497.95 154.545 2468.68V2468.68Z" fill="#277DA1"/>
<path d="M463.913 2053.45C490.67 1991.49 578.537 1991.49 605.295 2053.45L862.981 2650.21C884.932 2701.05 847.66 2757.74 792.29 2757.74H276.917C221.547 2757.74 184.276 2701.05 206.226 2650.21L463.913 2053.45Z" fill="#277DA1"/>
<path d="M567.34 2010.66L529.267 2746.07L496.887 2010.39L567.34 2010.66Z" fill="white" stroke="white"/>
<mask id="path-7-inside-1" fill="white">
<rect x="1310.62" y="926.556" width="2589.24" height="1866.31" rx="40"/>
</mask>
<rect x="1310.62" y="926.556" width="2589.24" height="1866.31" rx="40" fill="#8EA57D" stroke="white" stroke-width="100" mask="url(#path-7-inside-1)"/>
<ellipse cx="532.107" cy="1835.54" rx="208.078" ry="194.636" fill="#43AA8B"/>
<path d="M2332.8 1442.26C2332.8 1570.33 2264.69 1594.55 2100.02 1594.55C1935.36 1594.55 1801.87 1615.72 1801.87 1487.65C1876.81 1383.05 1942.18 1378.12 2071.32 1378.12C2200.47 1378.12 2168.58 1442.26 2332.8 1442.26Z" fill="white"/>
<path d="M3373.22 1443.77C3373.22 1570.58 3305.65 1594.56 3142.32 1594.56C2978.99 1594.56 2846.58 1615.52 2846.58 1488.71C2920.91 1385.15 2985.75 1380.26 3113.85 1380.26C3241.96 1380.26 3210.33 1443.77 3373.22 1443.77Z" fill="white"/>
<ellipse cx="1927.37" cy="1477.33" rx="159.816" ry="118.521" fill="white"/>
<ellipse cx="2970.46" cy="1478.41" rx="158.207" ry="117.449" fill="white"/>
<ellipse cx="1968.12" cy="1409.76" rx="113.695" ry="166.788" fill="white"/>
<ellipse cx="3011.22" cy="1411.37" rx="113.159" ry="165.179" fill="white"/>
<ellipse cx="2129.55" cy="1385.63" rx="149.627" ry="190.921" fill="white"/>
<ellipse cx="3172.11" cy="1387.23" rx="148.554" ry="189.313" fill="white"/>
<path d="M2357.48 1458.03C2357.48 1534.15 2270.06 1595.85 2186.7 1595.85C2103.33 1595.85 2067.88 1534.15 2067.88 1458.03C2067.88 1381.91 2103.33 1320.2 2186.7 1320.2C2304.82 1340.12 2357.48 1381.91 2357.48 1458.03Z" fill="white"/>
<path d="M3397.89 1459.1C3397.89 1534.63 3311.12 1595.85 3228.38 1595.85C3145.63 1595.85 3110.44 1534.63 3110.44 1459.1C3110.44 1383.57 3145.63 1322.34 3228.38 1322.34C3345.63 1342.11 3397.89 1383.57 3397.89 1459.1Z" fill="white"/>
<rect x="1917.71" y="1557.24" width="275.656" height="38.6133" fill="white"/>
<rect x="2961.34" y="1556.17" width="273.511" height="39.6859" fill="white"/>
<circle cx="2049.64" cy="2314.49" r="208.083" fill="#EDAD13"/>
<circle cx="2953.84" cy="2258.72" r="134.074" fill="#EDAD13"/>
<circle cx="2062.51" cy="2314.49" r="208.083" fill="#F9C74F"/>
<circle cx="2962.42" cy="2258.72" r="134.074" fill="#F9C74F"/>
<path d="M1876.37 2264.88C1874.89 2265.81 1873.07 2264.41 1873.64 2262.76C1877.29 2252.09 1882.48 2240.6 1888.94 2228.87C1896.39 2215.34 1905.37 2201.81 1915.29 2189.15C1925.2 2176.5 1935.82 2165.03 1946.44 2155.49C1955.18 2147.65 1963.75 2141.26 1971.77 2136.61C1973.54 2135.58 1975.52 2137.35 1974.78 2139.26V2139.26C1974.58 2139.79 1974.19 2140.21 1973.69 2140.47C1965.12 2144.88 1955.75 2151.6 1946.16 2160.21C1936.28 2169.08 1926.4 2179.76 1917.17 2191.53C1907.95 2203.3 1899.59 2215.9 1892.66 2228.48C1885.86 2240.81 1880.59 2252.85 1877.17 2263.84C1877.03 2264.27 1876.75 2264.64 1876.37 2264.88V2264.88Z" fill="#F3DFAF"/>
<path d="M2842.27 2226.58C2841.32 2227.18 2840.15 2226.28 2840.51 2225.22C2842.86 2218.35 2846.2 2210.96 2850.36 2203.42C2855.15 2194.72 2860.93 2186.01 2867.31 2177.87C2873.69 2169.73 2880.52 2162.35 2887.35 2156.22C2892.97 2151.17 2898.48 2147.06 2903.64 2144.07C2904.78 2143.41 2906.05 2144.55 2905.58 2145.78V2145.78C2905.45 2146.11 2905.2 2146.39 2904.88 2146.55C2899.36 2149.39 2893.33 2153.71 2887.16 2159.25C2880.81 2164.96 2874.45 2171.82 2868.52 2179.4C2862.59 2186.97 2857.21 2195.07 2852.75 2203.17C2848.38 2211.1 2844.98 2218.85 2842.78 2225.91C2842.7 2226.19 2842.52 2226.43 2842.27 2226.58V2226.58Z" fill="#F3DFAF"/>
<path d="M1870.4 2286.35C1869.29 2286.69 1868.18 2285.82 1868.29 2284.66C1868.6 2281.29 1869.21 2277.85 1870.11 2274.38C1870.28 2273.72 1870.88 2273.25 1871.56 2273.24V2273.24C1872.61 2273.21 1873.38 2274.2 1873.13 2275.21C1872.35 2278.46 1871.83 2281.68 1871.6 2284.84C1871.55 2285.54 1871.08 2286.15 1870.4 2286.35V2286.35Z" fill="#F3DFAF"/>
<path d="M2961.34 1696.04C2961.34 1716.53 2953.9 1733.15 2944.72 1733.15C2935.54 1733.15 2928.09 1716.53 2928.09 1696.04C2928.09 1675.55 2940.56 1658.7 2944.72 1647.34C2946.43 1657.31 2961.34 1675.55 2961.34 1696.04Z" fill="#74C5E7"/>
<path d="M3039.64 1737.87C3039.64 1758.36 3032.44 1774.98 3023.56 1774.98C3014.67 1774.98 3007.47 1758.36 3007.47 1737.87C3007.47 1717.38 3019.53 1700.53 3023.56 1689.17C3025.21 1699.14 3039.64 1717.38 3039.64 1737.87Z" fill="#74C5E7"/>
<path d="M383.231 2019.82C382.965 1995.1 399.248 1972.45 425.967 1955.85C452.676 1939.26 489.74 1928.76 530.827 1928.32C571.914 1927.87 609.195 1937.58 636.255 1953.59C663.325 1969.61 680.092 1991.9 680.358 2016.62C680.49 2028.91 673.735 2040.79 662.83 2052.18C651.931 2063.55 636.948 2074.36 620.763 2084.51C606.513 2093.45 591.353 2101.86 577.259 2109.67C575.348 2110.73 573.458 2111.78 571.592 2112.82C556.205 2121.38 542.465 2129.19 533.191 2136.16C531.111 2133.18 527.363 2129.97 522.438 2126.56C517.253 2122.96 510.711 2119.09 503.315 2114.99C496.737 2111.34 489.472 2107.49 481.874 2103.47C480.927 2102.97 479.976 2102.47 479.02 2101.96C470.386 2097.38 461.381 2092.59 452.496 2087.59C434.719 2077.59 417.444 2066.8 404.586 2055.41C391.709 2044 383.363 2032.08 383.231 2019.82Z" fill="white" stroke="black"/>
<path d="M1192.87 2144.12C1034.53 2333.53 901.317 2483.01 895.325 2478C889.333 2473 1012.83 2315.39 1171.17 2125.98C1329.5 1936.57 1467.79 1787.68 1558.3 1684.92C1482.37 1778.02 1351.2 1954.71 1192.87 2144.12Z" fill="#F9C74F"/>
<path d="M3119.02 1696.04C3119.02 1716.53 3111.57 1733.15 3102.39 1733.15C3093.21 1733.15 3085.77 1716.53 3085.77 1696.04C3085.77 1675.55 3098.23 1658.7 3102.39 1647.34C3104.1 1657.31 3119.02 1675.55 3119.02 1696.04Z" fill="#74C5E7"/>
<path d="M3197.31 1737.87C3197.31 1758.36 3189.87 1774.98 3180.69 1774.98C3171.51 1774.98 3164.06 1758.36 3164.06 1737.87C3164.06 1717.38 3176.53 1700.53 3180.69 1689.17C3182.4 1699.14 3197.31 1717.38 3197.31 1737.87Z" fill="#74C5E7"/>
<path d="M3275.61 1696.04C3275.61 1716.53 3268.41 1733.15 3259.52 1733.15C3250.64 1733.15 3243.44 1716.53 3243.44 1696.04C3243.44 1675.55 3255.5 1658.7 3259.52 1647.34C3261.18 1657.31 3275.61 1675.55 3275.61 1696.04Z" fill="#74C5E7"/>
<path d="M3403.25 2402.93C3403.25 2536.68 3331.97 2561.97 3159.66 2561.97C2987.34 2561.97 2847.65 2584.08 2847.65 2450.33C2926.07 2341.1 2994.48 2335.94 3129.62 2335.94C3264.77 2335.94 3231.4 2402.93 3403.25 2402.93Z" fill="white"/>
<ellipse cx="2979.04" cy="2439.98" rx="166.788" ry="123.348" fill="white"/>
<ellipse cx="3021.95" cy="2369.19" rx="118.521" ry="173.76" fill="white"/>
<ellipse cx="3190.88" cy="2343.45" rx="156.599" ry="199.502" fill="white"/>
<path d="M3428.99 2419.61C3428.99 2498.98 3337.37 2563.33 3249.99 2563.33C3162.62 2563.33 3125.45 2498.98 3125.45 2419.61C3125.45 2340.23 3162.62 2275.88 3249.99 2275.88C3373.81 2296.66 3428.99 2340.23 3428.99 2419.61Z" fill="white"/>
<rect x="2968.85" y="2522.57" width="288.527" height="40.7585" fill="white"/>
<path d="M2839.72 2237.88C2839.01 2238.1 2838.29 2237.54 2838.36 2236.8C2838.56 2234.62 2838.96 2232.41 2839.53 2230.18C2839.64 2229.75 2840.03 2229.45 2840.47 2229.44V2229.44C2841.14 2229.43 2841.64 2230.06 2841.48 2230.72C2840.97 2232.81 2840.64 2234.88 2840.49 2236.91C2840.46 2237.36 2840.15 2237.75 2839.72 2237.88V2237.88Z" fill="#F3DFAF"/>
<path d="M2288.51 1486.64C2283.25 1483.1 2277.09 1480.83 2270.53 1480.02C2263.98 1479.22 2257.22 1479.91 2250.85 1482.03C2244.47 1484.15 2238.66 1487.65 2233.91 1492.21C2229.16 1496.78 2225.6 1502.28 2223.54 1508.26C2221.48 1514.24 2220.98 1520.52 2222.08 1526.56C2223.19 1532.61 2225.86 1538.23 2229.87 1542.97C2233.88 1547.71 2239.12 1551.42 2245.14 1553.79C2251.16 1556.15 2257.78 1557.11 2264.44 1556.56L2264.35 1554.12C2258.11 1554.63 2251.91 1553.73 2246.28 1551.52C2240.64 1549.3 2235.74 1545.83 2231.98 1541.39C2228.22 1536.96 2225.72 1531.69 2224.69 1526.03C2223.66 1520.37 2224.13 1514.5 2226.06 1508.9C2227.98 1503.3 2231.31 1498.14 2235.76 1493.87C2240.21 1489.59 2245.65 1486.32 2251.62 1484.34C2257.59 1482.35 2263.91 1481.71 2270.05 1482.46C2276.19 1483.21 2281.96 1485.34 2286.88 1488.66L2288.51 1486.64Z" fill="white"/>
<path d="M2192.17 1544.99C2194.45 1553.05 2199 1560.42 2205.44 1566.48C2211.89 1572.53 2220.03 1577.08 2229.19 1579.76C2238.34 1582.43 2248.24 1583.14 2258.03 1581.83C2267.83 1580.52 2277.24 1577.23 2285.46 1572.24C2293.69 1567.24 2300.49 1560.69 2305.28 1553.13C2310.08 1545.58 2312.73 1537.25 2313.02 1528.84C2313.3 1520.44 2311.2 1512.21 2306.91 1504.85C2302.62 1497.49 2296.25 1491.22 2288.35 1486.58L2286.7 1488.54C2294.24 1492.98 2300.32 1498.97 2304.42 1505.99C2308.52 1513.02 2310.52 1520.88 2310.25 1528.9C2309.98 1536.93 2307.45 1544.89 2302.87 1552.1C2298.29 1559.31 2291.8 1565.57 2283.95 1570.34C2276.09 1575.11 2267.11 1578.25 2257.75 1579.5C2248.4 1580.75 2238.95 1580.07 2230.21 1577.52C2221.46 1574.97 2213.69 1570.62 2207.53 1564.84C2201.38 1559.06 2197.03 1552.02 2194.86 1544.32L2192.17 1544.99Z" fill="white"/>
<path d="M2195.08 1545.11C2192.31 1534.42 2186.32 1524.63 2177.74 1516.76C2169.16 1508.88 2158.3 1503.21 2146.29 1500.33C2134.27 1497.46 2121.55 1497.48 2109.43 1500.39C2097.31 1503.31 2086.24 1509.01 2077.37 1516.91L2079.32 1518.61C2087.84 1511.02 2098.47 1505.54 2110.11 1502.74C2121.75 1499.94 2133.98 1499.92 2145.51 1502.69C2157.05 1505.45 2167.48 1510.9 2175.73 1518.46C2183.97 1526.02 2189.72 1535.42 2192.38 1545.69L2195.08 1545.11Z" fill="white"/>
<path d="M1985.44 1517.98C1990.86 1523.95 1997.61 1528.68 2005.31 1531.9C2013.01 1535.12 2021.5 1536.77 2030.31 1536.75C2039.11 1536.73 2048.05 1535.04 2056.63 1531.79C2065.2 1528.53 2073.23 1523.77 2080.26 1517.77L2078.58 1515.92C2071.83 1521.67 2064.13 1526.24 2055.91 1529.37C2047.68 1532.49 2039.11 1534.11 2030.66 1534.12C2022.21 1534.14 2014.07 1532.56 2006.68 1529.47C1999.3 1526.38 1992.82 1521.85 1987.62 1516.12L1985.44 1517.98Z" fill="white"/>
<path d="M1988.48 1517.08C1980.13 1507.47 1968.47 1500.96 1955.11 1498.46C1941.76 1495.95 1927.37 1497.58 1913.94 1503.11L1914.76 1505.49C1927.64 1500.19 1941.44 1498.63 1954.25 1501.03C1967.06 1503.43 1978.25 1509.67 1986.26 1518.89L1988.48 1517.08Z" fill="white"/>
<path d="M2264.12 1556.6C2268.31 1556.4 2272.39 1555.32 2276.02 1553.47C2279.64 1551.61 2282.7 1549.03 2284.93 1545.93C2287.17 1542.84 2288.52 1539.33 2288.86 1535.7C2289.2 1532.07 2288.53 1528.42 2286.91 1525.08C2285.28 1521.73 2282.75 1518.77 2279.52 1516.47C2276.29 1514.16 2272.47 1512.56 2268.37 1511.81C2264.26 1511.06 2260.01 1511.19 2255.96 1512.17C2251.91 1513.15 2248.19 1514.96 2245.11 1517.45L2247.05 1519.26C2249.79 1517.04 2253.11 1515.43 2256.71 1514.55C2260.32 1513.68 2264.11 1513.57 2267.76 1514.24C2271.41 1514.9 2274.82 1516.32 2277.7 1518.38C2280.57 1520.44 2282.83 1523.07 2284.28 1526.05C2285.73 1529.03 2286.32 1532.28 2286.02 1535.51C2285.71 1538.74 2284.51 1541.87 2282.52 1544.63C2280.53 1547.38 2277.8 1549.68 2274.58 1551.34C2271.35 1552.99 2267.72 1553.95 2263.98 1554.13L2264.12 1556.6Z" fill="white"/>
<path d="M2289.57 1489.05C2284.31 1485.51 2278.14 1483.23 2271.59 1482.43C2265.03 1481.63 2258.28 1482.32 2251.9 1484.44C2245.53 1486.56 2239.72 1490.05 2234.96 1494.62C2230.21 1499.19 2226.65 1504.69 2224.59 1510.67C2222.54 1516.65 2222.04 1522.93 2223.14 1528.97C2224.24 1535.01 2226.91 1540.64 2230.92 1545.38C2234.94 1550.12 2240.17 1553.83 2246.19 1556.2C2252.21 1558.56 2258.83 1559.51 2265.49 1558.97L2265.4 1556.53C2259.16 1557.03 2252.96 1556.14 2247.33 1553.93C2241.7 1551.71 2236.79 1548.24 2233.04 1543.8C2229.28 1539.37 2226.78 1534.1 2225.75 1528.44C2224.72 1522.78 2225.18 1516.91 2227.11 1511.31C2229.04 1505.71 2232.37 1500.55 2236.82 1496.28C2241.27 1492 2246.71 1488.73 2252.68 1486.75C2258.65 1484.76 2264.97 1484.12 2271.11 1484.87C2277.24 1485.62 2283.02 1487.74 2287.94 1491.06L2289.57 1489.05Z" fill="#656484"/>
<path d="M2193.22 1547.4C2195.5 1555.46 2200.06 1562.83 2206.5 1568.88C2212.94 1574.94 2221.09 1579.49 2230.24 1582.17C2239.4 1584.84 2249.29 1585.55 2259.09 1584.24C2268.88 1582.93 2278.29 1579.64 2286.52 1574.64C2294.74 1569.65 2301.54 1563.1 2306.34 1555.54C2311.14 1547.99 2313.79 1539.66 2314.07 1531.25C2314.35 1522.85 2312.26 1514.62 2307.96 1507.26C2303.67 1499.9 2297.3 1493.63 2289.4 1488.98L2287.75 1490.95C2295.3 1495.39 2301.38 1501.37 2305.48 1508.4C2309.58 1515.43 2311.58 1523.28 2311.31 1531.31C2311.04 1539.34 2308.51 1547.29 2303.93 1554.51C2299.35 1561.72 2292.85 1567.98 2285 1572.75C2277.15 1577.52 2268.16 1580.66 2258.81 1581.91C2249.45 1583.16 2240 1582.48 2231.26 1579.93C2222.52 1577.38 2214.74 1573.03 2208.59 1567.25C2202.44 1561.47 2198.09 1554.43 2195.91 1546.73L2193.22 1547.4Z" fill="#656484"/>
<path d="M2196.13 1547.52C2193.36 1536.83 2187.37 1527.04 2178.79 1519.16C2170.21 1511.29 2159.35 1505.62 2147.34 1502.74C2135.33 1499.87 2122.6 1499.88 2110.48 1502.8C2098.36 1505.71 2087.29 1511.42 2078.42 1519.32L2080.37 1521.01C2088.89 1513.43 2099.52 1507.95 2111.16 1505.15C2122.81 1502.35 2135.03 1502.33 2146.57 1505.09C2158.11 1507.86 2168.54 1513.3 2176.78 1520.87C2185.02 1528.43 2190.77 1537.83 2193.43 1548.1L2196.13 1547.52Z" fill="#656484"/>
<path d="M1986.49 1520.39C1991.91 1526.36 1998.66 1531.09 2006.36 1534.31C2014.06 1537.53 2022.56 1539.18 2031.36 1539.16C2040.17 1539.14 2049.11 1537.45 2057.68 1534.2C2066.25 1530.94 2074.28 1526.18 2081.32 1520.18L2079.63 1518.33C2072.89 1524.08 2065.18 1528.65 2056.96 1531.77C2048.74 1534.9 2040.16 1536.51 2031.71 1536.53C2023.27 1536.55 2015.12 1534.97 2007.74 1531.88C2000.35 1528.79 1993.87 1524.25 1988.68 1518.53L1986.49 1520.39Z" fill="#656484"/>
<path d="M1989.54 1519.49C1981.18 1509.88 1969.52 1503.37 1956.17 1500.87C1942.81 1498.36 1928.43 1499.99 1915 1505.52L1915.82 1507.9C1928.7 1502.6 1942.5 1501.04 1955.3 1503.44C1968.11 1505.84 1979.3 1512.08 1987.31 1521.3L1989.54 1519.49Z" fill="#656484"/>
<path d="M2265.18 1559.01C2269.37 1558.81 2273.45 1557.73 2277.07 1555.87C2280.69 1554.02 2283.75 1551.43 2285.99 1548.34C2288.22 1545.25 2289.57 1541.74 2289.91 1538.11C2290.26 1534.48 2289.59 1530.83 2287.96 1527.48C2286.34 1524.14 2283.8 1521.18 2280.58 1518.87C2277.35 1516.57 2273.52 1514.97 2269.42 1514.22C2265.32 1513.47 2261.06 1513.59 2257.02 1514.58C2252.97 1515.56 2249.25 1517.37 2246.17 1519.86L2248.11 1521.67C2250.85 1519.45 2254.16 1517.83 2257.77 1516.96C2261.37 1516.09 2265.16 1515.98 2268.82 1516.64C2272.47 1517.31 2275.88 1518.73 2278.75 1520.79C2281.63 1522.85 2283.88 1525.48 2285.33 1528.46C2286.78 1531.44 2287.38 1534.69 2287.07 1537.92C2286.76 1541.15 2285.56 1544.28 2283.57 1547.03C2281.58 1549.79 2278.86 1552.09 2275.63 1553.74C2272.4 1555.4 2268.77 1556.35 2265.04 1556.53L2265.18 1559.01Z" fill="#656484"/>
<path d="M2289.57 1490.65C2284.31 1487.1 2278.14 1484.83 2271.59 1484.03C2265.03 1483.23 2258.28 1483.92 2251.9 1486.04C2245.53 1488.16 2239.72 1491.65 2234.96 1496.22C2230.21 1500.78 2226.65 1506.29 2224.59 1512.27C2222.54 1518.25 2222.04 1524.53 2223.14 1530.57C2224.24 1536.61 2226.91 1542.24 2230.92 1546.98C2234.94 1551.72 2240.17 1555.43 2246.19 1557.79C2252.21 1560.16 2258.83 1561.11 2265.49 1560.57L2265.4 1558.12C2259.16 1558.63 2252.96 1557.74 2247.33 1555.53C2241.7 1553.31 2236.79 1549.84 2233.04 1545.4C2229.28 1540.96 2226.78 1535.69 2225.75 1530.04C2224.72 1524.38 2225.18 1518.5 2227.11 1512.9C2229.04 1507.31 2232.37 1502.15 2236.82 1497.88C2241.27 1493.6 2246.71 1490.33 2252.68 1488.34C2258.65 1486.36 2264.97 1485.71 2271.11 1486.46C2277.24 1487.22 2283.02 1489.34 2287.94 1492.66L2289.57 1490.65Z" fill="#9897C6"/>
<path d="M2193.22 1549C2195.5 1557.06 2200.06 1564.43 2206.5 1570.48C2212.94 1576.53 2221.09 1581.09 2230.24 1583.76C2239.4 1586.44 2249.29 1587.15 2259.09 1585.84C2268.88 1584.53 2278.29 1581.24 2286.52 1576.24C2294.74 1571.25 2301.54 1564.69 2306.34 1557.14C2311.14 1549.59 2313.79 1541.25 2314.07 1532.85C2314.35 1524.44 2312.26 1516.21 2307.96 1508.86C2303.67 1501.5 2297.3 1495.23 2289.4 1490.58L2287.75 1492.55C2295.3 1496.99 2301.38 1502.97 2305.48 1510C2309.58 1517.02 2311.58 1524.88 2311.31 1532.91C2311.04 1540.93 2308.51 1548.89 2303.93 1556.1C2299.35 1563.32 2292.85 1569.57 2285 1574.34C2277.15 1579.11 2268.16 1582.26 2258.81 1583.51C2249.45 1584.76 2240 1584.08 2231.26 1581.53C2222.52 1578.97 2214.74 1574.62 2208.59 1568.84C2202.44 1563.06 2198.09 1556.03 2195.91 1548.33L2193.22 1549Z" fill="#9897C6"/>
<path d="M2196.13 1549.11C2193.36 1538.43 2187.37 1528.64 2178.79 1520.76C2170.21 1512.89 2159.35 1507.22 2147.34 1504.34C2135.33 1501.46 2122.6 1501.48 2110.48 1504.4C2098.36 1507.31 2087.29 1513.02 2078.42 1520.92L2080.37 1522.61C2088.89 1515.02 2099.52 1509.54 2111.16 1506.74C2122.81 1503.95 2135.03 1503.93 2146.57 1506.69C2158.11 1509.45 2168.54 1514.9 2176.78 1522.46C2185.02 1530.03 2190.77 1539.43 2193.43 1549.7L2196.13 1549.11Z" fill="#9897C6"/>
<path d="M1986.49 1521.99C1991.91 1527.96 1998.66 1532.69 2006.36 1535.91C2014.06 1539.13 2022.56 1540.77 2031.36 1540.76C2040.17 1540.74 2049.11 1539.05 2057.68 1535.79C2066.25 1532.54 2074.28 1527.78 2081.32 1521.78L2079.63 1519.93C2072.89 1525.68 2065.18 1530.25 2056.96 1533.37C2048.74 1536.49 2040.16 1538.11 2031.71 1538.13C2023.27 1538.15 2015.12 1536.57 2007.74 1533.48C2000.35 1530.39 1993.87 1525.85 1988.68 1520.13L1986.49 1521.99Z" fill="#9897C6"/>
<path d="M1989.54 1521.09C1981.18 1511.47 1969.52 1504.97 1956.17 1502.46C1942.81 1499.96 1928.43 1501.59 1915 1507.11L1915.82 1509.5C1928.7 1504.19 1942.5 1502.63 1955.3 1505.03C1968.11 1507.44 1979.3 1513.68 1987.31 1522.9L1989.54 1521.09Z" fill="#9897C6"/>
<path d="M2265.18 1560.6C2269.37 1560.4 2273.45 1559.33 2277.07 1557.47C2280.69 1555.62 2283.75 1553.03 2285.99 1549.94C2288.22 1546.85 2289.57 1543.33 2289.91 1539.7C2290.26 1536.07 2289.59 1532.43 2287.96 1529.08C2286.34 1525.73 2283.8 1522.78 2280.58 1520.47C2277.35 1518.16 2273.52 1516.57 2269.42 1515.82C2265.32 1515.07 2261.06 1515.19 2257.02 1516.17C2252.97 1517.15 2249.25 1518.97 2246.17 1521.46L2248.11 1523.26C2250.85 1521.05 2254.16 1519.43 2257.77 1518.56C2261.37 1517.68 2265.16 1517.58 2268.82 1518.24C2272.47 1518.91 2275.88 1520.33 2278.75 1522.39C2281.63 1524.44 2283.88 1527.07 2285.33 1530.06C2286.78 1533.04 2287.38 1536.28 2287.07 1539.52C2286.76 1542.75 2285.56 1545.88 2283.57 1548.63C2281.58 1551.39 2278.86 1553.69 2275.63 1555.34C2272.4 1557 2268.77 1557.95 2265.04 1558.13L2265.18 1560.6Z" fill="#9897C6"/>
<path d="M2448.16 1696.95C2441.42 1701.51 2433.5 1704.42 2425.08 1705.45C2416.66 1706.48 2407.99 1705.6 2399.81 1702.87C2391.62 1700.15 2384.16 1695.67 2378.06 1689.8C2371.95 1683.94 2367.39 1676.87 2364.74 1669.19C2362.1 1661.51 2361.46 1653.45 2362.87 1645.7C2364.29 1637.94 2367.72 1630.71 2372.87 1624.63C2378.02 1618.54 2384.75 1613.78 2392.47 1610.74C2400.2 1607.7 2408.7 1606.48 2417.26 1607.18L2417.14 1610.32C2409.13 1609.66 2401.17 1610.81 2393.94 1613.65C2386.7 1616.5 2380.41 1620.96 2375.58 1626.65C2370.76 1632.35 2367.55 1639.12 2366.22 1646.38C2364.9 1653.64 2365.5 1661.19 2367.97 1668.38C2370.45 1675.57 2374.72 1682.19 2380.44 1687.68C2386.15 1693.16 2393.14 1697.36 2400.8 1699.91C2408.47 1702.46 2416.58 1703.29 2424.46 1702.33C2432.34 1701.36 2439.76 1698.63 2446.08 1694.37L2448.16 1696.95Z" fill="white"/>
<path d="M2324.47 1622.03C2327.39 1611.68 2333.24 1602.22 2341.51 1594.45C2349.79 1586.68 2360.24 1580.83 2372 1577.4C2383.75 1573.96 2396.46 1573.05 2409.04 1574.73C2421.61 1576.41 2433.7 1580.64 2444.26 1587.05C2454.82 1593.47 2463.55 1601.88 2469.71 1611.58C2475.86 1621.28 2479.27 1631.98 2479.63 1642.77C2479.99 1653.56 2477.31 1664.13 2471.79 1673.58C2466.28 1683.02 2458.1 1691.07 2447.96 1697.04L2445.84 1694.52C2455.53 1688.82 2463.33 1681.13 2468.6 1672.11C2473.86 1663.09 2476.43 1653 2476.09 1642.69C2475.74 1632.39 2472.49 1622.17 2466.61 1612.91C2460.73 1603.65 2452.39 1595.61 2442.31 1589.49C2432.22 1583.36 2420.68 1579.33 2408.67 1577.72C2396.66 1576.12 2384.53 1576.99 2373.31 1580.27C2362.08 1583.55 2352.1 1589.13 2344.2 1596.55C2336.29 1603.97 2330.71 1613.01 2327.92 1622.89L2324.47 1622.03Z" fill="white"/>
<path d="M2328.2 1621.88C2324.64 1635.61 2316.96 1648.18 2305.94 1658.29C2294.92 1668.4 2280.98 1675.68 2265.55 1679.37C2250.13 1683.07 2233.79 1683.04 2218.23 1679.3C2202.66 1675.56 2188.45 1668.24 2177.06 1658.09L2179.57 1655.91C2190.51 1665.66 2204.16 1672.69 2219.1 1676.29C2234.05 1679.88 2249.75 1679.9 2264.56 1676.36C2279.38 1672.81 2292.77 1665.81 2303.35 1656.1C2313.94 1646.39 2321.32 1634.32 2324.74 1621.14L2328.2 1621.88Z" fill="white"/>
<path d="M2059.03 1656.72C2065.98 1649.05 2074.65 1642.98 2084.54 1638.84C2094.42 1634.71 2105.33 1632.59 2116.63 1632.62C2127.94 1632.64 2139.42 1634.81 2150.43 1638.99C2161.43 1643.17 2171.75 1649.28 2180.78 1656.98L2178.62 1659.36C2169.96 1651.97 2160.06 1646.11 2149.51 1642.1C2138.95 1638.09 2127.93 1636.01 2117.09 1635.99C2106.24 1635.97 2095.78 1637.99 2086.3 1641.96C2076.82 1645.93 2068.5 1651.75 2061.83 1659.11L2059.03 1656.72Z" fill="white"/>
<path d="M2062.93 1657.87C2052.21 1670.21 2037.23 1678.57 2020.09 1681.78C2002.94 1685 1984.47 1682.91 1967.23 1675.81L1968.28 1672.75C1984.81 1679.56 2002.53 1681.56 2018.98 1678.48C2035.43 1675.4 2049.79 1667.38 2060.08 1655.55L2062.93 1657.87Z" fill="white"/>
<path d="M2416.85 1607.13C2422.24 1607.39 2427.47 1608.77 2432.13 1611.15C2436.78 1613.54 2440.7 1616.86 2443.58 1620.83C2446.45 1624.8 2448.18 1629.31 2448.62 1633.97C2449.06 1638.63 2448.2 1643.31 2446.11 1647.61C2444.03 1651.9 2440.77 1655.7 2436.63 1658.66C2432.48 1661.63 2427.57 1663.68 2422.3 1664.64C2417.04 1665.6 2411.57 1665.44 2406.38 1664.18C2401.18 1662.92 2396.4 1660.59 2392.45 1657.4L2394.94 1655.08C2398.46 1657.92 2402.71 1660 2407.34 1661.12C2411.97 1662.24 2416.84 1662.38 2421.53 1661.52C2426.22 1660.67 2430.59 1658.84 2434.29 1656.2C2437.98 1653.56 2440.88 1650.18 2442.73 1646.36C2444.59 1642.53 2445.36 1638.36 2444.97 1634.21C2444.57 1630.06 2443.03 1626.04 2440.47 1622.5C2437.92 1618.97 2434.42 1616.01 2430.28 1613.89C2426.13 1611.77 2421.47 1610.54 2416.67 1610.31L2416.85 1607.13Z" fill="white"/>
<path d="M2449.52 1693.86C2442.77 1698.41 2434.85 1701.33 2426.43 1702.36C2418.01 1703.39 2409.34 1702.51 2401.16 1699.78C2392.97 1697.06 2385.51 1692.57 2379.41 1686.71C2373.3 1680.85 2368.74 1673.78 2366.09 1666.1C2363.45 1658.42 2362.81 1650.36 2364.22 1642.6C2365.64 1634.85 2369.07 1627.62 2374.22 1621.53C2379.37 1615.45 2386.1 1610.68 2393.83 1607.65C2401.55 1604.61 2410.05 1603.39 2418.61 1604.08L2418.49 1607.22C2410.48 1606.57 2402.52 1607.72 2395.29 1610.56C2388.05 1613.4 2381.76 1617.86 2376.93 1623.56C2372.11 1629.26 2368.9 1636.03 2367.57 1643.29C2366.25 1650.55 2366.85 1658.1 2369.32 1665.29C2371.8 1672.47 2376.07 1679.09 2381.79 1684.58C2387.5 1690.07 2394.49 1694.27 2402.15 1696.82C2409.82 1699.37 2417.93 1700.2 2425.81 1699.23C2433.69 1698.27 2441.11 1695.54 2447.43 1691.28L2449.52 1693.86Z" fill="#656484"/>
<path d="M2325.82 1618.94C2328.74 1608.59 2334.59 1599.13 2342.86 1591.36C2351.14 1583.59 2361.6 1577.74 2373.35 1574.3C2385.1 1570.87 2397.81 1569.96 2410.39 1571.64C2422.97 1573.32 2435.05 1577.55 2445.61 1583.96C2456.17 1590.37 2464.9 1598.79 2471.06 1608.49C2477.22 1618.19 2480.62 1628.88 2480.98 1639.68C2481.35 1650.47 2478.66 1661.04 2473.14 1670.48C2467.63 1679.93 2459.45 1687.98 2449.31 1693.95L2447.19 1691.42C2456.88 1685.72 2464.69 1678.04 2469.95 1669.02C2475.22 1660 2477.78 1649.91 2477.44 1639.6C2477.09 1629.3 2473.84 1619.08 2467.96 1609.82C2462.08 1600.56 2453.74 1592.52 2443.66 1586.4C2433.57 1580.27 2422.04 1576.24 2410.02 1574.63C2398.01 1573.03 2385.88 1573.9 2374.66 1577.18C2363.43 1580.45 2353.45 1586.04 2345.55 1593.46C2337.65 1600.88 2332.06 1609.92 2329.27 1619.8L2325.82 1618.94Z" fill="#656484"/>
<path d="M2329.55 1618.79C2325.99 1632.52 2318.31 1645.09 2307.29 1655.2C2296.27 1665.31 2282.33 1672.59 2266.9 1676.28C2251.48 1679.98 2235.14 1679.95 2219.58 1676.21C2204.02 1672.47 2189.8 1665.14 2178.41 1655L2180.92 1652.82C2191.86 1662.57 2205.51 1669.6 2220.46 1673.19C2235.4 1676.79 2251.1 1676.81 2265.91 1673.26C2280.73 1669.71 2294.12 1662.72 2304.71 1653.01C2315.29 1643.3 2322.67 1631.23 2326.09 1618.04L2329.55 1618.79Z" fill="#656484"/>
<path d="M2060.38 1653.62C2067.34 1645.96 2076 1639.89 2085.89 1635.75C2095.77 1631.62 2106.68 1629.5 2117.99 1629.53C2129.29 1629.55 2140.78 1631.71 2151.78 1635.89C2162.79 1640.08 2173.1 1646.19 2182.13 1653.89L2179.97 1656.27C2171.31 1648.88 2161.41 1643.02 2150.86 1639.01C2140.3 1635 2129.29 1632.92 2118.44 1632.9C2107.6 1632.87 2097.13 1634.9 2087.65 1638.87C2078.17 1642.84 2069.85 1648.66 2063.18 1656.01L2060.38 1653.62Z" fill="#656484"/>
<path d="M2064.28 1654.78C2053.56 1667.12 2038.58 1675.48 2021.44 1678.69C2004.29 1681.91 1985.82 1679.82 1968.58 1672.72L1969.63 1669.66C1986.17 1676.47 2003.88 1678.47 2020.33 1675.39C2036.78 1672.31 2051.14 1664.29 2061.43 1652.45L2064.28 1654.78Z" fill="#656484"/>
<path d="M2418.21 1604.04C2423.59 1604.3 2428.83 1605.68 2433.48 1608.06C2438.13 1610.44 2442.06 1613.76 2444.93 1617.73C2447.8 1621.71 2449.53 1626.21 2449.97 1630.87C2450.41 1635.54 2449.55 1640.21 2447.46 1644.51C2445.38 1648.81 2442.12 1652.6 2437.98 1655.57C2433.83 1658.53 2428.92 1660.58 2423.65 1661.54C2418.39 1662.51 2412.93 1662.35 2407.73 1661.09C2402.53 1659.83 2397.75 1657.5 2393.8 1654.31L2396.29 1651.98C2399.81 1654.83 2404.07 1656.9 2408.69 1658.03C2413.32 1659.15 2418.19 1659.29 2422.88 1658.43C2427.57 1657.58 2431.95 1655.75 2435.64 1653.11C2439.33 1650.47 2442.23 1647.09 2444.09 1643.26C2445.95 1639.43 2446.71 1635.27 2446.32 1631.12C2445.92 1626.96 2444.38 1622.95 2441.83 1619.41C2439.27 1615.88 2435.77 1612.92 2431.63 1610.8C2427.49 1608.67 2422.82 1607.44 2418.03 1607.22L2418.21 1604.04Z" fill="#656484"/>
<path d="M2449.52 1691.81C2442.77 1696.36 2434.85 1699.28 2426.43 1700.31C2418.01 1701.34 2409.34 1700.46 2401.16 1697.73C2392.97 1695.01 2385.51 1690.52 2379.41 1684.66C2373.3 1678.8 2368.74 1671.73 2366.09 1664.05C2363.45 1656.37 2362.81 1648.31 2364.22 1640.55C2365.64 1632.8 2369.07 1625.57 2374.22 1619.48C2379.37 1613.4 2386.1 1608.63 2393.83 1605.6C2401.55 1602.56 2410.05 1601.34 2418.61 1602.03L2418.49 1605.17C2410.48 1604.52 2402.52 1605.67 2395.29 1608.51C2388.05 1611.35 2381.76 1615.81 2376.93 1621.51C2372.11 1627.21 2368.9 1633.97 2367.57 1641.24C2366.25 1648.5 2366.85 1656.05 2369.32 1663.23C2371.8 1670.42 2376.07 1677.04 2381.79 1682.53C2387.5 1688.02 2394.49 1692.22 2402.15 1694.77C2409.82 1697.32 2417.93 1698.15 2425.81 1697.18C2433.69 1696.22 2441.11 1693.49 2447.43 1689.23L2449.52 1691.81Z" fill="#9897C6"/>
<path d="M2325.82 1616.89C2328.74 1606.54 2334.59 1597.08 2342.86 1589.31C2351.14 1581.54 2361.6 1575.69 2373.35 1572.25C2385.1 1568.82 2397.81 1567.91 2410.39 1569.59C2422.97 1571.27 2435.05 1575.5 2445.61 1581.91C2456.17 1588.32 2464.9 1596.74 2471.06 1606.44C2477.22 1616.14 2480.62 1626.83 2480.98 1637.63C2481.35 1648.42 2478.66 1658.99 2473.14 1668.43C2467.63 1677.88 2459.45 1685.93 2449.31 1691.9L2447.19 1689.37C2456.88 1683.67 2464.69 1675.99 2469.95 1666.97C2475.22 1657.95 2477.78 1647.86 2477.44 1637.55C2477.09 1627.24 2473.84 1617.03 2467.96 1607.77C2462.08 1598.51 2453.74 1590.47 2443.66 1584.35C2433.57 1578.22 2422.04 1574.18 2410.02 1572.58C2398.01 1570.97 2385.88 1571.85 2374.66 1575.13C2363.43 1578.4 2353.45 1583.99 2345.55 1591.41C2337.65 1598.83 2332.06 1607.86 2329.27 1617.75L2325.82 1616.89Z" fill="#9897C6"/>
<path d="M2329.55 1616.74C2325.99 1630.47 2318.31 1643.04 2307.29 1653.15C2296.27 1663.25 2282.33 1670.54 2266.9 1674.23C2251.48 1677.93 2235.14 1677.9 2219.58 1674.16C2204.02 1670.42 2189.8 1663.09 2178.41 1652.95L2180.92 1650.77C2191.86 1660.51 2205.51 1667.55 2220.46 1671.14C2235.4 1674.74 2251.1 1674.76 2265.91 1671.21C2280.73 1667.66 2294.12 1660.67 2304.71 1650.96C2315.29 1641.25 2322.67 1629.18 2326.09 1615.99L2329.55 1616.74Z" fill="#9897C6"/>
<path d="M2060.38 1651.57C2067.34 1643.91 2076 1637.84 2085.89 1633.7C2095.77 1629.57 2106.68 1627.45 2117.99 1627.47C2129.29 1627.5 2140.78 1629.66 2151.78 1633.84C2162.79 1638.02 2173.1 1644.14 2182.13 1651.84L2179.97 1654.22C2171.31 1646.83 2161.41 1640.97 2150.86 1636.96C2140.3 1632.95 2129.29 1630.87 2118.44 1630.85C2107.6 1630.82 2097.13 1632.85 2087.65 1636.82C2078.17 1640.78 2069.85 1646.61 2063.18 1653.96L2060.38 1651.57Z" fill="#9897C6"/>
<path d="M2064.28 1652.73C2053.56 1665.07 2038.58 1673.43 2021.44 1676.64C2004.29 1679.85 1985.82 1677.77 1968.58 1670.67L1969.63 1667.61C1986.17 1674.42 2003.88 1676.42 2020.33 1673.34C2036.78 1670.26 2051.14 1662.24 2061.43 1650.4L2064.28 1652.73Z" fill="#9897C6"/>
<path d="M2418.21 1601.99C2423.59 1602.25 2428.83 1603.63 2433.48 1606.01C2438.13 1608.39 2442.06 1611.71 2444.93 1615.68C2447.8 1619.65 2449.53 1624.16 2449.97 1628.82C2450.41 1633.49 2449.55 1638.16 2447.46 1642.46C2445.38 1646.76 2442.12 1650.55 2437.98 1653.52C2433.83 1656.48 2428.92 1658.53 2423.65 1659.49C2418.39 1660.45 2412.93 1660.3 2407.73 1659.04C2402.53 1657.78 2397.75 1655.45 2393.8 1652.25L2396.29 1649.93C2399.81 1652.78 2404.07 1654.85 2408.69 1655.98C2413.32 1657.1 2418.19 1657.24 2422.88 1656.38C2427.57 1655.53 2431.95 1653.7 2435.64 1651.06C2439.33 1648.42 2442.23 1645.04 2444.09 1641.21C2445.95 1637.38 2446.71 1633.22 2446.32 1629.07C2445.92 1624.91 2444.38 1620.9 2441.83 1617.36C2439.27 1613.82 2435.77 1610.87 2431.63 1608.75C2427.49 1606.62 2422.82 1605.39 2418.03 1605.16L2418.21 1601.99Z" fill="#9897C6"/>
<path d="M2438.01 1453.18C2431.26 1457.74 2423.34 1460.65 2414.92 1461.68C2406.5 1462.71 2397.83 1461.83 2389.65 1459.1C2381.46 1456.38 2374 1451.9 2367.9 1446.03C2361.79 1440.17 2357.23 1433.1 2354.58 1425.42C2351.94 1417.74 2351.3 1409.68 2352.71 1401.92C2354.13 1394.17 2357.56 1386.94 2362.71 1380.85C2367.86 1374.77 2374.59 1370.01 2382.32 1366.97C2390.04 1363.93 2398.54 1362.71 2407.1 1363.4L2406.98 1366.55C2398.97 1365.89 2391.01 1367.04 2383.78 1369.88C2376.54 1372.73 2370.25 1377.18 2365.42 1382.88C2360.6 1388.58 2357.39 1395.35 2356.06 1402.61C2354.74 1409.87 2355.34 1417.42 2357.81 1424.61C2360.29 1431.79 2364.57 1438.41 2370.28 1443.9C2375.99 1449.39 2382.98 1453.59 2390.64 1456.14C2398.31 1458.69 2406.42 1459.52 2414.3 1458.56C2422.19 1457.59 2429.6 1454.86 2435.92 1450.6L2438.01 1453.18Z" fill="white"/>
<path d="M2314.31 1378.26C2317.23 1367.91 2323.08 1358.45 2331.35 1350.68C2339.63 1342.91 2350.09 1337.06 2361.84 1333.63C2373.59 1330.19 2386.3 1329.28 2398.88 1330.96C2411.46 1332.64 2423.54 1336.87 2434.1 1343.28C2444.66 1349.7 2453.39 1358.11 2459.55 1367.81C2465.71 1377.51 2469.11 1388.21 2469.47 1399C2469.84 1409.79 2467.15 1420.36 2461.63 1429.8C2456.12 1439.25 2447.95 1447.3 2437.8 1453.27L2435.68 1450.74C2445.37 1445.05 2453.18 1437.36 2458.44 1428.34C2463.71 1419.32 2466.27 1409.23 2465.93 1398.92C2465.58 1388.62 2462.33 1378.4 2456.45 1369.14C2450.57 1359.88 2442.23 1351.84 2432.15 1345.72C2422.06 1339.59 2410.53 1335.56 2398.51 1333.95C2386.5 1332.35 2374.37 1333.22 2363.15 1336.5C2351.92 1339.78 2341.94 1345.36 2334.04 1352.78C2326.14 1360.2 2320.55 1369.24 2317.76 1379.12L2314.31 1378.26Z" fill="white"/>
<path d="M2318.04 1378.11C2314.48 1391.84 2306.8 1404.41 2295.78 1414.52C2284.76 1424.63 2270.82 1431.91 2255.39 1435.6C2239.97 1439.3 2223.63 1439.27 2208.07 1435.53C2192.51 1431.79 2178.29 1424.46 2166.9 1414.32L2169.41 1412.14C2180.35 1421.89 2194 1428.92 2208.95 1432.51C2223.89 1436.11 2239.59 1436.13 2254.4 1432.58C2269.22 1429.04 2282.61 1422.04 2293.2 1412.33C2303.78 1402.62 2311.16 1390.55 2314.58 1377.36L2318.04 1378.11Z" fill="white"/>
<path d="M2048.87 1412.95C2055.83 1405.28 2064.49 1399.21 2074.38 1395.07C2084.26 1390.94 2095.17 1388.82 2106.48 1388.85C2117.78 1388.87 2129.27 1391.04 2140.27 1395.22C2151.28 1399.4 2161.59 1405.51 2170.62 1413.21L2168.46 1415.59C2159.8 1408.2 2149.91 1402.34 2139.35 1398.33C2128.79 1394.32 2117.78 1392.24 2106.93 1392.22C2096.09 1392.19 2085.62 1394.22 2076.14 1398.19C2066.66 1402.16 2058.34 1407.98 2051.67 1415.33L2048.87 1412.95Z" fill="white"/>
<path d="M2052.77 1414.1C2042.05 1426.44 2027.07 1434.8 2009.93 1438.01C1992.78 1441.23 1974.31 1439.14 1957.07 1432.04L1958.12 1428.98C1974.66 1435.79 1992.37 1437.79 2008.82 1434.71C2025.27 1431.63 2039.63 1423.61 2049.92 1411.77L2052.77 1414.1Z" fill="white"/>
<path d="M2406.7 1363.36C2412.08 1363.62 2417.32 1365 2421.97 1367.38C2426.62 1369.77 2430.55 1373.08 2433.42 1377.06C2436.29 1381.03 2438.02 1385.53 2438.46 1390.2C2438.9 1394.86 2438.04 1399.54 2435.95 1403.83C2433.87 1408.13 2430.61 1411.93 2426.47 1414.89C2422.32 1417.85 2417.41 1419.9 2412.14 1420.87C2406.88 1421.83 2401.42 1421.67 2396.22 1420.41C2391.02 1419.15 2386.24 1416.82 2382.29 1413.63L2384.78 1411.31C2388.3 1414.15 2392.56 1416.22 2397.18 1417.35C2401.81 1418.47 2406.68 1418.61 2411.37 1417.75C2416.06 1416.9 2420.44 1415.07 2424.13 1412.43C2427.82 1409.79 2430.72 1406.41 2432.58 1402.58C2434.44 1398.76 2435.2 1394.59 2434.81 1390.44C2434.41 1386.28 2432.87 1382.27 2430.32 1378.73C2427.76 1375.2 2424.26 1372.24 2420.12 1370.12C2415.98 1367.99 2411.31 1366.77 2406.52 1366.54L2406.7 1363.36Z" fill="white"/>
<path d="M2439.36 1450.09C2432.61 1454.64 2424.69 1457.56 2416.27 1458.59C2407.86 1459.62 2399.19 1458.74 2391 1456.01C2382.82 1453.29 2375.35 1448.8 2369.25 1442.94C2363.15 1437.08 2358.58 1430.01 2355.94 1422.33C2353.29 1414.65 2352.65 1406.59 2354.07 1398.83C2355.48 1391.07 2358.91 1383.85 2364.06 1377.76C2369.22 1371.68 2375.94 1366.91 2383.67 1363.88C2391.39 1360.84 2399.9 1359.62 2408.45 1360.31L2408.33 1363.45C2400.32 1362.8 2392.36 1363.95 2385.13 1366.79C2377.89 1369.63 2371.6 1374.09 2366.77 1379.79C2361.95 1385.49 2358.74 1392.25 2357.42 1399.52C2356.09 1406.78 2356.69 1414.33 2359.17 1421.51C2361.64 1428.7 2365.92 1435.32 2371.63 1440.81C2377.35 1446.3 2384.33 1450.5 2391.99 1453.05C2399.66 1455.6 2407.77 1456.43 2415.66 1455.46C2423.54 1454.5 2430.95 1451.77 2437.27 1447.51L2439.36 1450.09Z" fill="#656484"/>
<path d="M2315.66 1375.17C2318.58 1364.82 2324.43 1355.36 2332.71 1347.59C2340.98 1339.81 2351.44 1333.97 2363.19 1330.53C2374.95 1327.1 2387.65 1326.19 2400.23 1327.87C2412.81 1329.55 2424.89 1333.77 2435.45 1340.19C2446.01 1346.6 2454.74 1355.02 2460.9 1364.72C2467.06 1374.41 2470.46 1385.11 2470.82 1395.91C2471.19 1406.7 2468.5 1417.27 2462.99 1426.71C2457.47 1436.16 2449.3 1444.21 2439.15 1450.18L2437.03 1447.65C2446.72 1441.95 2454.53 1434.27 2459.79 1425.25C2465.06 1416.23 2467.63 1406.13 2467.28 1395.83C2466.93 1385.52 2463.68 1375.31 2457.8 1366.05C2451.92 1356.78 2443.58 1348.75 2433.5 1342.63C2423.41 1336.5 2411.88 1332.46 2399.87 1330.86C2387.85 1329.25 2375.72 1330.13 2364.5 1333.4C2353.27 1336.68 2343.29 1342.27 2335.39 1349.69C2327.49 1357.11 2321.9 1366.14 2319.11 1376.03L2315.66 1375.17Z" fill="#656484"/>
<path d="M2319.39 1375.02C2315.84 1388.75 2308.15 1401.32 2297.13 1411.42C2286.12 1421.53 2272.17 1428.81 2256.75 1432.51C2241.32 1436.21 2224.98 1436.18 2209.42 1432.44C2193.86 1428.7 2179.64 1421.37 2168.25 1411.23L2170.76 1409.05C2181.7 1418.79 2195.35 1425.83 2210.3 1429.42C2225.24 1433.02 2240.94 1433.04 2255.76 1429.49C2270.57 1425.94 2283.97 1418.95 2294.55 1409.24C2305.13 1399.53 2312.51 1387.46 2315.93 1374.27L2319.39 1375.02Z" fill="#656484"/>
<path d="M2050.22 1409.85C2057.18 1402.19 2065.85 1396.11 2075.73 1391.98C2085.62 1387.84 2096.52 1385.73 2107.83 1385.75C2119.13 1385.78 2130.62 1387.94 2141.62 1392.12C2152.63 1396.3 2162.94 1402.42 2171.97 1410.12L2169.81 1412.5C2161.15 1405.11 2151.26 1399.25 2140.7 1395.24C2130.14 1391.23 2119.13 1389.15 2108.28 1389.13C2097.44 1389.1 2086.98 1391.13 2077.49 1395.1C2068.01 1399.06 2059.7 1404.89 2053.02 1412.24L2050.22 1409.85Z" fill="#656484"/>
<path d="M2054.13 1411.01C2043.4 1423.35 2028.43 1431.71 2011.28 1434.92C1994.13 1438.13 1975.66 1436.05 1958.42 1428.95L1959.47 1425.89C1976.01 1432.7 1993.73 1434.7 2010.17 1431.62C2026.62 1428.54 2040.98 1420.52 2051.27 1408.68L2054.13 1411.01Z" fill="#656484"/>
<path d="M2408.05 1360.27C2413.43 1360.53 2418.67 1361.91 2423.32 1364.29C2427.97 1366.67 2431.9 1369.99 2434.77 1373.96C2437.64 1377.93 2439.37 1382.44 2439.81 1387.1C2440.25 1391.77 2439.39 1396.44 2437.31 1400.74C2435.22 1405.04 2431.97 1408.83 2427.82 1411.8C2423.68 1414.76 2418.76 1416.81 2413.5 1417.77C2408.23 1418.73 2402.77 1418.58 2397.57 1417.32C2392.37 1416.06 2387.59 1413.73 2383.64 1410.53L2386.13 1408.21C2389.65 1411.06 2393.91 1413.13 2398.54 1414.25C2403.17 1415.38 2408.03 1415.52 2412.72 1414.66C2417.41 1413.81 2421.79 1411.98 2425.48 1409.34C2429.17 1406.7 2432.07 1403.32 2433.93 1399.49C2435.79 1395.66 2436.55 1391.5 2436.16 1387.34C2435.77 1383.19 2434.23 1379.18 2431.67 1375.64C2429.11 1372.1 2425.61 1369.15 2421.47 1367.03C2417.33 1364.9 2412.66 1363.67 2407.87 1363.44L2408.05 1360.27Z" fill="#656484"/>
<path d="M2439.36 1448.04C2432.61 1452.59 2424.69 1455.51 2416.27 1456.54C2407.86 1457.57 2399.19 1456.68 2391 1453.96C2382.82 1451.24 2375.35 1446.75 2369.25 1440.89C2363.15 1435.03 2358.58 1427.96 2355.94 1420.28C2353.29 1412.6 2352.65 1404.54 2354.07 1396.78C2355.48 1389.02 2358.91 1381.8 2364.06 1375.71C2369.22 1369.63 2375.94 1364.86 2383.67 1361.82C2391.39 1358.79 2399.9 1357.56 2408.45 1358.26L2408.33 1361.4C2400.32 1360.75 2392.36 1361.89 2385.13 1364.74C2377.89 1367.58 2371.6 1372.04 2366.77 1377.74C2361.95 1383.44 2358.74 1390.2 2357.42 1397.47C2356.09 1404.73 2356.69 1412.27 2359.17 1419.46C2361.64 1426.65 2365.92 1433.27 2371.63 1438.76C2377.35 1444.25 2384.33 1448.45 2391.99 1451C2399.66 1453.55 2407.77 1454.38 2415.66 1453.41C2423.54 1452.45 2430.95 1449.72 2437.27 1445.46L2439.36 1448.04Z" fill="#9897C6"/>
<path d="M2315.66 1373.12C2318.58 1362.77 2324.43 1353.31 2332.71 1345.53C2340.98 1337.76 2351.44 1331.91 2363.19 1328.48C2374.95 1325.05 2387.65 1324.14 2400.23 1325.82C2412.81 1327.5 2424.89 1331.72 2435.45 1338.14C2446.01 1344.55 2454.74 1352.97 2460.9 1362.67C2467.06 1372.36 2470.46 1383.06 2470.82 1393.86C2471.19 1404.65 2468.5 1415.21 2462.99 1424.66C2457.47 1434.11 2449.3 1442.16 2439.15 1448.13L2437.03 1445.6C2446.72 1439.9 2454.53 1432.22 2459.79 1423.2C2465.06 1414.17 2467.63 1404.08 2467.28 1393.78C2466.93 1383.47 2463.68 1373.26 2457.8 1364C2451.92 1354.73 2443.58 1346.7 2433.5 1340.57C2423.41 1334.45 2411.88 1330.41 2399.87 1328.81C2387.85 1327.2 2375.72 1328.08 2364.5 1331.35C2353.27 1334.63 2343.29 1340.22 2335.39 1347.64C2327.49 1355.06 2321.9 1364.09 2319.11 1373.98L2315.66 1373.12Z" fill="#9897C6"/>
<path d="M2319.39 1372.97C2315.84 1386.69 2308.15 1399.26 2297.13 1409.37C2286.12 1419.48 2272.17 1426.76 2256.75 1430.46C2241.32 1434.15 2224.98 1434.13 2209.42 1430.39C2193.86 1426.64 2179.64 1419.32 2168.25 1409.18L2170.76 1407C2181.7 1416.74 2195.35 1423.78 2210.3 1427.37C2225.24 1430.97 2240.94 1430.99 2255.76 1427.44C2270.57 1423.89 2283.97 1416.9 2294.55 1407.19C2305.13 1397.48 2312.51 1385.4 2315.93 1372.22L2319.39 1372.97Z" fill="#9897C6"/>
<path d="M2050.22 1407.8C2057.18 1400.14 2065.85 1394.06 2075.73 1389.93C2085.62 1385.79 2096.52 1383.68 2107.83 1383.7C2119.13 1383.73 2130.62 1385.89 2141.62 1390.07C2152.63 1394.25 2162.94 1400.37 2171.97 1408.07L2169.81 1410.45C2161.15 1403.06 2151.26 1397.19 2140.7 1393.18C2130.14 1389.17 2119.13 1387.1 2108.28 1387.07C2097.44 1387.05 2086.98 1389.08 2077.49 1393.05C2068.01 1397.01 2059.7 1402.84 2053.02 1410.19L2050.22 1407.8Z" fill="#9897C6"/>
<path d="M2054.13 1408.96C2043.4 1421.3 2028.43 1429.66 2011.28 1432.87C1994.13 1436.08 1975.66 1434 1958.42 1426.9L1959.47 1423.84C1976.01 1430.65 1993.73 1432.65 2010.17 1429.57C2026.62 1426.48 2040.98 1418.47 2051.27 1406.63L2054.13 1408.96Z" fill="#9897C6"/>
<path d="M2408.05 1358.22C2413.43 1358.48 2418.67 1359.85 2423.32 1362.24C2427.97 1364.62 2431.9 1367.94 2434.77 1371.91C2437.64 1375.88 2439.37 1380.39 2439.81 1385.05C2440.25 1389.71 2439.39 1394.39 2437.31 1398.69C2435.22 1402.99 2431.97 1406.78 2427.82 1409.75C2423.68 1412.71 2418.76 1414.76 2413.5 1415.72C2408.23 1416.68 2402.77 1416.53 2397.57 1415.27C2392.37 1414.01 2387.59 1411.68 2383.64 1408.48L2386.13 1406.16C2389.65 1409.01 2393.91 1411.08 2398.54 1412.2C2403.17 1413.33 2408.03 1413.47 2412.72 1412.61C2417.41 1411.75 2421.79 1409.93 2425.48 1407.29C2429.17 1404.65 2432.07 1401.27 2433.93 1397.44C2435.79 1393.61 2436.55 1389.45 2436.16 1385.29C2435.77 1381.14 2434.23 1377.13 2431.67 1373.59C2429.11 1370.05 2425.61 1367.1 2421.47 1364.97C2417.33 1362.85 2412.66 1361.62 2407.87 1361.39L2408.05 1358.22Z" fill="#9897C6"/>
<path d="M529.449 1870.34C528.942 1869.14 527.533 1868.26 525.154 1867.82C522.799 1867.39 519.633 1867.42 515.862 1867.9C508.326 1868.88 498.49 1871.65 488.15 1876.02C477.81 1880.38 468.958 1885.49 463.004 1890.21C460.024 1892.57 457.793 1894.82 456.461 1896.81C455.115 1898.81 454.762 1900.44 455.269 1901.64C455.776 1902.84 457.185 1903.72 459.563 1904.16C461.918 1904.59 465.084 1904.56 468.856 1904.08C476.391 1903.1 486.227 1900.33 496.567 1895.96C506.907 1891.6 515.76 1886.49 521.714 1881.77C524.694 1879.41 526.924 1877.16 528.257 1875.18C529.603 1873.17 529.955 1871.54 529.449 1870.34Z" fill="white" stroke="black"/>
<path d="M608.849 1901.55C609.354 1900.34 608.999 1898.72 607.65 1896.71C606.315 1894.73 604.081 1892.48 601.098 1890.12C595.138 1885.41 586.279 1880.32 575.933 1875.97C565.587 1871.62 555.748 1868.85 548.211 1867.89C544.439 1867.41 541.273 1867.38 538.918 1867.82C536.54 1868.26 535.132 1869.14 534.627 1870.35C534.122 1871.55 534.477 1873.17 535.826 1875.18C537.161 1877.17 539.394 1879.41 542.377 1881.77C548.338 1886.48 557.197 1891.58 567.543 1895.93C577.888 1900.28 587.728 1903.04 595.265 1904C599.037 1904.48 602.203 1904.51 604.557 1904.07C606.936 1903.63 608.344 1902.75 608.849 1901.55Z" fill="white" stroke="black"/>
<circle cx="583.942" cy="1793.75" r="18.7704" fill="black"/>
<circle cx="580.726" cy="1798.04" r="8.04445" fill="white"/>
<circle cx="476.684" cy="1798.04" r="18.7704" fill="black"/>
<circle cx="472.394" cy="1802.33" r="8.04445" fill="white"/>
<path d="M641.093 2236.13L606.856 2267.02L569.983 2239.32L568.706 2191.61L637.002 2190.35L641.093 2236.13Z" fill="white" stroke="black"/>
<line x1="568.653" y1="2198.66" x2="637.316" y2="2197.13" stroke="black"/>
<ellipse cx="531.387" cy="1684.34" rx="226.853" ry="32.7141" fill="#277DA1"/>
<path d="M392.484 1567.92C392.484 1534.02 425.514 1509.94 457.791 1520.32L514.223 1538.47C523.997 1541.61 534.501 1541.67 544.31 1538.63L606.578 1519.37C638.747 1509.41 671.358 1533.46 671.358 1567.13V1654.19C671.358 1681.8 648.973 1704.19 621.358 1704.19H442.484C414.87 1704.19 392.484 1681.8 392.484 1654.19V1567.92Z" fill="#277DA1"/>
<circle cx="529.776" cy="2138.59" r="3.21778" fill="black"/>
<circle cx="529.776" cy="2200.8" r="3.21778" fill="black"/>
<circle cx="529.776" cy="2261.93" r="3.21778" fill="black"/>
<circle cx="529.776" cy="2325.22" r="3.21778" fill="black"/>
<circle cx="529.776" cy="2387.43" r="3.21778" fill="black"/>
<circle cx="529.776" cy="2449.64" r="3.21778" fill="black"/>
<circle cx="529.776" cy="2511.85" r="3.21778" fill="black"/>
<circle cx="529.776" cy="2574.06" r="3.21778" fill="black"/>
</svg>
