<svg width="6627" height="6133" viewBox="0 0 6627 6133" fill="none" xmlns="http://www.w3.org/2000/svg">
<ellipse cx="3537.37" cy="5035" rx="3089" ry="1098" fill="url(#paint0_diamond)"/>
<path d="M6153.37 3384.96C6153.37 4073.06 5795.74 4368.11 5483.72 4835.02C5140.83 5348.13 4262.99 5270.4 3719.94 5270.4C3121.12 5270.4 2357.18 5442.86 2013.29 4835.02C1761.54 4390.04 1425.37 3633.22 1425.37 3022.79C1425.37 2773.43 1746.23 2338.96 1858.58 2124.81C2068.69 1724.29 2056.36 1204.29 2274.33 896.612C2427.69 680.124 2906.09 670.328 3091.55 436.438C3317.91 150.97 3432.34 0 3719.94 0C4006.31 0 4303.34 476.175 4568.9 764.525C4806.93 1022.98 5321.65 1311.32 5483.72 1553.85C5636.37 1782.28 5774.36 2214.64 5891.54 2442.24C6013.87 2679.86 6153.37 3033.51 6153.37 3384.96Z" fill="url(#paint1_radial)"/>
<path d="M5361.37 4078.33C5361.37 4441.42 5123.63 4597.11 4916.21 4843.49C4688.27 5114.25 4104.72 5073.23 3743.72 5073.23C3345.64 5073.23 2837.8 5164.24 2609.2 4843.49C2441.84 4608.69 2218.37 4209.33 2218.37 3887.22C2218.37 3755.64 2431.66 3526.38 2506.35 3413.37C2646.02 3202.03 2637.83 2927.64 2782.73 2765.28C2884.68 2651.05 3202.7 2645.88 3325.99 2522.46C3476.46 2371.82 3552.53 2292.16 3743.72 2292.16C3934.08 2292.16 4131.54 2543.43 4308.07 2695.58C4466.31 2831.96 4808.47 2984.12 4916.21 3112.09C5017.69 3232.63 5109.42 3460.78 5187.31 3580.88C5268.63 3706.26 5361.37 3892.87 5361.37 4078.33Z" fill="url(#paint2_radial)"/>
<rect x="3863.37" y="3656" width="465" height="523" fill="#0B1110" fill-opacity="0.29"/>
<path d="M3599.77 3486.38C3610.21 3462.29 3644.37 3462.29 3654.82 3486.38L4074.54 4454.29C4083.13 4474.1 4068.61 4496.23 4047.02 4496.23H3207.57C3185.97 4496.23 3171.45 4474.1 3180.04 4454.29L3599.77 3486.38Z" fill="url(#paint3_linear)"/>
<ellipse cx="3622.62" cy="3373.97" rx="222.549" ry="216.324" fill="#746F71"/>
<path d="M4141.08 3332.88C4157.37 3348.63 4158.06 3374.53 4142.63 3391.13L3765.5 3796.88C3733.25 3831.58 3675.31 3806.14 3679.03 3758.92L3684.59 3688.23C3685.64 3674.9 3691.98 3662.54 3702.21 3653.92L4085.33 3330.98C4101.65 3317.22 4125.73 3318.04 4141.08 3332.88Z" fill="url(#paint4_linear)"/>
<path d="M3071.6 3361.6C3061.23 3379.56 3065.03 3402.35 3080.65 3415.98L3503.41 3784.97C3540.26 3817.13 3596.61 3782.72 3584.82 3735.25L3564.41 3653.07C3561.42 3641.05 3554.08 3630.57 3543.81 3623.65L3133.43 3347.29C3112.57 3333.24 3084.17 3339.81 3071.6 3361.6Z" fill="url(#paint5_linear)"/>
<path d="M3067.36 3319.83C3078 3348.94 3052.93 3378.57 3022.46 3372.89L2778.73 3327.47C2748.56 3321.85 2735.7 3285.74 2755.52 3262.31L2914.13 3074.88C2933.95 3051.45 2971.69 3058.15 2982.23 3086.98L3067.36 3319.83Z" fill="url(#paint6_diamond)"/>
<path d="M4192.81 3337.28C4162.38 3343.13 4137.15 3313.64 4147.63 3284.47L4231.48 3051.16C4241.86 3022.27 4279.56 3015.36 4299.51 3038.68L4459.14 3225.25C4479.1 3248.57 4466.43 3284.74 4436.29 3290.53L4192.81 3337.28Z" fill="url(#paint7_diamond)"/>
<g filter="url(#filter0_i)">
<path d="M0.0242538 3560.32L1959.64 3131.45L1643.92 3428.04L1988.11 3274.12L2149.65 3944.81L1855.13 3943.63L2149.87 4000.63L190.247 4429.5L277.388 4360.74L189.172 4385.9L269.775 4235.52L163.192 4305.99L34.8116 3625.76L317.803 3561.59L0.0242538 3560.32Z" fill="#323031"/>
</g>
<path d="M1644.12 3428.49L1987.76 3274.83L2149.01 3944.31L1855.13 3943.13L1855.03 3944.12L2147.39 4000.66L192.262 4428.55L277.697 4361.13L277.251 4360.26L190.171 4385.09L270.216 4235.76L269.499 4235.1L163.544 4305.16L35.3923 3626.14L317.913 3562.08L317.805 3561.09L4.56454 3559.83L1957.98 3132.32L1643.58 3427.67L1644.12 3428.49Z" stroke="black"/>
<rect x="1082.84" y="4162.17" width="146.32" height="1157.03" transform="rotate(-12.1538 1082.84 4162.17)" fill="url(#paint8_linear)"/>
<g filter="url(#filter1_d)">
<path d="M793.047 3602.87L779.79 3605.77L769.677 3559.55L719.26 3570.57L729.373 3616.8L716.185 3619.69L694.306 3519.68L707.494 3516.79L716.901 3559.79L767.318 3548.76L757.911 3505.76L771.168 3502.86L793.047 3602.87ZM862.887 3539.15L819.545 3548.64L827.298 3584.08L877.647 3573.06L880.006 3583.85L816.469 3597.75L794.591 3497.74L857.44 3483.99L859.814 3494.84L810.153 3505.71L817.185 3537.85L860.528 3528.37L862.887 3539.15ZM924.251 3531.78L900.76 3536.91L909.61 3577.37L896.354 3580.27L874.475 3480.26L907.582 3473.02C918.847 3470.56 928.063 3471.23 935.23 3475.03C942.442 3478.83 947.12 3485.63 949.264 3495.43C950.626 3501.65 950.119 3507.45 947.742 3512.82C945.411 3518.17 941.497 3522.65 935.999 3526.25L968.777 3563.56L968.957 3564.39L954.807 3567.48L924.251 3531.78ZM898.401 3526.13L918.663 3521.7C925.212 3520.27 930.038 3517.43 933.144 3513.2C936.295 3508.96 937.249 3504 936.007 3498.33C934.655 3492.14 931.763 3487.81 927.333 3485.33C922.948 3482.83 917.271 3482.32 910.3 3483.8L890.106 3488.21L898.401 3526.13ZM1018 3553.66L996.121 3453.65L1028.82 3446.5C1039.67 3444.12 1048.31 3444.58 1054.74 3447.88C1061.22 3451.16 1065.42 3457.2 1067.34 3466C1068.36 3470.67 1067.94 3475.1 1066.08 3479.3C1064.2 3483.45 1061.19 3487.01 1057.04 3489.99C1062.78 3490.31 1067.67 3492.27 1071.71 3495.84C1075.79 3499.37 1078.48 3504.06 1079.76 3509.92C1081.72 3518.89 1080.36 3526.58 1075.66 3532.98C1070.97 3539.38 1063.31 3543.75 1052.69 3546.07L1018 3553.66ZM1020.96 3504L1028.83 3539.99L1050.6 3535.23C1056.74 3533.88 1061.22 3531.25 1064.06 3527.32C1066.93 3523.33 1067.75 3518.54 1066.53 3512.96C1063.9 3500.91 1056.03 3496.32 1042.94 3499.19L1020.96 3504ZM1018.64 3493.42L1038.56 3489.06C1044.33 3487.8 1048.62 3485.35 1051.42 3481.71C1054.27 3478.07 1055.15 3473.77 1054.07 3468.83C1052.87 3463.33 1050.39 3459.7 1046.65 3457.93C1042.89 3456.11 1037.74 3455.92 1031.19 3457.35L1011.68 3461.62L1018.64 3493.42ZM1172.34 3470.88C1174.49 3480.68 1174.71 3489.6 1173.02 3497.65C1171.31 3505.65 1167.86 3512.24 1162.66 3517.41C1157.45 3522.58 1150.82 3526.04 1142.76 3527.81C1134.89 3529.53 1127.48 3529.13 1120.55 3526.62C1113.61 3524.06 1107.66 3519.58 1102.71 3513.18C1097.8 3506.72 1094.26 3498.78 1092.11 3489.37L1090.53 3482.16C1088.42 3472.54 1088.24 3463.68 1089.97 3455.58C1091.7 3447.47 1095.18 3440.81 1100.42 3435.58C1105.69 3430.3 1112.27 3426.8 1120.15 3425.08C1128.16 3423.32 1135.64 3423.73 1142.58 3426.29C1149.56 3428.79 1155.5 3433.37 1160.41 3440.02C1165.31 3446.63 1168.83 3454.81 1170.96 3464.56L1172.34 3470.88ZM1157.81 3467.29C1155.22 3455.43 1150.85 3446.86 1144.7 3441.59C1138.55 3436.26 1131.19 3434.54 1122.63 3436.41C1114.29 3438.23 1108.42 3442.85 1105 3450.27C1101.62 3457.63 1101.09 3466.96 1103.42 3478.26L1105.03 3485.61C1107.54 3497.1 1111.93 3505.62 1118.18 3511.16C1124.46 3516.65 1131.84 3518.46 1140.31 3516.61C1148.83 3514.75 1154.75 3510.21 1158.07 3503.01C1161.38 3495.76 1161.83 3486.33 1159.43 3474.71L1157.81 3467.29ZM1230.19 3464.85L1206.7 3469.99L1215.55 3510.44L1202.29 3513.34L1180.41 3413.33L1213.52 3406.09C1224.78 3403.63 1234 3404.3 1241.17 3408.1C1248.38 3411.9 1253.06 3418.7 1255.2 3428.5C1256.56 3434.73 1256.06 3440.52 1253.68 3445.89C1251.35 3451.24 1247.43 3455.72 1241.94 3459.33L1274.71 3496.64L1274.89 3497.46L1260.74 3500.56L1230.19 3464.85ZM1204.34 3459.2L1224.6 3454.77C1231.15 3453.34 1235.98 3450.51 1239.08 3446.28C1242.23 3442.03 1243.19 3437.08 1241.94 3431.4C1240.59 3425.22 1237.7 3420.88 1233.27 3418.4C1228.88 3415.9 1223.21 3415.39 1216.24 3416.87L1196.04 3421.29L1204.34 3459.2Z" fill="#FDFFFC"/>
</g>
<g filter="url(#filter2_d)">
<path d="M361.369 3790.73L435.057 3914.64C437.584 3919 439.996 3923.29 442.294 3927.51C444.55 3931.53 447.003 3936.01 449.653 3940.93C450.086 3935.73 450.435 3931.03 450.699 3926.85C450.921 3922.47 451.311 3917.97 451.868 3913.32L468.782 3766.93L491.289 3762.01L465.444 3983.47L449.126 3987.04L333.516 3796.82L361.369 3790.73ZM609.956 3877.85L559.595 3888.87L542.786 3965.66L518.871 3970.89L562.749 3765.84L554.81 3748.41L680.853 3720.84L685.038 3739.97L610.481 3756.28L625.869 3826.61L691.704 3812.21L696.135 3832.47L630.3 3846.87L646.734 3921.99L721.291 3905.68L725.661 3925.66L625.22 3947.63L609.956 3877.85ZM564.166 3866.65L605.524 3857.6L585.767 3767.29L564.166 3866.65ZM711.223 3714.19L772.275 3700.84C785.217 3698 797.309 3697.13 808.551 3698.21C819.752 3699.1 829.257 3703.01 837.064 3709.95C845.059 3716.85 850.657 3727.61 853.858 3742.24C855.499 3749.75 855.297 3757.36 853.251 3765.08C851.206 3772.8 847.756 3779.94 842.903 3786.5C838.197 3792.84 832.526 3797.91 825.891 3801.72L904.582 3886.51L874.196 3893.16L801.176 3812.73L766.008 3820.43L786.135 3912.43L759.97 3918.15L719.224 3731.9L711.223 3714.19ZM745.574 3727.02L761.823 3801.29L784.331 3796.37C793.709 3794.32 801.923 3791.44 808.975 3787.74C816.172 3783.8 821.407 3778.53 824.677 3771.92C827.948 3765.31 828.454 3756.84 826.198 3746.53C824.433 3738.46 821.028 3732.33 815.981 3728.13C810.893 3723.74 804.874 3720.92 797.922 3719.69C790.97 3718.46 783.837 3718.65 776.522 3720.25L745.574 3727.02ZM956.867 3657.5C964.182 3655.9 972.15 3655.05 980.772 3654.93C989.541 3654.58 998.16 3655.35 1006.63 3657.23C1015.25 3658.88 1022.78 3661.86 1029.22 3666.15L1018.12 3686.85C1011.28 3683.43 1005 3680.78 999.28 3678.89C993.559 3676.99 987.721 3675.91 981.766 3675.64C975.999 3675.33 969.176 3676.04 961.298 3677.76C948.919 3680.47 938.928 3685.11 931.326 3691.69C923.912 3698.22 918.367 3706.12 914.692 3715.37C911.204 3724.59 909.35 3734.53 909.127 3745.19C908.904 3755.85 909.983 3766.62 912.363 3777.5C914.62 3787.82 917.981 3797.79 922.448 3807.43C926.873 3816.88 932.521 3825.17 939.391 3832.32C946.26 3839.46 954.355 3844.57 963.675 3847.64C972.994 3850.71 983.656 3850.94 995.66 3848.31C1005.6 3846.14 1013.66 3842.11 1019.85 3836.24C1026.18 3830.14 1030.49 3822.9 1032.79 3814.54C1035.23 3805.95 1035.41 3796.87 1033.32 3787.3L1029.25 3768.73L978.893 3779.75L978.084 3759.88L1051.51 3743.82L1064.38 3802.62C1066.06 3810.31 1068.05 3818.03 1070.33 3825.78C1072.81 3833.5 1075.07 3841.16 1077.13 3848.77L1063.06 3851.84L1049.38 3832.43C1043.06 3843.05 1035.54 3851.38 1026.84 3857.41C1018.28 3863.21 1007.91 3867.45 995.714 3870.11C980.896 3873.36 967.359 3873.47 955.103 3870.45C942.993 3867.2 932.234 3861.6 922.827 3853.63C913.378 3845.48 905.518 3835.6 899.246 3824C892.974 3812.4 888.34 3799.76 885.345 3786.06C880.954 3765.99 880.465 3747.14 883.876 3729.49C887.433 3711.61 895.199 3696.35 907.174 3683.71C919.108 3670.88 935.672 3662.14 956.867 3657.5ZM1096.19 3629.97L1125.98 3766.14C1129.47 3782.09 1136.2 3793.98 1146.17 3801.82C1156.14 3809.66 1169.57 3811.74 1186.45 3808.05C1203.89 3804.23 1215.87 3796.11 1222.39 3783.67C1229.1 3771.2 1230.62 3756.62 1226.97 3739.92L1198.04 3607.69L1219.71 3602.95L1248.63 3735.18C1253.84 3759.01 1251.27 3779.12 1240.91 3795.54C1230.69 3811.73 1213.58 3822.45 1189.57 3827.71C1166.12 3832.83 1146.5 3830.74 1130.71 3821.42C1114.91 3812.1 1104.43 3795.62 1099.26 3771.99L1073.53 3654.39L1065.25 3636.74L1096.19 3629.97ZM1447.62 3660.99C1451.93 3680.69 1452.39 3698.96 1449.01 3715.82C1445.76 3732.45 1438.26 3746.67 1426.5 3758.48C1414.73 3770.29 1398.26 3778.51 1377.06 3783.15L1310.38 3797.74L1269.64 3611.49C1269.6 3611.3 1268.89 3609.88 1267.53 3607.23C1266.35 3604.54 1265.15 3601.76 1263.93 3598.88C1262.71 3596 1261.95 3594.3 1261.63 3593.78L1314.25 3582.27C1337.13 3577.26 1357.58 3576.43 1375.61 3579.75C1393.59 3582.9 1408.74 3591.08 1421.07 3604.3C1433.36 3617.34 1442.21 3636.23 1447.62 3660.99ZM1420.21 3666.4C1413.73 3636.76 1401.78 3617.17 1384.36 3607.62C1367.08 3597.83 1344.47 3596 1316.52 3602.11L1295.99 3606.61L1332.3 3772.6L1369.44 3764.48C1386.51 3760.74 1399.19 3754.04 1407.49 3744.36C1415.98 3734.64 1421 3723.03 1422.57 3709.52C1424.32 3695.96 1423.53 3681.59 1420.21 3666.4ZM1455.54 3551.36L1578.49 3524.46L1582.74 3543.87L1489.9 3564.19L1505.34 3634.8L1577.37 3619.05L1581.55 3638.18L1509.53 3653.94L1526.21 3730.18L1619.05 3709.87L1623.3 3729.28L1504.29 3755.32L1463.55 3569.07L1455.54 3551.36ZM1642.31 3510.5L1761.88 3628.51C1764.14 3630.76 1766.54 3633.19 1769.07 3635.78C1771.56 3638.18 1774.03 3640.49 1776.48 3642.71C1775.59 3639.56 1774.71 3636.41 1773.82 3633.26C1772.9 3629.93 1772.11 3626.76 1771.45 3623.76L1741.91 3488.71L1763.29 3484.03L1808.4 3690.26L1791.8 3693.89L1652.47 3556.92C1650.43 3554.81 1648.19 3552.65 1645.74 3550.43C1643.44 3547.99 1641.08 3545.75 1638.67 3543.73C1640.5 3549.42 1642.12 3555.45 1643.51 3561.83L1677.55 3717.41L1656.17 3722.09L1615.42 3535.84L1607.42 3518.13L1642.31 3510.5Z" fill="#FDFFFC"/>
</g>
<g filter="url(#filter3_d)">
<path d="M772.316 3994.97L903.705 3966.23L907.828 3985.08L837.917 4174.9L947.923 4150.84L949.919 4170.74L810.934 4201.15L806.81 4182.3L876.722 3992.47L776.563 4014.39L772.316 3994.97ZM1007.6 3943.5L1123.31 4132.81L1094.33 4139.15L1055.31 4073.98L987.788 4088.75L979.26 4164.32L955.627 4169.49L982 3949.1L1007.6 3943.5ZM999.919 3981.15L990.073 4068.21L1044.65 4056.27L999.919 3981.15ZM1232.91 3944.03C1234.43 3950.97 1234.5 3958.03 1233.12 3965.21C1231.89 3972.16 1229.17 3978.56 1224.94 3984.4C1220.86 3990.01 1215.31 3994.27 1208.28 3997.18C1222.61 3996.21 1234.75 4000.04 1244.7 4008.67C1254.6 4017.12 1261.05 4028.19 1264.05 4041.88C1266.71 4054.07 1266.64 4064.5 1263.82 4073.18C1260.96 4081.67 1256.14 4088.81 1249.35 4094.62C1242.52 4100.24 1234.49 4104.85 1225.25 4108.44C1215.97 4111.85 1206.36 4114.64 1196.42 4116.82L1140.71 4129L1099.97 3942.75C1099.93 3942.56 1099.22 3941.14 1097.86 3938.5C1096.68 3935.8 1095.48 3933.02 1094.26 3930.14C1093.04 3927.26 1092.28 3925.57 1091.97 3925.04L1160.33 3910.09C1171.03 3907.75 1181.35 3906.87 1191.3 3907.44C1201.44 3907.97 1210.18 3911.07 1217.51 3916.74C1224.99 3922.18 1230.12 3931.28 1232.91 3944.03ZM1205.75 3950.57C1204.1 3943.06 1201.14 3937.62 1196.87 3934.23C1192.77 3930.8 1187.82 3928.84 1182.02 3928.34C1176.21 3927.84 1170.11 3928.29 1163.74 3929.68L1126.32 3937.87L1140.6 4003.14L1170.7 3996.56C1183.83 3993.68 1193.67 3988.78 1200.21 3981.85C1206.9 3974.68 1208.74 3964.26 1205.75 3950.57ZM1235.27 4043.75C1233.18 4034.19 1228.98 4027.14 1222.69 4022.62C1216.54 4017.88 1209.26 4015.15 1200.85 4014.43C1192.59 4013.49 1184.33 4013.92 1176.07 4015.72L1144.84 4022.56L1162.63 4103.86L1193.86 4097.03C1203.8 4094.86 1212.28 4091.82 1219.29 4087.93C1226.44 4083.81 1231.5 4078.18 1234.46 4071.05C1237.42 4063.92 1237.69 4054.82 1235.27 4043.75ZM1382.58 4079.33C1367.38 4082.66 1353.45 4082.76 1340.78 4079.63C1328.29 4076.47 1317.23 4070.83 1307.6 4062.72C1297.92 4054.42 1289.83 4044.39 1283.33 4032.65C1276.83 4020.9 1272.04 4008 1268.96 3993.93C1265.89 3979.86 1264.76 3966.15 1265.57 3952.81C1266.53 3939.23 1269.7 3926.75 1275.06 3915.35C1280.39 3903.77 1288.16 3893.92 1298.37 3885.79C1308.58 3877.66 1321.38 3871.91 1336.76 3868.54C1352.14 3865.18 1366.07 3865.08 1378.56 3868.24C1391.23 3871.37 1402.4 3877.08 1412.08 3885.38C1421.72 3893.49 1429.71 3903.53 1436.07 3915.51C1442.57 3927.26 1447.35 3940.16 1450.43 3954.23C1453.51 3968.3 1454.57 3982.12 1453.61 3995.69C1452.6 4009.08 1449.42 4021.47 1444.05 4032.87C1438.68 4044.26 1430.89 4054.02 1420.68 4062.15C1410.66 4070.24 1397.96 4075.97 1382.58 4079.33ZM1378.67 4060.14C1390.68 4057.51 1400.16 4052.79 1407.12 4045.96C1414.07 4039.13 1419.07 4030.96 1422.1 4021.45C1425.13 4011.95 1426.57 4001.9 1426.41 3991.32C1426.45 3980.7 1425.36 3970.33 1423.14 3960.2C1420.93 3950.07 1417.58 3940.19 1413.12 3930.55C1408.84 3920.88 1403.36 3912.44 1396.68 3905.26C1389.95 3897.88 1381.91 3892.57 1372.55 3889.31C1363.38 3886.01 1352.88 3885.65 1341.07 3888.24C1329.25 3890.82 1319.77 3895.55 1312.62 3902.42C1305.67 3909.25 1300.67 3917.42 1297.64 3926.92C1294.8 3936.39 1293.36 3946.43 1293.33 3957.05C1293.48 3967.63 1294.66 3977.99 1296.88 3988.12C1299.09 3998.24 1302.34 4008.15 1306.62 4017.82C1311.05 4027.27 1316.53 4035.7 1323.06 4043.12C1329.79 4050.49 1337.73 4055.83 1346.91 4059.13C1356.27 4062.39 1366.86 4062.73 1378.67 4060.14Z" fill="#FDFFFC"/>
</g>
<g filter="url(#filter4_b)">
<path d="M4694.47 4211.46C4694.47 4261.92 4659.26 4283.55 4628.55 4317.79C4594.79 4355.42 4508.38 4349.71 4454.92 4349.71C4395.97 4349.71 4320.77 4362.36 4286.92 4317.79C4262.14 4285.16 4229.04 4229.67 4229.04 4184.91C4229.04 4166.62 4260.63 4134.76 4271.69 4119.06C4292.37 4089.69 4291.16 4051.56 4312.62 4029C4327.71 4013.13 4374.81 4012.41 4393.06 3995.26C4415.35 3974.33 4426.61 3963.26 4454.92 3963.26C4483.11 3963.26 4512.35 3998.17 4538.49 4019.31C4561.93 4038.27 4612.59 4059.41 4628.55 4077.19C4643.58 4093.94 4657.16 4125.65 4668.69 4142.34C4680.74 4159.76 4694.47 4185.69 4694.47 4211.46Z" fill="url(#paint9_radial)"/>
<rect width="110.329" height="24.7216" rx="12.3608" transform="matrix(0.679228 -0.733927 0.798671 0.601768 4369.59 4172.6)" fill="#6C4C39"/>
<rect width="105.574" height="25.707" rx="12.8535" transform="matrix(0.192829 -0.981232 0.984348 0.176236 4427.05 4192.94)" fill="#6C4C39"/>
<rect width="107.878" height="25.2397" rx="12.6198" transform="matrix(-0.485122 -0.874447 0.911353 -0.411626 4495.16 4197.22)" fill="#6C4C39"/>
<rect width="112.489" height="24.2458" rx="12.1229" transform="matrix(-0.805274 -0.592903 0.67075 -0.741683 4546.82 4177.18)" fill="#6C4C39"/>
<path d="M4560.13 4068.15C4560.13 4117.37 4523.22 4139.46 4463.16 4139.46C4403.09 4139.46 4362.77 4106.96 4362.77 4057.75C4362.77 4045.57 4359.96 4031.53 4362.77 4015.98C4369.11 4048.44 4401.31 4040.48 4403.73 4045.05C4403.73 4035.31 4416.1 3992.11 4422.03 3967.81C4427 3994.5 4462.21 4028.59 4465.72 4035.65C4470.26 4023.79 4499.24 4015.98 4508.75 3969.4C4513.66 3945.39 4520.25 4045.05 4520.25 4054.17C4538.54 4034.82 4550.99 4036.7 4563.54 4015.98C4567.09 4031.88 4560.13 4055.97 4560.13 4068.15Z" fill="#F3722C"/>
<path d="M4520.94 4088.97C4520.94 4114.49 4498.93 4125.94 4463.11 4125.94C4427.29 4125.94 4403.24 4109.09 4403.24 4083.57C4403.24 4077.26 4401.56 4069.98 4403.24 4061.92C4407.02 4078.75 4426.23 4074.62 4427.67 4076.99C4427.67 4071.94 4435.04 4049.54 4438.58 4036.94C4441.55 4050.78 4462.54 4068.45 4464.64 4072.12C4467.34 4065.97 4484.63 4061.92 4490.3 4037.77C4493.23 4025.32 4497.15 4076.99 4497.15 4081.72C4508.07 4071.68 4515.49 4072.66 4522.98 4061.92C4525.09 4070.16 4520.94 4082.65 4520.94 4088.97Z" fill="#F9C74F"/>
<path d="M4422.24 3839.53L4419.2 3855.22C4417.89 3862 4418.96 3869.03 4422.22 3875.12L4426.48 3883.04C4431.01 3891.48 4431.24 3901.57 4427.1 3910.2L4425.37 3913.8C4422.5 3919.79 4421.7 3926.57 4423.09 3933.07L4424.7 3940.58" stroke="#B0AFAF" stroke-width="10"/>
<path d="M4461.38 3817.65L4458.34 3833.34C4457.03 3840.12 4458.09 3847.15 4461.36 3853.23L4465.61 3861.16C4470.14 3869.6 4470.37 3879.69 4466.23 3888.32L4464.51 3891.92C4461.63 3897.91 4460.83 3904.69 4462.23 3911.19L4463.84 3918.7" stroke="#B0AFAF" stroke-width="10"/>
<path d="M4499.48 3848.54L4496.43 3863.65C4495.01 3870.68 4496.15 3877.99 4499.66 3884.25L4503.57 3891.24C4508.44 3899.92 4508.68 3910.44 4504.23 3919.33L4502.91 3921.96C4499.82 3928.15 4498.95 3935.21 4500.47 3941.95L4502.03 3948.95" stroke="#B0AFAF" stroke-width="10"/>
</g>
<defs>
<filter id="filter0_i" x="0" y="3128.94" width="2161.32" height="1304.56" filterUnits="userSpaceOnUse" color-interpolation-filters="sRGB">
<feFlood flood-opacity="0" result="BackgroundImageFix"/>
<feBlend mode="normal" in="SourceGraphic" in2="BackgroundImageFix" result="shape"/>
<feColorMatrix in="SourceAlpha" type="matrix" values="0 0 0 0 0 0 0 0 0 0 0 0 0 0 0 0 0 0 127 0" result="hardAlpha"/>
<feOffset dy="4"/>
<feGaussianBlur stdDeviation="2"/>
<feComposite in2="hardAlpha" operator="arithmetic" k2="-1" k3="1"/>
<feColorMatrix type="matrix" values="0 0 0 0 0 0 0 0 0 0 0 0 0 0 0 0 0 0 0.25 0"/>
<feBlend mode="normal" in2="shape" result="effect1_innerShadow"/>
</filter>
<filter id="filter1_d" x="690.306" y="3404.64" width="588.587" height="223.049" filterUnits="userSpaceOnUse" color-interpolation-filters="sRGB">
<feFlood flood-opacity="0" result="BackgroundImageFix"/>
<feColorMatrix in="SourceAlpha" type="matrix" values="0 0 0 0 0 0 0 0 0 0 0 0 0 0 0 0 0 0 127 0"/>
<feOffset dy="4"/>
<feGaussianBlur stdDeviation="2"/>
<feColorMatrix type="matrix" values="0 0 0 0 0 0 0 0 0 0 0 0 0 0 0 0 0 0 0.25 0"/>
<feBlend mode="normal" in2="BackgroundImageFix" result="effect1_dropShadow"/>
<feBlend mode="normal" in="SourceGraphic" in2="effect1_dropShadow" result="shape"/>
</filter>
<filter id="filter2_d" x="329.516" y="3484.03" width="1482.89" height="511.002" filterUnits="userSpaceOnUse" color-interpolation-filters="sRGB">
<feFlood flood-opacity="0" result="BackgroundImageFix"/>
<feColorMatrix in="SourceAlpha" type="matrix" values="0 0 0 0 0 0 0 0 0 0 0 0 0 0 0 0 0 0 127 0"/>
<feOffset dy="4"/>
<feGaussianBlur stdDeviation="2"/>
<feColorMatrix type="matrix" values="0 0 0 0 0 0 0 0 0 0 0 0 0 0 0 0 0 0 0.25 0"/>
<feBlend mode="normal" in2="BackgroundImageFix" result="effect1_dropShadow"/>
<feBlend mode="normal" in="SourceGraphic" in2="effect1_dropShadow" result="shape"/>
</filter>
<filter id="filter3_d" x="768.316" y="3865.94" width="689.634" height="343.204" filterUnits="userSpaceOnUse" color-interpolation-filters="sRGB">
<feFlood flood-opacity="0" result="BackgroundImageFix"/>
<feColorMatrix in="SourceAlpha" type="matrix" values="0 0 0 0 0 0 0 0 0 0 0 0 0 0 0 0 0 0 127 0"/>
<feOffset dy="4"/>
<feGaussianBlur stdDeviation="2"/>
<feColorMatrix type="matrix" values="0 0 0 0 0 0 0 0 0 0 0 0 0 0 0 0 0 0 0.25 0"/>
<feBlend mode="normal" in2="BackgroundImageFix" result="effect1_dropShadow"/>
<feBlend mode="normal" in="SourceGraphic" in2="effect1_dropShadow" result="shape"/>
</filter>
<filter id="filter4_b" x="4225.04" y="3812.7" width="473.425" height="542.671" filterUnits="userSpaceOnUse" color-interpolation-filters="sRGB">
<feFlood flood-opacity="0" result="BackgroundImageFix"/>
<feGaussianBlur in="BackgroundImage" stdDeviation="2"/>
<feComposite in2="SourceAlpha" operator="in" result="effect1_backgroundBlur"/>
<feBlend mode="normal" in="SourceGraphic" in2="effect1_backgroundBlur" result="shape"/>
</filter>
<radialGradient id="paint0_diamond" cx="0" cy="0" r="1" gradientUnits="userSpaceOnUse" gradientTransform="translate(3256.87 5201.16) rotate(79.0853) scale(1800.92 3974.61)">
<stop stop-color="#C4C4C4"/>
<stop offset="0.552395" stop-color="#C4C4C4" stop-opacity="0"/>
</radialGradient>
<radialGradient id="paint1_radial" cx="0" cy="0" r="1" gradientUnits="userSpaceOnUse" gradientTransform="translate(3789.37 -1179.64) rotate(89.2193) scale(10349.3 9246.81)">
<stop stop-color="#323031"/>
<stop offset="1" stop-color="#4D908E"/>
</radialGradient>
<radialGradient id="paint2_radial" cx="0" cy="0" r="1" gradientUnits="userSpaceOnUse" gradientTransform="translate(3789.87 3688.66) rotate(88.4397) scale(3442.91 3874.33)">
<stop/>
<stop offset="1" stop-opacity="0"/>
</radialGradient>
<linearGradient id="paint3_linear" x1="3627.29" y1="3422.91" x2="3627.29" y2="4515.77" gradientUnits="userSpaceOnUse">
<stop stop-color="#958E91"/>
<stop offset="1" stop-color="#454141" stop-opacity="0"/>
</linearGradient>
<linearGradient id="paint4_linear" x1="4020" y1="3497.95" x2="3791.22" y2="3740.73" gradientUnits="userSpaceOnUse">
<stop stop-color="#958E91"/>
<stop offset="1" stop-color="#454141" stop-opacity="0"/>
</linearGradient>
<linearGradient id="paint5_linear" x1="3047.32" y1="3368.78" x2="3598.24" y2="3723.61" gradientUnits="userSpaceOnUse">
<stop offset="0.106789" stop-color="#958E91"/>
<stop offset="1" stop-color="#454141" stop-opacity="0"/>
</linearGradient>
<radialGradient id="paint6_diamond" cx="0" cy="0" r="1" gradientUnits="userSpaceOnUse" gradientTransform="translate(3049.39 3442.96) rotate(-127.577) scale(420.23 403.625)">
<stop stop-color="#958E91"/>
<stop stop-color="#C4C4C4" stop-opacity="0.407498"/>
<stop offset="1" stop-color="#C4C4C4" stop-opacity="0"/>
</radialGradient>
<radialGradient id="paint7_diamond" cx="0" cy="0" r="1" gradientUnits="userSpaceOnUse" gradientTransform="translate(4074.15 3299.84) rotate(-24.1906) scale(388.776 373.414)">
<stop stop-color="#958E91"/>
<stop stop-color="#C4C4C4" stop-opacity="0.407498"/>
<stop offset="1" stop-color="#C4C4C4" stop-opacity="0"/>
</radialGradient>
<linearGradient id="paint8_linear" x1="1087.72" y1="4640.75" x2="1033.95" y2="5308.4" gradientUnits="userSpaceOnUse">
<stop stop-color="#323031"/>
<stop offset="1" stop-color="#E0E0E0"/>
</linearGradient>
<radialGradient id="paint9_radial" cx="0" cy="0" r="1" gradientUnits="userSpaceOnUse" gradientTransform="translate(4461.76 4157.31) rotate(90) scale(253.769 304.188)">
<stop stop-color="#EBC84D"/>
<stop offset="0.390625" stop-color="#776527" stop-opacity="0.505208"/>
<stop offset="0.739583" stop-opacity="0"/>
</radialGradient>
</defs>
</svg>
